<svg id="Layer_1" data-name="Layer 1" xmlns="http://www.w3.org/2000/svg" viewBox="0 0 190 40"><defs><style>.cls-1{fill:#c4c4c4;}.cls-2{fill:#808181;}</style></defs><title>bc-booking</title><path class="cls-1" d="M187.19,1.08A1.82,1.82,0,0,1,189,2.86V36.13h0l0,1s0,.06,0,.09A1.81,1.81,0,0,1,187.19,39H2.81A1.81,1.81,0,0,1,1,37.24v-.09l0-1H1V2.86A1.82,1.82,0,0,1,2.81,1.08H187.19m0-1H2.81A2.82,2.82,0,0,0,0,2.84H0V37.13H0s0,0,0,.06A2.82,2.82,0,0,0,2.81,40H187.19A2.82,2.82,0,0,0,190,37.19s0,0,0-.06h0V2.84h0A2.82,2.82,0,0,0,187.19.08Z"/><path class="cls-2" d="M47.92,15.66h.59l.63,0a4.81,4.81,0,0,1,.58.09,1.47,1.47,0,0,1,.46.18,2.23,2.23,0,0,1,.71.7,1.93,1.93,0,0,1,.29,1.09,2.09,2.09,0,0,1-.33,1.18,2,2,0,0,1-.94.74v0a2,2,0,0,1,1.21.72,2.15,2.15,0,0,1,.42,1.34,2.56,2.56,0,0,1-.17.91,2.29,2.29,0,0,1-.5.79,2.5,2.5,0,0,1-.82.55,2.81,2.81,0,0,1-1.12.21H44.82V15.66Zm.31,3.68a2.25,2.25,0,0,0,1.4-.34,1.24,1.24,0,0,0,.43-1,1.52,1.52,0,0,0-.14-.72,1,1,0,0,0-.4-.41,1.55,1.55,0,0,0-.58-.19,5.6,5.6,0,0,0-.7,0H46v2.72Zm.58,3.92A1.64,1.64,0,0,0,50,22.86a1.49,1.49,0,0,0,.43-1.13,1.4,1.4,0,0,0-.16-.7,1.21,1.21,0,0,0-.41-.44,1.74,1.74,0,0,0-.59-.23,3.61,3.61,0,0,0-.7-.07H46v3Z"/><path class="cls-2" d="M52.81,18.26a4.25,4.25,0,0,1,.77-1.43,3.78,3.78,0,0,1,1.28-1,4.48,4.48,0,0,1,3.58,0,3.78,3.78,0,0,1,1.28,1,4.24,4.24,0,0,1,.77,1.43,5.63,5.63,0,0,1,0,3.37,4.24,4.24,0,0,1-.77,1.43,3.71,3.71,0,0,1-1.28,1,4.55,4.55,0,0,1-3.58,0,3.72,3.72,0,0,1-1.28-1,4.25,4.25,0,0,1-.77-1.43,5.64,5.64,0,0,1,0-3.37Zm1.05,3a3.46,3.46,0,0,0,.53,1.13,2.7,2.7,0,0,0,.92.81,3.1,3.1,0,0,0,2.69,0,2.7,2.7,0,0,0,.92-.81,3.48,3.48,0,0,0,.53-1.13,4.95,4.95,0,0,0,0-2.56,3.48,3.48,0,0,0-.53-1.13,2.7,2.7,0,0,0-.92-.81,3.1,3.1,0,0,0-2.69,0,2.7,2.7,0,0,0-.92.81,3.46,3.46,0,0,0-.53,1.13,4.95,4.95,0,0,0,0,2.56Z"/><path class="cls-2" d="M61.93,18.26a4.25,4.25,0,0,1,.77-1.43,3.78,3.78,0,0,1,1.28-1,4.48,4.48,0,0,1,3.58,0,3.78,3.78,0,0,1,1.28,1,4.24,4.24,0,0,1,.77,1.43,5.63,5.63,0,0,1,0,3.37,4.24,4.24,0,0,1-.77,1.43,3.71,3.71,0,0,1-1.28,1,4.55,4.55,0,0,1-3.58,0,3.72,3.72,0,0,1-1.28-1,4.25,4.25,0,0,1-.77-1.43,5.64,5.64,0,0,1,0-3.37Zm1.05,3a3.46,3.46,0,0,0,.53,1.13,2.7,2.7,0,0,0,.92.81,3.1,3.1,0,0,0,2.69,0,2.7,2.7,0,0,0,.92-.81,3.48,3.48,0,0,0,.53-1.13,4.95,4.95,0,0,0,0-2.56A3.48,3.48,0,0,0,68,17.53a2.7,2.7,0,0,0-.92-.81,3.1,3.1,0,0,0-2.69,0,2.7,2.7,0,0,0-.92.81A3.46,3.46,0,0,0,63,18.67a4.95,4.95,0,0,0,0,2.56Z"/><path class="cls-2" d="M72.42,15.66v4.27l4.34-4.27h1.48l-3.61,3.46,3.76,5.11H76.94l-3.1-4.33-1.43,1.33v3H71.28V15.66Z"/><path class="cls-2" d="M80.47,15.66v8.57H79.33V15.66Z"/><path class="cls-2" d="M83.59,15.66l4.51,6.95h0V15.66H89.2v8.57H88l-4.48-6.88h0v6.88H82.38V15.66Z"/><path class="cls-2" d="M96.21,24.13a4.06,4.06,0,0,1-1.5.29A4,4,0,0,1,93,24.07a3.87,3.87,0,0,1-1.28-1,4.17,4.17,0,0,1-.8-1.38,4.82,4.82,0,0,1-.28-1.62,6.08,6.08,0,0,1,.26-1.78,4.38,4.38,0,0,1,.77-1.48,3.73,3.73,0,0,1,1.27-1,4,4,0,0,1,1.78-.38,5.17,5.17,0,0,1,1.31.16,3.33,3.33,0,0,1,1.1.51,3,3,0,0,1,.82.88,3.47,3.47,0,0,1,.45,1.29H97.26a2.25,2.25,0,0,0-.31-.85,2,2,0,0,0-.56-.58,2.51,2.51,0,0,0-.76-.34,3.51,3.51,0,0,0-.91-.11,2.61,2.61,0,0,0-2.25,1.13,3.58,3.58,0,0,0-.52,1.16,5.35,5.35,0,0,0-.17,1.34A4.31,4.31,0,0,0,92,21.34a3.36,3.36,0,0,0,.56,1.09,2.76,2.76,0,0,0,.92.76,2.72,2.72,0,0,0,1.27.28,3.06,3.06,0,0,0,1.19-.22,2.45,2.45,0,0,0,1.4-1.48,2.92,2.92,0,0,0,.16-1.1H94.72v-1h3.76v4.51h-.72l-.3-1.07A2.85,2.85,0,0,1,96.21,24.13Z"/><path class="cls-2" d="M103.27,18.26a4.25,4.25,0,0,1,.77-1.43,3.78,3.78,0,0,1,1.28-1,4.48,4.48,0,0,1,3.58,0,3.78,3.78,0,0,1,1.28,1,4.29,4.29,0,0,1,.78,1.43,5.64,5.64,0,0,1,0,3.37,4.29,4.29,0,0,1-.78,1.43,3.71,3.71,0,0,1-1.28,1,4.55,4.55,0,0,1-3.58,0,3.72,3.72,0,0,1-1.28-1,4.25,4.25,0,0,1-.77-1.43,5.64,5.64,0,0,1,0-3.37Zm1.05,3a3.46,3.46,0,0,0,.53,1.13,2.71,2.71,0,0,0,.92.81,3.11,3.11,0,0,0,2.69,0,2.71,2.71,0,0,0,.92-.81,3.45,3.45,0,0,0,.53-1.13,4.95,4.95,0,0,0,0-2.56,3.45,3.45,0,0,0-.53-1.13,2.71,2.71,0,0,0-.92-.81,3.11,3.11,0,0,0-2.69,0,2.7,2.7,0,0,0-.92.81,3.46,3.46,0,0,0-.53,1.13,4.95,4.95,0,0,0,0,2.56Z"/><path class="cls-2" d="M113.82,15.66l4.51,6.95h0V15.66h1.08v8.57h-1.25l-4.48-6.88h0v6.88H112.6V15.66Z"/><path class="cls-2" d="M122.42,15.66v7.61H127v1h-5.68V15.66Z"/><path class="cls-2" d="M129.14,15.66v8.57H128V15.66Z"/><path class="cls-2" d="M132.26,15.66l4.51,6.95h0V15.66h1.08v8.57h-1.25l-4.48-6.88h0v6.88H131V15.66Z"/><path class="cls-2" d="M145.64,15.66v1h-4.78v2.72h4.45v1h-4.45v3h4.81v1h-6V15.66Z"/></svg>