<svg id="Layer_1" data-name="Layer 1" xmlns="http://www.w3.org/2000/svg" xmlns:xlink="http://www.w3.org/1999/xlink" viewBox="0 0 190 80"><defs><style>.cls-1{fill:none;}.cls-2{fill:#9d9d9f;}.cls-3{fill:#e94b42;}.cls-4{clip-path:url(#clip-path);}.cls-5{fill:#1d1d1b;}.cls-6{fill:#fff;}</style><clipPath id="clip-path"><rect class="cls-1" width="190" height="80"/></clipPath></defs><title>bc-logo</title><rect class="cls-2" y="40" width="190" height="40"/><rect class="cls-3" width="190" height="40"/><g class="cls-4"><path class="cls-5" d="M165.8,19c-.08-.18-.17-.36-.28-.55s-.22-.37-.33-.54l-.33-.46a2.2,2.2,0,0,0-.28-.32,1.55,1.55,0,0,0-.67-.39,4.15,4.15,0,0,0-.92-.11h-1.87c0,.24,0,.58,0,1s0,.86,0,1.32v5.75q0,.43,0,.82a1.07,1.07,0,0,0,.14.55,1.1,1.1,0,0,0,.63.44,7.14,7.14,0,0,0,.73.18v.15h-4.76v-.15a4.45,4.45,0,0,0,.74-.15,1.52,1.52,0,0,0,.69-.49.49.49,0,0,0,.11-.24,3.49,3.49,0,0,0,.06-.38c0-.14,0-.3,0-.46s0-.33,0-.49,0-.32,0-.54,0-.47,0-.75,0-.56,0-.85V16.65h-1.87a3.32,3.32,0,0,0-.92.13,1.76,1.76,0,0,0-.67.41,2.06,2.06,0,0,0-.27.31l-.32.45a6,6,0,0,0-.32.52,3.27,3.27,0,0,0-.24.54l-.13,0,.44-2.81.63.12a7.26,7.26,0,0,0,.83.06l1,0H164a4.75,4.75,0,0,0,.8-.08l.65-.16.47,2.87ZM152,19.69a5.71,5.71,0,0,0-.69-1.65,3.93,3.93,0,0,0-1.16-1.21,2.87,2.87,0,0,0-1.63-.46,2.94,2.94,0,0,0-1.66.46A3.78,3.78,0,0,0,145.7,18,5.52,5.52,0,0,0,145,19.7a8.46,8.46,0,0,0-.21,1.89,7.78,7.78,0,0,0,.24,1.92,5.34,5.34,0,0,0,.7,1.63,3.65,3.65,0,0,0,1.16,1.13,3.07,3.07,0,0,0,1.63.43,2.78,2.78,0,0,0,1.61-.47A4,4,0,0,0,151.3,25a5.83,5.83,0,0,0,.68-1.67,7.68,7.68,0,0,0,.23-1.85,7.38,7.38,0,0,0-.23-1.81m1.61,4a5.48,5.48,0,0,1-1.2,1.74,5.3,5.3,0,0,1-1.77,1.13,6,6,0,0,1-4.26,0,5.31,5.31,0,0,1-1.75-1.1,5.19,5.19,0,0,1-1.19-1.71,5.39,5.39,0,0,1-.43-2.19,5.46,5.46,0,0,1,.46-2.27,5.11,5.11,0,0,1,1.23-1.71,5.4,5.4,0,0,1,1.81-1.07,6.4,6.4,0,0,1,2.19-.37,5.47,5.47,0,0,1,2.25.44,5.09,5.09,0,0,1,1.69,1.18,5.21,5.21,0,0,1,1.06,1.71,5.7,5.7,0,0,1,.37,2,5.34,5.34,0,0,1-.44,2.18m-14.65-6a2.54,2.54,0,0,0-1.07-.91,3.22,3.22,0,0,0-.74-.24,4.37,4.37,0,0,0-.81-.07h-.5l-.29,0,0,.15a1.4,1.4,0,0,0,0,.17c0,.07,0,.16,0,.29l0,.52q0,.51,0,1.16t0,1.25v1.62q.6,0,1.12-.05a4.57,4.57,0,0,0,1-.21,2.69,2.69,0,0,0,.81-.4,2.3,2.3,0,0,0,.55-.57,2.34,2.34,0,0,0,.32-.68,2.84,2.84,0,0,0,.1-.76,2.38,2.38,0,0,0-.37-1.31m1.47,9.16-.19-.2-.13-.15a2.46,2.46,0,0,1-.18-.26l-.35-.51-.49-.74-.43-.65q-.22-.32-.48-.66t-.61-.74a6.08,6.08,0,0,0-.64-.63,1.59,1.59,0,0,0-.73-.37,2.27,2.27,0,0,0-.43-.06h-.34v1.66c0,.47,0,.87,0,1.19s0,.58,0,.81a1.07,1.07,0,0,0,.16.56,1.28,1.28,0,0,0,.46.39,2.07,2.07,0,0,0,.94.23v.15h-4.69v-.15a4.15,4.15,0,0,0,.7-.18,1.15,1.15,0,0,0,.53-.35.68.68,0,0,0,.12-.26,2.88,2.88,0,0,0,.07-.4c0-.15,0-.3,0-.47s0-.33,0-.49,0-.32,0-.56,0-.49,0-.77,0-.57,0-.86V18.65c0-.18,0-.36,0-.54s0-.35,0-.51a2.81,2.81,0,0,0-.07-.44.62.62,0,0,0-.14-.29,1.11,1.11,0,0,0-.49-.32,4.87,4.87,0,0,0-.67-.14v-.15h4q1,0,1.75.06a3.49,3.49,0,0,1,1.39.4,2.83,2.83,0,0,1,1,.92,2.55,2.55,0,0,1,.4,1.46,2.33,2.33,0,0,1-.2,1,2.61,2.61,0,0,1-.53.76,3.28,3.28,0,0,1-.77.57,5.9,5.9,0,0,1-.93.4v0a1.9,1.9,0,0,1,.49.38,5.36,5.36,0,0,1,.46.56l.83,1.21.8,1.15a4.49,4.49,0,0,0,1.06,1.12,2.85,2.85,0,0,0,1.21.46v.15ZM127,17.69a2.53,2.53,0,0,0-1.07-.91,3.21,3.21,0,0,0-.74-.24,4.37,4.37,0,0,0-.81-.07h-.5l-.29,0,0,.15a1.23,1.23,0,0,0,0,.17c0,.07,0,.16,0,.29l0,.52q0,.51,0,1.16t0,1.25v1.62c.4,0,.78,0,1.12-.05a4.56,4.56,0,0,0,1-.21,2.7,2.7,0,0,0,.81-.4,2.28,2.28,0,0,0,.55-.57,2.34,2.34,0,0,0,.32-.68,2.8,2.8,0,0,0,.1-.76,2.37,2.37,0,0,0-.37-1.31m1.47,9.16-.19-.2-.13-.15a2.79,2.79,0,0,1-.18-.26l-.35-.51-.49-.74-.43-.65q-.22-.32-.48-.66t-.61-.74a6.09,6.09,0,0,0-.64-.63,1.59,1.59,0,0,0-.73-.37,2.26,2.26,0,0,0-.43-.06h-.34v1.66q0,.71,0,1.19c0,.31,0,.58,0,.81a1.07,1.07,0,0,0,.16.56,1.28,1.28,0,0,0,.46.39,2.07,2.07,0,0,0,.94.23v.15h-4.7v-.15a4.13,4.13,0,0,0,.71-.18,1.15,1.15,0,0,0,.53-.35.66.66,0,0,0,.12-.26,2.61,2.61,0,0,0,.07-.4c0-.15,0-.3,0-.47s0-.33,0-.49,0-.32,0-.56,0-.49,0-.77,0-.57,0-.86V18.65c0-.18,0-.36,0-.54s0-.35,0-.51a2.82,2.82,0,0,0-.07-.44.62.62,0,0,0-.14-.29,1.1,1.1,0,0,0-.49-.32,4.92,4.92,0,0,0-.67-.14v-.15h4q1,0,1.75.06a3.48,3.48,0,0,1,1.39.4,2.84,2.84,0,0,1,1,.92,2.55,2.55,0,0,1,.4,1.46,2.33,2.33,0,0,1-.2,1,2.62,2.62,0,0,1-.53.76,3.24,3.24,0,0,1-.77.57,5.86,5.86,0,0,1-.93.4v0a1.9,1.9,0,0,1,.49.38,5.35,5.35,0,0,1,.46.56l.83,1.21.8,1.15a4.49,4.49,0,0,0,1.06,1.12,2.85,2.85,0,0,0,1.21.46v.15Zm-14.85-8.08.44,1.12.5,1.27.51,1.32H111.4l.65-1.61q.3-.74.55-1.33l.42-1,.26-.6.33.83m5.89,8.08v-.18a1.51,1.51,0,0,1-.59-.13,1.65,1.65,0,0,1-.42-.27,1.83,1.83,0,0,1-.27-.3l-.13-.21-.32-.68c-.09-.2-.19-.45-.3-.76l-.71-1.87-.73-2-.79-2.11-.87-2.32h-.12l-.17.26a2.9,2.9,0,0,1-.27.34,2.82,2.82,0,0,1-.37.34,2.42,2.42,0,0,1-.48.28l.15.32-.75,1.77q-.4.95-.8,1.88l-.79,1.82-.69,1.57a10.71,10.71,0,0,1-.57,1.13,3.19,3.19,0,0,1-.34.49,1.44,1.44,0,0,1-.32.22,1.62,1.62,0,0,1-.65.21v.16h3.13v-.15l-.4-.07a1.71,1.71,0,0,1-.4-.12.91.91,0,0,1-.3-.21.44.44,0,0,1-.12-.32,3.71,3.71,0,0,1,.31-1.12l.41-1,.43-1.06h3.91q.22.57.41,1.1t.34,1q.15.43.23.74a1.91,1.91,0,0,1,.08.43.44.44,0,0,1-.14.34,1,1,0,0,1-.32.21,1.8,1.8,0,0,1-.35.1l-.21,0v.15ZM106.82,16.6a7.1,7.1,0,0,0-.82-1.89,6.7,6.7,0,0,0-1.29-1.53,5.9,5.9,0,0,0-1.68-1,5.24,5.24,0,0,0-2-.38,5.09,5.09,0,0,0-2.58.65,6,6,0,0,0-1.9,1.72,8.22,8.22,0,0,0-1.18,2.42A9.57,9.57,0,0,0,95,19.36a9.11,9.11,0,0,0,.43,2.83,7,7,0,0,0,1.23,2.3A5.84,5.84,0,0,0,98.57,26a5.56,5.56,0,0,0,2.52.57,5.26,5.26,0,0,0,2-.4,6.19,6.19,0,0,0,1.7-1,6.35,6.35,0,0,0,1.26-1.5,5.59,5.59,0,0,0,.7-1.75h.25L107,26.52h-.25a6.26,6.26,0,0,0-.53-.65q-.27-.29-.38-.29a1.84,1.84,0,0,0-.38.22,6.2,6.2,0,0,1-1,.48,9.09,9.09,0,0,1-1.53.46,9.7,9.7,0,0,1-2.08.2,10.51,10.51,0,0,1-3.53-.56,7.62,7.62,0,0,1-2.68-1.57A6.85,6.85,0,0,1,93,22.37a8.18,8.18,0,0,1-.53-4,7.68,7.68,0,0,1,.19-1A8.78,8.78,0,0,1,93,16.22,7.9,7.9,0,0,1,93.64,15a7.53,7.53,0,0,1,1.09-1.37,7,7,0,0,1,1.53-1.14,8.53,8.53,0,0,1,2-.79,9.79,9.79,0,0,1,2.5-.29,9.35,9.35,0,0,1,2.21.23,10,10,0,0,1,1.57.5,5.92,5.92,0,0,1,1,.5,1.85,1.85,0,0,0,.38.23.36.36,0,0,0,.16-.1l.25-.23a4,4,0,0,0,.28-.32,4.36,4.36,0,0,0,.27-.37h.23v4.7ZM80.43,24.16l-.37-.51-.41-.51-.49-.59-.37-.41-.45-.44-.45-.41L77.54,21a5.87,5.87,0,0,0-.53.49,4.44,4.44,0,0,0-.5.63,3.45,3.45,0,0,0-.37.76,2.63,2.63,0,0,0-.14.86,2.44,2.44,0,0,0,.15.85,2.11,2.11,0,0,0,.44.71,2,2,0,0,0,.67.48,2.07,2.07,0,0,0,.86.17,4.07,4.07,0,0,0,.82-.08,3,3,0,0,0,.67-.22,3.08,3.08,0,0,0,.59-.36c.19-.14.39-.31.6-.5-.13-.23-.25-.43-.37-.61m-1.06-6.76a2.08,2.08,0,0,0-.28-.6,1.55,1.55,0,0,0-.43-.43,1,1,0,0,0-.56-.17.87.87,0,0,0-.47.12,1,1,0,0,0-.31.3,1.38,1.38,0,0,0-.18.39,1.43,1.43,0,0,0-.06.39,2.47,2.47,0,0,0,.09.75,2.26,2.26,0,0,0,.31.58,3.68,3.68,0,0,0,.55.62l.7.62a2.61,2.61,0,0,0,.56-.84,2.9,2.9,0,0,0,.17-1.06,2.45,2.45,0,0,0-.1-.68m6.07,2.7a6.59,6.59,0,0,0-1.19,1,14.86,14.86,0,0,0-1.1,1.27q-.54.7-1.14,1.39l.48.62a9,9,0,0,0,.68.77,4.41,4.41,0,0,0,.79.66,1.79,1.79,0,0,0,1,.26,1.33,1.33,0,0,0,.56-.12,2.33,2.33,0,0,0,.49-.3,3,3,0,0,0,.4-.39,2.71,2.71,0,0,0,.28-.39l.14.06a2.79,2.79,0,0,1-.38.68,4.08,4.08,0,0,1-.67.71,3.48,3.48,0,0,1-.88.54,2.53,2.53,0,0,1-1,.21,2.39,2.39,0,0,1-.91-.17,3.08,3.08,0,0,1-.79-.47,4.84,4.84,0,0,1-.68-.68,7.65,7.65,0,0,1-.57-.79,5.26,5.26,0,0,1-.54.65,5.16,5.16,0,0,1-.8.67,4.44,4.44,0,0,1-1,.52,3.39,3.39,0,0,1-1.17.2,3.61,3.61,0,0,1-1.25-.2,2.49,2.49,0,0,1-1.51-1.43,2.71,2.71,0,0,1-.2-1,2.6,2.6,0,0,1,.26-1.16,3.6,3.6,0,0,1,.69-1,5.61,5.61,0,0,1,1-.76,10.88,10.88,0,0,1,1-.59l-.62-.62a4,4,0,0,1-.49-.58,2.74,2.74,0,0,1-.34-.66,2.57,2.57,0,0,1-.13-.85A1.82,1.82,0,0,1,76,17.2a2.41,2.41,0,0,1,.6-.71,2.89,2.89,0,0,1,.83-.46,2.68,2.68,0,0,1,1.72,0,2.25,2.25,0,0,1,.7.35,1.83,1.83,0,0,1,.5.59,1.74,1.74,0,0,1,.19.84,1.81,1.81,0,0,1-.21.87,3.14,3.14,0,0,1-.49.68,3.48,3.48,0,0,1-.56.49l-.43.28a8.51,8.51,0,0,1,.85.76q.39.4.76.82a12.43,12.43,0,0,1,.77,1q.35.49.61.92.34-.44.65-.87t.54-.82a5.69,5.69,0,0,0,.37-.71,1.43,1.43,0,0,0,.14-.52.71.71,0,0,0-.17-.51,1.06,1.06,0,0,0-.46-.27,2.66,2.66,0,0,0-.63-.11l-.69,0v-.18l5.24-.12v.18a3.49,3.49,0,0,0-1.41.5m-19.63-.31a5.29,5.29,0,0,0-.74-1.46A4.73,4.73,0,0,0,64,17.21a3.44,3.44,0,0,0-1.41-.59l-.65-.1c-.24,0-.52,0-.87,0h-.38l-.4,0-.37,0-.27,0q-.07.72-.09,2t0,3v1.72q0,.76,0,1.25c0,.14,0,.29,0,.45s0,.32.05.47a2.06,2.06,0,0,0,.1.41.74.74,0,0,0,.15.27,1.36,1.36,0,0,0,.74.38,4.75,4.75,0,0,0,.85.08c.24,0,.5,0,.76,0a3.69,3.69,0,0,0,.73-.14,3.9,3.9,0,0,0,2.37-1.77,6.22,6.22,0,0,0,.79-3.24,5.29,5.29,0,0,0-.26-1.66m1.81,3.57a4.72,4.72,0,0,1-.72,1.44,4.26,4.26,0,0,1-1.06,1,5.71,5.71,0,0,1-1.28.63,7.09,7.09,0,0,1-1.4.33,10.71,10.71,0,0,1-1.39.1H56.42v-.15a2.6,2.6,0,0,0,.71-.19,1.4,1.4,0,0,0,.52-.35.51.51,0,0,0,.11-.25c0-.12,0-.25.07-.4s0-.3,0-.47,0-.33,0-.49,0-.32,0-.56,0-.49,0-.77,0-.57,0-.86V18.12c0-.18,0-.34,0-.49a3.15,3.15,0,0,0-.07-.41.68.68,0,0,0-.13-.29,1.15,1.15,0,0,0-.53-.37,3.44,3.44,0,0,0-.69-.15v-.15H62q.48,0,1,0a8.51,8.51,0,0,1,1,.15,5,5,0,0,1,1,.31,5.52,5.52,0,0,1,1.16.68,4.45,4.45,0,0,1,.95,1,4.79,4.79,0,0,1,.65,1.31,5.46,5.46,0,0,1,.24,1.7,6.47,6.47,0,0,1-.26,1.94M51.1,17.69A2.54,2.54,0,0,0,50,16.78a3.21,3.21,0,0,0-.74-.24,4.35,4.35,0,0,0-.81-.07H48l-.29,0,0,.15a1.4,1.4,0,0,0,0,.17c0,.07,0,.16,0,.29s0,.3,0,.52,0,.73,0,1.16,0,.85,0,1.25v1.62q.6,0,1.12-.05a4.56,4.56,0,0,0,1-.21,2.7,2.7,0,0,0,.81-.4,2.3,2.3,0,0,0,.55-.57,2.34,2.34,0,0,0,.31-.68,2.8,2.8,0,0,0,.1-.76,2.38,2.38,0,0,0-.37-1.31m1.47,9.16-.19-.2-.13-.15a2.8,2.8,0,0,1-.18-.26l-.34-.51L51.22,25l-.43-.65c-.15-.22-.31-.43-.48-.66s-.38-.47-.61-.74a6.08,6.08,0,0,0-.64-.63,1.59,1.59,0,0,0-.73-.37,2.26,2.26,0,0,0-.43-.06h-.34v1.66q0,.71,0,1.19c0,.31,0,.58,0,.81a1.07,1.07,0,0,0,.16.56,1.28,1.28,0,0,0,.45.39,2.07,2.07,0,0,0,.94.23v.15h-4.7v-.15a4.17,4.17,0,0,0,.71-.18,1.15,1.15,0,0,0,.53-.35.66.66,0,0,0,.12-.26,2.73,2.73,0,0,0,.07-.4c0-.15,0-.3,0-.47s0-.33,0-.49,0-.32,0-.56,0-.49,0-.77,0-.57,0-.86V18.65c0-.18,0-.36,0-.54s0-.35,0-.51a2.7,2.7,0,0,0-.07-.44.63.63,0,0,0-.14-.29,1.11,1.11,0,0,0-.49-.32,4.85,4.85,0,0,0-.67-.14v-.15h4q1,0,1.75.06a3.49,3.49,0,0,1,1.4.4,2.84,2.84,0,0,1,1,.92,2.55,2.55,0,0,1,.4,1.46,2.33,2.33,0,0,1-.2,1,2.6,2.6,0,0,1-.53.76,3.26,3.26,0,0,1-.77.57,5.9,5.9,0,0,1-.92.4v0a1.91,1.91,0,0,1,.49.38,5.36,5.36,0,0,1,.46.56L52.51,24l.8,1.15a4.49,4.49,0,0,0,1.06,1.12,2.85,2.85,0,0,0,1.2.46v.15Zm-14,0v-.15a3,3,0,0,0,.68-.19,1.46,1.46,0,0,0,.54-.38.6.6,0,0,0,.11-.25A3.36,3.36,0,0,0,40,25.5c0-.15,0-.3,0-.46s0-.32,0-.48,0-.32,0-.56,0-.49,0-.77,0-.57,0-.86V18.12c0-.18,0-.34,0-.49a2.84,2.84,0,0,0-.07-.41.67.67,0,0,0-.13-.29,1.17,1.17,0,0,0-.51-.36,3,3,0,0,0-.68-.15v-.15H43v.15a3.82,3.82,0,0,0-.66.16.94.94,0,0,0-.54.47,1.41,1.41,0,0,0-.14.63q0,.38,0,.72t0,.73q0,.36,0,.73v4.92c0,.28,0,.56,0,.82a1.06,1.06,0,0,0,.13.56,1.09,1.09,0,0,0,.56.38,3,3,0,0,0,.69.16v.15ZM34.2,21.8a3.81,3.81,0,0,0-.54-1,3.62,3.62,0,0,0-.82-.78,4.12,4.12,0,0,0-1-.51,5,5,0,0,0-.91-.2,9.59,9.59,0,0,0-1.06-.05h-2V21.9c0,.39,0,.75,0,1.08s0,.61,0,.85q0,.8.07,1.31a1.67,1.67,0,0,0,.3.85,1.41,1.41,0,0,0,.57.39,3,3,0,0,0,1.09.16,11.38,11.38,0,0,0,1.32-.08A3.91,3.91,0,0,0,32.55,26a3.47,3.47,0,0,0,1.36-1.23,3.37,3.37,0,0,0,.48-1.84,3.25,3.25,0,0,0-.2-1.15M33,13.6a3.1,3.1,0,0,0-1.33-1.18A6,6,0,0,0,29.3,12a6.88,6.88,0,0,0-.8,0,2.9,2.9,0,0,0-.55.1l0,.23a2.06,2.06,0,0,0,0,.26c0,.11,0,.24,0,.39s0,.36,0,.61q0,.74,0,1.62t0,1.68v2H29l.78,0a4.27,4.27,0,0,0,2.87-1.07,3.23,3.23,0,0,0,1-2.39A3.33,3.33,0,0,0,33,13.6m3.58,10.48A3.81,3.81,0,0,1,36,25.15a4.21,4.21,0,0,1-.84.79,3.93,3.93,0,0,1-.92.49,6.31,6.31,0,0,1-1.78.36q-1,.06-1.91.06H23.31v-.21a4.68,4.68,0,0,0,1-.27,2,2,0,0,0,.77-.52.94.94,0,0,0,.17-.37c0-.16.08-.35.12-.56a6.63,6.63,0,0,0,.07-.66q0-.35,0-.68c0-.2,0-.46,0-.8s0-.7,0-1.1,0-.81,0-1.23V17.19q0-.46,0-.95t0-1.11c0-.25,0-.51,0-.77s0-.51-.07-.75a6.38,6.38,0,0,0-.13-.64.89.89,0,0,0-.2-.41,1.7,1.7,0,0,0-.63-.45,4,4,0,0,0-.88-.18v-.21h7.08a12,12,0,0,1,1.52.09,6.28,6.28,0,0,1,1.4.35,4.17,4.17,0,0,1,1.76,1.22A3.11,3.11,0,0,1,36,15.47a3,3,0,0,1-.89,2.24,4.63,4.63,0,0,1-2.32,1.14v.08a5.92,5.92,0,0,1,1.49.37,4.59,4.59,0,0,1,1.31.77,3.76,3.76,0,0,1,.92,1.14,3.2,3.2,0,0,1,.35,1.5,3.82,3.82,0,0,1-.23,1.36"/><path class="cls-6" d="M35.19,58v.62h.91V62c0,.53,0,1.25,1,1.25a2.41,2.41,0,0,0,.92-.2v-.62a2,2,0,0,1-.55.09c-.56,0-.53-.33-.53-.7V58.62h1.08V58H37V56.48H36.1V58Zm-1.38-.2h-.26A1.79,1.79,0,0,0,31.87,59h0V58H31v5.08h.88V60.47a2.44,2.44,0,0,1,0-.27c.08-1.28.77-1.73,2-1.78Zm-6,3.11c-.08,1.41-.88,1.75-1.57,1.75a.9.9,0,0,1-1-.94c0-.82.67-.86,1.45-1,.56-.08.86,0,1.12-.25ZM25.32,59.5c0-1.06,1-1.08,1.32-1.08,1.12,0,1.14.78,1.14,1,0,.66-.24.65-1,.7-2,.19-2.49.73-2.49,1.61,0,1.07.72,1.53,1.79,1.53a1.9,1.9,0,0,0,1.74-.9c.11.66.41.74.91.74a1.45,1.45,0,0,0,.4,0v-.62c-.54,0-.53-.21-.53-.6l0-2.35c0-1.48-1.2-1.71-2-1.71-1.8,0-2.16,1-2.16,1.7Z"/><path class="cls-6" d="M98.65,60.12a1.53,1.53,0,0,1,1.57-1.7c1.15,0,1.38,1,1.41,1.7Zm3,1.49a1.31,1.31,0,0,1-1.41,1.05,1.72,1.72,0,0,1-1.61-1.92h3.91c0-.08,0-.17,0-.25-.05-1.1-.32-2.69-2.35-2.69a2.43,2.43,0,0,0-2.48,2.76,2.46,2.46,0,0,0,2.57,2.72,2,2,0,0,0,2.22-1.67ZM96.45,57.8h-.26A1.79,1.79,0,0,0,94.51,59h0V58h-.88v5.08h.88V60.47a2.44,2.44,0,0,1,0-.27c.08-1.28.77-1.73,1.95-1.78ZM89,58v.62h.91V62c0,.53,0,1.25,1,1.25a2.41,2.41,0,0,0,.92-.2v-.62a2,2,0,0,1-.55.09c-.56,0-.53-.33-.53-.7V58.62h1.08V58H90.81V56.48h-.88V58Zm-2.58,2.91c-.08,1.41-.88,1.75-1.57,1.75a.9.9,0,0,1-1-.94c0-.82.67-.86,1.45-1,.56-.08.86,0,1.12-.25ZM84,59.5c0-1.06,1-1.08,1.32-1.08,1.12,0,1.14.78,1.14,1,0,.66-.24.65-1,.7-2,.19-2.49.73-2.49,1.61,0,1.07.72,1.53,1.79,1.53a1.9,1.9,0,0,0,1.74-.9c.11.66.41.74.91.74a1.46,1.46,0,0,0,.4,0v-.62c-.54,0-.53-.21-.53-.6l0-2.35c0-1.48-1.2-1.71-2-1.71-1.8,0-2.16,1-2.16,1.7Zm-6.57.62A1.53,1.53,0,0,1,79,58.42c1.15,0,1.38,1,1.41,1.7Zm3,1.49A1.31,1.31,0,0,1,79,62.66a1.72,1.72,0,0,1-1.61-1.92h3.91c0-.08,0-.17,0-.25C81.28,59.39,81,57.8,79,57.8a2.42,2.42,0,0,0-2.48,2.76,2.46,2.46,0,0,0,2.57,2.72,2,2,0,0,0,2.22-1.67ZM70.29,56.08v7h.88V60.31c0-1.68,1-1.89,1.46-1.89,1.09,0,1.06,1,1.06,1.55v3.11h.88V59.7a1.61,1.61,0,0,0-1.66-1.9,2,2,0,0,0-1.74.91V56.08ZM65.7,58v.62h.91V62c0,.53,0,1.25,1,1.25a2.41,2.41,0,0,0,.92-.2v-.62a2,2,0,0,1-.55.09c-.56,0-.53-.33-.53-.7V58.62h1.08V58H67.49V56.48h-.88V58Z"/><path class="cls-6" d="M161.33,61.27A1.35,1.35,0,0,1,160,62.66c-1.12,0-1.57-1-1.57-2.16s.41-2.08,1.51-2.08a1.27,1.27,0,0,1,1.37,1.17h.84a2,2,0,0,0-2.23-1.79c-2,0-2.42,1.52-2.42,2.7,0,2.71,2,2.78,2.48,2.78a2.07,2.07,0,0,0,2.21-2ZM154.64,57h.88v-.92h-.88Zm0,6.08h.88V58h-.88Zm-6.24-1.51c0,.93.74,1.71,2.25,1.71.23,0,2.09,0,2.09-1.64,0-1.05-.77-1.24-1.81-1.48-.73-.16-1.4-.22-1.4-.94s.94-.8,1.05-.8c1,0,1.16.62,1.19.91h.84c0-.56-.33-1.53-2.06-1.53-.92,0-1.93.33-1.93,1.46s.75,1.29,1.6,1.48l.54.12c1,.24,1.07.51,1.07.84s0,1-1.17,1c-.68,0-1.35-.28-1.38-1.09Zm-1.88,1.51V58h-.88v2.77c0,.36,0,1.89-1.46,1.89-.63,0-1.07-.27-1.07-1.55V58h-.88v3.37c0,.76.17,1.91,1.67,1.91a2,2,0,0,0,1.72-.92h0v.72ZM132.76,58v5.08h.88V60A1.45,1.45,0,0,1,135,58.42c.8,0,1,.71,1,1.45v3.21h.88V60c0-1.31.74-1.63,1.34-1.63.91,0,1,.91,1,1.44v3.22H140V59.8c0-.56-.07-2-1.63-2a1.9,1.9,0,0,0-1.76,1.09,1.4,1.4,0,0,0-1.45-1.09,1.75,1.75,0,0,0-1.57.95V58Z"/><path class="cls-6" d="M50.86,60.2a1.8,1.8,0,1,0,1.8-1.8,1.79,1.79,0,0,0-1.8,1.8"/><path class="cls-6" d="M115.92,60.2a1.8,1.8,0,1,0,1.8-1.8,1.79,1.79,0,0,0-1.8,1.8"/></g></svg>