<?xml version="1.0" encoding="utf-8"?>
<!-- Generator: Adobe Illustrator 16.0.0, SVG Export Plug-In . SVG Version: 6.00 Build 0)  -->
<!DOCTYPE svg PUBLIC "-//W3C//DTD SVG 1.1//EN" "http://www.w3.org/Graphics/SVG/1.1/DTD/svg11.dtd">
<svg version="1.1" id="Layer_1" xmlns="http://www.w3.org/2000/svg" xmlns:xlink="http://www.w3.org/1999/xlink" x="0px" y="0px"
	 width="436.108px" height="96.144px" viewBox="0 0 436.108 96.144" enable-background="new 0 0 436.108 96.144"
	 xml:space="preserve">
<g>
	<defs>
		<rect id="SVGID_3_" width="436.108" height="96.144"/>
	</defs>
	<clipPath id="SVGID_2_">
		<use xlink:href="#SVGID_3_"  overflow="visible"/>
	</clipPath>
	
		<line clip-path="url(#SVGID_2_)" fill="none" stroke="#FFFFFF" stroke-width="2.039" x1="1.378" y1="32.425" x2="183.322" y2="32.425"/>
	
		<line clip-path="url(#SVGID_2_)" fill="none" stroke="#FFFFFF" stroke-width="2.039" x1="1.378" y1="63.774" x2="183.322" y2="63.774"/>
	
		<line clip-path="url(#SVGID_2_)" fill="none" stroke="#FFFFFF" stroke-width="2.039" x1="1.605" y1="95.124" x2="436.107" y2="95.124"/>
	
		<line clip-path="url(#SVGID_2_)" fill="none" stroke="#FFFFFF" stroke-width="2.039" x1="1.378" y1="1.02" x2="436.107" y2="1.02"/>
	
		<line clip-path="url(#SVGID_2_)" fill="none" stroke="#FFFFFF" stroke-width="2.039" x1="251.812" y1="32.425" x2="436.107" y2="32.425"/>
	
		<line clip-path="url(#SVGID_2_)" fill="none" stroke="#FFFFFF" stroke-width="2.039" x1="251.812" y1="63.774" x2="436.107" y2="63.774"/>
	<path clip-path="url(#SVGID_2_)" fill="#FFFFFF" d="M341.361,82.628c0,1.166-1.009,2.04-2.937,2.04
		c-1.547,0-3.566-0.628-3.566-2.96h-2.691c0,3.678,2.826,5.427,6.099,5.427c3.947,0,5.943-1.996,5.943-4.643
		c0-2.758-2.422-3.744-5.203-4.73l-0.313-0.113c-2.287-0.807-3.386-1.188-3.386-2.511c0-1.099,1.122-1.906,2.915-1.906
		c1.638,0,3.162,0.717,3.162,2.825h2.691c0-3.789-2.512-5.292-5.831-5.292c-3.52,0-5.651,1.839-5.651,4.575
		c0,2.556,1.817,3.475,4.777,4.597l0.359,0.134C340.128,80.968,341.361,81.394,341.361,82.628 M330.037,84.443h-7.4V80.07h6.324
		v-2.241h-6.324v-4.373h7.4v-2.355h-10.091v15.698h10.091V84.443z M312.927,86.799V73.456h4.553v-2.355h-11.796v2.355h4.553v13.343
		H312.927z M298.936,74.688l2.13,5.988h-4.306L298.936,74.688z M303.262,86.799h2.647v-0.897l-5.607-14.801h-2.646l-5.606,14.801
		v0.897h2.489l1.413-3.88h5.92L303.262,86.799z M287.722,86.799V73.456h4.552v-2.355h-11.795v2.355h4.552v13.343H287.722z
		 M275.837,82.628c0,1.166-1.009,2.04-2.937,2.04c-1.548,0-3.566-0.628-3.566-2.96h-2.691c0,3.678,2.826,5.427,6.1,5.427
		c3.946,0,5.942-1.996,5.942-4.643c0-2.758-2.422-3.744-5.202-4.73l-0.314-0.113c-2.288-0.807-3.386-1.188-3.386-2.511
		c0-1.099,1.121-1.906,2.915-1.906c1.637,0,3.162,0.717,3.162,2.825h2.691c0-3.789-2.512-5.292-5.831-5.292
		c-3.52,0-5.651,1.839-5.651,4.575c0,2.556,1.817,3.475,4.777,4.597l0.358,0.134C274.604,80.968,275.837,81.394,275.837,82.628
		 M264.513,84.443h-7.4V80.07h6.324v-2.241h-6.324v-4.373h7.4v-2.355h-10.091v15.698h10.091V84.443z"/>
	<path clip-path="url(#SVGID_2_)" fill="#FFFFFF" d="M365.938,53.354h-7.513V40.013h-2.69V55.71h10.203V53.354z M346.294,43.601
		l2.131,5.987h-4.305L346.294,43.601z M350.622,55.71h2.646v-0.897l-5.605-14.8h-2.646l-5.605,14.8v0.897h2.488l1.412-3.879h5.92
		L350.622,55.71z M336.943,40.013h-2.691V55.71h2.691V40.013z M322.144,47.391v-5.023h3.521c1.57,0,2.489,0.763,2.489,2.512
		s-0.919,2.512-2.489,2.512H322.144z M319.453,55.71h2.691v-6.032h2.758l3.813,6.032h2.578v-0.897l-3.475-5.382
		c1.951-0.604,3.072-2.265,3.072-4.597c0-3.005-1.637-4.821-4.732-4.821h-6.705V55.71z M313.174,50.529
		c0,1.683-1.144,3.051-3.476,3.051c-2.332,0-3.476-1.368-3.476-3.051v-5.337c0-1.682,1.144-3.05,3.476-3.05
		c2.332,0,3.476,1.368,3.476,3.05V50.529z M315.865,45.327c0-3.565-2.4-5.65-6.167-5.65c-3.767,0-6.167,2.085-6.167,5.65v5.067
		c0,3.566,2.4,5.651,6.167,5.651c3.767,0,6.167-2.085,6.167-5.651V45.327z M297.342,55.71h2.601V40.013h-2.466l-4.597,7.333
		l-4.53-7.333h-2.534V55.71h2.601V44.834l3.588,5.808h1.704l3.633-5.897V55.71z M282.677,53.354h-7.401v-4.372h6.324V46.74h-6.324
		v-4.373h7.401v-2.354h-10.091V55.71h10.091V53.354z M265.948,55.71h2.601V40.013h-2.466l-4.597,7.333l-4.53-7.333h-2.534V55.71
		h2.601V44.834l3.588,5.808h1.704l3.633-5.897V55.71z"/>
	<path clip-path="url(#SVGID_2_)" fill="#FFFFFF" d="M404.933,13.925l6.727,10.696h2.468V8.924h-2.691V19.62l-6.728-10.696h-2.467
		v15.697h2.691V13.925z M398.206,8.924h-2.691v15.697h2.691V8.924z M388.069,18.566c2.781,0,4.418-1.883,4.418-4.821
		c0-2.937-1.637-4.821-4.418-4.821h-6.793v15.697h2.69v-6.055H388.069z M383.967,16.212v-4.934h3.632
		c1.166,0,2.153,0.808,2.153,2.467c0,1.66-0.987,2.467-2.153,2.467H383.967z M371.835,12.513l2.131,5.986h-4.307L371.835,12.513z
		 M376.163,24.621h2.646v-0.896l-5.606-14.801h-2.646l-5.606,14.801v0.896h2.489l1.413-3.879h5.92L376.163,24.621z M362.483,8.924
		h-2.691v15.697h2.691V8.924z M357.327,22.267h-7.513V8.924h-2.69v15.697h10.203V22.267z M337.684,12.513l2.13,5.986h-4.306
		L337.684,12.513z M342.011,24.621h2.646v-0.896l-5.606-14.801h-2.646l-5.606,14.801v0.896h2.489l1.413-3.879h5.919L342.011,24.621z
		 M319.139,24.621v-6.682h6.503v6.682h2.691V8.924h-2.691v6.66h-6.503v-6.66h-2.691v15.697H319.139z M303.89,14.06
		c0-1.861,1.077-3.005,3.386-3.005c1.368,0,3.117,0.852,3.117,2.96v0.224h2.691v-0.224c0-3.79-2.713-5.427-5.785-5.427
		c-3.902,0-6.1,2.085-6.1,5.65v5.068c0,3.565,2.198,5.65,6.1,5.65c3.072,0,5.785-1.637,5.785-5.426v-0.225h-2.691v0.225
		c0,2.108-1.749,2.96-3.117,2.96c-2.309,0-3.386-1.144-3.386-3.005V14.06z M293.126,22.267h-7.4v-4.372h6.324v-2.243h-6.324v-4.373
		h7.4V8.924h-10.091v15.697h10.091V22.267z M269.806,24.621v-6.682h6.503v6.682H279V8.924h-2.691v6.66h-6.503v-6.66h-2.691v15.697
		H269.806z M260.096,24.621V11.278h4.552V8.924h-11.795v2.354h4.552v13.343H260.096z"/>
	<path clip-path="url(#SVGID_2_)" fill="#FFFFFF" d="M175.828,74.688l2.131,5.988h-4.306L175.828,74.688z M180.156,86.799h2.646
		v-0.897l-5.606-14.801h-2.646l-5.606,14.801v0.897h2.489l1.413-3.88h5.92L180.156,86.799z M157.283,86.799v-6.684h6.503v6.684
		h2.691V71.101h-2.691v6.66h-6.503v-6.66h-2.691v15.698H157.283z M147.865,86.799h2.691V71.101h-2.466l-6.817,10.876V71.101h-2.691
		v15.698h2.466l6.817-10.876V86.799z M125.486,86.799V73.456h6.368v13.343h2.691V71.101h-11.75v15.698H125.486z M112.771,78.681
		c-1.569,0-2.489-0.718-2.489-2.534c0-1.794,0.92-2.579,2.489-2.579h3.297v5.113H112.771z M118.759,71.101h-6.481
		c-3.095,0-4.732,1.862-4.732,4.934c0,2.311,1.054,4.015,2.893,4.664l-3.207,5.203v0.897h2.467l3.409-5.831h2.96v5.831h2.691V71.101
		z M94.473,71.101v7.154c0,4.216-0.583,6.077-2.512,6.077h-0.426v2.467h0.404c3.408,0,5.001-2.624,5.001-8.096v-5.247h4.641v13.343
		h2.691V71.101H94.473z M82.543,74.688l2.131,5.988h-4.306L82.543,74.688z M86.871,86.799h2.646v-0.897l-5.606-14.801h-2.646
		l-5.606,14.801v0.897h2.489l1.413-3.88h5.92L86.871,86.799z M54.939,86.799h18.254V71.101h-2.691v13.343h-5.091V71.101H62.72
		v13.343h-5.09V71.101h-2.691V86.799z M42.942,86.799h3.027v-3.05h-3.027V86.799z M36.664,86.799h2.691V71.101h-2.467l-6.817,10.876
		V71.101H27.38v15.698h2.467l6.817-10.876V86.799z M20.765,86.799h3.027v-3.05h-3.027V86.799z M7.019,82.649
		c-2.108,0-3.431-1.413-3.431-3.162v-1.524c0-1.749,1.323-3.162,3.431-3.162H8.14v7.849H7.019z M8.14,85.005v2.063h2.691v-2.063
		h1.009c3.319,0,6.234-1.907,6.234-5.473v-1.614c0-3.565-2.915-5.472-6.234-5.472h-1.009v-1.794H8.14v1.794H7.131
		c-3.319,0-6.234,1.906-6.234,5.472v1.614c0,3.565,2.915,5.473,6.234,5.473H8.14z M10.831,82.649v-7.849h1.121
		c2.108,0,3.431,1.413,3.431,3.162v1.524c0,1.749-1.323,3.162-3.431,3.162H10.831z"/>
	<path clip-path="url(#SVGID_2_)" fill="#FFFFFF" d="M94.81,43.601l2.13,5.987h-4.306L94.81,43.601z M99.138,55.71h2.646v-0.897
		l-5.606-14.8H93.53l-5.606,14.8v0.897h2.489l1.413-3.879h5.92L99.138,55.71z M77.34,53.354v-4.933h4.126
		c1.166,0,2.153,0.807,2.153,2.467c0,1.659-0.987,2.466-2.153,2.466H77.34z M81.938,55.71c2.781,0,4.418-1.884,4.418-4.821
		s-1.637-4.822-4.418-4.822H77.34v-3.699h8.073v-2.354H74.649V55.71H81.938z M66.847,48.422c1.345,0,2.04,0.964,2.04,2.467
		c0,1.502-0.695,2.466-2.04,2.466h-3.745v-4.933H66.847z M60.411,55.71h6.481c3.094,0,4.731-1.906,4.731-4.821
		s-1.637-4.822-4.731-4.822h-3.79v-6.054h-2.691V55.71z M47.203,53.354c0.673-1.277,1.368-2.758,1.368-6.413v-4.574h4.507v10.987
		H47.203z M43.1,53.354v5.494h2.466V55.71h9.576v3.139h2.466v-5.494h-1.839V40.013h-9.665v6.929c0,3.768-0.897,5.247-1.794,6.413
		H43.1z M35.117,43.601l2.13,5.987h-4.305L35.117,43.601z M39.444,55.71h2.646v-0.897l-5.606-14.8h-2.647l-5.606,14.8v0.897h2.489
		l1.413-3.879h5.92L39.444,55.71z M17.245,45.147c0-1.86,1.076-3.005,3.386-3.005c1.368,0,3.117,0.853,3.117,2.96v0.225h2.691
		v-0.225c0-3.79-2.714-5.426-5.786-5.426c-3.902,0-6.099,2.085-6.099,5.65v5.067c0,3.566,2.197,5.651,6.099,5.651
		c3.072,0,5.786-1.637,5.786-5.426v-0.226h-2.691v0.226c0,2.107-1.749,2.96-3.117,2.96c-2.31,0-3.386-1.145-3.386-3.005V45.147z
		 M2.668,55.71H2.96c2.847,0,3.587-0.919,5.112-4.306l4.687-10.494v-0.897h-2.355l-3.722,8.409l-4.171-8.409H0v0.897l5.427,10.404
		c-0.605,1.301-1.188,1.929-2.153,1.929H2.668V55.71z"/>
	<path clip-path="url(#SVGID_2_)" fill="#FFFFFF" d="M177.533,16.503c-1.57,0-2.489-0.717-2.489-2.533
		c0-1.795,0.919-2.578,2.489-2.578h3.296v5.111H177.533z M183.52,8.924h-6.481c-3.094,0-4.731,1.861-4.731,4.934
		c0,2.31,1.054,4.014,2.893,4.665l-3.207,5.202v0.896h2.467l3.408-5.83h2.96v5.83h2.691V8.924z M163.63,12.513l2.13,5.986h-4.305
		L163.63,12.513z M167.958,24.621h2.646v-0.896l-5.606-14.801h-2.646l-5.607,14.801v0.896h2.49l1.412-3.879h5.92L167.958,24.621z
		 M145.085,24.621v-6.682h6.503v6.682h2.691V8.924h-2.691v6.66h-6.503v-6.66h-2.691v15.697H145.085z M134.59,17.333
		c1.346,0,2.041,0.964,2.041,2.467s-0.695,2.467-2.041,2.467h-3.744v-4.934H134.59z M128.155,24.621h6.48
		c3.095,0,4.732-1.906,4.732-4.821c0-2.914-1.637-4.821-4.732-4.821h-3.789V8.924h-2.691V24.621z M114.319,8.924v7.153
		c0,4.216-0.583,6.077-2.512,6.077h-0.426v2.467h0.404c3.408,0,5-2.624,5-8.095v-5.248h4.642v13.343h2.691V8.924H114.319z
		 M102.389,12.513l2.13,5.986h-4.305L102.389,12.513z M106.717,24.621h2.646v-0.896l-5.606-14.801h-2.646l-5.606,14.801v0.896h2.489
		l1.413-3.879h5.92L106.717,24.621z M90.347,24.621h2.691V8.924h-2.466L83.755,19.8V8.924h-2.691v15.697h2.466l6.817-10.876V24.621z
		 M73.619,18.566c2.781,0,4.418-1.883,4.418-4.821c0-2.937-1.637-4.821-4.418-4.821h-6.795v15.697h2.691v-6.055H73.619z
		 M69.515,16.212v-4.934h3.633c1.166,0,2.153,0.808,2.153,2.467c0,1.66-0.987,2.467-2.153,2.467H69.515z M60.546,19.441
		c0,1.682-1.144,3.05-3.476,3.05s-3.476-1.368-3.476-3.05v-5.337c0-1.683,1.144-3.05,3.476-3.05s3.476,1.367,3.476,3.05V19.441z
		 M63.237,14.238c0-3.565-2.4-5.65-6.167-5.65c-3.767,0-6.167,2.085-6.167,5.65v5.068c0,3.565,2.4,5.65,6.167,5.65
		c3.767,0,6.167-2.085,6.167-5.65V14.238z M44.714,24.621h2.601V8.924h-2.466l-4.597,7.333l-4.53-7.333h-2.534v15.697h2.601V13.745
		l3.588,5.809h1.704l3.633-5.898V24.621z M30.049,22.267h-7.4v-4.372h6.323v-2.243h-6.323v-4.373h7.4V8.924H19.958v15.697h10.091
		V22.267z M13.32,24.621h2.601V8.924h-2.466l-4.597,7.333l-4.53-7.333H1.794v15.697h2.601V13.745l3.588,5.809h1.704l3.633-5.898
		V24.621z"/>
	<path clip-path="url(#SVGID_2_)" fill="#FFFFFF" d="M238.301,45.775l-5.76,22.843l-14.278,5.087v-5.85
		c0.3-0.022,0.587-0.09,0.849-0.207l-0.195,4.586c-0.003,0.067,0.027,0.132,0.082,0.171c0.035,0.027,0.078,0.04,0.121,0.04
		c0.022,0,0.045-0.003,0.067-0.011l12.779-4.473c0.065-0.022,0.113-0.076,0.13-0.143l5.784-22.938
		c0.009-0.027,0.116-0.406,0.139-0.847c0.108,0.041,0.202,0.099,0.265,0.195C238.554,44.64,238.389,45.479,238.301,45.775
		 M203.568,68.618l-5.763-22.852c-0.086-0.287-0.251-1.12,0.016-1.534c0.064-0.097,0.158-0.156,0.267-0.197
		c0.023,0.438,0.13,0.813,0.137,0.836l5.787,22.948c0.017,0.066,0.066,0.12,0.13,0.143l12.779,4.473
		c0.022,0.008,0.044,0.011,0.067,0.011c0.043,0,0.085-0.013,0.121-0.04c0.054-0.04,0.085-0.104,0.081-0.172l-0.217-4.612
		c0.272,0.129,0.569,0.206,0.883,0.232v5.872L203.568,68.618z M198.641,43.219c0.061-0.091,0.151-0.147,0.255-0.187
		c0.022,0.411,0.121,0.768,0.142,0.836l5.787,22.948c0.016,0.066,0.065,0.12,0.129,0.143l10.8,3.766
		c0.022,0.007,0.044,0.011,0.067,0.011c0.044,0,0.088-0.014,0.125-0.043c0.054-0.042,0.083-0.109,0.077-0.178l-0.395-4.466
		c0.162,0.537,0.488,0.998,0.928,1.322l0.216,4.58l-12.392-4.337l-5.763-22.851C198.53,44.473,198.364,43.627,198.641,43.219
		 M199.545,42.109c0.131-0.11,0.331-0.146,0.581-0.122l5.655,23.91l9.322,3.229l-0.27-2.007c0,0-2.608-19.305-3.567-26.21
		c-0.608-4.379,0.42-4.726,9.967-6.555c1.413-0.271,2.988-0.572,4.723-0.927c-1.363,10.067-4.504,33.403-4.544,33.692l-0.27,2.005
		l9.322-3.229l5.655-23.909c0.181,0.002,0.339,0.032,0.443,0.12c0.4,0.342,0.221,1.31,0.115,1.661l-5.76,22.842l-10.398,3.625
		l3.096-32.999c0.383-0.063,0.68-0.381,0.68-0.783c0-0.447-0.363-0.812-0.811-0.812c-0.447,0-0.811,0.364-0.811,0.812
		c0,0.352,0.226,0.643,0.537,0.756L220.6,65.044c-0.073-0.677-0.404-1.27-0.9-1.683l1.076-25.312c0.363-0.082,0.64-0.392,0.64-0.778
		c0-0.446-0.363-0.81-0.811-0.81c-0.447,0-0.811,0.363-0.811,0.81c0,0.364,0.245,0.662,0.576,0.765l-1.065,25.055
		c-0.313-0.175-0.665-0.283-1.042-0.313V38.922c0.348-0.093,0.609-0.396,0.609-0.772c0-0.448-0.364-0.812-0.812-0.812
		c-0.448,0-0.81,0.363-0.81,0.812c0,0.377,0.261,0.68,0.607,0.772V62.78c-0.398,0.033-0.769,0.153-1.094,0.348l-1.104-23.438
		c0.329-0.104,0.572-0.398,0.572-0.764c0-0.448-0.364-0.811-0.812-0.811c-0.447,0-0.81,0.362-0.81,0.811
		c0,0.391,0.279,0.701,0.645,0.778l1.116,23.713c-0.456,0.407-0.759,0.972-0.832,1.612l-2.151-24.359
		c0.313-0.113,0.541-0.405,0.541-0.759c0-0.447-0.363-0.812-0.811-0.812c-0.448,0-0.811,0.364-0.811,0.812
		c0,0.4,0.295,0.719,0.676,0.785l2.609,29.541l-10.4-3.626l-5.762-22.852C199.326,43.418,199.145,42.451,199.545,42.109
		 M209.477,46.163c0.878,6.431,2.086,15.349,2.618,19.285l-4.205-1.456l-4.976-21.041C204.66,43.295,207.418,44.134,209.477,46.163
		 M233.318,43.012l-4.962,20.98l-4.206,1.457c0.493-3.664,1.583-11.759,2.61-19.367C227.759,44.588,230.808,43.534,233.318,43.012
		 M237.068,43.878c0.022-0.074,0.123-0.433,0.145-0.845c0.106,0.041,0.197,0.098,0.26,0.193c0.269,0.411,0.104,1.249,0.015,1.546
		l-5.76,22.842l-12.394,4.338l0.193-4.537c0.464-0.323,0.807-0.8,0.976-1.353l-0.417,4.451c-0.007,0.069,0.022,0.136,0.077,0.179
		c0.036,0.029,0.08,0.043,0.125,0.043c0.022,0,0.045-0.004,0.067-0.011l10.799-3.766c0.064-0.022,0.113-0.076,0.129-0.143
		L237.068,43.878z M238.624,44.007c-0.141-0.215-0.354-0.337-0.615-0.392c-0.024-0.22-0.08-0.434-0.195-0.61
		c-0.141-0.215-0.353-0.339-0.614-0.394c-0.035-0.309-0.136-0.608-0.373-0.812c-0.159-0.137-0.373-0.191-0.614-0.207l0.368-1.559
		l-1.766,0.207c-0.598,0.071-4.598,0.593-7.571,2.259c0.908-6.73,1.674-12.391,1.786-13.173c0.202-1.414,0.316-4.048-1.202-5.798
		c-0.921-1.063-2.242-1.602-3.926-1.602c-2.149,0-3.925,1.58-4.13,3.676c-0.163,1.66,0.758,3.818,3.889,4.438
		c0.677,0.134,1.329-0.307,1.463-0.979c0.133-0.675-0.305-1.329-0.98-1.463c-1.288-0.255-1.978-0.895-1.894-1.752
		c0.067-0.693,0.67-1.43,1.652-1.43c0.942,0,1.611,0.243,2.045,0.743c0.902,1.04,0.733,3.015,0.618,3.815
		c-0.033,0.227-0.123,0.883-0.252,1.836c-2.065,0.43-3.917,0.786-5.548,1.098c-9.136,1.75-12.918,2.476-11.963,9.345
		c0.058,0.42,0.122,0.886,0.192,1.392c-3.552-2.204-7.45-2.402-7.654-2.411l-1.644-0.071l0.336,1.421
		c-0.305-0.009-0.561,0.056-0.749,0.216c-0.238,0.204-0.34,0.505-0.375,0.815c-0.253,0.056-0.464,0.169-0.604,0.376
		c-0.121,0.18-0.179,0.398-0.204,0.622c-0.264,0.055-0.478,0.182-0.619,0.399c-0.424,0.656-0.078,1.822-0.066,1.862l5.787,22.947
		c0.017,0.066,0.064,0.119,0.128,0.142l14.662,5.24c0.022,0.009,0.045,0.012,0.068,0.012c0.042,0,0.082-0.012,0.117-0.036
		c0.005-0.003,0.003-0.012,0.008-0.015l14.594-5.201c0.064-0.022,0.112-0.075,0.129-0.142l5.784-22.938
		C238.707,45.834,239.053,44.661,238.624,44.007"/>
</g>
</svg>
