<?xml version="1.0" encoding="utf-8"?>
<!-- Generator: Adobe Illustrator 16.0.0, SVG Export Plug-In . SVG Version: 6.00 Build 0)  -->
<!DOCTYPE svg PUBLIC "-//W3C//DTD SVG 1.1//EN" "http://www.w3.org/Graphics/SVG/1.1/DTD/svg11.dtd">
<svg version="1.1" id="Layer_1" xmlns="http://www.w3.org/2000/svg" xmlns:xlink="http://www.w3.org/1999/xlink" x="0px" y="0px"
	 width="133.2px" height="133.2px" viewBox="0 0 133.2 133.2" enable-background="new 0 0 133.2 133.2" xml:space="preserve">
<g>
	<defs>
		<rect id="SVGID_1_" x="1" y="1" width="131.2" height="131.2"/>
	</defs>
	<clipPath id="SVGID_2_">
		<use xlink:href="#SVGID_1_"  overflow="visible"/>
	</clipPath>
</g>
<g>
	<g>
		<path fill="#FFFFFF" d="M91.268,69.696c-1.223,0-1.926-0.792-1.926-1.764v-2.664c0-0.973,0.703-1.765,1.926-1.765
			c1.225,0,1.927,0.792,1.927,1.765v2.664C93.195,68.904,92.493,69.696,91.268,69.696 M85.598,71.28v-3.816h1.765v0.559
			c0,1.962,1.368,3.474,3.905,3.474c2.539,0,3.906-1.512,3.906-3.474v-2.845c0-1.962-1.367-3.474-3.906-3.474
			c-2.537,0-3.905,1.512-3.905,3.474v0.559h-1.765V61.92h-1.979v9.36H85.598z M70.678,71.28v-3.816h3.941v3.816h1.98v-9.36h-1.98
			v3.816h-3.941V61.92h-1.98v9.36H70.678z M56.224,65.143c0-0.973,0.666-1.639,1.944-1.639c1.278,0,1.944,0.666,1.944,1.639v0.594
			h-3.888V65.143z M62.092,67.248v-2.105c0-2.16-1.512-3.438-3.852-3.438c-2.43,0-3.996,1.35-3.996,3.474v2.881
			c0,2.159,1.566,3.438,3.996,3.438c2.286,0,3.654-1.152,3.834-3.042h-1.98c-0.162,0.756-0.756,1.242-1.854,1.242
			c-1.35,0-2.016-0.702-2.016-1.674v-0.774H62.092z M42.364,68.599H43.3l2.358-3.618v6.3h1.98v-9.36h-1.98l-2.862,4.303l-2.79-4.303
			h-1.98v9.36h1.98v-6.3L42.364,68.599z"/>
	</g>
</g>
<g>
	<path fill="#FFFFFF" d="M66.556,133.2c-36.724,0-66.6-29.876-66.6-66.6c0-36.723,29.876-66.6,66.6-66.6
		c36.723,0,66.6,29.876,66.6,66.6C133.156,103.324,103.279,133.2,66.556,133.2z M66.556,2c-35.621,0-64.6,28.979-64.6,64.6
		s28.979,64.6,64.6,64.6s64.6-28.979,64.6-64.6S102.176,2,66.556,2z"/>
</g>
</svg>
