<?xml version="1.0" encoding="utf-8"?>
<!-- Generator: Adobe Illustrator 16.0.0, SVG Export Plug-In . SVG Version: 6.00 Build 0)  -->
<!DOCTYPE svg PUBLIC "-//W3C//DTD SVG 1.1//EN" "http://www.w3.org/Graphics/SVG/1.1/DTD/svg11.dtd">
<svg version="1.1" id="Layer_1" xmlns="http://www.w3.org/2000/svg" xmlns:xlink="http://www.w3.org/1999/xlink" x="0px" y="0px"
	 width="131.2px" height="131.2px" viewBox="0 0 131.2 131.2" enable-background="new 0 0 131.2 131.2" xml:space="preserve">
<g>
	<path fill="#FFFFFF" d="M55.223,64.735h3.888v-0.594c0-0.971-0.666-1.637-1.944-1.637s-1.944,0.666-1.944,1.637V64.735z
		 M92.194,66.933v-2.664c0-0.973-0.702-1.764-1.926-1.764s-1.926,0.791-1.926,1.764v2.664c0,0.971,0.702,1.764,1.926,1.764
		S92.194,67.903,92.194,66.933 M94.174,67.022c0,1.961-1.368,3.475-3.906,3.475s-3.906-1.514-3.906-3.475v-0.559h-1.764v3.816h-1.98
		v-9.359h1.98v3.814h1.764v-0.557c0-1.963,1.368-3.474,3.906-3.474s3.906,1.511,3.906,3.474V67.022z M75.599,70.28h-1.98v-3.816
		h-3.942v3.816h-1.98v-9.359h1.98v3.814h3.942v-3.814h1.98V70.28z M61.09,66.249h-5.868v0.773c0,0.973,0.666,1.674,2.016,1.674
		c1.098,0,1.692-0.486,1.854-1.241h1.98c-0.18,1.89-1.548,3.042-3.834,3.042c-2.43,0-3.996-1.279-3.996-3.439v-2.879
		c0-2.125,1.566-3.474,3.996-3.474c2.34,0,3.852,1.276,3.852,3.437V66.249z M46.637,70.28h-1.98v-6.301l-2.358,3.619h-0.936
		l-2.358-3.619v6.301h-1.98v-9.359h1.98l2.79,4.301l2.862-4.301h1.98V70.28z M131.2,65.601c0-36.23-29.37-65.6-65.6-65.6
		S0,29.37,0,65.601C0,101.833,29.37,131.2,65.6,131.2S131.2,101.833,131.2,65.601"/>
</g>
</svg>
