<?xml version="1.0" encoding="utf-8"?>
<!-- Generator: Adobe Illustrator 15.0.0, SVG Export Plug-In . SVG Version: 6.00 Build 0)  -->
<!DOCTYPE svg PUBLIC "-//W3C//DTD SVG 1.1//EN" "http://www.w3.org/Graphics/SVG/1.1/DTD/svg11.dtd">
<svg version="1.1" id="Layer_1" xmlns="http://www.w3.org/2000/svg" xmlns:xlink="http://www.w3.org/1999/xlink" x="0px" y="0px"
	 width="300px" height="300px" viewBox="0 0 300 300" enable-background="new 0 0 300 300" xml:space="preserve">
<g>
	<defs>
		<rect id="SVGID_1_" x="0" y="-0.606" width="300.614" height="300.606"/>
	</defs>
	<clipPath id="SVGID_2_">
		<use xlink:href="#SVGID_1_"  overflow="visible"/>
	</clipPath>
	<path clip-path="url(#SVGID_2_)" fill="none" stroke="#FFFFFF" d="M150.307,296.369c81.004,0,146.675-65.665,146.675-146.676
		c0-80.997-65.671-146.669-146.675-146.669C69.302,3.024,3.63,68.696,3.63,149.693C3.63,230.704,69.302,296.369,150.307,296.369z"/>
	<path clip-path="url(#SVGID_2_)" fill="#FFFFFF" d="M202.34,53.803c-7.681-1.603-15.326-2.397-22.914-2.397
		c-13.433,0-24.24,2.61-32.425,7.844c-8.191,5.241-14.042,11.886-17.538,19.943c-3.511,8.063-5.255,16.616-5.255,25.644v2.284
		h-21.024v30.899h21.024v91.302h45.715V138.02h23.049V107.12h-23.049v-4.56c0-5.908,1.376-10.468,4.113-13.68
		c2.737-3.199,6.56-4.801,11.46-4.801c4.312,0,9.922,0.794,16.844,2.397V53.803z"/>
</g>
</svg>
