<?xml version="1.0" encoding="utf-8"?>
<!-- Generator: Adobe Illustrator 15.0.0, SVG Export Plug-In . SVG Version: 6.00 Build 0)  -->
<!DOCTYPE svg PUBLIC "-//W3C//DTD SVG 1.1//EN" "http://www.w3.org/Graphics/SVG/1.1/DTD/svg11.dtd">
<svg version="1.1" id="Layer_1" xmlns="http://www.w3.org/2000/svg" xmlns:xlink="http://www.w3.org/1999/xlink" x="0px" y="0px"
	 width="300px" height="300px" viewBox="0 0 300 300" enable-background="new 0 0 300 300" xml:space="preserve">
<g>
	<defs>
		<rect id="SVGID_1_" x="1.391" width="298.613" height="298.606"/>
	</defs>
	<clipPath id="SVGID_2_">
		<use xlink:href="#SVGID_1_"  overflow="visible"/>
	</clipPath>
	<path clip-path="url(#SVGID_2_)" fill="none" stroke="#FFFFFF" d="M150.694,295c80.468,0,145.704-65.229,145.704-145.7
		c0-80.458-65.235-145.693-145.704-145.693C70.232,3.607,4.998,68.841,4.998,149.3C4.998,229.771,70.232,295,150.694,295z"/>
	<path clip-path="url(#SVGID_2_)" fill="none" stroke="#FFFFFF" stroke-width="15" d="M166.802,173.984
		c27.756,0,50.257-22.501,50.257-50.257c0-27.749-22.501-50.25-50.257-50.25c-27.76,0-50.261,22.501-50.261,50.25
		C116.541,151.483,139.042,173.984,166.802,173.984z"/>
</g>
<line fill="none" stroke="#FFFFFF" stroke-width="15" stroke-linecap="round" x1="116.872" y1="178.014" x2="86.305" y2="208.581"/>
</svg>
