<?xml version="1.0" encoding="utf-8"?>
<!-- Generator: Adobe Illustrator 15.0.0, SVG Export Plug-In . SVG Version: 6.00 Build 0)  -->
<!DOCTYPE svg PUBLIC "-//W3C//DTD SVG 1.1//EN" "http://www.w3.org/Graphics/SVG/1.1/DTD/svg11.dtd">
<svg version="1.1" id="Layer_1" xmlns="http://www.w3.org/2000/svg" xmlns:xlink="http://www.w3.org/1999/xlink" x="0px" y="0px"
	 width="300px" height="300px" viewBox="0 0 300 300" enable-background="new 0 0 300 300" xml:space="preserve">
<g>
	<defs>
		<rect id="SVGID_1_" x="0.392" y="0.399" width="299.608" height="299.601"/>
	</defs>
	<clipPath id="SVGID_2_">
		<use xlink:href="#SVGID_1_"  overflow="visible"/>
	</clipPath>
	<path clip-path="url(#SVGID_2_)" fill="none" stroke="#FFFFFF" d="M150.196,296.382c80.733,0,146.185-65.445,146.185-146.186
		c0-80.727-65.451-146.178-146.185-146.178C69.462,4.018,4.011,69.47,4.011,150.196C4.011,230.937,69.462,296.382,150.196,296.382z"
		/>
	<path clip-path="url(#SVGID_2_)" fill="#FFFFFF" d="M153.652,151.016c17.366,0,26.046,5.987,26.046,17.968
		c0,6.128-2.134,10.638-6.403,13.528c-4.283,2.898-10.829,4.34-19.643,4.34h-17.169v-35.836H153.652z M145.375,93.961
		c4.241,0,8.057,0.205,11.451,0.608c3.406,0.41,6.276,1.194,8.637,2.375c2.354,1.18,4.171,2.862,5.457,5.046
		c1.272,2.191,1.915,5.103,1.915,8.736s-0.586,6.552-1.767,8.736s-2.934,3.874-5.252,5.047c-2.318,1.18-5.188,1.965-8.581,2.375
		c-3.399,0.403-7.287,0.608-11.662,0.608h-9.09V93.961H145.375z M94.283,70.438v139.944h80.878c7.534,0,14.207-0.961,20.038-2.876
		c5.817-1.916,10.737-4.623,14.744-8.129c4.001-3.499,7.026-7.69,9.083-12.574c2.057-4.877,3.082-10.249,3.082-16.102
		c0-4.905-0.721-9.252-2.17-13.02c-1.449-3.774-3.457-7.104-6.008-9.995c-2.566-2.897-5.634-5.463-9.238-7.676
		c-3.605-2.219-7.592-4.213-11.967-5.966c2.015-0.735,4.178-1.965,6.46-3.682c2.29-1.718,4.411-3.867,6.369-6.454
		c1.95-2.594,3.562-5.626,4.834-9.09c1.287-3.47,1.923-7.322,1.923-11.563c0-4.58-0.947-8.85-2.827-12.822
		c-1.888-3.972-4.849-7.436-8.885-10.404c-4.036-2.961-9.238-5.294-15.6-7.012c-6.361-1.718-14.052-2.58-23.071-2.58H94.283z"/>
</g>
</svg>
