<svg width="197" height="26" viewBox="0 0 197 26" fill="none" xmlns="http://www.w3.org/2000/svg">
<path d="M111.287 0.19696C111.287 0.295443 111.168 0.393923 111.011 0.393923C110.381 0.393923 107.82 1.63477 106.638 2.54079C104.964 3.80134 102.561 6.69666 102.62 7.38602C102.62 7.4451 102.502 7.74055 102.345 8.03599C101.852 8.9814 101.242 11.7191 101.242 12.9403C101.242 14.0827 101.832 16.781 102.226 17.5492C102.345 17.7658 102.482 18.1204 102.522 18.3173C102.738 19.44 105.24 22.2959 107.249 23.714C108.372 24.5019 110.991 25.6049 111.74 25.6049C111.917 25.6049 112.074 25.6836 112.074 25.8018C112.074 26.0382 116.742 26.0776 116.841 25.8412C116.88 25.7624 117.668 25.4473 118.613 25.1518C120.898 24.3837 122.947 22.9656 124.68 20.9172C125.468 19.9915 126.354 18.2779 126.807 16.7416C127.477 14.5948 127.516 11.404 126.945 9.55258C126.748 8.90261 126.59 8.31173 126.61 8.21325C126.63 8.13447 126.551 8.07538 126.433 8.07538C126.334 8.07538 126.295 7.9769 126.354 7.87842C126.492 7.66176 125.29 5.55429 124.64 4.84523C122.454 2.44231 120.229 1.0045 117.845 0.453009C117.589 0.393923 117.392 0.275745 117.392 0.177265C117.392 0.0787849 116.014 0 114.339 0C112.429 0 111.287 0.0787849 111.287 0.19696ZM112.882 1.59538C112.271 1.77265 111.267 2.36353 110.459 3.01349C110.262 3.17106 110.105 3.56499 110.105 3.89982C110.105 4.39222 110.203 4.53009 110.715 4.70736C111.484 4.9634 112.527 4.9831 113.453 4.74675C113.827 4.64827 114.379 4.5104 114.694 4.45131C115.344 4.29374 116.801 2.93471 116.801 2.4817C116.801 2.30444 116.624 1.9893 116.388 1.75295L115.994 1.35903L116.742 1.4772C117.865 1.65447 119.047 2.12717 120.307 2.87562C121.509 3.60438 123.577 5.29824 123.439 5.4558C123.38 5.4952 123.538 5.75125 123.794 6.02699C124.306 6.57848 125.389 8.76474 125.783 10.045C126.137 11.2464 126.157 14.6342 125.803 15.7568C125.369 17.0962 124.306 19.2233 123.774 19.7945C123.518 20.0703 123.301 20.3854 123.301 20.4839C123.301 20.7005 120.741 22.8474 120.485 22.8474C120.386 22.8474 120.071 23.005 119.795 23.2216C118.259 24.2852 115.502 24.7382 112.665 24.4231C110.026 24.1277 107.111 22.4929 105.338 20.3066C104.334 19.0855 103.211 16.6825 102.975 15.2644C102.738 13.8463 102.66 11.0298 102.857 11.0298C102.935 11.0298 102.975 10.7737 102.975 10.4586C102.955 10.1435 103.231 9.27684 103.585 8.54808C103.94 7.79963 104.235 7.14967 104.235 7.09058C104.275 6.75574 105.535 5.21945 106.52 4.31343C108.332 2.63927 111.05 1.43781 113.059 1.41812C113.453 1.41812 113.433 1.45751 112.882 1.59538Z" fill="white"/>
<path d="M115.717 4.35351C114.102 5.06257 112.192 5.51558 110.754 5.51558C109.533 5.51558 109.375 5.85041 110.301 6.50038C111.227 7.15035 111.325 7.50488 111.01 8.82451C110.478 11.0896 109.868 11.838 108.016 12.488C107.484 12.6652 107.228 12.8819 107.189 13.1576C107.13 13.5713 107.189 13.591 109.06 13.591L110.99 13.6107L110.242 13.9652C109.277 14.4182 108.016 15.659 107.504 16.6241C106.913 17.7862 106.933 19.9528 107.543 21.0361C107.799 21.4891 108.055 21.8633 108.115 21.8633C108.174 21.8633 108.528 22.1193 108.902 22.4345C110.005 23.3799 112.093 24.0692 114.201 24.1874C115.835 24.2662 116.229 24.2071 117.726 23.7344C119.105 23.2814 119.578 23.0057 120.326 22.2769C121.173 21.4497 121.921 20.4649 121.921 20.1891C121.921 20.13 121.409 20.0906 120.779 20.0906C119.834 20.0906 119.597 20.1694 119.361 20.524C118.179 22.2572 117.234 22.8481 115.698 22.8481C113.334 22.8481 112.369 20.78 113.137 17.3332C113.275 16.6832 114.201 15.403 114.87 14.9106C115.481 14.4576 117.805 14.2212 118.573 14.5364C119.066 14.753 119.066 14.753 118.613 14.753C117.51 14.7924 116.623 15.6787 116.604 16.7423C116.604 18.9877 119.893 19.677 121.468 17.7665C121.961 17.1756 122.079 15.7181 121.705 14.9303C121.409 14.2409 119.912 13.394 118.317 12.9804C115.934 12.3501 115.835 12.035 116.761 7.8791C117.647 3.99899 117.687 3.74294 117.372 3.74294C117.214 3.76263 116.485 4.01868 115.717 4.35351Z" fill="white"/>
<path d="M13.4968 6.22339C11.3106 6.7158 10.8379 6.97184 10.8379 7.6612C10.8379 7.99604 10.9166 8.27178 10.9954 8.27178C11.0939 8.27178 11.1333 8.52783 11.0742 8.86266C10.9954 9.37476 11.0545 9.45354 11.4484 9.45354C11.7045 9.45354 12.3545 9.31567 12.8862 9.1581C13.418 9.00054 14.5604 8.86266 15.4073 8.86266C16.8845 8.86266 16.9633 8.88236 17.1406 9.37476C17.4951 10.2808 17.4163 10.3596 15.7619 10.6156C14.8952 10.7338 13.7332 10.9701 13.162 11.108C12.5908 11.2656 11.8817 11.4231 11.5863 11.5019C10.7788 11.6792 9.6561 12.7625 9.24248 13.7473C8.86826 14.5942 8.76978 16.3275 9.02582 16.9577C9.10461 17.1153 9.43944 17.588 9.77427 18.0016C10.3061 18.6319 10.6015 18.7895 11.6454 19.0258C13.9301 19.4985 18.4208 19.2819 19.7208 18.5925C20.6071 18.1395 20.8828 17.4501 21.2767 14.7124C21.6707 12.0337 21.7692 7.6809 21.454 7.6809C21.3555 7.6809 21.2767 7.56272 21.2767 7.42485C21.2767 7.30668 20.745 6.93245 20.0753 6.61731C19.0708 6.14461 18.5981 6.04613 16.8845 5.98704C15.5255 5.94765 14.4225 6.00674 13.4968 6.22339ZM17.0421 13.3927C17.1012 13.4912 17.0815 13.5897 16.9633 13.5897C16.8648 13.5897 16.7664 14.1609 16.7664 14.8896C16.7664 15.6184 16.6679 16.3078 16.5497 16.4259C16.4315 16.5441 15.8013 16.6426 15.1513 16.6426C14.1271 16.6426 13.9104 16.5835 13.5953 16.1502C12.709 15.0078 13.4574 13.7276 15.2695 13.3337C16.0179 13.1564 16.9239 13.1958 17.0421 13.3927Z" fill="white"/>
<path d="M24.9401 6.22416C23.975 6.38173 23.128 6.53929 23.0886 6.59838C23.0295 6.63777 22.9114 7.5044 22.8129 8.5089C22.5765 10.9709 21.6705 18.1206 21.5523 18.5736C21.4539 18.8887 21.6114 18.9084 23.778 18.869L26.1021 18.8099L26.1218 18.219C26.1809 16.8009 26.4567 14.6147 26.6142 14.3586C26.7718 14.1223 26.8309 14.142 27.0081 14.4177C27.1066 14.6147 27.1854 14.8313 27.1854 14.8904C27.1657 14.9692 27.2248 15.0874 27.3233 15.1465C27.5399 15.304 28.3081 16.6631 28.702 17.5691C28.8793 17.9827 29.0959 18.3175 29.1944 18.3175C29.2732 18.3175 29.352 18.4554 29.352 18.613C29.352 18.8493 29.7459 18.9084 31.7155 18.9084C33.3897 18.9084 34.079 18.8493 34.079 18.6721C34.079 18.416 32.72 15.8949 32.5033 15.757C32.4246 15.698 32.1882 15.3434 31.9912 14.9495C31.7746 14.5556 31.4004 13.8465 31.1443 13.3738L30.6913 12.5269L31.3019 11.9754C31.6367 11.68 31.9125 11.3845 31.9125 11.3057C31.9125 11.2466 32.2867 10.7542 32.7397 10.2225L33.5472 9.25735H35.5759H37.5849L37.5061 9.78914C37.4667 10.1043 37.2107 11.9754 36.9349 13.9844C36.6592 15.9934 36.3835 17.9236 36.3244 18.2781L36.2259 18.9281L38.55 18.869L40.8742 18.8099L40.9135 17.7266C40.9332 17.1358 41.1696 15.048 41.4453 13.0981C41.7408 11.1482 41.9574 9.4937 41.9574 9.41492C41.9574 9.31643 42.7847 9.25735 43.8089 9.25735H45.6603L45.7785 8.31194C45.8573 7.79984 45.9754 7.09078 46.0345 6.73625L46.133 6.10598H38.6485H31.1837L29.5489 8.17407C28.6626 9.31643 27.8551 10.2421 27.7566 10.2421C27.6581 10.2421 27.5793 10.3603 27.5793 10.5179C27.5793 10.6558 27.4415 10.8921 27.2839 11.03C26.9294 11.3254 26.9294 11.3845 27.2839 9.06039C27.4415 8.03619 27.5793 6.89382 27.5793 6.53929C27.5793 5.81054 27.6187 5.81054 24.9401 6.22416Z" fill="white"/>
<path d="M63.9183 6.10741C62.4411 6.42255 60.9639 7.21039 60.3336 7.99823C60.0184 8.41185 59.7427 8.90425 59.7427 9.06182C59.723 9.21938 59.6048 9.84966 59.4276 10.4405C59.27 11.0314 59.0336 12.4692 58.8761 13.6116C58.6594 15.5024 58.6594 15.7979 58.9549 16.5857C59.467 17.925 60.3927 18.7129 61.8896 19.028C64.4501 19.5795 67.4832 19.2447 69.1968 18.2599C70.7331 17.3538 71.58 14.9903 71.8361 10.9329C71.9542 9.02242 71.7573 8.33306 70.8513 7.34826C69.8862 6.28468 66.1439 5.61501 63.9183 6.10741ZM66.9121 9.1603C67.3848 9.49513 67.3848 9.35726 67.0893 13.198C66.9318 15.0297 66.8136 15.463 66.2818 15.9554C65.9469 16.2706 65.553 16.4084 64.9425 16.4281C64.2334 16.4478 63.997 16.3493 63.544 15.8569C63.1304 15.4039 63.0319 15.1479 63.1107 14.6752C63.1698 14.36 63.3077 13.3359 63.4456 12.4101C63.7213 10.4602 64.0364 9.59361 64.647 9.17999C65.2182 8.78607 66.3606 8.78607 66.9121 9.1603Z" fill="white"/>
<path d="M75.3412 6.205C74.4745 6.32318 73.6079 6.50044 73.4306 6.57922C73.0761 6.73679 72.8988 7.36707 72.8988 8.56852C72.8988 9.00184 72.6231 11.2669 72.2883 13.591C71.9731 15.9151 71.6974 18.062 71.6974 18.3574V18.9089H73.9624H76.2275L76.2472 18.3574C76.3457 16.2697 76.4244 15.3833 76.5229 14.8122L76.6411 14.1819H78.1971C79.3395 14.1819 79.7728 14.2607 79.7728 14.4182C79.7728 14.5561 79.6349 15.5606 79.4773 16.6439C79.3198 17.7272 79.1819 18.6726 79.1819 18.7514C79.1819 18.8498 79.95 18.9089 80.8757 18.9089C82.3726 18.9089 82.6287 18.8498 83.1014 18.4559C83.3771 18.1999 83.6529 17.865 83.6923 17.7075C83.9286 16.8212 85.3467 6.10652 85.2483 6.00804C85.0513 5.79138 80.8757 6.50044 80.7182 6.75649C80.6394 6.87467 80.5606 7.17011 80.5409 7.38676C80.403 10.0063 80.344 10.7745 80.2652 10.9714C80.2061 11.1487 79.6743 11.2275 78.591 11.2275H76.9956L77.1138 10.5775C77.4289 8.60791 77.6062 7.30798 77.6062 6.63831C77.6062 5.81108 77.7244 5.83078 75.3412 6.205Z" fill="white"/>
<path d="M166.396 6.18597C166.219 6.34354 165.49 6.48141 164.368 6.5405C162.299 6.63898 161.413 6.99351 160.783 7.97831C160.369 8.60858 160.33 8.88433 160.33 11.7206C160.33 15.3643 160.487 15.8567 161.906 16.6249C162.713 17.0582 163.087 17.137 164.545 17.137C166.199 17.137 166.239 17.137 166.239 17.6097C166.239 18.3384 166.731 18.7126 167.736 18.7126H168.602V17.9248V17.137H170.335C172.522 17.137 173.605 16.6643 174.216 15.4628C174.57 14.7537 174.609 14.3401 174.57 11.6615C174.531 9.0025 174.491 8.60858 174.137 8.09649C173.92 7.80105 173.782 7.48591 173.841 7.42682C174.137 7.15108 171.655 6.50111 170.257 6.50111C169.134 6.50111 168.76 6.42232 168.681 6.20567C168.523 5.81175 166.77 5.79205 166.396 6.18597ZM166.239 11.819V14.7734H164.86C163.718 14.7734 163.462 14.7144 163.284 14.3992C162.989 13.8477 163.028 9.39642 163.324 9.10098C163.462 8.96311 164.111 8.86463 164.899 8.86463H166.239V11.819ZM171.852 9.08129C172.069 9.41612 171.951 14.2416 171.714 14.5174C171.576 14.6947 171.005 14.7734 170.06 14.7734H168.602V11.819V8.86463H170.158C171.064 8.86463 171.793 8.96311 171.852 9.08129Z" fill="white"/>
<path d="M2.97944 8.17461C2.07343 9.31698 1.26589 10.2427 1.16741 10.2427C1.06893 10.2427 0.990144 10.3609 0.990144 10.4987C0.990144 10.6563 0.773488 10.9714 0.497743 11.2275C-0.0734417 11.7593 -0.171922 12.9213 0.300783 13.2759C0.458351 13.3941 0.635615 13.6895 0.694703 13.9455C0.734096 14.1819 0.891664 14.5167 1.04923 14.6546C1.2068 14.8122 1.44315 15.2061 1.58102 15.5409C1.7189 15.8757 1.91586 16.1515 2.01434 16.1515C2.11282 16.1515 2.13251 16.2303 2.07343 16.3485C2.01434 16.4469 2.05373 16.5454 2.17191 16.5454C2.29008 16.5454 2.34917 16.6242 2.29008 16.7227C2.23099 16.8015 2.34917 17.0772 2.54613 17.3136C2.74309 17.5499 3.01884 18.0029 3.15671 18.3181L3.39306 18.9089H5.53993C6.72169 18.9089 7.68679 18.8695 7.68679 18.8105C7.68679 18.6726 6.64291 16.6636 6.52473 16.5454C6.38686 16.4272 6.34746 16.3485 5.14601 14.1228C4.25969 12.488 4.25969 12.1729 5.1657 11.5426C5.40205 11.3654 5.53993 11.2275 5.46114 11.2275C5.26418 11.2275 7.05652 9.02154 7.41105 8.80488C7.56862 8.7261 7.68679 8.52914 7.68679 8.39126C7.68679 8.27309 8.00193 7.85947 8.37616 7.48525C8.75038 7.11102 9.06552 6.65801 9.06552 6.46105C9.06552 6.14592 8.84886 6.10653 6.83987 6.10653H4.61421L2.97944 8.17461Z" fill="white"/>
<path d="M46.5669 6.79589C46.5078 7.17011 46.4881 7.62312 46.5669 7.78069C46.626 7.93825 46.5866 8.07613 46.4881 8.07613C46.3896 8.07613 46.3108 8.54883 46.3108 9.10032C46.3108 9.6715 46.0351 11.9956 45.72 14.2607C45.3851 16.506 45.1094 18.4953 45.1094 18.6332C45.1094 18.8498 45.523 18.9089 46.9411 18.9089H48.7728L49.797 17.865C50.3682 17.2939 50.8212 16.7227 50.8212 16.6045C50.8212 16.4863 50.9591 16.2894 51.1364 16.1318C51.2939 15.9939 51.9636 15.1864 52.6136 14.3198C53.2438 13.4531 53.7756 12.7835 53.7756 12.8426C53.7756 12.882 53.5984 14.2016 53.3817 15.7576C53.165 17.3136 52.9878 18.6529 52.9878 18.7514C52.9878 18.8302 53.9529 18.9089 55.1543 18.9089C57.2421 18.9089 57.3209 18.8892 57.3997 18.4559C57.6164 17.4711 58.6996 9.33667 58.6602 8.96245C58.6405 8.74579 58.6996 8.01704 58.7784 7.32768L58.936 6.10653H57.4194C55.6074 6.10653 55.0165 6.38227 54.1499 7.56403C53.815 8.05643 53.4014 8.48974 53.2635 8.54883C53.106 8.60792 52.9878 8.78518 52.9878 8.94275C52.9878 9.10032 52.8302 9.35637 52.6333 9.49424C52.4363 9.63211 51.8848 10.2624 51.4318 10.8927C50.9591 11.5229 50.5455 11.9956 50.5061 11.9562C50.4667 11.9365 50.6243 10.7548 50.8212 9.35637C51.0379 7.93825 51.2151 6.63832 51.2151 6.44136C51.2151 6.14592 50.9788 6.10653 48.9501 6.10653H46.7048L46.5669 6.79589Z" fill="white"/>
<path d="M87.0625 6.52014C87.0625 6.7368 87.2398 7.15041 87.4564 7.42616C87.6731 7.7019 87.7913 7.99734 87.7322 8.09582C87.6731 8.1943 87.7322 8.27309 87.8306 8.27309C87.9488 8.27309 88.0473 8.37157 88.0473 8.48974C88.0473 8.60792 88.323 9.10032 88.6776 9.59272C89.0124 10.1048 89.2882 10.6169 89.2882 10.7745C89.2882 10.9124 89.3669 11.0305 89.4654 11.0305C89.5442 11.0305 89.623 11.1487 89.623 11.2669C89.623 11.4048 89.8002 11.7396 89.9972 12.0153C90.3714 12.488 90.3714 12.5077 90.0169 13.0001C89.8199 13.2759 89.3275 13.8471 88.9336 14.2804C87.3973 15.9742 85.4868 18.4362 85.4868 18.6923C85.4868 18.8302 86.314 18.9089 87.8306 18.9089H90.1745L90.5881 18.259C90.8047 17.9241 91.4547 17.0969 92.0062 16.4469C92.5577 15.797 93.4046 14.7531 93.897 14.1031L94.803 12.9607L94.0349 11.4048C93.6213 10.5381 93.2274 9.84877 93.1683 9.84877C93.1092 9.84877 92.8531 9.43515 92.5971 8.90336C92.341 8.39126 91.8683 7.56403 91.5335 7.03224L90.9426 6.10653H88.9927C87.161 6.10653 87.0625 6.12622 87.0625 6.52014Z" fill="white"/>
<path d="M132.323 6.71821C131.988 6.89547 131.968 7.40757 131.968 12.7058V18.5161H133.248H134.529L134.568 14.3209C134.627 10.362 134.647 10.1847 134.903 11.0316C135.06 11.524 135.513 12.5876 135.888 13.4149C136.281 14.2421 136.616 15.0299 136.656 15.1875C136.813 15.8572 137.916 17.8859 138.35 18.2995C139.039 18.9494 140.043 18.7525 140.752 17.8268C141.028 17.4525 141.205 17.0586 141.127 16.9404C141.068 16.842 141.107 16.7435 141.205 16.7435C141.324 16.7435 141.402 16.6844 141.383 16.5859C141.363 16.5071 141.678 15.7784 142.072 14.9511C142.466 14.1239 142.801 13.3952 142.801 13.3164C142.801 13.2376 143.116 12.5482 143.49 11.7604L144.18 10.3423V14.4391V18.5161H145.558H146.937V12.9028C146.937 6.2652 147.016 6.50155 144.889 6.50155C143.845 6.50155 143.51 6.58034 143.096 6.93487C142.821 7.19092 142.564 7.58484 142.505 7.82119C142.466 8.05754 142.072 8.96356 141.639 9.84988C141.186 10.7165 140.89 11.4256 140.93 11.4256C140.989 11.4256 140.674 12.1346 140.24 13.0012C139.807 13.8679 139.453 14.6163 139.453 14.6754C139.453 15.2072 139.374 15.1284 138.94 14.2815C138.665 13.73 138.409 13.1588 138.369 13.0012C138.33 12.8437 137.975 11.9967 137.562 11.1301C137.148 10.2635 136.833 9.49535 136.853 9.41657C136.912 9.14082 135.828 7.19092 135.435 6.85608C134.962 6.46216 132.894 6.36368 132.323 6.71821Z" fill="white"/>
<path d="M148.533 6.77587C148.356 6.97283 148.317 8.39094 148.356 12.1529C148.415 17.6875 148.376 17.4314 149.597 18.239C150.109 18.5738 150.621 18.6132 153.871 18.6723L157.574 18.7511V19.3222C157.574 19.8934 157.574 19.8934 158.834 19.8934H160.095L160.311 18.4162C160.627 16.2497 160.666 16.3481 159.543 16.3481H158.559V11.6605C158.559 8.27277 158.499 6.91374 158.322 6.73648C158.184 6.5986 157.574 6.50012 156.943 6.50012H155.801V11.4438V16.3875L153.654 16.3088C152.472 16.2891 151.429 16.1709 151.33 16.0921C151.251 15.9936 151.133 13.8271 151.074 11.2666L150.976 6.5986L149.873 6.53952C149.085 6.50012 148.711 6.55921 148.533 6.77587Z" fill="white"/>
<path d="M175.498 6.81487C175.498 6.97244 175.597 7.50423 175.715 7.99663L175.931 8.86326H178.728C181.387 8.86326 181.564 8.88295 181.939 9.29657C182.175 9.57232 182.352 10.0844 182.372 10.5768L182.431 11.4237H179.221H176.03L176.168 12.1525C176.246 12.5661 176.325 12.9994 176.325 13.1373C176.365 13.5706 176.936 13.6494 179.536 13.61C180.954 13.5903 182.195 13.6494 182.293 13.7282C182.53 13.9251 182.569 14.969 182.333 14.969C182.234 14.969 182.195 15.0872 182.254 15.2448C182.333 15.422 182.155 15.6781 181.84 15.8947C181.407 16.1902 180.816 16.269 178.472 16.3084L175.656 16.3871L175.754 16.8992C175.813 17.1947 175.951 17.6871 176.069 17.9825L176.286 18.5537L179.398 18.4749C182.431 18.4158 182.549 18.3961 183.337 17.8643C185.051 16.7417 185.267 15.9341 185.189 11.1677L185.149 9.04052L184.263 8.09511C183.002 6.73609 182.116 6.49973 178.433 6.49973C175.912 6.49973 175.498 6.53912 175.498 6.81487Z" fill="white"/>
<path d="M187.413 6.65838C186.172 7.07199 186.231 6.71746 186.172 12.8823L186.113 18.5154H187.413H188.693V16.8412V15.1671H191.569C194.72 15.1671 195.626 14.9307 196.04 14.0444C196.139 13.808 196.316 13.5914 196.414 13.5914C196.69 13.5914 196.611 8.29315 196.336 7.95831C195.646 7.11138 195.351 6.89473 194.661 6.71746C193.854 6.48111 188.063 6.46142 187.413 6.65838ZM193.775 10.8733L193.834 12.8035H191.254H188.693V10.9718C188.693 9.94761 188.753 9.06129 188.831 8.98251C188.91 8.92342 190.033 8.88403 191.333 8.90372L193.716 8.96281L193.775 10.8733Z" fill="white"/>
</svg>
