<svg width="340" height="45" fill="none" xmlns="http://www.w3.org/2000/svg"><path d="M192.473.373c0 .17-.205.34-.477.34-1.09 0-5.519 2.147-7.562 3.714-2.896 2.18-7.052 7.187-6.95 8.38 0 .102-.204.613-.477 1.124-.851 1.635-1.907 6.37-1.907 8.482 0 1.976 1.022 6.643 1.703 7.971.204.375.443.988.511 1.329.375 1.941 4.701 6.88 8.176 9.333 1.941 1.363 6.472 3.27 7.766 3.27.307 0 .579.137.579.341 0 .409 8.074.477 8.244.068.068-.136 1.431-.68 3.066-1.192 3.951-1.328 7.494-3.781 10.492-7.324 1.363-1.6 2.895-4.565 3.679-7.222 1.158-3.713 1.226-9.231.238-12.433-.34-1.124-.613-2.146-.579-2.317.034-.136-.102-.238-.306-.238-.171 0-.239-.17-.137-.34.239-.375-1.839-4.02-2.963-5.247-3.781-4.156-7.631-6.642-11.753-7.596-.442-.102-.783-.307-.783-.477 0-.17-2.385-.307-5.28-.307-3.304 0-5.28.137-5.28.341zm2.759 2.419c-1.056.306-2.793 1.328-4.19 2.452-.34.273-.613.954-.613 1.533 0 .852.17 1.09 1.056 1.397 1.329.443 3.134.477 4.735.068.647-.17 1.601-.409 2.146-.511 1.124-.273 3.645-2.623 3.645-3.406 0-.307-.307-.852-.715-1.26l-.682-.682 1.295.204c1.942.307 3.985 1.124 6.166 2.419 2.078 1.26 5.654 4.19 5.416 4.462-.102.068.17.511.613.988.886.954 2.759 4.735 3.441 6.95.613 2.077.647 7.937.034 9.878-.75 2.317-2.589 5.996-3.509 6.983-.443.477-.818 1.022-.818 1.193 0 .374-4.428 4.087-4.871 4.087-.17 0-.715.273-1.192.648-2.657 1.84-7.426 2.623-12.332 2.078-4.564-.511-9.606-3.339-12.672-7.12-1.737-2.112-3.679-6.268-4.087-8.72-.409-2.453-.545-7.324-.205-7.324.136 0 .205-.443.205-.988-.035-.545.442-2.044 1.056-3.304.613-1.295 1.124-2.42 1.124-2.521.068-.58 2.248-3.236 3.951-4.803 3.134-2.896 7.835-4.974 11.31-5.008.681 0 .647.068-.307.307z" fill="#EE3831"/><path d="M200.137 7.562c-2.793 1.226-6.098 2.01-8.584 2.01-2.112 0-2.385.579-.784 1.703 1.601 1.124 1.771 1.737 1.226 4.02-.919 3.917-1.975 5.212-5.177 6.336-.92.306-1.363.681-1.431 1.158-.102.715 0 .75 3.236.75l3.338.034-1.294.613c-1.669.783-3.849 2.93-4.735 4.598-1.022 2.01-.988 5.757.068 7.63.443.784.886 1.432.988 1.432.102 0 .715.443 1.363.988 1.907 1.635 5.518 2.827 9.163 3.031 2.827.136 3.509.034 6.098-.783 2.384-.784 3.202-1.26 4.496-2.521 1.465-1.43 2.759-3.134 2.759-3.61 0-.103-.885-.171-1.975-.171-1.636 0-2.044.136-2.453.75-2.044 2.997-3.679 4.019-6.336 4.019-4.088 0-5.757-3.577-4.429-9.538.239-1.124 1.84-3.339 2.998-4.19 1.056-.784 5.076-1.193 6.404-.648.852.375.852.375.068.375-1.907.068-3.44 1.601-3.474 3.44 0 3.884 5.689 5.076 8.414 1.772.851-1.022 1.056-3.543.409-4.905-.511-1.192-3.1-2.657-5.86-3.373-4.121-1.09-4.292-1.635-2.691-8.822 1.533-6.711 1.601-7.154 1.056-7.154-.272.034-1.533.477-2.861 1.056zM23.342 10.797c-3.78.851-4.598 1.294-4.598 2.486 0 .58.136 1.056.272 1.056.17 0 .239.443.137 1.022-.137.886-.035 1.022.647 1.022.443 0 1.567-.238 2.486-.51.92-.273 2.896-.512 4.36-.512 2.556 0 2.692.034 2.998.886.614 1.567.477 1.703-2.384 2.146a53.955 53.955 0 00-4.497.852c-.988.272-2.214.545-2.725.681-1.396.307-3.338 2.18-4.053 3.883-.648 1.465-.818 4.463-.375 5.553.136.273.715 1.09 1.294 1.805.92 1.09 1.43 1.363 3.236 1.772 3.952.817 11.719.443 13.967-.75 1.533-.783 2.01-1.975 2.691-6.71.681-4.633.852-12.161.307-12.161-.17 0-.307-.205-.307-.443 0-.205-.92-.852-2.078-1.397-1.737-.818-2.555-.988-5.518-1.09-2.35-.068-4.259.034-5.86.409zm6.132 12.4c.102.17.068.34-.136.34-.17 0-.34.988-.34 2.248 0 1.26-.171 2.453-.376 2.657-.204.205-1.294.375-2.418.375-1.771 0-2.146-.102-2.691-.852-1.533-1.975-.239-4.19 2.895-4.87 1.295-.307 2.862-.24 3.066.101zM43.133 10.796c-1.669.273-3.134.545-3.202.648-.102.068-.306 1.567-.477 3.304-.408 4.258-1.975 16.624-2.18 17.407-.17.545.102.58 3.85.51l4.02-.101.033-1.022c.102-2.453.58-6.234.852-6.677.272-.409.375-.375.681.102.17.34.307.716.307.818-.034.136.068.34.238.443.375.272 1.703 2.623 2.385 4.19.306.715.681 1.294.851 1.294.137 0 .273.239.273.511 0 .409.681.511 4.088.511 2.895 0 4.087-.102 4.087-.409 0-.443-2.35-4.803-2.725-5.041-.136-.102-.545-.716-.886-1.397-.374-.681-1.021-1.908-1.464-2.725l-.784-1.465 1.056-.954c.58-.51 1.056-1.022 1.056-1.158 0-.102.648-.954 1.431-1.873l1.397-1.67H65.003l-.136.92c-.069.545-.511 3.781-.988 7.256-.477 3.474-.954 6.813-1.056 7.426l-.17 1.124 4.02-.102 4.019-.102.068-1.874c.034-1.022.443-4.633.92-8.005.51-3.372.885-6.234.885-6.37 0-.17 1.431-.273 3.202-.273h3.203l.204-1.635c.136-.886.34-2.112.443-2.725l.17-1.09H53.932l-2.828 3.577c-1.532 1.976-2.93 3.577-3.1 3.577-.17 0-.306.204-.306.477 0 .238-.238.647-.51.885-.614.511-.614.613 0-3.406.272-1.772.51-3.748.51-4.36 0-1.261.068-1.261-4.565-.546zM110.547 10.594c-2.554.545-5.109 1.908-6.199 3.27-.545.716-1.022 1.567-1.022 1.84a19.137 19.137 0 01-.545 2.384c-.273 1.022-.682 3.509-.954 5.485-.375 3.27-.375 3.78.136 5.143.886 2.317 2.487 3.68 5.076 4.224 4.428.954 9.674.375 12.638-1.328 2.657-1.567 4.122-5.655 4.565-12.672.204-3.304-.137-4.497-1.704-6.2-1.669-1.84-8.141-2.998-11.991-2.146zm5.178 5.28c.818.58.818.34.307 6.983-.273 3.168-.477 3.918-1.397 4.77-.579.544-1.26.783-2.316.817-1.226.034-1.635-.136-2.419-.988-.715-.783-.885-1.226-.749-2.044.102-.545.34-2.316.579-3.917.477-3.373 1.022-4.872 2.078-5.587.988-.681 2.963-.681 3.917-.034zM130.306 10.763c-1.499.204-2.998.51-3.304.647-.613.273-.92 1.363-.92 3.44 0 .75-.477 4.667-1.056 8.687-.545 4.02-1.022 7.733-1.022 8.244v.954h7.835l.034-.954c.17-3.611.307-5.144.477-6.132l.204-1.09h2.691c1.976 0 2.726.136 2.726.409 0 .238-.239 1.976-.511 3.85-.273 1.873-.511 3.508-.511 3.644 0 .17 1.328.273 2.929.273 2.589 0 3.032-.103 3.85-.784.477-.443.953-1.022 1.022-1.294.408-1.533 2.861-20.064 2.691-20.235-.341-.375-7.563.852-7.835 1.295-.137.204-.273.715-.307 1.09-.238 4.53-.34 5.859-.477 6.2-.102.306-1.022.442-2.895.442h-2.759l.204-1.124c.545-3.406.852-5.654.852-6.813 0-1.43.204-1.396-3.918-.75zM287.787 10.73c-.306.273-1.567.512-3.508.614-3.577.17-5.11.783-6.2 2.487-.715 1.09-.784 1.567-.784 6.472 0 6.302.273 7.153 2.726 8.482 1.396.75 2.043.886 4.564.886 2.862 0 2.93 0 2.93.817 0 1.26.851 1.908 2.589 1.908h1.499V29.67h2.997c3.782 0 5.655-.818 6.711-2.896.613-1.226.681-1.941.613-6.574-.068-4.599-.136-5.28-.749-6.166-.375-.511-.613-1.056-.511-1.158.511-.477-3.781-1.601-6.2-1.601-1.942 0-2.589-.136-2.725-.511-.273-.681-3.304-.716-3.952-.034zm-.272 9.743v5.11h-2.385c-1.975 0-2.418-.102-2.725-.647-.511-.954-.443-8.653.068-9.164.239-.238 1.363-.409 2.725-.409h2.317v5.11zm9.708-4.735c.375.58.171 8.925-.238 9.402-.239.307-1.226.443-2.862.443h-2.52v-10.22h2.691c1.567 0 2.827.17 2.929.375zM5.153 14.17c-1.567 1.975-2.964 3.576-3.134 3.576-.17 0-.307.205-.307.443 0 .273-.374.817-.851 1.26-.988.92-1.158 2.93-.34 3.543.272.204.578.715.68 1.158.069.41.341.988.614 1.227.272.272.681.953.92 1.533.238.579.579 1.056.749 1.056.17 0 .204.136.102.34-.102.17-.034.34.17.34.205 0 .307.137.205.307-.102.137.102.614.443 1.022.34.41.817 1.193 1.056 1.738l.408 1.022h3.713c2.044 0 3.713-.069 3.713-.17 0-.24-1.805-3.714-2.01-3.918-.238-.204-.306-.34-2.384-4.19-1.533-2.828-1.533-3.373.034-4.463.409-.306.647-.545.511-.545-.34 0 2.76-3.815 3.373-4.19.272-.136.476-.476.476-.715 0-.204.545-.92 1.193-1.567.647-.647 1.192-1.43 1.192-1.771 0-.545-.375-.614-3.85-.614H7.98L5.153 14.17zM80.538 11.785c-.102.647-.136 1.43 0 1.703.103.273.035.511-.136.511-.17 0-.306.818-.306 1.771 0 .988-.477 5.008-1.022 8.925-.58 3.884-1.056 7.324-1.056 7.563 0 .374.715.477 3.168.477h3.168l1.771-1.806c.988-.988 1.771-1.976 1.771-2.18 0-.204.239-.545.546-.817.272-.239 1.43-1.636 2.554-3.134 1.09-1.5 2.01-2.657 2.01-2.555 0 .068-.306 2.35-.681 5.041-.375 2.691-.681 5.008-.681 5.178 0 .136 1.669.273 3.747.273 3.61 0 3.747-.034 3.883-.784.375-1.703 2.248-15.772 2.18-16.42-.034-.374.068-1.634.205-2.827l.272-2.112h-2.623c-3.134 0-4.156.477-5.655 2.521-.579.852-1.294 1.601-1.532 1.704a.778.778 0 00-.477.68c0 .273-.273.716-.614.955-.34.238-1.294 1.328-2.078 2.418-.817 1.09-1.532 1.908-1.6 1.84-.069-.034.204-2.078.544-4.497.375-2.453.682-4.7.682-5.041 0-.511-.41-.58-3.918-.58h-3.883l-.239 1.193zM150.576 11.308c0 .375.306 1.09.681 1.567.375.477.579.988.477 1.158-.102.17 0 .307.17.307.204 0 .375.17.375.374 0 .205.477 1.056 1.09 1.908.579.886 1.056 1.771 1.056 2.044 0 .238.136.443.306.443.137 0 .273.204.273.408 0 .239.307.818.647 1.295.647.817.647.852.034 1.703-.34.477-1.192 1.465-1.873 2.214-2.657 2.93-5.962 7.188-5.962 7.63 0 .24 1.431.376 4.054.376h4.054l.715-1.125c.375-.579 1.499-2.01 2.453-3.133.954-1.125 2.418-2.93 3.27-4.054l1.567-1.976-1.329-2.691c-.715-1.499-1.396-2.691-1.498-2.691-.103 0-.545-.716-.988-1.635a45.548 45.548 0 00-1.84-3.236l-1.022-1.602h-3.372c-3.168 0-3.338.035-3.338.716zM228.855 11.65c-.579.307-.613 1.193-.613 10.356v10.05h4.428l.068-7.256c.102-6.848.137-7.154.579-5.69.273.852 1.056 2.692 1.704 4.123.681 1.43 1.26 2.793 1.328 3.065.273 1.159 2.18 4.667 2.93 5.383 1.192 1.124 2.929.783 4.156-.818.476-.647.783-1.328.647-1.533-.102-.17-.034-.34.136-.34.204 0 .341-.103.307-.273-.034-.136.511-1.397 1.192-2.827.681-1.431 1.26-2.692 1.26-2.828 0-.136.545-1.328 1.193-2.69l1.192-2.453v14.136h4.769v-9.708c0-11.48.136-11.071-3.543-11.071-1.805 0-2.384.136-3.1.75-.477.442-.919 1.123-1.022 1.532-.068.409-.749 1.976-1.498 3.509-.784 1.499-1.295 2.725-1.227 2.725.102 0-.443 1.226-1.192 2.725-.75 1.499-1.363 2.794-1.363 2.896 0 .92-.136.783-.885-.682-.477-.953-.92-1.941-.988-2.214-.068-.272-.682-1.737-1.397-3.236s-1.26-2.827-1.226-2.964c.102-.476-1.772-3.849-2.453-4.428-.817-.681-4.394-.852-5.382-.239z" fill="#EE3831"/><path d="M256.892 11.751c-.307.34-.375 2.793-.307 9.3.102 9.572.034 9.13 2.146 10.526.886.579 1.772.647 7.392.75l6.404.136v.987c0 .988 0 .988 2.181.988h2.18l.374-2.555c.546-3.747.614-3.576-1.328-3.576h-1.703v-8.108c0-5.859-.102-8.21-.409-8.516-.239-.239-1.295-.409-2.385-.409h-1.975v17.1l-3.713-.136c-2.044-.034-3.85-.238-4.02-.374-.136-.17-.341-3.918-.443-8.346l-.17-8.074-1.908-.102c-1.362-.068-2.01.034-2.316.41zM303.527 11.818c0 .273.17 1.192.375 2.044l.374 1.499h4.837c4.599 0 4.906.034 5.553.75.409.476.715 1.362.749 2.213l.103 1.465h-11.071l.238 1.26c.136.716.273 1.465.273 1.704.068.75 1.056.886 5.552.817 2.453-.034 4.599.069 4.769.205.409.34.477 2.146.068 2.146-.17 0-.238.204-.136.477.136.306-.17.75-.715 1.124-.75.51-1.772.647-5.825.715l-4.872.137.171.885c.102.511.34 1.363.545 1.874l.374.988 5.383-.137c5.246-.102 5.45-.136 6.813-1.056 2.963-1.941 3.338-3.338 3.202-11.582l-.068-3.679-1.533-1.635c-2.18-2.35-3.713-2.759-10.083-2.759-4.361 0-5.076.068-5.076.545zM324.136 11.547c-2.146.715-2.044.102-2.146 10.764l-.103 9.743h4.463v-5.791h4.973c5.451 0 7.018-.409 7.733-1.942.17-.409.477-.783.647-.783.477 0 .341-9.164-.136-9.743-1.192-1.464-1.703-1.84-2.895-2.146-1.397-.409-11.412-.443-12.536-.102zm11.003 7.29l.102 3.338h-8.891v-3.168c0-1.771.102-3.304.238-3.44.137-.103 2.078-.17 4.327-.137l4.121.103.103 3.304z" fill="#EE3831"/></svg>