<svg width="440" height="70" fill="none" xmlns="http://www.w3.org/2000/svg"><path d="M21.704 69.104c9.928 0 17.422-5.159 19.564-14.892H34.94c-1.85 6.521-6.132 9.539-12.75 9.539h-.584c-7.98 0-15.086-5.743-15.28-19.466h35.038v-3.893c0-12.459-7.786-21.9-19.66-21.9C10.511 18.492 0 26.669 0 43.701c0 16.643 9.538 25.403 21.704 25.403zM6.521 38.932c1.363-11.583 8.468-15.086 14.6-15.086h.973c7.689 0 12.652 6.423 12.944 15.086H6.521zM67.096 69.104c6.326 0 13.334-3.407 16.254-8.76v7.786h6.326V0H83.35v27.252c-2.92-5.353-9.928-8.76-16.254-8.76-12.653 0-21.705 9.733-21.705 25.306s9.052 25.306 21.705 25.306zm.194-5.353c-10.414 0-15.475-9.441-15.475-19.953 0-10.511 5.061-19.952 15.475-19.952h.487c10.511 0 15.573 9.44 15.573 19.952 0 10.512-5.062 19.953-15.573 19.953h-.487zM124.224 68.13v-5.353h-9.733c-2.92 0-3.893-.973-3.893-3.893V24.82h12.166v-5.353h-12.166V3.699h-6.327v15.767H93.079v5.353h11.192V59.37c0 6.326 2.92 8.76 9.247 8.76h10.706zM146.472 69.104c9.928 0 17.422-5.159 19.563-14.892h-6.326c-1.849 6.521-6.132 9.539-12.75 9.539h-.584c-7.981 0-15.086-5.743-15.281-19.466h35.039v-3.893c0-12.459-7.787-21.9-19.661-21.9-11.193 0-21.704 8.176-21.704 25.209 0 16.643 9.538 25.403 21.704 25.403zm-15.183-30.172c1.362-11.583 8.467-15.086 14.599-15.086h.973c7.689 0 12.653 6.423 12.945 15.086h-28.517zM192.544 69.104c10.512 0 17.228-6.521 18.98-16.546h-6.327c-1.265 6.229-5.645 11.193-12.166 11.193h-.973c-10.609 0-15.573-9.344-15.573-19.953s4.964-19.952 15.573-19.952h.973c6.521 0 11.096 4.671 12.166 11.192h6.327c-.974-10.22-8.468-16.545-18.98-16.545-14.404 0-22.385 10.998-22.385 25.305s7.981 25.306 22.385 25.306zM224.321 68.13V41.852c0-11.29 7.592-18.006 15.086-18.006h.973c7.787 0 11.68 4.769 11.68 14.112V68.13h6.326V36.012c0-10.22-5.742-17.52-16.546-17.52-8.175 0-14.21 3.504-17.519 9.247V0h-6.327v68.13h6.327zM305.621 69.104c10.512 0 17.227-6.521 18.979-16.546h-6.326c-1.265 6.229-5.645 11.193-12.166 11.193h-.973c-10.609 0-15.573-9.344-15.573-19.953s4.964-19.952 15.573-19.952h.973c6.521 0 11.095 4.671 12.166 11.192h6.326c-.973-10.22-8.467-16.545-18.979-16.545-14.405 0-22.386 10.998-22.386 25.305s7.981 25.306 22.386 25.306zM337.398 68.13V0h-6.327v68.13h6.327zM363.444 69.104c7.981 0 13.723-3.699 16.254-10.123v9.15h6.326V19.465h-6.326v26.279c0 11.29-7.008 18.006-14.113 18.006h-.973c-7.787 0-11.68-4.77-11.68-14.113V19.466h-6.326v32.118c0 10.22 6.034 17.52 16.838 17.52zM418.296 69.104c12.652 0 21.704-9.733 21.704-25.306s-9.052-25.306-21.704-25.306c-6.327 0-13.334 3.407-16.254 8.76V0h-6.327v68.13h6.327v-7.786c2.92 5.353 9.927 8.76 16.254 8.76zm-.682-5.353c-10.511 0-15.572-9.441-15.572-19.953 0-10.511 5.061-19.952 15.572-19.952h.487c10.414 0 15.475 9.44 15.475 19.952 0 10.512-5.061 19.953-15.475 19.953h-.487z" fill="#EE3831"/></svg>