<?xml version="1.0" encoding="utf-8"?>
<!-- Generator: Adobe Illustrator 17.0.0, SVG Export Plug-In . SVG Version: 6.00 Build 0)  -->
<!DOCTYPE svg PUBLIC "-//W3C//DTD SVG 1.1//EN" "http://www.w3.org/Graphics/SVG/1.1/DTD/svg11.dtd">
<svg version="1.1" id="Layer_1" xmlns="http://www.w3.org/2000/svg" xmlns:xlink="http://www.w3.org/1999/xlink" x="0px" y="0px"
	 width="850.394px" height="283.465px" viewBox="0 0 850.394 283.465" enable-background="new 0 0 850.394 283.465"
	 xml:space="preserve">
<g>
	<polygon fill="#FFFFFF" points="210.52,207.874 210.52,75.591 188.597,75.591 145.511,137.386 100.347,75.591 76.913,75.591 
		76.913,207.874 100.158,207.874 100.158,112.819 142.299,171.024 145.701,171.024 187.465,112.252 187.465,207.874 	"/>
	<path fill="#FFFFFF" d="M318.803,174.048l13.794,33.827h24.756L301.417,75.213h-20.41l-55.936,132.661h23.433l13.795-33.827
		H318.803z M290.645,105.26l19.276,47.055h-38.74L290.645,105.26z"/>
	<polygon fill="#FFFFFF" points="371.81,75.591 371.81,207.874 395.055,207.874 395.055,151.37 455.527,151.37 455.527,207.874 
		478.582,207.874 478.582,75.591 455.527,75.591 455.527,129.638 395.055,129.638 395.055,75.591 	"/>
	<polygon fill="#FFFFFF" points="582.045,97.323 582.045,75.591 505.511,75.591 505.511,207.874 583.936,207.874 583.936,186.142 
		528.755,186.142 528.755,151.937 576.376,151.937 576.376,130.205 528.755,130.205 528.755,97.323 	"/>
	<polygon fill="#FFFFFF" points="624.943,207.874 675.022,139.276 675.022,207.874 698.077,207.874 698.077,139.276 
		747.967,207.874 774.801,207.874 723.021,138.709 772.723,75.591 745.888,75.591 698.077,138.709 698.077,75.591 675.022,75.591 
		675.022,138.709 627.022,75.591 600.377,75.591 650.077,138.898 598.297,207.874 	"/>
	<polygon fill="#FFFFFF" points="827.337,0 436.724,0 413.668,0 23.055,0 0,0 0,21.733 0,75.591 23.055,75.591 23.055,21.733 
		413.668,21.733 413.668,53.859 436.724,53.859 436.724,21.733 827.337,21.733 827.337,75.591 850.392,75.591 850.392,21.733 
		850.392,0 	"/>
	<polygon fill="#FFFFFF" points="827.337,261.732 436.724,261.732 436.724,229.606 413.668,229.606 413.668,261.732 23.055,261.732 
		23.055,207.874 0,207.874 0,261.732 0,283.465 23.055,283.465 413.668,283.465 436.724,283.465 827.337,283.465 850.392,283.465 
		850.392,261.732 850.392,207.874 827.337,207.874 	"/>
</g>
</svg>
