<?xml version="1.0" encoding="utf-8"?>
<!-- Generator: Adobe Illustrator 16.0.4, SVG Export Plug-In . SVG Version: 6.00 Build 0)  -->
<!DOCTYPE svg PUBLIC "-//W3C//DTD SVG 1.1//EN" "http://www.w3.org/Graphics/SVG/1.1/DTD/svg11.dtd">
<svg version="1.1" id="Layer_1" xmlns="http://www.w3.org/2000/svg" xmlns:xlink="http://www.w3.org/1999/xlink" x="0px" y="0px"
	 width="71.945px" height="24.001px" viewBox="0 0 71.945 24.001" enable-background="new 0 0 71.945 24.001" xml:space="preserve">
<path fill="#FFFFFF" d="M71.945,0L71.945,0v6.402H69.98v-4.56H36.959v2.157h-1.968V1.842H1.966v4.56H0V0l0,0l0,0H71.945z
	 M69.98,22.165H36.959v-2.162h-1.968v2.162H1.966v-4.562H0v6.398l0,0h71.945v-6.396H69.98V22.165z M17.739,17.634v-11.2h-1.854
	l-3.646,5.231L8.414,6.434h-1.98v11.2h1.971V9.585l3.561,4.93h0.291l3.531-4.977v8.096H17.739z M22.131,14.767l-1.169,2.867h-1.979
	l4.733-11.232h1.728l4.731,11.232h-2.093l-1.171-2.867H22.131z M22.884,12.929h3.278l-1.631-3.982L22.884,12.929z M31.428,6.434
	v11.2h1.966v-4.787h5.116v4.787h1.952v-11.2H38.51v4.575h-5.116V6.434H31.428z M49.246,8.27V6.434h-6.473v11.2h6.635v-1.841h-4.669
	v-2.896h4.027v-1.839h-4.027V8.27H49.246z M52.666,17.634l4.236-5.809v5.809h1.953v-5.809l4.217,5.809h2.271l-4.378-5.858
	l4.202-5.342h-2.271l-4.041,5.342V6.434h-1.953v5.342l-4.061-5.342h-2.254l4.207,5.358l-4.383,5.842H52.666z"/>
</svg>
