<?xml version="1.0" encoding="utf-8"?>
<!-- Generator: Adobe Illustrator 17.0.0, SVG Export Plug-In . SVG Version: 6.00 Build 0)  -->
<!DOCTYPE svg PUBLIC "-//W3C//DTD SVG 1.1//EN" "http://www.w3.org/Graphics/SVG/1.1/DTD/svg11.dtd">
<svg version="1.1" id="Layer_1" xmlns="http://www.w3.org/2000/svg" xmlns:xlink="http://www.w3.org/1999/xlink" x="0px" y="0px"
	 width="1080px" height="1920px" viewBox="0 0 1080 1920" enable-background="new 0 0 1080 1920" xml:space="preserve">
<rect x="-2160" y="0" width="6480" height="1920"/>
<g>
	<polygon fill="#FFFFFF" points="-1548,84 -1548,84 -1548,84 -1548,551.201 -1404.336,551.201 -1404.336,218.32 1008.167,218.32 
		1008.167,376 1151.832,376 1151.832,218.32 3564.336,218.32 3564.336,551.201 3708,551.201 3708,218.32 3708,84 3708,84 	"/>
	<polygon fill="#FFFFFF" points="3564.336,1701.68 1151.832,1701.68 1151.832,1544 1008.167,1544 1008.167,1701.68 
		-1404.336,1701.68 -1404.336,1368.799 -1548,1368.799 -1548,1836 -1548,1836 -1404.336,1836 1008.167,1836 1151.832,1836 
		3564.336,1836 3708,1836 3708,1701.68 3708,1368.799 3564.336,1368.799 	"/>
	<path fill="#FFFFFF" d="M270.001,1162.064l85.262,209.071h153.008L162.545,551.199H36.4l-345.727,819.936h144.832l85.264-209.071
		H270.001z M95.969,736.911l119.136,290.833H-24.336L95.969,736.911z"/>
	<polygon fill="#FFFFFF" points="1183.84,1371.135 1298.303,1371.135 1298.303,553.536 1163.983,553.536 1163.983,1122.352 
		714.303,553.536 599.84,553.536 599.84,1371.135 734.158,1371.135 734.158,804.655 	"/>
</g>
</svg>
