<?xml version="1.0" encoding="utf-8"?>
<!-- Generator: Adobe Illustrator 17.0.0, SVG Export Plug-In . SVG Version: 6.00 Build 0)  -->
<!DOCTYPE svg PUBLIC "-//W3C//DTD SVG 1.1//EN" "http://www.w3.org/Graphics/SVG/1.1/DTD/svg11.dtd">
<svg version="1.1" id="Layer_1" xmlns="http://www.w3.org/2000/svg" xmlns:xlink="http://www.w3.org/1999/xlink" x="0px" y="0px"
	 width="1080px" height="1920px" viewBox="0 0 1080 1920" enable-background="new 0 0 1080 1920" xml:space="preserve">
<rect x="-3240" y="0" width="6480" height="1920"/>
<g>
	<polygon fill="#FFFFFF" points="-2628,84 -2628,84 -2628,84 -2628,551.201 -2484.336,551.201 -2484.336,218.32 -71.833,218.32 
		-71.833,376 71.831,376 71.831,218.32 2484.336,218.32 2484.336,551.201 2628,551.201 2628,218.32 2628,84 2628,84 	"/>
	<polygon fill="#FFFFFF" points="2484.336,1701.68 71.831,1701.68 71.831,1544 -71.833,1544 -71.833,1701.68 -2484.336,1701.68 
		-2484.336,1368.799 -2628,1368.799 -2628,1836 -2628,1836 -2484.336,1836 -71.833,1836 71.831,1836 2484.336,1836 2628,1836 
		2628,1701.68 2628,1368.799 2484.336,1368.799 	"/>
	<polygon fill="#FFFFFF" points="103.84,1371.135 218.303,1371.135 218.303,553.536 83.983,553.536 83.983,1122.352 
		-365.697,553.536 -480.16,553.536 -480.16,1371.135 -345.842,1371.135 -345.842,804.655 	"/>
	<polygon fill="#FFFFFF" points="879.382,687.856 879.382,553.536 406.342,553.536 406.342,1371.135 891.062,1371.135 
		891.062,1236.815 550.006,1236.815 550.006,1025.408 844.343,1025.408 844.343,891.088 550.006,891.088 550.006,687.856 	"/>
	<path fill="#FFFFFF" d="M1400.541,675.008c71.249,0,143.664,24.528,184.543,63.071l60.738-114.463
		c-66.578-52.56-146.002-82.928-262.8-82.928c-249.952,0-407.632,186.881-407.632,421.647c0,254.625,158.846,421.649,426.32,421.649
		c101.615,0,233.599-42.048,306.015-114.463V930.8h-331.712v134.32h197.392v128.479c-30.368,29.201-106.288,56.065-169.359,56.065
		c-165.857,0-276.816-113.296-276.816-287.329C1127.229,780.127,1242.861,675.008,1400.541,675.008z"/>
</g>
</svg>
