<?xml version="1.0" encoding="utf-8"?>
<!-- Generator: Adobe Illustrator 17.0.0, SVG Export Plug-In . SVG Version: 6.00 Build 0)  -->
<!DOCTYPE svg PUBLIC "-//W3C//DTD SVG 1.1//EN" "http://www.w3.org/Graphics/SVG/1.1/DTD/svg11.dtd">
<svg version="1.1" id="Layer_1" xmlns="http://www.w3.org/2000/svg" xmlns:xlink="http://www.w3.org/1999/xlink" x="0px" y="0px"
	 width="1080px" height="1920px" viewBox="0 0 1080 1920" enable-background="new 0 0 1080 1920" xml:space="preserve">
<rect x="-5400" y="0" width="6480" height="1920"/>
<g>
	<polygon fill="#FFFFFF" points="-4788,84 -4788,84 -4788,84 -4788,551.201 -4644.336,551.201 -4644.336,218.32 -2231.833,218.32 
		-2231.833,376 -2088.168,376 -2088.168,218.32 324.336,218.32 324.336,551.201 468,551.201 468,218.32 468,84 468,84 	"/>
	<polygon fill="#FFFFFF" points="324.336,1701.68 -2088.168,1701.68 -2088.168,1544 -2231.833,1544 -2231.833,1701.68 
		-4644.336,1701.68 -4644.336,1368.799 -4788,1368.799 -4788,1836 -4788,1836 -4644.336,1836 -2231.833,1836 -2088.168,1836 
		324.336,1836 468,1836 468,1701.68 468,1368.799 324.336,1368.799 	"/>
	<polygon fill="#FFFFFF" points="174.11,687.856 174.11,553.536 -298.929,553.536 -298.929,1371.135 185.789,1371.135 
		185.789,1236.815 -155.265,1236.815 -155.265,1025.408 139.071,1025.408 139.071,891.088 -155.265,891.088 -155.265,687.856 	"/>
</g>
</svg>
