<?xml version="1.0" encoding="utf-8"?>
<!-- Generator: Adobe Illustrator 17.0.0, SVG Export Plug-In . SVG Version: 6.00 Build 0)  -->
<!DOCTYPE svg PUBLIC "-//W3C//DTD SVG 1.1//EN" "http://www.w3.org/Graphics/SVG/1.1/DTD/svg11.dtd">
<svg version="1.1" id="Layer_1" xmlns="http://www.w3.org/2000/svg" xmlns:xlink="http://www.w3.org/1999/xlink" x="0px" y="0px"
	 width="850px" height="554px" viewBox="0 0 850 554" enable-background="new 0 0 850 554" xml:space="preserve">
<g>
	<g>
		<g>
			<path fill="#867550" d="M227.854,151.464v119.272h595.954V151.464H227.854z M508.255,162.581
				c0.122-0.001,0.244-0.006,0.367-0.006c31.312,0,38.358,19.179,39.141,32.226h-16.571c-1.044-7.569-5.479-18.397-22.571-18.397
				c-0.128,0-0.24,0.018-0.367,0.019V162.581z M261.233,256.643h-16.7v-91.329h6.143l10.557,28.265V256.643z M300.636,256.643
				h-12.525l-34.039-91.329h15.382l32.198,88.598L300.636,256.643z M344.213,256.643h-16.7v-68.759l0.261-3.521h-0.261
				l-24.167,64.993l-7.276-19.479l23.223-64.563h24.92V256.643z M404.919,176.497c-21.141,0.972-25.286,20.741-25.286,34.483
				s4.145,33.511,25.286,34.483v13.902c-10.345-0.24-43.16-3.648-43.16-48.385c0-44.737,32.815-48.145,43.16-48.385V176.497z
				 M408.101,259.364v-13.902c21.14-0.972,25.286-20.741,25.286-34.483s-4.146-33.511-25.286-34.483v-13.902
				c10.345,0.24,43.161,3.648,43.161,48.385S418.446,259.124,408.101,259.364z M505.074,176.589
				c-17.524,1.841-22.938,17.534-22.938,35.303c0,19.04,9.308,30.823,22.938,33.194v14.142
				c-12.315-0.875-40.812-6.796-40.812-46.684c0-35.611,19.454-48.596,40.812-49.857V176.589z M509.535,259.383
				c-0.347,0-0.79-0.003-1.28-0.012v-13.915c0.683,0.044,1.362,0.097,2.062,0.097c15.135,0,21.659-10.308,22.181-20.094h16.57
				C547.763,239.292,540.456,259.383,509.535,259.383z M581.567,256.902h-16.67v-91.329h16.67V256.902z M620.348,256.902
				l-35.599-43.511V203.14l33.512-37.567h19.831l-40.446,42.141l43.837,49.188H620.348z M671.178,256.902h-16.677v-91.329h16.677
				V256.902z M695.731,256.902h-21.372v-13.83h19.676c10.176,0,17.873-2.478,17.873-13.569c0-12.264-10.568-13.047-17.482-13.047
				h-20.067v-13.83h18.892c9.263,0,14.874-2.87,14.874-10.829c0-12.133-11.743-12.394-15.265-12.394h-18.502v-13.829h23.198
				c23.224,0,27.791,13.047,27.791,23.092c0,10.047-6.263,18.005-15.135,19.572v0.26c7.568,1.305,18.919,6.524,18.919,22.832
				C729.132,254.422,709.43,256.902,695.731,256.902z M755.247,165.573l21.449,45.296l-8.019,20.366l-33.915-65.662H755.247z
				 M784.733,239.159c-7.698,18.656-17.874,19.047-25.834,19.047c-4.307,0-7.437-0.13-11.873-1.434v-14.483
				c2.871,0.913,6.133,1.565,9.524,1.565c5.872,0,10.794-1.02,14.065-8.865l27.295-69.416h17.481L784.733,239.159z"/>
			<path fill="#867550" d="M28.767,27.475v119h462.917v-119H28.767z M65.306,41.315h48.116v13.829H65.306V41.315z M62.125,132.644
				H45.446V41.315h16.679V132.644z M88.633,132.644H65.306v-13.83h19.02c8.742,0,17.875-1.957,17.875-13.959
				c0-12.526-10.568-13.438-17.483-13.438H65.306v-13.83h23.457c9.785,0,30.66,1.957,30.66,28.051
				C119.423,132.513,93.982,132.644,88.633,132.644z M134.777,41.315h16.7v61.053l-16.7,25.69V41.315z M135.59,132.644
				l59.369-91.329h15.509l-59.383,91.329H135.59z M211.233,132.644h-16.7V71.665l16.7-25.69V132.644z M250.136,54.886h-25.484
				V41.056h25.484V54.886z M253.356,132.385l-0.038-91.329h16.73l0.008,91.329H253.356z M298.759,54.886h-25.53V41.056h25.53V54.886
				z M328.852,132.385h-16.676V41.056h16.676V132.385z M353.405,132.385h-21.372v-13.83h19.676c10.177,0,17.874-2.479,17.874-13.569
				c0-12.264-10.568-13.047-17.483-13.047h-20.067V78.11h18.892c9.264,0,14.874-2.87,14.874-10.829
				c0-12.134-11.742-12.395-15.265-12.395h-18.502V41.056h23.199c23.224,0,27.79,13.047,27.79,23.092
				c0,10.047-6.262,18.005-15.135,19.572v0.26c7.568,1.305,18.919,6.524,18.919,22.832
				C386.806,129.906,367.105,132.385,353.405,132.385z M394.747,132.644l34.443-91.329h14.378l-30.947,91.329H394.747z
				 M462.462,132.644l-6.655-19.18h-33.19l4.394-13.829h24.359l-12.166-35.693l7.231-21.181l33.9,89.883H462.462z"/>
			<path fill="#867550" d="M240.434,398.313v118.99h583.373v-118.99H240.434z M563.649,412.143h48.582v13.829h-48.582V412.143z
				 M563.649,449.718h43.233v13.829h-43.233V449.718z M473.958,412.143h48.113v13.829h-48.113V412.143z M257.113,503.472v-91.329
				h16.679l0.021,91.329H257.113z M330.96,503.472h-16.7v-77.5h-37.287v-13.829h53.987V503.472z M390.906,423.067
				c-21.142,0.972-25.287,20.741-25.287,34.483s4.145,33.512,25.287,34.483v13.902c-10.345-0.24-43.161-3.647-43.161-48.385
				s32.817-48.145,43.161-48.385V423.067z M394.087,505.934v-13.902c21.141-0.972,25.287-20.741,25.287-34.483
				s-4.145-33.51-25.287-34.483v-13.902c10.347,0.24,43.161,3.649,43.161,48.385S404.434,505.693,394.087,505.934z M470.777,503.472
				h-16.681v-91.329h16.681V503.472z M497.282,503.472h-23.324v-13.829h19.018c8.742,0,17.875-1.958,17.875-13.961
				c0-12.526-10.568-13.438-17.483-13.438h-19.41v-13.831h23.455c9.786,0,30.661,1.958,30.661,28.051
				C528.074,503.342,502.632,503.472,497.282,503.472z M560.468,503.472h-16.735v-91.329h16.735V503.472z M613.667,503.472h-50.018
				v-13.83h50.018V503.472z M686.992,503.472h-49.378h-15.396v-13.829h7.828c6.002-7.698,15.787-24.137,15.787-57.799v-19.701
				h16.698v25.078c-0.022,20.078-2.266,35.283-12.652,52.422h37.113V503.472z M719.419,503.472h-15.396h-13.851l0.021-77.5h-24.482
				v-13.829h41.182v77.5h12.525V503.472z M726.871,503.472l34.443-91.329h14.378l-30.947,91.329H726.871z M794.586,503.472
				l-6.655-19.18h-33.189l4.393-13.829h24.36l-12.166-35.693l7.231-21.181l33.9,89.883H794.586z"/>
			<path fill="#867550" d="M28.767,275.453V394.44h552.784V275.453H28.767z M161.293,289.282h48.582v13.829h-48.582V289.282z
				 M161.293,326.858h43.233v13.829h-43.233V326.858z M45.446,380.611v-91.329h16.679l0.021,91.329H45.446z M119.293,380.611h-16.7
				v-77.5H65.306v-13.829h53.987V380.611z M158.112,303.111h-0.034v63.669h0.034v13.83h-16.734v-91.329h16.734V303.111z
				 M211.311,380.611h-50.018v-13.83h50.018V380.611z M242.575,380.611h-16.7v-91.329h16.728L242.575,380.611z M262.146,346.949
				h-16.363v-13.829h16.232c7.697,0,18.527-1.045,18.527-14.744c0-14.482-12.004-15.265-18.396-15.265h-16.363v-13.829h16.492
				c14.353,0,35.488,2.348,35.488,28.311C297.764,334.163,288.501,346.949,262.146,346.949z M327.145,380.611h-16.676v-91.329
				h16.676V380.611z M351.698,380.611h-21.372v-13.83h19.676c10.177,0,17.874-2.478,17.874-13.569
				c0-12.264-10.568-13.047-17.483-13.047h-20.066v-13.83h18.892c9.263,0,14.874-2.87,14.874-10.829
				c0-12.133-11.742-12.394-15.264-12.394h-18.502v-13.829h23.198c23.224,0,27.791,13.047,27.791,23.092
				c0,10.047-6.263,18.005-15.135,19.572v0.26c7.568,1.305,18.918,6.524,18.918,22.832
				C385.098,378.132,365.398,380.611,351.698,380.611z M393.041,380.611l34.443-91.329h14.378l-30.947,91.329H393.041z
				 M460.756,380.611l-6.655-19.18h-33.189l4.393-13.829h24.359l-12.166-35.693l7.231-21.181l33.9,89.883H460.756z M545.016,303.111
				h-18.601c-4.568,0-18.397,0-18.397,15.135c0,13.308,12.264,14.482,19.572,14.482h17.427v13.83h-12.731l-21.918,34.053H489.23
				l25.834-35.88c-8.482-1.044-24.269-6.131-24.269-26.876c0-27.399,23.485-28.573,36.401-28.573h17.82V303.111z M564.904,380.611
				h-16.7l-0.007-91.329h16.707V380.611z"/>
		</g>
		<path fill="#867550" d="M28.767,151.464v119.272h194.801V151.464H28.767z M81.344,162.601v13.851
			c-0.118-0.001-0.225-0.01-0.345-0.01c-15.823,0-20.27,7.846-20.529,15.823H43.861C44.246,168.775,61.775,162.813,81.344,162.601z
			 M81.344,259.599c-23.274-0.128-37.619-10.21-38.53-33.988h16.608c0.127,7.388,3.278,19.454,21.922,20.08V259.599z
			 M84.532,259.567v-13.863c11.439-0.476,18.698-5.779,18.698-15.254c0-11.377-7.848-14.384-18.047-14.384H72.63v-13.861h10.855
			c3.922,0,16.082-0.262,16.082-12.03c0-7.344-4.313-12.634-15.035-13.568v-13.994c12.739,0.363,32.297,4.325,32.297,25.861
			c0,11.769-7.192,18.961-15.299,20.138v0.262c9.937,1.439,18.961,8.893,18.961,23.277
			C120.491,242.566,114.934,258.654,84.532,259.567z M126.411,256.869l34.522-91.538h14.411l-31.018,91.538H126.411z
			 M194.279,256.869l-6.67-19.224h-33.264l4.404-13.861h24.414L170.97,188.01l7.247-21.229l33.978,90.089H194.279z"/>
	</g>
	<g>
		<g>
			<path fill="#867550" d="M38.826,404.854h2.304v12.9h-2.358v-9.434l-6.136,9.434h-2.301v-12.9h2.358v9.434L38.826,404.854z"/>
			<path fill="#867550" d="M55.501,413.348c-0.183,1.954-1.215,4.793-5.582,4.793c-0.994,0-6.393-0.093-6.393-6.617
				c0-5.306,3.057-7.053,6.265-7.053c4.422,0,5.416,2.708,5.528,4.548h-2.342c-0.147-1.065-0.772-2.599-3.185-2.599
				c-2.874,0-3.742,2.342-3.742,5.012c0,3.024,1.66,4.755,3.98,4.755c2.14,0,3.06-1.452,3.134-2.839H55.501z"/>
			<path fill="#867550" d="M56.443,406.808v-1.954h10.465v1.954h-4.054v10.946h-2.358v-10.946H56.443z"/>
			<path fill="#867550" d="M74.095,404.472c1.125,0,6.319,0.147,6.319,6.835c0,6.688-5.194,6.835-6.319,6.835
				c-1.125,0-6.319-0.147-6.319-6.835C67.776,404.619,72.971,404.472,74.095,404.472z M74.095,416.187
				c3.188,0,3.797-2.893,3.797-4.881c0-1.993-0.609-4.886-3.797-4.886c-3.188,0-3.797,2.893-3.797,4.886
				C70.298,413.294,70.907,416.187,74.095,416.187z"/>
			<path fill="#867550" d="M87.951,404.854c2.028,0,5.012,0.333,5.012,4.002c0,2.342-1.307,4.144-5.031,4.144h-2.762v4.755h-2.358
				v-12.9H87.951z M85.169,411.045h2.746c1.086,0,2.615-0.142,2.615-2.08c0-2.047-1.695-2.156-2.599-2.156h-2.762V411.045z"/>
			<path fill="#867550" d="M103.611,404.854h2.304v12.9h-2.358v-9.434l-6.136,9.434h-2.301v-12.9h2.358v9.434L103.611,404.854z"/>
			<path fill="#867550" d="M116.582,404.854h2.801l-5.71,5.956l6.191,6.944h-2.986l-5.47-6.688v6.688h-2.358v-12.9h2.358v5.809
				L116.582,404.854z"/>
			<path fill="#867550" d="M126.938,404.472c1.125,0,6.319,0.147,6.319,6.835c0,6.688-5.194,6.835-6.319,6.835
				c-1.125,0-6.319-0.147-6.319-6.835C120.619,404.619,125.814,404.472,126.938,404.472z M126.938,416.187
				c3.188,0,3.794-2.893,3.794-4.881c0-1.993-0.606-4.886-3.794-4.886c-3.188,0-3.794,2.893-3.794,4.886
				C123.144,413.294,123.75,416.187,126.938,416.187z"/>
			<path fill="#867550" d="M135.561,411.82h4.791v1.954h-4.791V411.82z"/>
			<path fill="#867550" d="M42.494,436.07l-0.112,4.864h-2.064v-2.91h-9.376v2.91h-2.064l-0.112-4.864h1.106
				c0.846-1.086,2.23-3.407,2.23-8.162v-2.779h8.623v10.94H42.494z M34.461,427.078v1.55c0,2.855-0.314,5.012-1.788,7.441h5.694
				v-8.991H34.461z"/>
			<path fill="#867550" d="M49.884,424.742c1.125,0,6.319,0.147,6.319,6.835s-5.194,6.835-6.319,6.835
				c-1.125,0-6.319-0.147-6.319-6.835S48.759,424.742,49.884,424.742z M49.884,436.457c3.188,0,3.797-2.893,3.797-4.881
				c0-1.993-0.609-4.886-3.797-4.886c-3.188,0-3.797,2.893-3.797,4.886C46.087,433.564,46.695,436.457,49.884,436.457z"/>
			<path fill="#867550" d="M66.133,425.129h2.801l-5.71,5.951l6.191,6.944h-2.986l-5.47-6.688v6.688h-2.358v-12.895h2.358v5.803
				L66.133,425.129z"/>
			<path fill="#867550" d="M78.425,425.129h2.468l-4.329,10.389c-1.086,2.637-2.525,2.691-3.65,2.691
				c-0.606,0-1.048-0.022-1.676-0.202v-2.047c0.407,0.131,0.868,0.218,1.346,0.218c0.83,0,1.548-0.257,1.843-1.545l-4.919-9.505
				H72.4l3.297,6.961L78.425,425.129z"/>
			<path fill="#867550" d="M84.746,427.815h-0.038l0.038,0.497v9.712h-2.358v-12.895h3.518l3.518,9.783l3.518-9.783h3.521v12.895
				h-2.358v-9.712l0.035-0.497h-0.035l-3.797,10.209h-1.769L84.746,427.815z"/>
			<path fill="#867550" d="M108.516,430.436v1.949h-6.559v3.685h7.517v1.954h-9.876v-12.895h9.674v1.949h-7.315v3.357H108.516z"/>
			<path fill="#867550" d="M113.713,438.024h-2.358v-12.895h2.358v5.154h5.749v-5.154h2.358v12.895h-2.358v-5.787h-5.749V438.024z"
				/>
			<path fill="#867550" d="M123.627,427.078v-1.949h10.465v1.949h-4.053v10.946h-2.358v-10.946H123.627z"/>
			<path fill="#867550" d="M135.255,438.024h-2.525l4.864-12.895h2.358l4.864,12.895h-2.525l-0.939-2.708h-5.159L135.255,438.024z
				 M140.728,433.362l-1.954-5.732l-1.954,5.732H140.728z"/>
			<path fill="#867550" d="M145.554,436.07c2.817,0.497,2.893-3.259,2.893-5.874v-5.066h8.825v12.895h-2.358v-10.946h-4.108v3.816
				c0,3.243-0.333,7.921-5.252,7.13V436.07z"/>
			<path fill="#867550" d="M162.765,430.103h3.352c1.4,0,4.479,0.273,4.479,4.034c0,1.605-0.813,3.887-4.498,3.887h-5.691v-12.895
				h2.358V430.103z M162.765,436.07h2.874c1.253,0,2.522-0.273,2.522-2.042c0-1.845-1.49-1.976-2.468-1.976h-2.929V436.07z"/>
			<path fill="#867550" d="M175.111,438.024h-2.358v-12.895h2.358v5.154h5.749v-5.154h2.358v12.895h-2.358v-5.787h-5.749V438.024z"
				/>
			<path fill="#867550" d="M187.236,438.024h-2.525l4.864-12.895h2.358l4.864,12.895h-2.525l-0.939-2.708h-5.159L187.236,438.024z
				 M192.706,433.362l-1.952-5.732l-1.952,5.732H192.706z"/>
			<path fill="#867550" d="M203.818,433.215l-3.095,4.81h-2.986l3.65-5.066c-1.198-0.147-3.428-0.868-3.428-3.794
				c0-3.871,3.316-4.034,5.143-4.034h5.323v12.895h-2.358v-4.81H203.818z M202.989,427.078c-0.644,0-2.599,0-2.599,2.14
				c0,1.878,1.733,2.042,2.765,2.042h2.91v-4.182H202.989z"/>
			<path fill="#867550" d="M36.413,445.394c3.281,0,3.925,1.84,3.925,3.259c0,1.419-0.884,2.544-2.137,2.762v0.038
				c1.067,0.186,2.672,0.923,2.672,3.221c0,3.265-2.784,3.614-4.717,3.614h-5.822v-12.895H36.413z M32.692,450.624h3.115
				c1.307,0,2.099-0.404,2.099-1.529c0-1.714-1.657-1.752-2.156-1.752h-3.057V450.624z M32.692,456.335h3.224
				c1.436,0,2.525-0.349,2.525-1.916c0-1.731-1.493-1.84-2.47-1.84h-3.278V456.335z"/>
			<path fill="#867550" d="M45.868,450.368h3.352c1.4,0,4.477,0.273,4.477,4.034c0,1.605-0.808,3.887-4.493,3.887H43.51v-12.895
				h2.358V450.368z M45.868,456.335h2.874c1.253,0,2.525-0.273,2.525-2.042c0-1.845-1.493-1.976-2.47-1.976h-2.929V456.335z
				 M57.106,445.394v12.895h-2.358v-12.895H57.106z"/>
			<path fill="#867550" d="M71.48,453.883c-0.183,1.954-1.215,4.793-5.582,4.793c-0.994,0-6.393-0.093-6.393-6.617
				c0-5.306,3.057-7.053,6.264-7.053c4.422,0,5.416,2.708,5.528,4.548h-2.342c-0.147-1.07-0.772-2.599-3.185-2.599
				c-2.874,0-3.742,2.342-3.742,5.012c0,3.024,1.66,4.755,3.98,4.755c2.14,0,3.06-1.458,3.134-2.839H71.48z"/>
			<path fill="#867550" d="M72.422,447.343v-1.949h10.465v1.949h-4.054v10.946h-2.358v-10.946H72.422z"/>
			<path fill="#867550" d="M84.05,458.289h-2.525l4.864-12.895h2.358l4.864,12.895h-2.525l-0.939-2.708h-5.159L84.05,458.289z
				 M89.521,453.627l-1.952-5.732l-1.952,5.732H89.521z"/>
			<path fill="#867550" d="M101.184,445.394c3.281,0,3.925,1.84,3.925,3.259c0,1.419-0.884,2.544-2.137,2.762v0.038
				c1.07,0.186,2.672,0.923,2.672,3.221c0,3.265-2.781,3.614-4.717,3.614h-5.822v-12.895H101.184z M97.464,450.624h3.112
				c1.31,0,2.102-0.404,2.102-1.529c0-1.714-1.66-1.752-2.156-1.752h-3.057V450.624z M97.464,456.335h3.224
				c1.439,0,2.525-0.349,2.525-1.916c0-1.731-1.493-1.84-2.47-1.84h-3.278V456.335z"/>
			<path fill="#867550" d="M115.818,445.394h2.801l-5.713,5.951l6.191,6.944h-2.983l-5.473-6.688v6.688h-2.358v-12.895h2.358v5.803
				L115.818,445.394z"/>
			<path fill="#867550" d="M122.044,458.289h-2.525l4.864-12.895h2.358l4.864,12.895h-2.525l-0.939-2.708h-5.159L122.044,458.289z
				 M127.517,453.627l-1.954-5.732l-1.954,5.732H127.517z"/>
			<path fill="#867550" d="M37.87,465.659h2.801l-5.713,5.956l6.191,6.944h-2.983l-5.473-6.688v6.688h-2.358v-12.9h2.358v5.809
				L37.87,465.659z"/>
			<path fill="#867550" d="M45.923,465.659h9.947v1.627c-1.731,1.769-2.708,3.385-3.609,5.508c-0.868,2.004-1.163,3.423-1.365,5.765
				h-2.468c0.218-1.731,0.792-3.761,1.509-5.437c0.663-1.507,1.733-3.423,3.778-5.508h-7.793V465.659z"/>
			<path fill="#867550" d="M59.997,475.076c0.093,0.939,0.756,2.047,2.342,2.047c1.048,0,2.506-0.48,2.506-2.877
				c0-2.539-1.807-2.653-2.413-2.653c-0.647,0-1.66,0.186-2.176,1.07h-2.23l0.884-7.004h7.537v1.954h-5.803l-0.423,2.986
				c0.218-0.224,1.032-0.955,2.836-0.955c2.47,0,4.182,1.583,4.182,4.586c0,4.531-4.015,4.717-5.047,4.717
				c-3.409,0-4.275-2.227-4.46-3.871H59.997z"/>
			<path fill="#867550" d="M68.953,472.625h4.79v1.954h-4.79V472.625z"/>
			<path fill="#867550" d="M75.457,476.605c2.817,0.497,2.893-3.259,2.893-5.874v-5.072h8.825v12.9h-2.358v-10.946h-4.108v3.816
				c0,3.243-0.333,7.921-5.252,7.13V476.605z"/>
			<path fill="#867550" d="M99.227,470.965v1.954h-6.559v3.685h7.517v1.954h-9.876v-12.9h9.671v1.954h-7.313v3.352H99.227z"/>
			<path fill="#867550" d="M101.31,467.613v-1.954h10.465v1.954h-4.053v10.946h-2.358v-10.946H101.31z"/>
			<path fill="#867550" d="M122.074,465.659h2.304v12.9h-2.358v-9.434l-6.136,9.434h-2.301v-12.9h2.358v9.434L122.074,465.659z"/>
			<path fill="#867550" d="M131.527,470.823c0.186-2.249,1.586-5.547,6.248-5.547c1.122,0,6.319,0.147,6.319,6.835
				s-5.197,6.835-6.319,6.835c-4.864,0-6.174-3.538-6.303-6.174h-1.602v5.787h-2.358v-12.9h2.358v5.164H131.527z M141.569,472.112
				c0-1.993-0.609-4.886-3.794-4.886c-3.188,0-3.797,2.893-3.797,4.886c0,1.987,0.609,4.881,3.797,4.881
				C140.96,476.992,141.569,474.099,141.569,472.112z"/>
			<path fill="#867550" d="M32.692,491.055h3.759c1.381,0,4.329,0.273,4.329,3.958c0,3.8-3.592,3.816-4.348,3.816h-6.098v-12.895
				h9.6v1.949h-7.242V491.055z M32.692,496.875h3.131c1.234,0,2.525-0.273,2.525-1.971c0-1.769-1.493-1.894-2.47-1.894h-3.185
				V496.875z"/>
			<path fill="#867550" d="M51.579,485.935h2.301v12.895h-2.358v-9.434l-6.133,9.434h-2.304v-12.895h2.358v9.434L51.579,485.935z"/>
			<path fill="#867550" d="M55.687,487.884v-1.949h10.465v1.949h-4.054v10.946H59.74v-10.946H55.687z"/>
			<path fill="#867550" d="M74.038,485.935c3.281,0,3.925,1.84,3.925,3.259s-0.884,2.544-2.137,2.762v0.038
				c1.067,0.186,2.672,0.923,2.672,3.221c0,3.265-2.784,3.614-4.717,3.614h-5.822v-12.895H74.038z M70.318,491.165h3.115
				c1.307,0,2.099-0.404,2.099-1.529c0-1.714-1.657-1.752-2.156-1.752h-3.057V491.165z M70.318,496.875h3.224
				c1.436,0,2.525-0.349,2.525-1.916c0-1.731-1.493-1.84-2.47-1.84h-3.278V496.875z"/>
			<path fill="#867550" d="M83.493,490.908h3.352c1.4,0,4.477,0.273,4.477,4.034c0,1.605-0.808,3.887-4.493,3.887h-5.694v-12.895
				h2.358V490.908z M83.493,496.875h2.874c1.253,0,2.525-0.273,2.525-2.042c0-1.845-1.493-1.976-2.47-1.976h-2.929V496.875z
				 M94.731,485.935v12.895h-2.358v-12.895H94.731z"/>
			<path fill="#867550" d="M104.52,498.829h-2.358v-12.895h10.427v12.895h-2.358v-10.946h-5.71V498.829z"/>
			<path fill="#867550" d="M121.304,485.547c1.125,0,6.319,0.147,6.319,6.835s-5.194,6.835-6.319,6.835
				c-1.125,0-6.319-0.147-6.319-6.835S120.18,485.547,121.304,485.547z M121.304,497.263c3.188,0,3.794-2.893,3.794-4.881
				c0-1.993-0.606-4.886-3.794-4.886s-3.794,2.893-3.794,4.886C117.51,494.369,118.116,497.263,121.304,497.263z"/>
			<path fill="#867550" d="M142.181,496.875l-0.112,4.864h-2.064v-2.91h-9.376v2.91h-2.064l-0.112-4.864h1.105
				c0.846-1.086,2.23-3.407,2.23-8.162v-2.779h8.623v10.94H142.181z M134.147,487.884v1.55c0,2.855-0.314,5.012-1.788,7.441h5.694
				v-8.991H134.147z"/>
			<path fill="#867550" d="M32.692,508.891h-0.038l0.038,0.497v9.712h-2.358v-12.9h3.518l3.518,9.788l3.518-9.788h3.521v12.9h-2.358
				v-9.712l0.035-0.497h-0.035L38.255,519.1h-1.769L32.692,508.891z"/>
			<path fill="#867550" d="M53.126,505.817c1.125,0,6.319,0.147,6.319,6.835c0,6.688-5.194,6.835-6.319,6.835
				s-6.319-0.147-6.319-6.835C46.807,505.965,52.002,505.817,53.126,505.817z M53.126,517.533c3.188,0,3.797-2.893,3.797-4.881
				c0-1.993-0.609-4.886-3.797-4.886c-3.188,0-3.797,2.893-3.797,4.886C49.329,514.639,49.938,517.533,53.126,517.533z"/>
			<path fill="#867550" d="M73.08,514.694c-0.183,1.954-1.215,4.793-5.582,4.793c-0.994,0-6.393-0.093-6.393-6.617
				c0-5.306,3.057-7.053,6.264-7.053c4.422,0,5.416,2.708,5.528,4.548h-2.342c-0.147-1.065-0.772-2.599-3.185-2.599
				c-2.874,0-3.742,2.342-3.742,5.012c0,3.024,1.66,4.755,3.98,4.755c2.14,0,3.06-1.452,3.134-2.839H73.08z"/>
			<path fill="#867550" d="M82.882,506.199h2.801l-5.71,5.956l6.191,6.944h-2.986l-5.47-6.688v6.688h-2.358v-12.9h2.358v5.809
				L82.882,506.199z"/>
			<path fill="#867550" d="M93.735,506.199c3.281,0,3.925,1.845,3.925,3.265s-0.884,2.544-2.137,2.762v0.038
				c1.067,0.186,2.672,0.923,2.672,3.226c0,3.259-2.784,3.609-4.717,3.609h-5.822v-12.9H93.735z M90.015,511.435h3.115
				c1.307,0,2.099-0.404,2.099-1.529c0-1.714-1.657-1.752-2.156-1.752h-3.057V511.435z M90.015,517.145h3.224
				c1.436,0,2.525-0.349,2.525-1.916c0-1.731-1.493-1.84-2.47-1.84h-3.278V517.145z"/>
			<path fill="#867550" d="M106.414,505.817c1.125,0,6.319,0.147,6.319,6.835c0,6.688-5.194,6.835-6.319,6.835
				c-1.125,0-6.319-0.147-6.319-6.835C100.095,505.965,105.29,505.817,106.414,505.817z M106.414,517.533
				c3.188,0,3.797-2.893,3.797-4.881c0-1.993-0.609-4.886-3.797-4.886s-3.797,2.893-3.797,4.886
				C102.617,514.639,103.226,517.533,106.414,517.533z"/>
			<path fill="#867550" d="M123.625,506.199h2.301v12.9h-2.358v-9.434l-6.133,9.434h-2.304v-12.9h2.358v9.434L123.625,506.199z
				 M118.556,502.831c0.093,0.977,0.958,1.49,1.974,1.49c1.013,0,1.878-0.513,1.971-1.49h1.897
				c-0.276,1.583-1.586,2.817-3.868,2.817c-2.287,0-3.595-1.234-3.871-2.817H118.556z"/>
		</g>
	</g>
	<g>
		<path fill="#867550" d="M514.833,68.651v-5.71l17.762-23.737h6.835V62.94h5.222v5.71h-5.222v8.233h-6.89v-8.233H514.833z
			 M532.54,62.94V47.982L521.775,62.94H532.54z"/>
		<path fill="#867550" d="M552.513,69.617h7.105v7.266h-7.105V69.617z"/>
		<path fill="#867550" d="M567.291,45.935h0.753c5.328,0,9.204-2.855,9.797-6.731h5.058v37.68h-6.89V49.434h-8.718V45.935z"/>
		<path fill="#867550" d="M595.437,45.935h0.753c5.328,0,9.204-2.855,9.797-6.731h5.058v37.68h-6.89V49.434h-8.718V45.935z"/>
		<path fill="#867550" d="M624.726,69.617h7.105v7.266h-7.105V69.617z"/>
		<path fill="#867550" d="M639.504,45.935h0.753c5.328,0,9.204-2.855,9.797-6.731h5.058v37.68h-6.89V49.434h-8.718V45.935z"/>
		<path fill="#867550" d="M687.433,47.764c-0.917-3.603-3.931-3.985-5.975-3.985c-2.746,0-7.752,1.026-8.235,10.929h0.107
			c1.13-1.616,3.338-3.39,8.505-3.39c7.643,0,12.488,4.684,12.488,13.026c0,8.609-5.383,13.67-13.943,13.67
			c-12.649,0-13.94-10.82-13.94-17.868c0-19.38,8.557-22.072,15.018-22.072c8.181,0,11.841,4.793,12.595,9.69H687.433z
			 M680.38,72.308c4.952,0,6.944-3.445,6.944-7.643s-1.993-7.643-6.944-7.643c-5.866,0-6.941,4.411-6.941,7.643
			C673.438,67.892,674.514,72.308,680.38,72.308z"/>
		<path fill="#867550" d="M713.845,60.2h47.362v4.411h-47.362V60.2z"/>
		<path fill="#867550" d="M520.162,97.012h0.753c5.328,0,9.204-2.855,9.797-6.731h5.058v37.68h-6.89v-27.449h-8.718V97.012z"/>
		<path fill="#867550" d="M554.279,117.789c0.27,2.741,2.208,5.972,6.838,5.972c3.068,0,7.318-1.398,7.318-8.396
			c0-7.43-5.274-7.752-7.051-7.752c-1.883,0-4.842,0.54-6.349,3.123h-6.513l2.582-20.456h22.014v5.71h-16.954l-1.239,8.718
			c0.647-0.65,3.013-2.801,8.29-2.801c7.212,0,12.218,4.629,12.218,13.402c0,13.239-11.735,13.779-14.748,13.779
			c-9.958,0-12.488-6.513-13.026-11.301H554.279z"/>
		<path fill="#867550" d="M583.23,120.694h7.105v7.266h-7.105V120.694z"/>
		<path fill="#867550" d="M606.503,117.789c0.27,2.741,2.208,5.972,6.838,5.972c3.068,0,7.318-1.398,7.318-8.396
			c0-7.43-5.274-7.752-7.051-7.752c-1.883,0-4.842,0.54-6.349,3.123h-6.513l2.582-20.456h22.014v5.71h-16.954l-1.239,8.718
			c0.647-0.65,3.014-2.801,8.29-2.801c7.212,0,12.218,4.629,12.218,13.402c0,13.239-11.735,13.779-14.748,13.779
			c-9.958,0-12.488-6.513-13.026-11.301H606.503z"/>
		<path fill="#867550" d="M635.456,120.694h7.105v7.266h-7.105V120.694z"/>
		<path fill="#867550" d="M650.231,97.012h0.753c5.328,0,9.204-2.855,9.797-6.731h5.058v37.68h-6.89v-27.449h-8.718V97.012z"/>
		<path fill="#867550" d="M675.805,90.28h29.065v4.739c-5.061,5.17-7.913,9.903-10.55,16.094c-2.53,5.869-3.39,10.012-3.983,16.847
			h-7.214c0.647-5.061,2.315-10.979,4.414-15.881c1.938-4.411,5.061-10.007,11.036-16.088h-22.768V90.28z"/>
	</g>
</g>
</svg>
