<?xml version="1.0" encoding="utf-8"?>
<!-- Generator: Adobe Illustrator 16.0.4, SVG Export Plug-In . SVG Version: 6.00 Build 0)  -->
<!DOCTYPE svg PUBLIC "-//W3C//DTD SVG 1.1//EN" "http://www.w3.org/Graphics/SVG/1.1/DTD/svg11.dtd">
<svg version="1.1" id="Layer_1" xmlns="http://www.w3.org/2000/svg" xmlns:xlink="http://www.w3.org/1999/xlink" x="0px" y="0px"
	 width="1052.66px" height="569.6px" viewBox="0 0 1052.66 569.6" enable-background="new 0 0 1052.66 569.6" xml:space="preserve">
<g>
	<path fill="#AD8800" d="M982.365,411.545h-2.66l-3.477-15.871l9.764-39.342h11.357L982.365,411.545z M969.588,411.545
		l-9.781-43.303l-9.781,43.303h-0.754l-3.922-15.823l8.777-39.39h11.355l12.252,55.213H969.588z M937.248,411.545l-14.986-55.213
		h11.357l13.672,55.213H937.248z M892.428,413.19v-8.404c12.781-0.587,15.289-12.539,15.289-20.847s-2.508-20.259-15.289-20.847
		v-8.403c6.254,0.144,26.094,2.204,26.094,29.25S898.682,413.045,892.428,413.19 M890.506,363.092
		c-12.781,0.588-15.289,12.539-15.289,20.847s2.508,20.26,15.289,20.847v8.404c-6.256-0.145-26.094-2.205-26.094-29.251
		s19.838-29.106,26.094-29.25V363.092z M832.982,413.202c-0.211,0-0.48-0.002-0.775-0.006v-8.412
		c0.412,0.025,0.824,0.057,1.248,0.057c9.148,0,13.094-6.229,13.408-12.146h10.018C856.094,401.055,851.674,413.202,832.982,413.202
		 M830.285,363.15c-10.594,1.112-13.865,10.601-13.865,21.342c0,11.51,5.625,18.634,13.865,20.067v8.551
		c-7.443-0.53-24.672-4.109-24.672-28.224c0-21.528,11.76-29.38,24.672-30.142V363.15z M775.629,413.198v-8.357
		c3.713-0.001,11.656-0.56,11.656-8.279c0-6.627-6.389-7.809-9.938-8.52c-2.209-0.395-4.336-0.868-6.469-1.341
		c-8.99-2.052-17.115-4.733-17.115-15.933c0-14.022,13.854-15.836,19.941-16.06v8.374c-3.061,0.206-9.135,1.312-9.135,7.291
		c0,5.756,6.23,6.702,12.305,7.809c12.779,2.287,21.217,5.125,21.217,17.352C798.092,410.797,784.916,413.101,775.629,413.198
		 M773.705,413.178c-17.85-0.472-22.156-10.825-22.465-19.379h10.018c0.225,3.939,2.484,10.256,12.447,10.971V413.178z
		 M717.756,413.19v-8.404c12.779-0.587,15.285-12.539,15.285-20.847s-2.506-20.259-15.285-20.847v-8.403
		c6.252,0.144,26.09,2.204,26.09,29.25S724.008,413.045,717.756,413.19 M715.832,363.092c-12.781,0.588-15.289,12.539-15.289,20.847
		s2.508,20.26,15.289,20.847v8.404c-6.256-0.145-26.094-2.206-26.094-29.251c0-27.046,19.838-29.106,26.094-29.25V363.092z
		 M678.951,411.545h-10.096v-41.568l0.16-2.129h-0.16l-14.609,39.292l-4.398-11.776l14.039-39.031h15.064V411.545z M652.609,411.545
		h-7.572l-20.578-55.213h9.299l19.467,53.562L652.609,411.545z M628.787,411.545h-10.096v-55.213h3.715l6.381,17.088V411.545z
		 M775.629,354.682c14.461,0.063,20.494,7.837,21.203,16.242h-10.02c-0.906-7.399-8.018-7.859-11.184-7.885V354.682z
		 M832.207,354.68c0.074,0,0.148-0.004,0.223-0.004c18.93,0,23.188,11.594,23.664,19.482h-10.02
		c-0.629-4.576-3.312-11.123-13.645-11.123c-0.076,0-0.145,0.014-0.223,0.014V354.68z M608.633,419.886h393.957v-71.935H608.633
		V419.886z M635.438,439.549h-15.422v-8.36h15.422V439.549z M618.084,486.403h-10.096l-0.008-55.214h10.113L618.084,486.403z
		 M606.055,439.549h-15.422v-8.36h15.422V439.549z M563.494,488.055v-8.356c3.713-0.001,11.656-0.562,11.656-8.283
		c0-6.626-6.387-7.809-9.938-8.519c-2.207-0.394-4.338-0.866-6.467-1.341c-8.992-2.05-17.119-4.731-17.119-15.933
		c0-14.021,13.855-15.835,19.941-16.061v8.378c-3.061,0.206-9.133,1.31-9.133,7.288c0,5.759,6.23,6.705,12.305,7.808
		c12.777,2.288,21.217,5.129,21.217,17.354C585.957,485.652,572.779,487.958,563.494,488.055 M561.568,488.038
		c-17.848-0.475-22.156-10.828-22.465-19.382h10.018c0.223,3.938,2.486,10.255,12.447,10.972V488.038z M521.926,486.403
		c-1.578-2.523-1.738-4.417-1.738-11.516c0-5.049-0.394-10.412-11.674-10.412h-9.761v-8.361h10.707
		c5.128,0,11.518-0.789,11.518-8.282c0-7.967-7.178-8.282-11.279-8.282h-10.945v-8.36h12.68c6.783,0,19.958,0.946,19.958,15.38
		c0,8.205-4.814,12.148-9.23,13.41v0.158c7.888,2.524,8.044,9.387,8.125,14.355c0.078,7.414,0,9.307,2.049,11.91H521.926z
		 M496.83,486.403h-10.083v-55.214h10.083V486.403z M473.994,486.403h-10.096v-55.214h10.096V486.403z M454.554,439.549h-27.088
		v-8.36h27.088V439.549z M450.531,463.053h-23.065v-8.36h23.065V463.053z M425.529,486.403h-10.098v-55.214h10.112L425.529,486.403z
		 M563.494,429.538c14.463,0.063,20.494,7.838,21.201,16.244h-10.018c-0.904-7.402-8.02-7.859-11.184-7.887V429.538z
		 M405.386,494.737h240.151v-71.935H405.386V494.737z M738.951,537.419l-5.062-9.151l12.316-22.242h11.91L738.951,537.419z
		 M737.844,561.24h-10.096v-22.006l-20.273-33.208h11.912l18.457,33.365V561.24z M694.799,561.24
		c-1.576-2.524-1.734-4.418-1.734-11.516c0-5.049-0.396-10.413-11.674-10.413h-9.734v-8.36h10.68c5.129,0,11.518-0.786,11.518-8.281
		c0-7.967-7.18-8.282-11.281-8.282h-10.916v-8.361h12.654c6.781,0,19.953,0.946,19.953,15.381c0,8.205-4.811,12.146-9.227,13.409
		v0.158c7.887,2.524,8.045,9.386,8.125,14.356c0.078,7.414,0,9.308,2.049,11.909H694.799z M669.734,514.387h-0.018v16.563h0.018
		v8.36h-0.018v21.929h-10.098v-55.214h10.115V514.387z M623.305,562.885v-8.405c12.779-0.588,15.287-12.54,15.287-20.848
		c0-8.307-2.508-20.259-15.287-20.847v-8.404c6.252,0.146,26.092,2.207,26.092,29.251
		C649.396,560.678,629.557,562.739,623.305,562.885 M621.381,512.786c-12.781,0.587-15.287,12.54-15.287,20.847
		c0,8.308,2.506,20.261,15.287,20.848v8.405c-6.256-0.145-26.094-2.205-26.094-29.253c0-27.046,19.838-29.104,26.094-29.251V512.786
		z M590.932,514.387h-15.424v-8.361h15.424V514.387z M573.576,561.24h-10.094l-0.01-55.214h10.113L573.576,561.24z M561.549,514.387
		h-15.418v-8.361h15.418V514.387z M517,562.895c-0.209,0-0.477-0.002-0.772-0.006v-8.412c0.413,0.025,0.823,0.059,1.248,0.059
		c9.15,0,13.092-6.232,13.407-12.147h10.02C540.111,550.75,535.693,562.895,517,562.895 M514.305,512.843
		c-10.596,1.112-13.868,10.601-13.868,21.343c0,11.51,5.627,18.633,13.868,20.068v8.547c-7.446-0.527-24.675-4.107-24.675-28.221
		c0-21.529,11.762-29.381,24.675-30.143V512.843z M479.75,561.24h-10.095v-55.214h10.095V561.24z M442.411,561.24h-0.527
		l-4.295-13.761l12.868-41.453h10.965L442.411,561.24z M430.737,561.24l-19.009-55.214h10.963l17.18,55.214H430.737z
		 M516.228,504.374c0.073,0,0.147-0.003,0.22-0.003c18.931,0,23.193,11.595,23.664,19.483h-10.016
		c-0.633-4.576-3.314-11.123-13.648-11.123c-0.075,0-0.144,0.012-0.22,0.012V504.374z M405.387,569.6h358.982v-71.947H405.387V569.6
		z M994.293,336.692h-30.238v-8.361h30.238V336.692z M962.129,336.692h-10.115v-55.214h10.115V336.692z M944.637,336.692H919.67
		v-8.361h24.967V336.692z M907.643,336.692v-55.214h10.096l0.008,55.214H907.643z M899.531,289.837h-15.436v-8.36h15.436V289.837z
		 M872.082,336.692v-46.854h-0.023v-8.36h10.115l0.004,55.214H872.082z M870.137,289.837h-15.408v-8.36h15.408V289.837z
		 M849.229,289.837h-15.424v-8.36h15.424V289.837z M831.883,289.837h-0.006v46.854h-10.098v-46.854h-0.01v-8.36h10.113V289.837z
		 M819.848,289.837h-15.42v-8.36h15.42V289.837z M798.074,336.692l-4.025-11.597h-20.064l2.656-8.36h14.729l-7.355-21.579
		l4.371-12.804l20.494,54.34H798.074z M757.137,336.692l20.824-55.214h8.691l-18.709,55.214H757.137z M732.889,336.692h-12.92
		v-8.361h11.895c6.152,0,10.807-1.499,10.807-8.203c0-7.415-6.391-7.889-10.57-7.889h-12.131v-8.361h11.42
		c5.6,0,8.99-1.735,8.99-6.547c0-7.335-7.098-7.494-9.227-7.494h-11.184v-8.36h14.025c14.039,0,16.799,7.888,16.799,13.96
		c0,6.074-3.785,10.884-9.15,11.832v0.158c4.574,0.789,11.438,3.944,11.438,13.803C753.08,335.193,741.172,336.692,732.889,336.692
		 M718.045,336.692h-10.082v-55.214h10.082V336.692z M964.053,304.194h26.137v8.36h-26.137V304.194z M964.053,281.478h29.371v8.36
		h-29.371V281.478z M697.895,345.038h304.699v-71.937H697.895V345.038z M556.717,411.528c-1.578-2.523-1.736-4.416-1.736-11.516
		c0-5.047-0.395-10.41-11.674-10.41h-9.762v-8.361h10.707c5.131,0,11.516-0.789,11.516-8.281c0-7.967-7.176-8.282-11.277-8.282
		h-10.945v-8.36h12.682c6.783,0,19.955,0.946,19.955,15.381c0,8.201-4.811,12.146-9.23,13.408v0.158
		c7.889,2.523,8.047,9.385,8.125,14.354c0.078,7.415,0,9.309,2.053,11.91H556.717z M531.621,411.528h-10.083v-55.212h10.083V411.528
		z M487.76,413.18v-8.404c12.78-0.587,15.287-12.539,15.287-20.847s-2.507-20.259-15.287-20.847v-8.404
		c6.254,0.146,26.093,2.207,26.093,29.251C513.853,410.974,494.014,413.034,487.76,413.18 M485.838,363.083
		c-12.78,0.588-15.286,12.539-15.286,20.847s2.506,20.26,15.286,20.847v8.404c-6.254-0.146-26.092-2.206-26.092-29.251
		c0-27.044,19.838-29.104,26.092-29.251V363.083z M453.729,364.677h-27.087v-8.36h27.087V364.677z M449.707,388.182h-23.065v-8.36
		h23.065V388.182z M424.704,411.528h-10.096v-55.211h10.112L424.704,411.528z M405.386,419.886H574.74v-71.932H405.386V419.886z"/>
	<path fill="#AD8800" d="M625.238,177.747c-4.641,11.252-10.779,11.488-15.58,11.488c-2.596,0-4.484-0.079-7.16-0.865v-8.737
		c1.732,0.552,3.697,0.945,5.744,0.945c3.543,0,6.51-0.616,8.484-5.347l16.463-41.865h10.543L625.238,177.747z M607.457,133.366
		l12.936,27.318l-4.838,12.282l-20.451-39.601H607.457z M571.561,188.448h-12.889v-8.34h11.865c6.139,0,10.781-1.494,10.781-8.184
		c0-7.396-6.375-7.868-10.543-7.868h-12.104v-8.342h11.395c5.588,0,8.971-1.731,8.971-6.531c0-7.317-7.082-7.475-9.207-7.475
		h-11.158v-8.341h13.99c14.008,0,16.76,7.868,16.76,13.928c0,6.059-3.773,10.859-9.127,11.802v0.159
		c4.564,0.786,11.41,3.934,11.41,13.769C591.705,186.953,579.824,188.448,571.561,188.448 M556.754,188.448h-10.059v-55.082h10.059
		V188.448z M526.097,188.448l-21.471-26.242v-6.182l20.211-22.658h11.961l-24.394,25.416l26.437,29.666H526.097z M502.707,188.448
		h-10.053v-55.082h10.053V188.448z M459.263,189.944c-0.21,0-0.476-0.001-0.771-0.006v-8.393c0.411,0.026,0.819,0.059,1.244,0.059
		c9.127,0,13.062-6.217,13.377-12.12h9.993C482.319,177.827,477.912,189.944,459.263,189.944 M456.573,140.011
		c-10.569,1.109-13.836,10.575-13.836,21.29c0,11.484,5.615,18.589,13.836,20.021v8.529c-7.429-0.527-24.616-4.099-24.616-28.156
		c0-21.477,11.734-29.309,24.616-30.069V140.011z M398.085,189.934v-8.385c12.75-0.586,15.252-12.509,15.252-20.796
		c0-8.289-2.502-20.211-15.252-20.798v-8.385c6.24,0.146,26.031,2.201,26.031,29.184
		C424.117,187.733,404.325,189.788,398.085,189.934 M396.167,139.954c-12.752,0.587-15.251,12.509-15.251,20.798
		c0,8.287,2.499,20.21,15.251,20.796v8.385c-6.241-0.146-26.032-2.201-26.032-29.181c0-26.982,19.791-29.038,26.032-29.184V139.954z
		 M359.555,188.292h-10.073v-41.469l0.157-2.125h-0.157l-14.574,39.198l-4.388-11.748l14.004-38.938h15.031V188.292z
		 M333.272,188.292h-7.556l-20.529-55.082h9.278l19.419,53.435L333.272,188.292z M309.507,188.292h-10.071V133.21h3.704
		l6.367,17.047V188.292z M458.492,131.562c0.073,0,0.147-0.004,0.221-0.004c18.884,0,23.133,11.567,23.606,19.438h-9.994
		c-0.631-4.567-3.304-11.097-13.613-11.097c-0.079,0-0.145,0.011-0.221,0.012V131.562z M289.375,196.793h359.433v-71.936H289.375
		V196.793z M631.143,113.579l-4.023-11.593h-20.062l2.658-8.361h14.723l-7.355-21.577l4.373-12.803l20.492,54.333H631.143z
		 M590.209,113.579l20.82-55.208h8.691l-18.707,55.208H590.209z M565.217,113.425h-12.918v-8.36h11.893
		c6.154,0,10.805-1.499,10.805-8.203c0-7.414-6.389-7.887-10.568-7.887h-12.129v-8.36h11.42c5.6,0,8.992-1.736,8.992-6.547
		c0-7.334-7.098-7.492-9.229-7.492h-11.184v-8.36h14.023c14.039,0,16.799,7.888,16.799,13.96c0,6.074-3.785,10.885-9.148,11.831
		v0.158c4.574,0.789,11.436,3.943,11.436,13.802C585.408,111.924,573.498,113.425,565.217,113.425 M550.377,113.425h-10.082v-55.21
		h10.082V113.425z M532.186,66.575h-15.433v-8.36h15.433V66.575z M504.739,113.425l-0.024-55.21h10.112l0.007,55.21H504.739z
		 M502.793,66.575h-15.406v-8.36h15.406V66.575z M479.275,113.579h-10.096v-36.86l10.096-15.53V113.579z M433.549,113.579
		l35.889-55.208h9.375l-35.895,55.208H433.549z M433.058,58.371h10.094v36.907l-10.094,15.531V58.371z M405.164,113.579h-14.101
		v-8.36h11.497c5.285,0,10.805-1.182,10.805-8.437c0-7.573-6.388-8.123-10.568-8.123h-11.734v-8.361h14.181
		c5.913,0,18.534,1.183,18.534,16.957C423.777,113.501,408.398,113.579,405.164,113.579 M389.14,113.579h-10.082V58.371h10.082
		V113.579z M391.063,58.371h29.084v8.36h-29.084V58.371z M368.975,121.942h279.833V50.005H368.975V121.942z M386.614,338.131
		l-4.022-11.594h-20.064l2.655-8.361h14.727l-7.355-21.579l4.372-12.805l20.495,54.339H386.614z M345.677,338.131l20.823-55.212
		h8.692l-18.708,55.212H345.677z M341.172,338.131h-9.309h-8.373l0.012-46.852h-14.8v-8.36h24.897v46.853h7.571V338.131z
		 M321.567,338.131h-29.852h-9.307v-8.359h4.732c3.63-4.654,9.543-14.592,9.543-34.943v-11.91h10.096v15.162
		c-0.015,12.138-1.37,21.329-7.648,31.691h22.436V338.131z M277.24,338.131h-30.238v-8.359h30.238V338.131z M245.078,338.131
		h-10.116v-55.213h10.116V338.131z M206.879,338.131h-14.101v-8.359h11.498c5.285,0,10.807-1.186,10.807-8.44
		c0-7.573-6.39-8.124-10.57-8.124h-11.734v-8.362h14.18c5.915,0,18.536,1.184,18.536,16.958
		C225.494,338.053,210.112,338.131,206.879,338.131 M190.855,338.131h-10.084v-55.213h10.084V338.131z M144.492,339.622v-8.406
		c12.781-0.588,15.288-12.537,15.288-20.846s-2.507-20.26-15.288-20.846v-8.405c6.255,0.145,26.093,2.207,26.093,29.251
		S150.747,339.476,144.492,339.622 M142.569,289.523c-12.781,0.586-15.286,12.538-15.286,20.846s2.505,20.258,15.286,20.848v8.404
		c-6.254-0.146-26.093-2.205-26.093-29.252c0-27.046,19.839-29.106,26.093-29.251V289.523z M106.33,338.131H96.233V291.28H73.691
		v-8.36h32.638V338.131z M61.685,338.131v-55.212h10.083l0.013,55.212H61.685z M192.778,282.919h29.086v8.36h-29.086V282.919z
		 M247.001,305.635h26.136v8.361h-26.136V305.635z M247.001,282.919h29.37v8.36h-29.37V282.919z M51.602,346.495h352.678v-71.937
		H51.602V346.495z M375.731,263.283h-10.097l-0.003-55.215h10.101V263.283z M363.708,216.428h-11.246
		c-2.763,0-11.123,0-11.123,9.151c0,8.046,7.415,8.755,11.832,8.755h10.537v8.361h-7.697l-13.252,20.587h-12.777l15.618-21.692
		c-5.128-0.631-14.672-3.708-14.672-16.249c0-16.564,14.198-17.274,22.007-17.274h10.773V216.428z M312.765,263.283l-4.023-11.595
		h-20.063l2.656-8.361h14.727l-7.355-21.58l4.373-12.806l20.495,54.342H312.765z M271.829,263.283l20.823-55.215h8.692
		l-18.71,55.215H271.829z M246.834,263.283h-12.921v-8.362h11.895c6.153,0,10.806-1.498,10.806-8.203
		c0-7.415-6.388-7.887-10.568-7.887h-12.132v-8.363h11.422c5.6,0,8.992-1.734,8.992-6.546c0-7.334-7.1-7.494-9.229-7.494h-11.186
		v-8.36h14.026c14.039,0,16.801,7.887,16.801,13.961s-3.787,10.886-9.15,11.832v0.157c4.575,0.79,11.438,3.944,11.438,13.805
		C267.027,261.783,255.116,263.283,246.834,263.283 M231.99,263.283h-10.082v-55.215h10.082V263.283z M192.694,242.932h-9.892
		v-8.361h9.813c4.653,0,11.2-0.631,11.2-8.913c0-8.754-7.256-9.23-11.121-9.23h-9.892v-8.36h9.97
		c8.678,0,21.454,1.419,21.454,17.116C214.226,235.201,208.627,242.932,192.694,242.932 M180.862,263.283h-10.097v-55.215h10.113
		L180.862,263.283z M161.961,263.283h-30.24v-8.362h30.24V263.283z M129.799,216.428h-0.021v38.493h0.021v8.362h-10.119v-55.215
		h10.119V216.428z M106.331,263.283H96.234v-46.855H73.691v-8.36h32.639V263.283z M61.685,263.283v-55.215h10.084l0.013,55.215
		H61.685z M131.721,230.785h26.137v8.36h-26.137V230.785z M131.721,208.068h29.371v8.36h-29.371V208.068z M51.602,271.643h334.194
		v-71.936H51.602V271.643z M151.425,188.429l-4.021-11.595H127.34l2.655-8.359h14.727l-7.354-21.577l4.37-12.804l20.493,54.334
		H151.425z M110.492,188.429l20.821-55.209h8.691l-18.708,55.209H110.492z M85.235,190.055v-8.361
		c6.9-0.287,11.278-3.484,11.278-9.2c0-6.861-4.734-8.676-10.886-8.676h-7.572v-8.358h6.547c2.366,0,9.701-0.159,9.701-7.257
		c0-4.428-2.603-7.62-9.069-8.183v-8.441c7.682,0.22,19.478,2.609,19.478,15.598c0,7.098-4.337,11.435-9.227,12.147v0.156
		c5.993,0.869,11.436,5.365,11.436,14.04C106.922,179.803,103.57,189.506,85.235,190.055 M83.312,190.076
		c-14.037-0.078-22.688-6.159-23.239-20.499h10.018c0.075,4.457,1.976,11.732,13.221,12.11V190.076z M83.312,131.573v8.354
		c-0.072-0.001-0.136-0.006-0.208-0.006c-9.544,0-12.226,4.733-12.382,9.544H60.705C60.937,135.296,71.51,131.702,83.312,131.573
		 M51.602,196.793H169.09v-71.936H51.602V196.793z"/>
	<g>
		<path fill="#AD8800" d="M944.853,434.744h-1.281v-7.007h1.281v2.803h3.123v-2.803h1.281v7.007h-1.281V431.6h-3.123V434.744z"/>
		<path fill="#AD8800" d="M952.235,427.737v7.007h-1.281v-7.007H952.235z"/>
		<path fill="#AD8800" d="M954.807,432.491c0.03,0.531,0.351,1.402,1.821,1.402c0.471,0,1.482-0.07,1.482-1.051
			c0-0.842-0.812-0.992-1.262-1.082c-0.28-0.049-0.551-0.109-0.82-0.17c-1.142-0.26-2.173-0.6-2.173-2.021
			c0-1.982,2.183-2.043,2.753-2.043c1.852,0,2.623,0.992,2.713,2.062h-1.271c-0.12-0.98-1.102-1-1.472-1c-0.19,0-1.351,0-1.351,0.93
			c0,0.73,0.79,0.852,1.561,0.992c1.622,0.289,2.693,0.65,2.693,2.201c0,1.982-1.752,2.242-2.934,2.242
			c-2.402,0-2.973-1.352-3.013-2.463H954.807z"/>
		<path fill="#AD8800" d="M959.878,428.797v-1.061h5.686v1.061h-2.202v5.946h-1.281v-5.946H959.878z"/>
		<path fill="#AD8800" d="M969.354,427.526c0.61,0,3.434,0.08,3.434,3.715c0,3.633-2.823,3.713-3.434,3.713s-3.434-0.08-3.434-3.713
			C965.92,427.606,968.743,427.526,969.354,427.526z M969.354,433.893c1.731,0,2.062-1.572,2.062-2.652
			c0-1.082-0.33-2.652-2.062-2.652s-2.062,1.57-2.062,2.652C967.292,432.321,967.622,433.893,969.354,433.893z"/>
		<path fill="#AD8800" d="M974.084,427.737h3.134c0.86,0,2.532,0.12,2.532,1.951c0,1.041-0.61,1.543-1.171,1.703v0.02
			c1,0.32,1.021,1.191,1.03,1.822c0.011,0.939,0,1.18,0.261,1.511h-1.321c-0.2-0.32-0.221-0.561-0.221-1.462
			c0-0.641-0.05-1.32-1.481-1.32h-1.481v2.782h-1.281V427.737z M975.365,430.9h1.602c0.651,0,1.462-0.101,1.462-1.052
			c0-1.01-0.911-1.051-1.432-1.051h-1.632V430.9z"/>
		<path fill="#AD8800" d="M982.448,427.737v7.007h-1.281v-7.007H982.448z"/>
		<path fill="#AD8800" d="M990.255,432.352c-0.101,1.061-0.661,2.602-3.033,2.602c-0.541,0-3.474-0.05-3.474-3.594
			c0-2.883,1.662-3.834,3.403-3.834c2.402,0,2.943,1.473,3.003,2.473h-1.271c-0.08-0.58-0.421-1.41-1.732-1.41
			c-1.562,0-2.031,1.271-2.031,2.723c0,1.641,0.9,2.582,2.162,2.582c1.16,0,1.661-0.791,1.701-1.541H990.255z"/>
		<path fill="#AD8800" d="M991.962,434.744h-1.371l2.643-7.007h1.281l2.643,7.007h-1.371l-0.511-1.472h-2.803L991.962,434.744z
			 M994.935,432.211l-1.061-3.113l-1.061,3.113H994.935z"/>
		<path fill="#AD8800" d="M1002.659,434.744h-4.695v-7.007h1.281v5.945h3.414V434.744z"/>
		<path fill="#AD8800" d="M902.054,447.477h-1.371l2.643-7.008h1.281l2.643,7.008h-1.371l-0.511-1.473h-2.803L902.054,447.477z
			 M905.026,444.944l-1.061-3.113l-1.061,3.113H905.026z"/>
		<path fill="#AD8800" d="M909.337,447.477h-1.281v-7.008h1.361l3.363,4.975v-4.975h1.281v7.008H912.7l-3.363-4.975V447.477z"/>
		<path fill="#AD8800" d="M918.542,440.469c2.873,0,3.383,1.982,3.383,3.484c0,3.172-2.222,3.523-3.633,3.523h-2.533v-7.008H918.542
			z M917.04,446.416h1.191c0.621,0,2.322-0.101,2.322-2.442c0-2.162-1.352-2.442-2.122-2.442h-1.392V446.416z"/>
		<path fill="#AD8800" d="M928.336,440.469c2.872,0,3.383,1.982,3.383,3.484c0,3.172-2.222,3.523-3.634,3.523h-2.532v-7.008H928.336
			z M926.834,446.416h1.191c0.62,0,2.322-0.101,2.322-2.442c0-2.162-1.352-2.442-2.122-2.442h-1.392V446.416z"/>
		<path fill="#AD8800" d="M936.049,440.26c0.61,0,3.434,0.08,3.434,3.713s-2.823,3.713-3.434,3.713s-3.434-0.08-3.434-3.713
			S935.438,440.26,936.049,440.26z M936.049,446.625c1.731,0,2.062-1.571,2.062-2.652s-0.33-2.652-2.062-2.652
			s-2.062,1.571-2.062,2.652S934.317,446.625,936.049,446.625z"/>
		<path fill="#AD8800" d="M946.886,445.084c-0.101,1.061-0.661,2.602-3.033,2.602c-0.541,0-3.474-0.049-3.474-3.593
			c0-2.883,1.662-3.833,3.403-3.833c2.402,0,2.943,1.471,3.003,2.472h-1.271c-0.08-0.581-0.421-1.411-1.732-1.411
			c-1.562,0-2.031,1.271-2.031,2.723c0,1.641,0.9,2.582,2.162,2.582c1.16,0,1.661-0.791,1.701-1.541H946.886z"/>
		<path fill="#AD8800" d="M949.264,440.469v4.115c0,1.4,0.41,2.041,1.611,2.041s1.612-0.641,1.612-2.041v-4.115h1.281v4.314
			c0,1.131-0.201,2.902-2.894,2.902s-2.893-1.771-2.893-2.902v-4.314H949.264z"/>
		<path fill="#AD8800" d="M956.616,441.931h-0.02l0.02,0.271v5.275h-1.281v-7.008h1.912l1.912,5.316l1.912-5.316h1.911v7.008h-1.281
			v-5.275l0.021-0.271h-0.021l-2.062,5.546h-0.961L956.616,441.931z"/>
		<path fill="#AD8800" d="M969.523,443.352v1.062h-3.563v2.002h4.084v1.062h-5.365v-7.008h5.256v1.062h-3.975v1.821H969.523z"/>
		<path fill="#AD8800" d="M972.343,447.477h-1.281v-7.008h1.361l3.363,4.975v-4.975h1.281v7.008h-1.361l-3.363-4.975V447.477z"/>
		<path fill="#AD8800" d="M978.044,441.531v-1.062h5.686v1.062h-2.202v5.946h-1.281v-5.946H978.044z"/>
		<path fill="#AD8800" d="M984.388,447.477h-1.371l2.643-7.008h1.281l2.643,7.008h-1.371l-0.511-1.473h-2.803L984.388,447.477z
			 M987.36,444.944l-1.061-3.113l-1.061,3.113H987.36z"/>
		<path fill="#AD8800" d="M990.39,440.469h3.133c0.861,0,2.533,0.121,2.533,1.953c0,1.041-0.611,1.541-1.172,1.701v0.02
			c1.002,0.32,1.021,1.191,1.031,1.822c0.01,0.941,0,1.182,0.261,1.512h-1.321c-0.2-0.32-0.221-0.561-0.221-1.462
			c0-0.641-0.05-1.321-1.481-1.321h-1.481v2.783h-1.281V440.469z M991.671,443.633h1.602c0.65,0,1.462-0.101,1.462-1.051
			c0-1.012-0.911-1.052-1.432-1.052h-1.632V443.633z"/>
		<path fill="#AD8800" d="M1001.127,440.469h1.511l-2.572,4.215v2.793h-1.281v-2.793l-2.572-4.215h1.512l1.701,3.074
			L1001.127,440.469z"/>
		<path fill="#AD8800" d="M927.237,456.085v1.062h-3.563v2.002h4.084v1.061h-5.365v-7.007h5.255v1.062h-3.974v1.821H927.237z"/>
		<path fill="#AD8800" d="M932.81,453.203h1.602l-2.353,3.423l2.532,3.584h-1.651l-1.682-2.703l-1.682,2.703h-1.651l2.532-3.584
			l-2.353-3.423h1.602l1.552,2.532L932.81,453.203z"/>
		<path fill="#AD8800" d="M936.72,460.209h-1.281v-7.007h1.281v2.803h3.123v-2.803h1.281v7.007h-1.281v-3.143h-3.123V460.209z"/>
		<path fill="#AD8800" d="M944.103,453.203v7.007h-1.281v-7.007H944.103z"/>
		<path fill="#AD8800" d="M949.106,453.203c1.781,0,2.132,1.001,2.132,1.772c0,0.77-0.48,1.381-1.161,1.5v0.021
			c0.58,0.1,1.451,0.5,1.451,1.751c0,1.772-1.512,1.962-2.562,1.962h-3.163v-7.007H949.106z M947.084,456.045h1.692
			c0.71,0,1.141-0.221,1.141-0.83c0-0.932-0.9-0.951-1.171-0.951h-1.662V456.045z M947.084,459.149h1.752
			c0.78,0,1.371-0.191,1.371-1.041c0-0.941-0.811-1.002-1.341-1.002h-1.782V459.149z"/>
		<path fill="#AD8800" d="M954.237,453.203v7.007h-1.281v-7.007H954.237z"/>
		<path fill="#AD8800" d="M955.217,454.264v-1.062h5.686v1.062H958.7v5.945h-1.281v-5.945H955.217z"/>
		<path fill="#AD8800" d="M963.161,453.203v7.007h-1.281v-7.007H963.161z"/>
		<path fill="#AD8800" d="M967.895,452.993c0.61,0,3.434,0.08,3.434,3.713c0,3.635-2.823,3.715-3.434,3.715s-3.434-0.08-3.434-3.715
			C964.461,453.073,967.284,452.993,967.895,452.993z M967.895,459.358c1.731,0,2.062-1.57,2.062-2.652
			c0-1.08-0.33-2.652-2.062-2.652s-2.062,1.572-2.062,2.652C965.833,457.788,966.163,459.358,967.895,459.358z"/>
		<path fill="#AD8800" d="M973.906,460.209h-1.281v-7.007h1.361l3.363,4.976v-4.976h1.281v7.007h-1.361l-3.363-4.975V460.209z"/>
		<path fill="#AD8800" d="M987.114,456.186v1.061h-3.174v2.963h-1.281v-7.007h4.965v1.062h-3.684v1.922H987.114z"/>
		<path fill="#AD8800" d="M991.635,452.993c0.61,0,3.434,0.08,3.434,3.713c0,3.635-2.823,3.715-3.434,3.715s-3.434-0.08-3.434-3.715
			C988.201,453.073,991.024,452.993,991.635,452.993z M991.635,459.358c1.731,0,2.062-1.57,2.062-2.652
			c0-1.08-0.33-2.652-2.062-2.652s-2.062,1.572-2.062,2.652C989.573,457.788,989.903,459.358,991.635,459.358z"/>
		<path fill="#AD8800" d="M996.365,453.203h3.134c0.86,0,2.532,0.12,2.532,1.952c0,1.041-0.61,1.541-1.171,1.701v0.02
			c1,0.32,1.021,1.191,1.03,1.822c0.011,0.941,0,1.182,0.261,1.512h-1.321c-0.2-0.32-0.221-0.561-0.221-1.461
			c0-0.641-0.05-1.322-1.481-1.322h-1.481v2.783h-1.281V453.203z M997.646,456.366h1.602c0.651,0,1.462-0.1,1.462-1.051
			c0-1.012-0.911-1.051-1.432-1.051h-1.632V456.366z"/>
		<path fill="#AD8800" d="M882.085,466.997v-1.062h5.686v1.062h-2.202v5.945h-1.281v-5.945H882.085z"/>
		<path fill="#AD8800" d="M890.029,472.942h-1.281v-7.007h1.281v2.803h3.123v-2.803h1.281v7.007h-1.281v-3.143h-3.123V472.942z"/>
		<path fill="#AD8800" d="M900.976,468.818v1.062h-3.563v2.002h4.084v1.061h-5.365v-7.007h5.255v1.062h-3.974v1.821H900.976z"/>
		<path fill="#AD8800" d="M904.294,465.935h5.406v0.881c-0.941,0.961-1.472,1.842-1.963,2.993c-0.47,1.091-0.63,1.861-0.74,3.133
			h-1.342c0.121-0.941,0.431-2.042,0.821-2.953c0.36-0.82,0.94-1.861,2.052-2.992h-4.234V465.935z"/>
		<path fill="#AD8800" d="M911.938,471.049c0.051,0.512,0.411,1.111,1.271,1.111c0.57,0,1.361-0.26,1.361-1.561
			c0-1.382-0.98-1.441-1.311-1.441c-0.351,0-0.901,0.1-1.182,0.58h-1.211l0.48-3.804h4.094v1.062h-3.153l-0.229,1.621
			c0.119-0.12,0.561-0.521,1.541-0.521c1.342,0,2.272,0.86,2.272,2.493c0,2.461-2.183,2.562-2.743,2.562
			c-1.852,0-2.322-1.212-2.422-2.104H911.938z"/>
		<path fill="#AD8800" d="M916.13,466.997v-1.062h5.686v1.062h-2.202v5.945h-1.281v-5.945H916.13z"/>
		<path fill="#AD8800" d="M924.074,472.942h-1.281v-7.007h1.281v2.803h3.123v-2.803h1.281v7.007h-1.281v-3.143h-3.123V472.942z"/>
		<path fill="#AD8800" d="M932.987,472.942h-1.371l2.643-7.007h1.281l2.643,7.007h-1.371l-0.511-1.471h-2.803L932.987,472.942z
			 M935.96,470.409l-1.061-3.112l-1.061,3.112H935.96z"/>
		<path fill="#AD8800" d="M940.271,472.942h-1.281v-7.007h1.361l3.363,4.976v-4.976h1.281v7.007h-1.361l-3.363-4.975V472.942z"/>
		<path fill="#AD8800" d="M947.974,472.942h-1.281v-7.007h1.361l3.363,4.976v-4.976h1.281v7.007h-1.361l-3.363-4.975V472.942z"/>
		<path fill="#AD8800" d="M955.677,465.935v7.007h-1.281v-7.007H955.677z"/>
		<path fill="#AD8800" d="M961.401,465.935h1.391l-2.412,7.007h-1.481l-2.412-7.007h1.392l1.762,5.675L961.401,465.935z"/>
		<path fill="#AD8800" d="M968.444,468.818v1.062h-3.563v2.002h4.084v1.061H963.6v-7.007h5.255v1.062h-3.974v1.821H968.444z"/>
		<path fill="#AD8800" d="M969.982,465.935h3.134c0.86,0,2.532,0.12,2.532,1.952c0,1.041-0.61,1.541-1.171,1.701v0.02
			c1,0.32,1.021,1.191,1.03,1.822c0.011,0.941,0,1.182,0.261,1.512h-1.321c-0.2-0.32-0.221-0.561-0.221-1.461
			c0-0.641-0.05-1.322-1.481-1.322h-1.481v2.783h-1.281V465.935z M971.264,469.098h1.602c0.651,0,1.462-0.1,1.462-1.051
			c0-1.012-0.911-1.051-1.432-1.051h-1.632V469.098z"/>
		<path fill="#AD8800" d="M977.937,470.69c0.03,0.53,0.351,1.4,1.822,1.4c0.47,0,1.48-0.069,1.48-1.051
			c0-0.84-0.811-0.99-1.261-1.08c-0.28-0.051-0.551-0.111-0.821-0.17c-1.141-0.262-2.172-0.602-2.172-2.023
			c0-1.98,2.183-2.041,2.753-2.041c1.852,0,2.622,0.99,2.713,2.062h-1.271c-0.12-0.982-1.101-1.002-1.472-1.002
			c-0.189,0-1.352,0-1.352,0.932c0,0.73,0.791,0.85,1.562,0.99c1.621,0.291,2.692,0.65,2.692,2.203c0,1.98-1.752,2.242-2.933,2.242
			c-2.402,0-2.974-1.352-3.014-2.463H977.937z"/>
		<path fill="#AD8800" d="M984.389,472.942h-1.371l2.643-7.007h1.281l2.643,7.007h-1.371l-0.511-1.471h-2.803L984.389,472.942z
			 M987.362,470.409l-1.062-3.112l-1.062,3.112H987.362z"/>
		<path fill="#AD8800" d="M990.391,465.935h3.134c0.86,0,2.532,0.12,2.532,1.952c0,1.041-0.61,1.541-1.171,1.701v0.02
			c1,0.32,1.021,1.191,1.03,1.822c0.011,0.941,0,1.182,0.261,1.512h-1.321c-0.2-0.32-0.221-0.561-0.221-1.461
			c0-0.641-0.05-1.322-1.481-1.322h-1.481v2.783h-1.281V465.935z M991.672,469.098h1.602c0.651,0,1.462-0.1,1.462-1.051
			c0-1.012-0.911-1.051-1.432-1.051h-1.632V469.098z"/>
		<path fill="#AD8800" d="M1001.128,465.935h1.512l-2.573,4.214v2.793h-1.281v-2.793l-2.572-4.214h1.512l1.701,3.073
			L1001.128,465.935z"/>
		<path fill="#AD8800" d="M893.583,478.668c1.781,0,2.132,1,2.132,1.771c0,0.771-0.48,1.381-1.161,1.502v0.02
			c0.58,0.1,1.451,0.5,1.451,1.752c0,1.771-1.512,1.961-2.562,1.961h-3.163v-7.006H893.583z M891.561,481.51h1.692
			c0.71,0,1.141-0.22,1.141-0.83c0-0.932-0.9-0.951-1.171-0.951h-1.662V481.51z M891.561,484.614h1.752
			c0.78,0,1.371-0.189,1.371-1.041c0-0.941-0.811-1.001-1.341-1.001h-1.782V484.614z"/>
		<path fill="#AD8800" d="M897.913,485.674h-1.371l2.643-7.006h1.281l2.643,7.006h-1.371l-0.511-1.471h-2.803L897.913,485.674z
			 M900.886,483.143l-1.061-3.113l-1.061,3.113H900.886z"/>
		<path fill="#AD8800" d="M902.395,479.729v-1.061h5.686v1.061h-2.202v5.945h-1.281v-5.945H902.395z"/>
		<path fill="#AD8800" d="M908.646,479.729v-1.061h5.686v1.061h-2.202v5.945h-1.281v-5.945H908.646z"/>
		<path fill="#AD8800" d="M920.005,485.674h-4.695v-7.006h1.281v5.945h3.414V485.674z"/>
		<path fill="#AD8800" d="M925.637,481.551v1.061h-3.563v2.002h4.084v1.061h-5.365v-7.006h5.256v1.061h-3.975v1.822H925.637z"/>
		<path fill="#AD8800" d="M936.292,481.651v1.061h-3.174v2.963h-1.281v-7.006h4.965v1.061h-3.684v1.922H936.292z"/>
		<path fill="#AD8800" d="M940.812,478.458c0.61,0,3.434,0.08,3.434,3.714s-2.823,3.714-3.434,3.714s-3.434-0.08-3.434-3.714
			S940.202,478.458,940.812,478.458z M940.812,484.825c1.731,0,2.062-1.572,2.062-2.653s-0.33-2.653-2.062-2.653
			s-2.062,1.572-2.062,2.653S939.081,484.825,940.812,484.825z"/>
		<path fill="#AD8800" d="M945.543,478.668h3.134c0.86,0,2.532,0.119,2.532,1.951c0,1.041-0.61,1.541-1.171,1.701v0.021
			c1,0.32,1.021,1.19,1.03,1.82c0.011,0.941,0,1.182,0.261,1.512h-1.321c-0.2-0.32-0.221-0.561-0.221-1.461
			c0-0.641-0.05-1.321-1.481-1.321h-1.481v2.782h-1.281V478.668z M946.824,481.831h1.602c0.651,0,1.462-0.1,1.462-1.051
			c0-1.011-0.911-1.051-1.432-1.051h-1.632V481.831z"/>
		<path fill="#AD8800" d="M956.238,480.129h-0.02l0.02,0.27v5.275h-1.281v-7.006h1.912l1.912,5.314l1.911-5.314h1.912v7.006h-1.281
			v-5.275l0.021-0.27h-0.021l-2.062,5.545h-0.961L956.238,480.129z"/>
		<path fill="#AD8800" d="M967.334,478.458c0.61,0,3.434,0.08,3.434,3.714s-2.823,3.714-3.434,3.714s-3.434-0.08-3.434-3.714
			S966.724,478.458,967.334,478.458z M967.334,484.825c1.731,0,2.062-1.572,2.062-2.653s-0.33-2.653-2.062-2.653
			s-2.062,1.572-2.062,2.653S965.603,484.825,967.334,484.825z"/>
		<path fill="#AD8800" d="M972.936,483.422c0.03,0.531,0.351,1.402,1.821,1.402c0.471,0,1.482-0.07,1.482-1.052
			c0-0.841-0.812-0.991-1.262-1.081c-0.28-0.051-0.551-0.109-0.82-0.17c-1.142-0.26-2.173-0.602-2.173-2.021
			c0-1.982,2.183-2.043,2.753-2.043c1.852,0,2.623,0.991,2.713,2.062h-1.271c-0.12-0.98-1.102-1.002-1.472-1.002
			c-0.19,0-1.351,0-1.351,0.932c0,0.73,0.79,0.852,1.561,0.99c1.622,0.291,2.693,0.651,2.693,2.203c0,1.982-1.752,2.242-2.934,2.242
			c-2.402,0-2.973-1.352-3.013-2.463H972.936z"/>
		<path fill="#AD8800" d="M985.014,483.282c-0.101,1.062-0.661,2.604-3.033,2.604c-0.54,0-3.474-0.051-3.474-3.594
			c0-2.883,1.662-3.834,3.403-3.834c2.402,0,2.943,1.472,3.003,2.473h-1.271c-0.08-0.58-0.42-1.412-1.731-1.412
			c-1.562,0-2.032,1.271-2.032,2.723c0,1.643,0.901,2.584,2.162,2.584c1.162,0,1.662-0.791,1.702-1.543H985.014z"/>
		<path fill="#AD8800" d="M989.273,478.458c0.61,0,3.434,0.08,3.434,3.714s-2.823,3.714-3.434,3.714s-3.434-0.08-3.434-3.714
			S988.663,478.458,989.273,478.458z M989.273,484.825c1.731,0,2.062-1.572,2.062-2.653s-0.33-2.653-2.062-2.653
			s-2.062,1.572-2.062,2.653S987.542,484.825,989.273,484.825z"/>
		<path fill="#AD8800" d="M996.637,485.674h-1.622l-1.901-7.006h1.441l1.371,5.525l1.231-5.525h1.441l1.231,5.525l1.371-5.525h1.441
			l-1.901,7.006h-1.622l-1.241-5.494L996.637,485.674z"/>
	</g>
	<g>
		<g>
			<path fill="#AD8800" d="M63.106,352.812h3v16.802h-3.072v-12.289l-7.993,12.289h-3v-16.802h3.072v12.289L63.106,352.812z"/>
			<path fill="#AD8800" d="M84.827,363.877c-0.24,2.543-1.584,6.24-7.273,6.24c-1.296,0-8.329-0.12-8.329-8.617
				c0-6.912,3.984-9.193,8.161-9.193c5.761,0,7.057,3.529,7.201,5.93h-3.048c-0.192-1.393-1.008-3.385-4.152-3.385
				c-3.744,0-4.873,3.049-4.873,6.528c0,3.937,2.161,6.192,5.185,6.192c2.784,0,3.984-1.896,4.081-3.695H84.827z"/>
			<path fill="#AD8800" d="M86.05,355.356v-2.544h13.633v2.544h-5.281v14.258H91.33v-14.258H86.05z"/>
			<path fill="#AD8800" d="M109.043,352.307c1.464,0,8.232,0.193,8.232,8.905c0,8.713-6.769,8.905-8.232,8.905
				c-1.464,0-8.233-0.192-8.233-8.905C100.811,352.5,107.579,352.307,109.043,352.307z M109.043,367.573
				c4.152,0,4.944-3.768,4.944-6.36s-0.792-6.36-4.944-6.36s-4.945,3.768-4.945,6.36S104.891,367.573,109.043,367.573z"/>
			<path fill="#AD8800" d="M127.092,352.812c2.64,0,6.528,0.432,6.528,5.208c0,3.049-1.704,5.4-6.552,5.4h-3.601v6.193h-3.072
				v-16.802H127.092z M123.467,360.876h3.577c1.416,0,3.408-0.192,3.408-2.712c0-2.664-2.208-2.809-3.384-2.809h-3.601V360.876z"/>
			<path fill="#AD8800" d="M147.493,352.812h3v16.802h-3.072v-12.289l-7.993,12.289h-3v-16.802h3.072v12.289L147.493,352.812z"/>
			<path fill="#AD8800" d="M164.389,352.812h3.648l-7.44,7.753l8.064,9.049h-3.888l-7.129-8.713v8.713h-3.072v-16.802h3.072v7.561
				L164.389,352.812z"/>
			<path fill="#AD8800" d="M177.878,352.307c1.464,0,8.232,0.193,8.232,8.905c0,8.713-6.769,8.905-8.232,8.905
				c-1.464,0-8.233-0.192-8.233-8.905C169.645,352.5,176.414,352.307,177.878,352.307z M177.878,367.573
				c4.152,0,4.944-3.768,4.944-6.36s-0.792-6.36-4.944-6.36s-4.945,3.768-4.945,6.36S173.726,367.573,177.878,367.573z"/>
			<path fill="#AD8800" d="M189.11,361.885h6.24v2.543h-6.24V361.885z"/>
			<path fill="#AD8800" d="M67.882,391.069l-0.144,6.337H65.05v-3.792H52.833v3.792h-2.688l-0.144-6.337h1.44
				c1.104-1.416,2.904-4.439,2.904-10.633v-3.624h11.233v14.257H67.882z M57.417,379.356v2.016c0,3.721-0.408,6.529-2.328,9.697
				h7.417v-11.713H57.417z"/>
			<path fill="#AD8800" d="M77.506,376.307c1.464,0,8.232,0.193,8.232,8.905c0,8.713-6.769,8.905-8.232,8.905
				c-1.464,0-8.233-0.192-8.233-8.905C69.273,376.5,76.042,376.307,77.506,376.307z M77.506,391.573c4.152,0,4.944-3.768,4.944-6.36
				s-0.792-6.36-4.944-6.36s-4.945,3.768-4.945,6.36S73.354,391.573,77.506,391.573z"/>
			<path fill="#AD8800" d="M98.675,376.812h3.648l-7.441,7.753l8.065,9.049h-3.888l-7.129-8.713v8.713h-3.072v-16.802h3.072v7.561
				L98.675,376.812z"/>
			<path fill="#AD8800" d="M114.684,376.812h3.216l-5.641,13.537c-1.416,3.433-3.288,3.505-4.752,3.505
				c-0.792,0-1.368-0.025-2.184-0.265v-2.664c0.528,0.168,1.128,0.288,1.752,0.288c1.081,0,2.017-0.336,2.4-2.017l-6.409-12.385
				h3.769l4.296,9.073L114.684,376.812z"/>
			<path fill="#AD8800" d="M122.915,380.316h-0.048l0.048,0.648v12.649h-3.072v-16.802h4.584l4.584,12.745l4.584-12.745h4.584
				v16.802h-3.072v-12.649l0.048-0.648h-0.048l-4.945,13.298h-2.304L122.915,380.316z"/>
			<path fill="#AD8800" d="M153.876,383.725v2.543h-8.545v4.801h9.793v2.545h-12.865v-16.802h12.601v2.544h-9.529v4.369H153.876z"/>
			<path fill="#AD8800" d="M160.644,393.614h-3.072v-16.802h3.072v6.72h7.489v-6.72h3.072v16.802h-3.072v-7.537h-7.489V393.614z"/>
			<path fill="#AD8800" d="M173.556,379.356v-2.544h13.633v2.544h-5.281v14.258h-3.072v-14.258H173.556z"/>
			<path fill="#AD8800" d="M188.701,393.614h-3.289l6.337-16.802h3.072l6.336,16.802h-3.289l-1.224-3.529h-6.72L188.701,393.614z
				 M195.829,387.541l-2.544-7.464l-2.544,7.464H195.829z"/>
			<path fill="#AD8800" d="M202.116,391.069c3.672,0.648,3.769-4.248,3.769-7.656v-6.601h11.497v16.802h-3.072v-14.258h-5.352v4.969
				c0,4.225-0.432,10.32-6.841,9.289V391.069z"/>
			<path fill="#AD8800" d="M224.533,383.292h4.369c1.824,0,5.833,0.36,5.833,5.257c0,2.088-1.056,5.064-5.856,5.064h-7.417v-16.802
				h3.072V383.292z M224.533,391.069h3.745c1.632,0,3.288-0.359,3.288-2.664c0-2.4-1.944-2.568-3.216-2.568h-3.816V391.069z"/>
			<path fill="#AD8800" d="M240.614,393.614h-3.072v-16.802h3.072v6.72h7.489v-6.72h3.072v16.802h-3.072v-7.537h-7.489V393.614z"/>
			<path fill="#AD8800" d="M256.406,393.614h-3.289l6.337-16.802h3.072l6.336,16.802h-3.289l-1.224-3.529h-6.721L256.406,393.614z
				 M263.535,387.541l-2.544-7.464l-2.544,7.464H263.535z"/>
			<path fill="#AD8800" d="M278.007,387.348l-4.032,6.266h-3.888l4.752-6.602c-1.561-0.191-4.465-1.127-4.465-4.943
				c0-5.041,4.321-5.257,6.697-5.257h6.937v16.802h-3.072v-6.266H278.007z M276.927,379.356c-0.84,0-3.384,0-3.384,2.784
				c0,2.448,2.256,2.665,3.601,2.665h3.792v-5.449H276.927z"/>
			<path fill="#AD8800" d="M59.962,400.812c4.272,0,5.112,2.399,5.112,4.248s-1.152,3.312-2.784,3.601v0.048
				c1.392,0.24,3.48,1.2,3.48,4.2c0,4.248-3.625,4.705-6.145,4.705h-7.585v-16.802H59.962z M55.113,407.628h4.057
				c1.704,0,2.736-0.528,2.736-1.992c0-2.232-2.16-2.28-2.808-2.28h-3.984V407.628z M55.113,415.069h4.201
				c1.872,0,3.288-0.456,3.288-2.496c0-2.256-1.944-2.4-3.216-2.4h-4.272V415.069z"/>
			<path fill="#AD8800" d="M72.274,407.292h4.369c1.824,0,5.833,0.36,5.833,5.257c0,2.088-1.056,5.064-5.856,5.064h-7.417v-16.802
				h3.072V407.292z M72.274,415.069h3.745c1.632,0,3.288-0.359,3.288-2.664c0-2.4-1.944-2.568-3.216-2.568h-3.816V415.069z
				 M86.916,400.812v16.802h-3.072v-16.802H86.916z"/>
			<path fill="#AD8800" d="M105.636,411.877c-0.24,2.543-1.584,6.24-7.273,6.24c-1.296,0-8.329-0.12-8.329-8.617
				c0-6.912,3.984-9.193,8.161-9.193c5.761,0,7.057,3.529,7.201,5.93h-3.048c-0.192-1.393-1.008-3.385-4.152-3.385
				c-3.744,0-4.873,3.049-4.873,6.528c0,3.937,2.161,6.192,5.185,6.192c2.784,0,3.984-1.896,4.081-3.695H105.636z"/>
			<path fill="#AD8800" d="M106.858,403.356v-2.544h13.633v2.544h-5.281v14.258h-3.072v-14.258H106.858z"/>
			<path fill="#AD8800" d="M122.003,417.614h-3.289l6.337-16.802h3.072l6.336,16.802h-3.289l-1.224-3.529h-6.72L122.003,417.614z
				 M129.132,411.541l-2.544-7.464l-2.544,7.464H129.132z"/>
			<path fill="#AD8800" d="M144.324,400.812c4.272,0,5.112,2.399,5.112,4.248s-1.152,3.312-2.784,3.601v0.048
				c1.392,0.24,3.48,1.2,3.48,4.2c0,4.248-3.625,4.705-6.145,4.705h-7.585v-16.802H144.324z M139.476,407.628h4.057
				c1.704,0,2.736-0.528,2.736-1.992c0-2.232-2.16-2.28-2.808-2.28h-3.984V407.628z M139.476,415.069h4.201
				c1.872,0,3.288-0.456,3.288-2.496c0-2.256-1.944-2.4-3.216-2.4h-4.272V415.069z"/>
			<path fill="#AD8800" d="M163.381,400.812h3.648l-7.441,7.753l8.065,9.049h-3.888l-7.129-8.713v8.713h-3.072v-16.802h3.072v7.561
				L163.381,400.812z"/>
			<path fill="#AD8800" d="M171.493,417.614h-3.289l6.337-16.802h3.072l6.336,16.802h-3.289l-1.224-3.529h-6.72L171.493,417.614z
				 M178.621,411.541l-2.544-7.464l-2.544,7.464H178.621z"/>
			<path fill="#AD8800" d="M61.858,424.812h3.648l-7.44,7.753l8.064,9.049h-3.888l-7.129-8.713v8.713h-3.072v-16.802h3.072v7.561
				L61.858,424.812z"/>
			<path fill="#AD8800" d="M72.346,424.812h12.961v2.112c-2.256,2.304-3.528,4.416-4.705,7.176
				c-1.128,2.617-1.512,4.465-1.776,7.514H75.61c0.288-2.257,1.032-4.896,1.968-7.081c0.864-1.968,2.256-4.464,4.92-7.177H72.346
				V424.812z"/>
			<path fill="#AD8800" d="M90.682,437.077c0.12,1.225,0.984,2.664,3.048,2.664c1.368,0,3.264-0.623,3.264-3.744
				c0-3.312-2.352-3.456-3.144-3.456c-0.84,0-2.16,0.24-2.833,1.392h-2.904l1.152-9.12h9.817v2.544h-7.561l-0.552,3.889
				c0.288-0.288,1.344-1.248,3.696-1.248c3.216,0,5.449,2.064,5.449,5.977c0,5.904-5.232,6.145-6.577,6.145
				c-4.44,0-5.568-2.904-5.809-5.041H90.682z"/>
			<path fill="#AD8800" d="M102.346,433.885h6.241v2.543h-6.241V433.885z"/>
			<path fill="#AD8800" d="M110.819,439.069c3.672,0.648,3.769-4.248,3.769-7.656v-6.601h11.497v16.802h-3.072v-14.258h-5.352v4.969
				c0,4.225-0.432,10.32-6.841,9.289V439.069z"/>
			<path fill="#AD8800" d="M141.781,431.725v2.543h-8.545v4.801h9.793v2.545h-12.865v-16.802h12.601v2.544h-9.529v4.369H141.781z"/>
			<path fill="#AD8800" d="M144.491,427.356v-2.544h13.633v2.544h-5.281v14.258h-3.072v-14.258H144.491z"/>
			<path fill="#AD8800" d="M171.541,424.812h3v16.802h-3.072v-12.289l-7.993,12.289h-3v-16.802h3.072v12.289L171.541,424.812z"/>
			<path fill="#AD8800" d="M183.853,431.532c0.24-2.928,2.064-7.225,8.137-7.225c1.464,0,8.233,0.193,8.233,8.905
				c0,8.713-6.769,8.905-8.233,8.905c-6.336,0-8.041-4.609-8.208-8.041h-2.088v7.537h-3.072v-16.802h3.072v6.72H183.853z
				 M196.934,433.212c0-2.593-0.792-6.36-4.945-6.36s-4.944,3.768-4.944,6.36s0.792,6.36,4.944,6.36
				S196.934,435.805,196.934,433.212z"/>
			<path fill="#AD8800" d="M55.113,455.485h4.896c1.8,0,5.641,0.359,5.641,5.16c0,4.944-4.681,4.969-5.665,4.969h-7.945v-16.802
				h12.505v2.544h-9.433V455.485z M55.113,463.069h4.081c1.608,0,3.288-0.359,3.288-2.568c0-2.304-1.944-2.472-3.216-2.472h-4.152
				V463.069z"/>
			<path fill="#AD8800" d="M79.714,448.812h3v16.802h-3.072v-12.289l-7.993,12.289h-3v-16.802h3.072v12.289L79.714,448.812z"/>
			<path fill="#AD8800" d="M85.066,451.356v-2.544h13.633v2.544h-5.281v14.258h-3.072v-14.258H85.066z"/>
			<path fill="#AD8800" d="M108.971,448.812c4.272,0,5.112,2.399,5.112,4.248s-1.152,3.312-2.784,3.601v0.048
				c1.392,0.24,3.48,1.2,3.48,4.2c0,4.248-3.625,4.705-6.145,4.705h-7.585v-16.802H108.971z M104.123,455.628h4.057
				c1.704,0,2.736-0.528,2.736-1.992c0-2.232-2.161-2.28-2.809-2.28h-3.984V455.628z M104.123,463.069h4.201
				c1.872,0,3.288-0.456,3.288-2.496c0-2.256-1.944-2.4-3.216-2.4h-4.272V463.069z"/>
			<path fill="#AD8800" d="M121.283,455.292h4.369c1.824,0,5.833,0.36,5.833,5.257c0,2.088-1.056,5.064-5.856,5.064h-7.417v-16.802
				h3.072V455.292z M121.283,463.069h3.745c1.632,0,3.288-0.359,3.288-2.664c0-2.4-1.944-2.568-3.216-2.568h-3.816V463.069z
				 M135.925,448.812v16.802h-3.072v-16.802H135.925z"/>
			<path fill="#AD8800" d="M147.684,459.877c0.024,1.392,0.624,3.695,4.296,3.695c2.28,0,3.744-0.984,3.744-2.809
				c0-2.088-1.44-2.64-3.312-2.64h-2.304v-2.544h1.992c0.72,0,2.952-0.049,2.952-2.209c0-1.487-0.96-2.52-3.408-2.52
				c-2.904,0-3.721,1.439-3.769,2.904h-3.048c0.072-4.393,3.408-5.449,7.081-5.449c2.304,0,6.312,0.576,6.312,4.753
				c0,2.16-1.32,3.48-2.808,3.696v0.049c1.824,0.264,3.48,1.631,3.48,4.271c0,1.969-1.08,5.041-7.104,5.041
				c-4.321,0-6.985-1.849-7.153-6.24H147.684z"/>
			<path fill="#AD8800" d="M163.476,465.614h-3.289l6.337-16.802h3.072l6.336,16.802h-3.289l-1.224-3.529h-6.72L163.476,465.614z
				 M170.604,459.541l-2.544-7.464l-2.544,7.464H170.604z"/>
			<path fill="#AD8800" d="M186.541,452.316h-0.048l0.048,0.648v12.649h-3.072v-16.802h4.584l4.584,12.745l4.584-12.745h4.584
				v16.802h-3.072v-12.649l0.048-0.648h-0.048l-4.945,13.298h-2.304L186.541,452.316z"/>
			<path fill="#AD8800" d="M213.158,448.307c1.464,0,8.232,0.193,8.232,8.905c0,8.713-6.769,8.905-8.232,8.905
				c-1.464,0-8.233-0.192-8.233-8.905C204.925,448.5,211.693,448.307,213.158,448.307z M213.158,463.573
				c4.152,0,4.944-3.768,4.944-6.36s-0.792-6.36-4.944-6.36s-4.945,3.768-4.945,6.36S209.005,463.573,213.158,463.573z"/>
			<path fill="#AD8800" d="M239.151,459.877c-0.24,2.543-1.584,6.24-7.273,6.24c-1.296,0-8.329-0.12-8.329-8.617
				c0-6.912,3.984-9.193,8.161-9.193c5.761,0,7.057,3.529,7.201,5.93h-3.048c-0.192-1.393-1.008-3.385-4.152-3.385
				c-3.744,0-4.873,3.049-4.873,6.528c0,3.937,2.16,6.192,5.185,6.192c2.784,0,3.984-1.896,4.081-3.695H239.151z"/>
			<path fill="#AD8800" d="M251.918,448.812h3.648l-7.44,7.753l8.064,9.049h-3.888l-7.129-8.713v8.713h-3.072v-16.802h3.072v7.561
				L251.918,448.812z"/>
			<path fill="#AD8800" d="M266.055,448.812c4.272,0,5.112,2.399,5.112,4.248s-1.152,3.312-2.784,3.601v0.048
				c1.392,0.24,3.48,1.2,3.48,4.2c0,4.248-3.625,4.705-6.145,4.705h-7.585v-16.802H266.055z M261.207,455.628h4.057
				c1.704,0,2.736-0.528,2.736-1.992c0-2.232-2.161-2.28-2.809-2.28h-3.984V455.628z M261.207,463.069h4.201
				c1.872,0,3.288-0.456,3.288-2.496c0-2.256-1.944-2.4-3.216-2.4h-4.272V463.069z"/>
			<path fill="#AD8800" d="M285.088,448.812h3.216l-5.641,13.537c-1.416,3.433-3.288,3.505-4.752,3.505
				c-0.792,0-1.368-0.025-2.184-0.265v-2.664c0.528,0.168,1.128,0.288,1.752,0.288c1.081,0,2.017-0.336,2.4-2.017l-6.409-12.385
				h3.769l4.296,9.073L285.088,448.812z"/>
		</g>
	</g>
</g>
</svg>
