<?xml version="1.0" encoding="utf-8"?>
<!-- Generator: Adobe Illustrator 17.0.0, SVG Export Plug-In . SVG Version: 6.00 Build 0)  -->
<!DOCTYPE svg PUBLIC "-//W3C//DTD SVG 1.1//EN" "http://www.w3.org/Graphics/SVG/1.1/DTD/svg11.dtd">
<svg version="1.1" id="Layer_1" xmlns="http://www.w3.org/2000/svg" xmlns:xlink="http://www.w3.org/1999/xlink" x="0px" y="0px"
	 width="1080px" height="1920px" viewBox="0 0 1080 1920" enable-background="new 0 0 1080 1920" xml:space="preserve">
<g>
	<polygon points="612,84 612,84 612,84 612,551.2 755.664,551.2 755.664,218.321 3168.168,218.321 3168.168,376 3311.833,376 
		3311.833,218.321 5724.336,218.321 5724.336,551.2 5868,551.2 5868,218.321 5868,84 5868,84 	"/>
	<polygon points="5724.336,1701.68 3311.833,1701.68 3311.833,1544 3168.168,1544 3168.168,1701.68 755.664,1701.68 755.664,1368.8 
		612,1368.8 612,1836 612,1836 755.664,1836 3168.168,1836 3311.833,1836 5724.336,1836 5868,1836 5868,1701.68 5868,1368.8 
		5724.336,1368.8 	"/>
</g>
</svg>
