<?xml version="1.0" encoding="utf-8"?>
<!-- Generator: Adobe Illustrator 17.0.0, SVG Export Plug-In . SVG Version: 6.00 Build 0)  -->
<!DOCTYPE svg PUBLIC "-//W3C//DTD SVG 1.1//EN" "http://www.w3.org/Graphics/SVG/1.1/DTD/svg11.dtd">
<svg version="1.1" id="Layer_1" xmlns="http://www.w3.org/2000/svg" xmlns:xlink="http://www.w3.org/1999/xlink" x="0px" y="0px"
	 width="1080px" height="1920px" viewBox="0 0 1080 1920" enable-background="new 0 0 1080 1920" xml:space="preserve">
<g>
	<polygon points="-3708,84 -3708,84 -3708,84 -3708,551.2 -3564.336,551.2 -3564.336,218.321 -1151.832,218.321 -1151.832,376 
		-1008.167,376 -1008.167,218.321 1404.336,218.321 1404.336,551.2 1548,551.2 1548,218.321 1548,84 1548,84 	"/>
	<polygon points="1404.336,1701.68 -1008.167,1701.68 -1008.167,1544 -1151.832,1544 -1151.832,1701.68 -3564.336,1701.68 
		-3564.336,1368.8 -3708,1368.8 -3708,1836 -3708,1836 -3564.336,1836 -1151.832,1836 -1008.167,1836 1404.336,1836 1548,1836 
		1548,1701.68 1548,1368.8 1404.336,1368.8 	"/>
	<polygon points="139.47,1371.136 448.99,947.151 448.99,1371.136 591.487,1371.136 591.487,947.151 899.839,1371.136 
		1065.695,1371.136 745.663,943.648 1052.846,553.535 886.99,553.535 591.487,943.648 591.487,553.535 448.99,553.535 
		448.99,943.648 152.319,553.535 -12.369,553.535 294.814,944.815 -25.218,1371.136 	"/>
</g>
</svg>
