<?xml version="1.0" encoding="utf-8"?>
<!-- Generator: Adobe Illustrator 17.0.0, SVG Export Plug-In . SVG Version: 6.00 Build 0)  -->
<!DOCTYPE svg PUBLIC "-//W3C//DTD SVG 1.1//EN" "http://www.w3.org/Graphics/SVG/1.1/DTD/svg11.dtd">
<svg version="1.1" id="Layer_1" xmlns="http://www.w3.org/2000/svg" xmlns:xlink="http://www.w3.org/1999/xlink" x="0px" y="0px"
	 width="1080px" height="1920px" viewBox="0 0 1080 1920" enable-background="new 0 0 1080 1920" xml:space="preserve">
<rect x="0" y="0" width="6480" height="1920"/>
<g>
	<path fill="#FFFFFF" d="M84.56,655.995h6.193l18.938,25.851l18.146-25.851h5.833V706.4h-6.121v-40.756l-17.857,25.059h-0.936
		l-18.073-24.842V706.4H84.56V655.995z"/>
	<path fill="#FFFFFF" d="M166.75,694.878c-3.456,7.705-6.985,11.521-12.529,11.521c-2.232,0-4.752-0.72-6.12-1.8l2.16-5.185
		c1.368,0.936,2.448,1.296,3.888,1.296c2.88,0,4.824-2.232,6.193-5.112l0.864-1.872l-22.826-37.731h6.913l18.866,31.61l13.825-31.61
		h6.192L166.75,694.878z"/>
	<path fill="#FFFFFF" d="M184.646,699.2l3.384-4.104c3.24,3.816,8.641,6.265,12.745,6.265c6.552,0,11.449-3.385,11.449-9.649
		c0-4.968-3.6-8.209-9.865-8.209h-5.833v-5.76h5.4c4.249,0,8.353-3.457,8.353-8.497c0-5.473-3.96-8.209-9.145-8.209
		c-4.968,0-8.425,2.017-11.449,5.617l-3.6-4.032c3.384-4.393,9.145-7.345,15.698-7.345c8.713,0,14.617,4.824,14.617,13.393
		c0,4.249-2.376,9.001-7.273,11.521v0.216c6.121,1.152,9.217,6.12,9.217,11.881c0,9.289-7.993,14.833-17.209,14.833
		C193.431,707.119,187.31,703.232,184.646,699.2z"/>
	<path fill="#FFFFFF" d="M225.398,655.995h28.443v5.761h-22.322v16.273h20.162v5.76h-20.162v16.85h23.042v5.761h-29.163V655.995z"/>
	<path fill="#FFFFFF" d="M260.814,706.4v-50.404h6.121v40.323l30.603-40.323h5.4V706.4h-6.121v-40.323L266.215,706.4H260.814z
		 M274.64,644.474c1.08,2.953,3.6,4.681,7.705,4.681c3.744,0,6.697-1.512,7.417-4.681h5.76c-0.648,5.401-6.264,9.001-13.177,9.001
		c-7.561,0-12.601-3.744-13.465-9.001H274.64z"/>
	<path fill="#FFFFFF" d="M346.289,683.574h-27.722V706.4h-6.121v-50.404h6.121v21.817h27.722v-21.817h6.121V706.4h-6.121V683.574z"
		/>
	<path fill="#FFFFFF" d="M384.253,655.276c14.617,0,25.706,10.585,25.706,25.922c0,14.978-11.089,25.922-25.706,25.922
		c-14.617,0-25.706-10.585-25.706-25.922C358.547,666.58,369.276,655.276,384.253,655.276z M384.253,701.36
		c11.521,0,19.226-8.785,19.226-20.162c0-11.737-8.425-20.162-19.226-20.162c-10.945,0-19.226,8.425-19.226,20.162
		C365.027,692.647,373.452,701.36,384.253,701.36z"/>
	<path fill="#FFFFFF" d="M415.426,678.245h17.209v5.4h-17.209V678.245z"/>
	<path fill="#FFFFFF" d="M84.56,744.068c2.808-0.072,9.145-0.288,13.825-0.288c12.025,0,16.201,5.473,16.201,12.457
		c0,6.336-3.816,10.081-8.641,11.665v0.144c6.264,1.009,10.441,5.041,10.441,11.953c0,10.225-7.849,14.617-18.29,14.617
		c-4.464,0-10.585-0.144-13.537-0.288V744.068z M90.681,749.756v16.273h8.065c5.328,0,9.721-2.952,9.721-8.425
		c0-5.257-3.528-8.065-10.225-8.065C95.578,749.539,92.481,749.684,90.681,749.756z M90.681,771.43v17.138
		c1.656,0.144,4.896,0.287,7.777,0.287c7.417,0,11.809-3.023,11.809-9.217c0-5.328-4.176-8.208-11.449-8.208H90.681z"/>
	<path fill="#FFFFFF" d="M129.56,762.717c2.736-0.216,5.041-0.36,6.697-0.36c12.673,0,18.65,6.049,18.65,15.554
		c0,10.585-7.489,16.633-20.018,16.633c-4.321,0-8.497-0.144-11.449-0.144v-50.404h6.121V762.717z M129.56,768.549v20.019
		c1.944,0.071,3.744,0.216,6.049,0.216c8.281,0,12.817-3.601,12.817-10.729c0-6.408-4.464-9.937-12.601-9.937
		C134.169,768.117,132.081,768.261,129.56,768.549z M163.043,743.995h6.121V794.4h-6.121V743.995z"/>
	<path fill="#FFFFFF" d="M216.819,789.503c-3.384,3.456-9.649,5.616-15.913,5.616c-15.121,0-25.562-10.225-25.562-25.922
		c0-14.474,9.361-25.922,25.13-25.922c6.48,0,11.737,1.8,15.337,4.896l-2.808,4.608c-3.312-2.448-7.201-3.745-12.457-3.745
		c-10.945,0-18.722,8.209-18.722,20.162c0,12.025,7.993,20.162,19.658,20.162c4.824,0,9.433-1.656,12.889-4.465L216.819,789.503z"/>
	<path fill="#FFFFFF" d="M218.348,743.995h41.404v5.761H242.11V794.4h-6.121v-44.644h-17.642V743.995z"/>
	<path fill="#FFFFFF" d="M273.242,743.707h5.257l21.674,50.692h-6.552l-6.481-15.266h-22.97L257.76,794.4h-6.193L273.242,743.707z
		 M266.617,773.374h18.146l-9.073-21.53L266.617,773.374z"/>
	<path fill="#FFFFFF" d="M304.847,744.068c2.808-0.072,9.145-0.288,13.825-0.288c12.025,0,16.201,5.473,16.201,12.457
		c0,6.336-3.816,10.081-8.641,11.665v0.144c6.264,1.009,10.441,5.041,10.441,11.953c0,10.225-7.849,14.617-18.29,14.617
		c-4.464,0-10.585-0.144-13.537-0.288V744.068z M310.968,749.756v16.273h8.065c5.329,0,9.721-2.952,9.721-8.425
		c0-5.257-3.528-8.065-10.225-8.065C315.864,749.539,312.768,749.684,310.968,749.756z M310.968,771.43v17.138
		c1.656,0.144,4.896,0.287,7.777,0.287c7.417,0,11.809-3.023,11.809-9.217c0-5.328-4.176-8.208-11.449-8.208H310.968z"/>
	<path fill="#FFFFFF" d="M366.502,743.276c14.617,0,25.706,10.585,25.706,25.922c0,14.978-11.089,25.922-25.706,25.922
		c-14.617,0-25.706-10.585-25.706-25.922C340.796,754.58,351.525,743.276,366.502,743.276z M366.502,789.36
		c11.521,0,19.226-8.785,19.226-20.162c0-11.737-8.425-20.162-19.226-20.162c-10.945,0-19.226,8.425-19.226,20.162
		C347.276,780.647,355.701,789.36,366.502,789.36z"/>
	<path fill="#FFFFFF" d="M431.05,794.4h-6.121v-22.034c-2.592,1.872-7.489,3.889-13.321,3.889c-7.993,0-15.121-4.32-15.121-16.058
		v-16.201h6.121v14.545c0,8.713,4.464,11.953,10.585,11.953c4.896,0,9.073-2.016,11.737-3.816v-22.682h6.121V794.4z"/>
	<path fill="#FFFFFF" d="M474.358,771.574h-27.722V794.4h-6.121v-50.404h6.121v21.817h27.722v-21.817h6.12V794.4h-6.12V771.574z"/>
	<path fill="#FFFFFF" d="M512.323,743.276c14.617,0,25.706,10.585,25.706,25.922c0,14.978-11.089,25.922-25.706,25.922
		s-25.707-10.585-25.707-25.922C486.616,754.58,497.345,743.276,512.323,743.276z M512.323,789.36
		c11.521,0,19.226-8.785,19.226-20.162c0-11.737-8.425-20.162-19.226-20.162c-10.945,0-19.226,8.425-19.226,20.162
		C493.097,780.647,501.521,789.36,512.323,789.36z"/>
	<path fill="#FFFFFF" d="M544.209,743.995h28.442v5.761H550.33v16.273h20.162v5.76H550.33v16.85h23.042v5.761h-29.163V743.995z"/>
	<path fill="#FFFFFF" d="M106.307,831.276c14.617,0,25.706,10.585,25.706,25.922c0,14.978-11.089,25.922-25.706,25.922
		c-14.617,0-25.706-10.585-25.706-25.922C80.6,842.58,91.329,831.276,106.307,831.276z M106.307,877.36
		c11.521,0,19.226-8.785,19.226-20.162c0-11.737-8.425-20.162-19.226-20.162c-10.945,0-19.226,8.425-19.226,20.162
		C87.081,868.647,95.506,877.36,106.307,877.36z"/>
	<path fill="#FFFFFF" d="M138.193,831.995h28.515v5.761h-22.394v14.473c2.52-0.288,5.76-0.432,7.705-0.432
		c11.305,0,17.642,5.761,17.642,14.833c0,10.441-7.273,16.058-19.37,16.058c-5.113,0-9.145-0.288-12.097-0.288V831.995z
		 M144.314,857.99v18.649c2.232,0.145,4.464,0.288,6.913,0.288c8.281,0,12.313-3.744,12.313-9.864c0-5.617-3.816-9.505-11.881-9.505
		C149.714,857.558,146.978,857.701,144.314,857.99z"/>
	<path fill="#FFFFFF" d="M171.219,831.995h18.146v18.722c2.736-0.216,5.4-0.36,7.057-0.36c13.033,0,19.01,6.049,19.01,15.554
		c0,10.585-7.489,16.633-20.378,16.633c-4.32,0-8.857-0.144-11.809-0.144v-44.644h-12.025V831.995z M189.364,856.549v20.019
		c1.944,0.071,4.104,0.216,6.408,0.216c8.281,0,13.177-3.457,13.177-10.729c0-6.553-4.824-9.937-12.961-9.937
		C194.333,856.117,191.885,856.261,189.364,856.549z"/>
	<path fill="#FFFFFF" d="M221.237,831.995h28.443v5.761h-22.322v16.273h20.162v5.76h-20.162v16.85H250.4v5.761h-29.163V831.995z"/>
	<path fill="#FFFFFF" d="M253.737,876.639h5.4c2.088-2.592,7.201-13.465,8.281-34.562l0.504-10.081h29.667v44.644h6.841v15.121
		h-5.76v-9.36h-39.171v9.36h-5.76V876.639z M265.906,876.639h25.562v-38.883h-17.641l-0.648,9
		C271.955,864.11,267.779,874.335,265.906,876.639z"/>
	<path fill="#FFFFFF" d="M309.631,882.4v-50.404h6.121v40.323l30.603-40.323h5.4V882.4h-6.121v-40.323L315.031,882.4H309.631z"/>
	<path fill="#FFFFFF" d="M395.105,859.574h-27.722V882.4h-6.121v-50.404h6.121v21.817h27.722v-21.817h6.121V882.4h-6.121V859.574z"
		/>
	<path fill="#FFFFFF" d="M410.733,831.995h28.443v5.761h-22.322v16.273h20.162v5.76h-20.162v16.85h23.042v5.761h-29.163V831.995z"/>
	<path fill="#FFFFFF" d="M479.993,859.574H452.27V882.4h-6.121v-50.404h6.121v21.817h27.723v-21.817h6.12V882.4h-6.12V859.574z"/>
	<path fill="#FFFFFF" d="M495.621,882.4v-50.404h6.121v40.323l30.603-40.323h5.4V882.4h-6.12v-40.323L501.021,882.4H495.621z"/>
	<path fill="#FFFFFF" d="M547.252,831.995h28.442v5.761h-22.322v16.273h20.162v5.76h-20.162v16.85h23.042v5.761h-29.163V831.995z"/>
</g>
<g>
	<polygon fill="#FFFFFF" points="80,550 80,550 80,550 80,566 84.92,566 84.92,554.6 167.54,554.6 167.54,560 172.46,560 
		172.46,554.6 255.08,554.6 255.08,566 260,566 260,554.6 260,550 260,550 	"/>
	<polygon fill="#FFFFFF" points="255.08,605.4 172.46,605.4 172.46,600 167.54,600 167.54,605.4 84.92,605.4 84.92,594 80,594 
		80,610 80,610 84.92,610 167.54,610 172.46,610 255.08,610 260,610 260,605.4 260,594 255.08,594 	"/>
	<polygon fill="#FFFFFF" points="124.376,594.08 124.376,566.08 119.736,566.08 110.616,579.16 101.056,566.08 96.096,566.08 
		96.096,594.08 101.016,594.08 101.016,573.96 109.936,586.28 110.656,586.28 119.496,573.84 119.496,594.08 	"/>
	<path fill="#FFFFFF" d="M147.331,586.92l2.92,7.16h5.24L143.651,566h-4.32l-11.84,28.08h4.96l2.92-7.16H147.331z M141.371,572.36
		l4.08,9.96h-8.2L141.371,572.36z"/>
	<polygon fill="#FFFFFF" points="158.627,566.08 158.627,594.08 163.547,594.08 163.547,582.12 176.347,582.12 176.347,594.08 
		181.227,594.08 181.227,566.08 176.347,566.08 176.347,577.52 163.547,577.52 163.547,566.08 	"/>
	<polygon fill="#FFFFFF" points="203.207,570.68 203.207,566.08 187.007,566.08 187.007,594.08 203.607,594.08 203.607,589.48 
		191.927,589.48 191.927,582.24 202.007,582.24 202.007,577.64 191.927,577.64 191.927,570.68 	"/>
	<polygon fill="#FFFFFF" points="211.763,594.08 222.363,579.56 222.363,594.08 227.243,594.08 227.243,579.56 237.803,594.08 
		243.483,594.08 232.523,579.44 243.043,566.08 237.363,566.08 227.243,579.44 227.243,566.08 222.363,566.08 222.363,579.44 
		212.203,566.08 206.563,566.08 217.083,579.48 206.123,594.08 	"/>
</g>
</svg>
