<?xml version="1.0" encoding="utf-8"?>
<!-- Generator: Adobe Illustrator 17.0.0, SVG Export Plug-In . SVG Version: 6.00 Build 0)  -->
<!DOCTYPE svg PUBLIC "-//W3C//DTD SVG 1.1//EN" "http://www.w3.org/Graphics/SVG/1.1/DTD/svg11.dtd">
<svg version="1.1" id="Layer_1" xmlns="http://www.w3.org/2000/svg" xmlns:xlink="http://www.w3.org/1999/xlink" x="0px" y="0px"
	 width="1080px" height="1920px" viewBox="0 0 1080 1920" enable-background="new 0 0 1080 1920" xml:space="preserve">
<rect x="-1080" y="0" width="6480" height="1920"/>
<g>
	<path fill="#FFFFFF" d="M84.561,655.995h6.121v44.644h27.002v-44.644h6.12v44.644h6.841v15.121h-5.76v-9.36H84.561V655.995z"/>
	<path fill="#FFFFFF" d="M135.846,655.995h28.443v5.761h-22.322v16.273h20.162v5.76h-20.162v16.85h23.042v5.761h-29.163V655.995z"/>
	<path fill="#FFFFFF" d="M205.106,683.574h-27.722V706.4h-6.121v-50.404h6.121v21.817h27.722v-21.817h6.121V706.4h-6.121V683.574z"
		/>
	<path fill="#FFFFFF" d="M215.737,655.995h41.404v5.761h-17.641V706.4h-6.121v-44.644h-17.642V655.995z"/>
	<path fill="#FFFFFF" d="M261.65,706.4v-50.404c2.808,0,10.009-0.145,13.177-0.145c14.401,0,18.65,7.777,18.65,15.626
		c0,8.209-5.833,15.841-18.146,15.841c-2.016,0-5.041-0.071-7.561-0.288v19.37H261.65z M267.771,661.756v19.441
		c2.448,0.216,4.824,0.36,7.345,0.36c7.417,0,11.881-3.816,11.881-10.153c0-5.977-3.6-9.793-11.593-9.793
		C273.387,661.612,270.147,661.684,267.771,661.756z"/>
	<path fill="#FFFFFF" d="M310.92,655.707h5.257l21.674,50.692h-6.552l-6.481-15.266h-22.97l-6.408,15.266h-6.193L310.92,655.707z
		 M304.296,685.374h18.146l-9.073-21.53L304.296,685.374z"/>
	<path fill="#FFFFFF" d="M376.728,661.756h-18.29l-0.864,9.505c-2.952,32.042-9.721,36.146-17.642,35.139l0.072-6.12
		c3.6,0.359,9.649-1.44,11.953-34.203l0.72-10.081h30.171V706.4h-6.121V661.756z"/>
	<path fill="#FFFFFF" d="M398.477,674.717c2.736-0.216,5.4-0.36,7.057-0.36c13.033,0,19.01,6.049,19.01,15.554
		c0,10.585-7.489,16.633-20.378,16.633c-4.32,0-8.857-0.144-11.809-0.144v-50.404h6.121V674.717z M398.477,680.549v20.019
		c1.944,0.071,4.104,0.216,6.409,0.216c8.281,0,13.177-3.457,13.177-10.729c0-6.553-4.824-9.937-12.961-9.937
		C403.446,680.117,400.998,680.261,398.477,680.549z"/>
	<path fill="#FFFFFF" d="M464.157,683.574h-27.722V706.4h-6.121v-50.404h6.121v21.817h27.722v-21.817h6.121V706.4h-6.121V683.574z"
		/>
	<path fill="#FFFFFF" d="M485.907,674.717c2.736-0.216,5.04-0.36,6.696-0.36c12.673,0,18.65,6.049,18.65,15.554
		c0,10.585-7.489,16.633-20.018,16.633c-4.32,0-8.497-0.144-11.449-0.144v-50.404h6.121V674.717z M485.907,680.549v20.019
		c1.944,0.071,3.744,0.216,6.048,0.216c8.281,0,12.817-3.601,12.817-10.729c0-6.408-4.464-9.937-12.601-9.937
		C490.515,680.117,488.427,680.261,485.907,680.549z M519.39,655.995h6.12V706.4h-6.12V655.995z"/>
	<path fill="#FFFFFF" d="M535.052,706.4v-50.404h6.121v40.323l30.603-40.323h5.4V706.4h-6.12v-40.323L540.452,706.4H535.052z
		 M548.877,644.474c1.08,2.953,3.601,4.681,7.705,4.681c3.745,0,6.697-1.512,7.417-4.681h5.76
		c-0.648,5.401-6.265,9.001-13.177,9.001c-7.561,0-12.601-3.744-13.465-9.001H548.877z"/>
	<path fill="#FFFFFF" d="M84.561,743.995h6.193l18.938,25.851l18.146-25.851h5.833V794.4h-6.121v-40.756l-17.857,25.059h-0.936
		l-18.073-24.842V794.4h-6.121V743.995z"/>
	<path fill="#FFFFFF" d="M160.054,743.707h5.257l21.674,50.692h-6.552l-6.481-15.266h-22.97l-6.408,15.266h-6.193L160.054,743.707z
		 M153.429,773.374h18.146l-9.073-21.53L153.429,773.374z"/>
	<path fill="#FFFFFF" d="M225.503,771.574H197.78V794.4h-6.121v-50.404h6.121v21.817h27.722v-21.817h6.121V794.4h-6.121V771.574z"/>
	<path fill="#FFFFFF" d="M241.131,743.995h28.443v5.761h-22.322v16.273h20.162v5.76h-20.162v16.85h23.042v5.761h-29.163V743.995z"/>
	<path fill="#FFFFFF" d="M274.589,743.995h7.129l19.946,24.122L280.925,794.4h-7.129l21.17-26.282L274.589,743.995z
		 M302.887,743.995h6.12V794.4h-6.12V743.995z M317,768.045l21.17,26.354h-7.129l-20.738-26.282l19.946-24.122h7.129L317,768.045z"
		/>
</g>
<g>
	<path fill="#FFFFFF" d="M84.199,566.005h3.439l10.518,14.357l10.078-14.357h3.239V594h-3.399v-22.636l-9.918,13.917h-0.52
		l-10.038-13.798V594h-3.399V566.005z"/>
	<path fill="#FFFFFF" d="M117.096,577.243c1.6-1,3.759-1.64,5.999-1.64c5.119,0,6.919,2.679,6.919,7.358V594h-3.039v-2.319
		c-1.08,1.359-2.8,2.6-5.759,2.6c-3.28,0-5.519-2.08-5.519-5.56c0-3.68,2.92-5.719,6.799-5.719c1.4,0,3.279,0.28,4.479,1.16
		c0-3.36-0.52-5.68-4.079-5.68c-2.2,0-3.52,0.561-4.959,1.32L117.096,577.243z M126.974,589.081v-2.28
		c-1.12-0.8-2.48-1.199-4.039-1.199c-1.92,0-3.839,0.88-3.839,2.959c0,1.72,1.16,2.84,3.239,2.84
		C124.694,591.401,126.054,590.16,126.974,589.081z"/>
	<path fill="#FFFFFF" d="M147.801,586.402h-9.999V594h-3.199v-17.997h3.199v7.398h9.999v-7.398h3.199V594h-3.199V586.402z"/>
	<path fill="#FFFFFF" d="M171.144,592.04c-1.76,1.6-4.359,2.36-6.759,2.36c-5.839,0-9.638-3.72-9.638-9.398
		c0-5.239,3.359-9.398,9.279-9.398c4.639,0,8.358,3.279,8.358,8.238c0,0.88-0.08,1.6-0.2,2.159h-13.838
		c0.28,3.399,2.76,5.399,6.279,5.399c2.32,0,4.359-0.8,5.519-1.88L171.144,592.04z M158.147,583.402h10.918
		c-0.16-2.959-2.08-4.799-5.199-4.799C160.586,578.603,158.507,580.643,158.147,583.402z"/>
	<path fill="#FFFFFF" d="M173.707,576.003h3.999l6.159,8.679L177.266,594h-3.919l6.879-9.318L173.707,576.003z M184.665,576.003
		h3.199V594h-3.199V576.003z M192.304,584.682l6.999,9.318h-3.959l-6.679-9.318l6.199-8.679h3.959L192.304,584.682z"/>
	<path fill="#FFFFFF" d="M215.26,586.402h-9.998V594h-3.2v-17.997h3.2v7.398h9.998v-7.398h3.199V594h-3.199V586.402z"/>
	<path fill="#FFFFFF" d="M223.498,577.243c1.6-1,3.759-1.64,5.999-1.64c5.119,0,6.919,2.679,6.919,7.358V594h-3.039v-2.319
		c-1.08,1.359-2.8,2.6-5.759,2.6c-3.28,0-5.519-2.08-5.519-5.56c0-3.68,2.919-5.719,6.799-5.719c1.4,0,3.279,0.28,4.479,1.16
		c0-3.36-0.52-5.68-4.079-5.68c-2.2,0-3.52,0.561-4.959,1.32L223.498,577.243z M233.376,589.081v-2.28
		c-1.12-0.8-2.48-1.199-4.039-1.199c-1.92,0-3.839,0.88-3.839,2.959c0,1.72,1.16,2.84,3.239,2.84
		C231.096,591.401,232.456,590.16,233.376,589.081z"/>
	<path fill="#FFFFFF" d="M254.279,576.003V594h-3.199v-5.999H247.6L243.201,594h-3.879l5.199-6.799
		c-1.84-0.44-3.879-2.239-3.879-5.199c0-3.079,2.04-5.999,8.039-5.999H254.279z M247.4,585.002h3.679v-5.999h-2.919
		c-3,0-4.119,1.399-4.119,3.079C244.041,583.922,245.8,585.002,247.4,585.002z"/>
	<path fill="#FFFFFF" d="M280.879,579.003h-9.799V594h-3.199v-17.997h16.197V594h-3.199V579.003z"/>
	<path fill="#FFFFFF" d="M301.114,579.202h-6.319l-0.2,3.04c-0.8,10.238-3.519,11.998-7.239,11.998l-0.24-3.12
		c1.36,0.12,3.919-1.199,4.359-9.518l0.32-5.6h12.518V594h-3.199V579.202z"/>
	<path fill="#FFFFFF" d="M317.639,575.604c5.759,0,9.598,3.999,9.598,9.398c0,5.398-3.839,9.398-9.598,9.398s-9.598-4-9.598-9.398
		C308.04,579.603,311.88,575.604,317.639,575.604z M317.639,591.401c3.599,0,6.199-2.56,6.199-6.398c0-3.76-2.6-6.399-6.199-6.399
		c-3.519,0-6.199,2.6-6.199,6.399C311.44,588.761,314.039,591.401,317.639,591.401z"/>
	<path fill="#FFFFFF" d="M330.915,576.003h3.2v14.998h6.599v-14.998h3.199v14.998h6.599v-14.998h3.199v14.998h3v7.398h-3V594
		h-22.796V576.003z"/>
	<path fill="#FFFFFF" d="M360.175,577.243c1.6-1,3.759-1.64,5.999-1.64c5.119,0,6.919,2.679,6.919,7.358V594h-3.039v-2.319
		c-1.08,1.359-2.8,2.6-5.759,2.6c-3.28,0-5.519-2.08-5.519-5.56c0-3.68,2.92-5.719,6.799-5.719c1.4,0,3.279,0.28,4.479,1.16
		c0-3.36-0.52-5.68-4.079-5.68c-2.2,0-3.52,0.561-4.959,1.32L360.175,577.243z M370.054,589.081v-2.28
		c-1.12-0.8-2.48-1.199-4.039-1.199c-1.92,0-3.839,0.88-3.839,2.959c0,1.72,1.16,2.84,3.239,2.84
		C367.774,591.401,369.134,590.16,370.054,589.081z"/>
	<path fill="#FFFFFF" d="M375.523,591.001h2.24c1.2-1.521,2.439-5.319,2.76-10.238l0.28-4.76h12.278v14.998h3v7.398h-3V594h-14.558
		v4.399h-3V591.001z M381.163,591.001h8.719v-11.998h-6.079l-0.2,2.999C383.202,586.602,382.002,589.881,381.163,591.001z"/>
	<path fill="#FFFFFF" d="M398.99,576.003h3.2v5.399h3.279c5.519,0,7.119,2.999,7.119,6.199c0,3.159-1.84,6.398-7.519,6.398h-6.079
		V576.003z M402.19,584.402v6.6h2.639c3.159,0,4.359-1.16,4.359-3.28c0-2.159-1.24-3.319-4.319-3.319H402.19z"/>
	<path fill="#FFFFFF" d="M417.242,590.041c1.68,0,2.88,1.52,2.88,3.879c0,3-1.8,5.159-4.399,5.919l-0.88-1.52
		c1.08-0.36,2.2-1.2,2.56-2.68c0.24-1.04,0.16-1.64-0.04-2c-0.2,0.32-0.56,0.36-0.88,0.36c-0.8,0-1.52-0.8-1.52-1.84
		C414.962,590.921,415.762,590.041,417.242,590.041z"/>
	<path fill="#FFFFFF" d="M437.64,565.845h2.24V594h-3.199v-23.556l-4.079,3.199l-1.68-2.6L437.64,565.845z"/>
</g>
</svg>
