<?xml version="1.0" encoding="utf-8"?>
<!-- Generator: Adobe Illustrator 17.0.0, SVG Export Plug-In . SVG Version: 6.00 Build 0)  -->
<!DOCTYPE svg PUBLIC "-//W3C//DTD SVG 1.1//EN" "http://www.w3.org/Graphics/SVG/1.1/DTD/svg11.dtd">
<svg version="1.1" id="Layer_1" xmlns="http://www.w3.org/2000/svg" xmlns:xlink="http://www.w3.org/1999/xlink" x="0px" y="0px"
	 width="1080px" height="1920px" viewBox="0 0 1080 1920" enable-background="new 0 0 1080 1920" xml:space="preserve">
<rect x="-2160" y="0" width="6480" height="1920"/>
<g>
	<path fill="#FFFFFF" d="M118.404,683.574H90.681V706.4h-6.121v-50.404h6.121v21.817h27.722v-21.817h6.121V706.4h-6.121V683.574z"/>
	<path fill="#FFFFFF" d="M156.368,655.276c14.617,0,25.706,10.585,25.706,25.922c0,14.978-11.089,25.922-25.706,25.922
		c-14.618,0-25.707-10.585-25.707-25.922C130.662,666.58,141.391,655.276,156.368,655.276z M156.368,701.36
		c11.521,0,19.226-8.785,19.226-20.162c0-11.737-8.425-20.162-19.226-20.162c-10.945,0-19.226,8.425-19.226,20.162
		C137.142,692.647,145.567,701.36,156.368,701.36z"/>
	<path fill="#FFFFFF" d="M188.255,656.068c2.808-0.072,9.145-0.288,13.825-0.288c12.025,0,16.201,5.473,16.201,12.457
		c0,6.336-3.816,10.081-8.641,11.665v0.144c6.265,1.009,10.441,5.041,10.441,11.953c0,10.225-7.849,14.617-18.29,14.617
		c-4.464,0-10.585-0.144-13.537-0.288V656.068z M194.375,661.756v16.273h8.064c5.329,0,9.721-2.952,9.721-8.425
		c0-5.257-3.528-8.065-10.225-8.065C199.272,661.539,196.175,661.684,194.375,661.756z M194.375,683.43v17.138
		c1.656,0.144,4.896,0.287,7.776,0.287c7.417,0,11.809-3.023,11.809-9.217c0-5.328-4.176-8.208-11.449-8.208H194.375z"/>
	<path fill="#FFFFFF" d="M233.254,674.717c2.736-0.216,5.041-0.36,6.697-0.36c12.673,0,18.649,6.049,18.649,15.554
		c0,10.585-7.488,16.633-20.018,16.633c-4.32,0-8.497-0.144-11.449-0.144v-50.404h6.121V674.717z M233.254,680.549v20.019
		c1.944,0.071,3.745,0.216,6.049,0.216c8.281,0,12.817-3.601,12.817-10.729c0-6.408-4.464-9.937-12.601-9.937
		C237.862,680.117,235.775,680.261,233.254,680.549z M266.737,655.995h6.121V706.4h-6.121V655.995z"/>
	<path fill="#FFFFFF" d="M282.4,706.4v-50.404h6.121v40.323l30.603-40.323h5.4V706.4h-6.121v-40.323L287.8,706.4H282.4z
		 M296.225,644.474c1.08,2.953,3.601,4.681,7.705,4.681c3.744,0,6.696-1.512,7.417-4.681h5.76
		c-0.648,5.401-6.264,9.001-13.177,9.001c-7.561,0-12.601-3.744-13.465-9.001H296.225z"/>
	<path fill="#FFFFFF" d="M352.383,655.995h6.193l18.938,25.851l18.146-25.851h5.833V706.4h-6.121v-40.756l-17.857,25.059h-0.936
		l-18.074-24.842V706.4h-6.121V655.995z"/>
	<path fill="#FFFFFF" d="M427.876,655.707h5.257l21.674,50.692h-6.553l-6.48-15.266h-22.97l-6.408,15.266h-6.193L427.876,655.707z
		 M421.251,685.374h18.146l-9.073-21.53L421.251,685.374z"/>
	<path fill="#FFFFFF" d="M493.324,683.574h-27.722V706.4h-6.121v-50.404h6.121v21.817h27.722v-21.817h6.121V706.4h-6.121V683.574z"
		/>
	<path fill="#FFFFFF" d="M508.953,655.995h28.442v5.761h-22.322v16.273h20.162v5.76h-20.162v16.85h23.042v5.761h-29.163V655.995z"/>
	<path fill="#FFFFFF" d="M542.411,655.995h7.128l19.946,24.122L548.747,706.4h-7.129l21.17-26.282L542.411,655.995z
		 M570.709,655.995h6.121V706.4h-6.121V655.995z M584.822,680.045l21.169,26.354h-7.128l-20.738-26.282l19.946-24.122h7.128
		L584.822,680.045z"/>
</g>
<g>
	<path fill="#FFFFFF" d="M84.199,566.005h15.597v3.199H87.599V594h-3.399V566.005z"/>
	<path fill="#FFFFFF" d="M112.233,592.04c-1.76,1.6-4.359,2.36-6.759,2.36c-5.839,0-9.639-3.72-9.639-9.398
		c0-5.239,3.359-9.398,9.279-9.398c4.639,0,8.358,3.279,8.358,8.238c0,0.88-0.08,1.6-0.2,2.159H99.435
		c0.28,3.399,2.759,5.399,6.279,5.399c2.32,0,4.359-0.8,5.519-1.88L112.233,592.04z M99.235,583.402h10.918
		c-0.16-2.959-2.08-4.799-5.199-4.799C101.674,578.603,99.594,580.643,99.235,583.402z"/>
	<path fill="#FFFFFF" d="M125.653,575.604c5.759,0,9.599,3.999,9.599,9.398c0,5.398-3.839,9.398-9.599,9.398
		c-5.759,0-9.598-4-9.598-9.398C116.055,579.603,119.894,575.604,125.653,575.604z M125.653,591.401c3.6,0,6.199-2.56,6.199-6.398
		c0-3.76-2.6-6.399-6.199-6.399c-3.519,0-6.199,2.6-6.199,6.399C119.454,588.761,122.054,591.401,125.653,591.401z"/>
	<path fill="#FFFFFF" d="M138.93,576.003h3.199v2.12c1.24-1.44,3.64-2.52,6.119-2.52c5.119,0,8.319,3.799,8.319,9.118
		c0,5.479-3.72,9.679-9.358,9.679c-1.92,0-3.8-0.4-5.08-1.24v8.839h-3.199V576.003z M142.129,581.082v8.919
		c1.6,1.079,3.08,1.399,4.799,1.399c3.839,0,6.239-2.76,6.239-6.559c0-3.64-2.12-6.239-5.839-6.239
		C145.209,578.603,143.249,579.683,142.129,581.082z"/>
	<path fill="#FFFFFF" d="M160.314,576.003h11.398v3h-8.199V594h-3.2V576.003z"/>
	<path fill="#FFFFFF" d="M174.234,594v-17.997h3.2v13.397l10.398-13.397h3.199V594h-3.199v-13.397L177.433,594H174.234z"/>
	<path fill="#FFFFFF" d="M211.174,592.04c-1.76,1.6-4.359,2.36-6.759,2.36c-5.839,0-9.638-3.72-9.638-9.398
		c0-5.239,3.359-9.398,9.278-9.398c4.639,0,8.358,3.279,8.358,8.238c0,0.88-0.08,1.6-0.2,2.159h-13.838
		c0.28,3.399,2.76,5.399,6.279,5.399c2.319,0,4.359-0.8,5.519-1.88L211.174,592.04z M198.177,583.402h10.918
		c-0.16-2.959-2.08-4.799-5.199-4.799C200.616,578.603,198.537,580.643,198.177,583.402z"/>
	<path fill="#FFFFFF" d="M216.045,576.003c1.56,0,3.919-0.16,6.519-0.16c5.039,0,7.759,1.4,7.759,4.64c0,2.119-1.44,3.799-3.6,4.119
		v0.08c2.88,0.52,4.2,2,4.2,4.239c0,3.399-2.68,5.239-8.279,5.239c-2.24,0-4.959-0.16-6.599-0.16V576.003z M219.244,578.563v5.359
		h4.04c2.12,0,3.639-1.04,3.639-2.8c0-1.96-1.8-2.68-4.119-2.68C221.364,578.443,220.044,578.523,219.244,578.563z M219.244,585.921
		v5.52c0.96,0.04,2.24,0.12,3.679,0.12c2.959,0,4.6-1,4.6-2.88s-1.56-2.76-4.439-2.76H219.244z"/>
	<path fill="#FFFFFF" d="M250.162,591.401c-1.52,1.96-4.159,3-6.919,3c-5.719,0-9.638-3.72-9.638-9.398
		c0-5.239,3.839-9.398,9.118-9.398c2.88,0,5.399,0.68,7.079,2.359l-1.48,2.52c-1.52-1.4-3.279-1.88-5.159-1.88
		c-3.239,0-6.159,2.6-6.159,6.399c0,3.959,2.919,6.398,6.479,6.398c2.16,0,3.959-0.96,5.159-2.319L250.162,591.401z"/>
	<path fill="#FFFFFF" d="M253.22,576.003h3.199V594h-3.199V576.003z M261.099,584.602l8.638,9.398h-4.439l-8.119-9.198l7.599-8.799
		h4.199L261.099,584.602z"/>
	<path fill="#FFFFFF" d="M272.435,594v-17.997h3.199v13.397l10.398-13.397h3.2V594h-3.2v-13.397L275.634,594H272.435z"/>
	<path fill="#FFFFFF" d="M294.087,594v-17.997h3.2v13.397l10.398-13.397h3.199V594h-3.199v-13.397L297.286,594H294.087z
		 M299.646,566.805c0.16,2.159,1.16,3.159,3.08,3.159c1.76,0,2.76-1,2.919-3.159h3c0,3.159-2.319,5.599-5.919,5.599
		c-3.959,0-6.079-2.439-6.079-5.599H299.646z"/>
	<path fill="#FFFFFF" d="M337.484,579.003h-9.799V594h-3.199v-17.997h16.197V594h-3.199V579.003z"/>
	<path fill="#FFFFFF" d="M360.875,592.04c-1.76,1.6-4.359,2.36-6.759,2.36c-5.839,0-9.639-3.72-9.639-9.398
		c0-5.239,3.359-9.398,9.279-9.398c4.639,0,8.358,3.279,8.358,8.238c0,0.88-0.08,1.6-0.2,2.159h-13.837
		c0.28,3.399,2.759,5.399,6.279,5.399c2.32,0,4.359-0.8,5.519-1.88L360.875,592.04z M347.877,583.402h10.918
		c-0.16-2.959-2.08-4.799-5.199-4.799C350.317,578.603,348.237,580.643,347.877,583.402z"/>
	<path fill="#FFFFFF" d="M365.677,576.003h3.2v2.12c1.24-1.44,3.639-2.52,6.119-2.52c5.119,0,8.318,3.799,8.318,9.118
		c0,5.479-3.719,9.679-9.358,9.679c-1.919,0-3.799-0.4-5.079-1.24v8.839h-3.2V576.003z M368.877,581.082v8.919
		c1.6,1.079,3.08,1.399,4.799,1.399c3.839,0,6.239-2.76,6.239-6.559c0-3.64-2.12-6.239-5.839-6.239
		C371.956,578.603,369.996,579.683,368.877,581.082z"/>
	<path fill="#FFFFFF" d="M402.41,592.04c-1.76,1.6-4.359,2.36-6.759,2.36c-5.839,0-9.638-3.72-9.638-9.398
		c0-5.239,3.359-9.398,9.278-9.398c4.639,0,8.358,3.279,8.358,8.238c0,0.88-0.08,1.6-0.2,2.159h-13.838
		c0.28,3.399,2.76,5.399,6.279,5.399c2.319,0,4.359-0.8,5.519-1.88L402.41,592.04z M389.413,583.402h10.918
		c-0.16-2.959-2.08-4.799-5.199-4.799C391.852,578.603,389.773,580.643,389.413,583.402z"/>
	<path fill="#FFFFFF" d="M416.008,594c-2.64,6.438-4.319,7.999-6.879,7.999c-1.36,0-2.44-0.48-3.399-1.12l1.04-2.439
		c0.6,0.279,1.28,0.6,2,0.6c1.52,0,2.64-1.199,3.839-4.079l0.4-0.96l-8.639-17.997h3.839l5.279,11.438c0.4,0.92,0.72,1.8,1.08,2.719
		c0.24-0.879,0.52-1.799,0.84-2.759l4.159-11.398h3.64L416.008,594z"/>
	<path fill="#FFFFFF" d="M436.703,579.202h-6.319l-0.2,3.04c-0.8,10.238-3.52,11.998-7.239,11.998l-0.24-3.12
		c1.36,0.12,3.919-1.199,4.359-9.518l0.32-5.6h12.518V594h-3.199V579.202z"/>
	<path fill="#FFFFFF" d="M453.227,575.604c5.759,0,9.599,3.999,9.599,9.398c0,5.398-3.839,9.398-9.599,9.398
		c-5.759,0-9.598-4-9.598-9.398C443.629,579.603,447.468,575.604,453.227,575.604z M453.227,591.401c3.6,0,6.199-2.56,6.199-6.398
		c0-3.76-2.6-6.399-6.199-6.399c-3.519,0-6.199,2.6-6.199,6.399C447.028,588.761,449.628,591.401,453.227,591.401z"/>
	<path fill="#FFFFFF" d="M466.572,576.003h3.199V594h-3.199V576.003z M474.451,584.602l8.638,9.398h-4.439l-8.119-9.198l7.599-8.799
		h4.199L474.451,584.602z"/>
	<path fill="#FFFFFF" d="M487.579,590.041c1.68,0,2.879,1.52,2.879,3.879c0,3-1.8,5.159-4.399,5.919l-0.88-1.52
		c1.08-0.36,2.2-1.2,2.56-2.68c0.24-1.04,0.16-1.64-0.04-2c-0.2,0.32-0.56,0.36-0.88,0.36c-0.8,0-1.52-0.8-1.52-1.84
		C485.299,590.921,486.099,590.041,487.579,590.041z"/>
	<path fill="#FFFFFF" d="M501.258,589.601l1.839-2.279c1.4,2.6,3.919,3.879,6.519,3.879c3.479,0,5.519-2.199,5.519-5.039
		c0-2.999-2.359-4.879-5.719-4.879h-2.2v-3.199h2c2.479,0,4.839-1.96,4.839-4.84c0-2.759-1.72-4.438-4.56-4.438
		c-2.759,0-4.519,1.319-5.759,3.479l-1.8-2.199c1.28-2.84,4.159-4.479,7.799-4.479c4.679,0,7.719,2.68,7.719,7.079
		c0,3.039-1.52,5.52-4.359,6.719v0.12c3.479,0.56,5.439,3.479,5.439,6.759c0,4.999-3.799,8.119-8.798,8.119
		C505.858,594.401,502.698,592.721,501.258,589.601z"/>
	<path fill="#FFFFFF" d="M531.109,565.605l2.479,0.92l-13.278,35.794l-2.52-0.92L531.109,565.605z"/>
	<path fill="#FFFFFF" d="M533.818,589.601l1.839-2.279c1.4,2.6,3.919,3.879,6.519,3.879c3.479,0,5.519-2.199,5.519-5.039
		c0-2.999-2.359-4.879-5.719-4.879h-2.2v-3.199h2c2.479,0,4.839-1.96,4.839-4.84c0-2.759-1.72-4.438-4.56-4.438
		c-2.759,0-4.519,1.319-5.759,3.479l-1.8-2.199c1.28-2.84,4.159-4.479,7.799-4.479c4.679,0,7.719,2.68,7.719,7.079
		c0,3.039-1.52,5.52-4.359,6.719v0.12c3.479,0.56,5.439,3.479,5.439,6.759c0,4.999-3.799,8.119-8.798,8.119
		C538.417,594.401,535.258,592.721,533.818,589.601z"/>
</g>
</svg>
