<?xml version="1.0" encoding="utf-8"?>
<!-- Generator: Adobe Illustrator 17.0.0, SVG Export Plug-In . SVG Version: 6.00 Build 0)  -->
<!DOCTYPE svg PUBLIC "-//W3C//DTD SVG 1.1//EN" "http://www.w3.org/Graphics/SVG/1.1/DTD/svg11.dtd">
<svg version="1.1" id="Layer_1" xmlns="http://www.w3.org/2000/svg" xmlns:xlink="http://www.w3.org/1999/xlink" x="0px" y="0px"
	 width="1080px" height="1920px" viewBox="0 0 1080 1920" enable-background="new 0 0 1080 1920" xml:space="preserve">
<rect x="-3240" y="0" width="6480" height="1920"/>
<g>
	<path fill="#FFFFFF" d="M84.561,656.068c2.808-0.072,9.145-0.288,13.825-0.288c12.025,0,16.201,5.473,16.201,12.457
		c0,6.336-3.816,10.081-8.641,11.665v0.144c6.265,1.009,10.441,5.041,10.441,11.953c0,10.225-7.849,14.617-18.29,14.617
		c-4.464,0-10.585-0.144-13.537-0.288V656.068z M90.681,661.756v16.273h8.065c5.329,0,9.721-2.952,9.721-8.425
		c0-5.257-3.528-8.065-10.225-8.065C95.577,661.539,92.482,661.684,90.681,661.756z M90.681,683.43v17.138
		c1.656,0.144,4.896,0.287,7.777,0.287c7.417,0,11.809-3.023,11.809-9.217c0-5.328-4.176-8.208-11.449-8.208H90.681z"/>
	<path fill="#FFFFFF" d="M129.561,674.717c2.736-0.216,5.04-0.36,6.696-0.36c12.673,0,18.649,6.049,18.649,15.554
		c0,10.585-7.488,16.633-20.018,16.633c-4.32,0-8.497-0.144-11.449-0.144v-50.404h6.121V674.717z M129.561,680.549v20.019
		c1.944,0.071,3.744,0.216,6.048,0.216c8.281,0,12.817-3.601,12.817-10.729c0-6.408-4.464-9.937-12.601-9.937
		C134.169,680.117,132.081,680.261,129.561,680.549z M163.043,655.995h6.121V706.4h-6.121V655.995z"/>
	<path fill="#FFFFFF" d="M216.819,701.503c-3.384,3.456-9.648,5.616-15.913,5.616c-15.121,0-25.562-10.225-25.562-25.922
		c0-14.474,9.361-25.922,25.13-25.922c6.48,0,11.737,1.8,15.337,4.896l-2.809,4.608c-3.312-2.448-7.2-3.745-12.457-3.745
		c-10.944,0-18.722,8.209-18.722,20.162c0,12.025,7.993,20.162,19.658,20.162c4.824,0,9.433-1.656,12.889-4.465L216.819,701.503z"/>
	<path fill="#FFFFFF" d="M218.348,655.995h41.403v5.761H242.11V706.4h-6.121v-44.644h-17.642V655.995z"/>
	<path fill="#FFFFFF" d="M273.241,655.707h5.257l21.674,50.692h-6.553l-6.48-15.266h-22.97L257.76,706.4h-6.193L273.241,655.707z
		 M266.617,685.374h18.146l-9.073-21.53L266.617,685.374z"/>
	<path fill="#FFFFFF" d="M304.847,656.068c2.808-0.072,9.145-0.288,13.825-0.288c12.025,0,16.202,5.473,16.202,12.457
		c0,6.336-3.816,10.081-8.641,11.665v0.144c6.264,1.009,10.44,5.041,10.44,11.953c0,10.225-7.849,14.617-18.289,14.617
		c-4.465,0-10.585-0.144-13.538-0.288V656.068z M310.968,661.756v16.273h8.064c5.329,0,9.721-2.952,9.721-8.425
		c0-5.257-3.528-8.065-10.225-8.065C315.864,661.539,312.768,661.684,310.968,661.756z M310.968,683.43v17.138
		c1.656,0.144,4.896,0.287,7.776,0.287c7.417,0,11.81-3.023,11.81-9.217c0-5.328-4.177-8.208-11.449-8.208H310.968z"/>
	<path fill="#FFFFFF" d="M366.502,655.276c14.617,0,25.706,10.585,25.706,25.922c0,14.978-11.089,25.922-25.706,25.922
		s-25.706-10.585-25.706-25.922C340.796,666.58,351.525,655.276,366.502,655.276z M366.502,701.36
		c11.521,0,19.226-8.785,19.226-20.162c0-11.737-8.425-20.162-19.226-20.162c-10.945,0-19.226,8.425-19.226,20.162
		C347.277,692.647,355.701,701.36,366.502,701.36z"/>
	<path fill="#FFFFFF" d="M431.05,706.4h-6.121v-22.034c-2.592,1.872-7.488,3.889-13.321,3.889c-7.992,0-15.121-4.32-15.121-16.058
		v-16.201h6.121v14.545c0,8.713,4.464,11.953,10.584,11.953c4.896,0,9.073-2.016,11.737-3.816v-22.682h6.121V706.4z"/>
	<path fill="#FFFFFF" d="M474.358,683.574h-27.722V706.4h-6.121v-50.404h6.121v21.817h27.722v-21.817h6.121V706.4h-6.121V683.574z"
		/>
	<path fill="#FFFFFF" d="M496.107,674.717c2.736-0.216,5.041-0.36,6.697-0.36c12.673,0,18.649,6.049,18.649,15.554
		c0,10.585-7.489,16.633-20.018,16.633c-4.32,0-8.497-0.144-11.449-0.144v-50.404h6.12V674.717z M496.107,680.549v20.019
		c1.944,0.071,3.744,0.216,6.049,0.216c8.28,0,12.817-3.601,12.817-10.729c0-6.408-4.465-9.937-12.602-9.937
		C500.715,680.117,498.627,680.261,496.107,680.549z M529.59,655.995h6.12V706.4h-6.12V655.995z"/>
	<path fill="#FFFFFF" d="M545.252,706.4v-50.404h6.121v40.323l30.603-40.323h5.4V706.4h-6.12v-40.323L550.653,706.4H545.252z
		 M559.077,644.474c1.08,2.953,3.601,4.681,7.705,4.681c3.744,0,6.696-1.512,7.417-4.681h5.76
		c-0.647,5.401-6.265,9.001-13.177,9.001c-7.561,0-12.602-3.744-13.465-9.001H559.077z"/>
	<path fill="#FFFFFF" d="M615.236,655.995h6.12v44.644h27.003v-44.644h6.12v44.644h6.841v15.121h-5.761v-9.36h-40.323V655.995z"/>
	<path fill="#FFFFFF" d="M666.521,655.995h28.442v5.761h-22.321v16.273h20.161v5.76h-20.161v16.85h23.042v5.761h-29.163V655.995z"/>
	<path fill="#FFFFFF" d="M735.78,683.574h-27.723V706.4h-6.12v-50.404h6.12v21.817h27.723v-21.817h6.12V706.4h-6.12V683.574z"/>
	<path fill="#FFFFFF" d="M746.411,655.995h41.403v5.761h-17.642V706.4h-6.12v-44.644h-17.642V655.995z"/>
	<path fill="#FFFFFF" d="M792.325,706.4v-50.404c2.808,0,10.009-0.145,13.177-0.145c14.401,0,18.649,7.777,18.649,15.626
		c0,8.209-5.832,15.841-18.146,15.841c-2.016,0-5.04-0.071-7.561-0.288v19.37H792.325z M798.445,661.756v19.441
		c2.448,0.216,4.824,0.36,7.345,0.36c7.417,0,11.881-3.816,11.881-10.153c0-5.977-3.6-9.793-11.593-9.793
		C804.063,661.612,800.822,661.684,798.445,661.756z"/>
	<path fill="#FFFFFF" d="M83.12,794.4v-50.404c2.809,0,10.009-0.145,13.178-0.145c14.401,0,18.649,7.777,18.649,15.626
		c0,8.209-5.833,15.841-18.146,15.841c-2.017,0-5.041-0.071-7.561-0.288v19.37H83.12z M89.241,749.756v19.441
		c2.448,0.216,4.824,0.36,7.345,0.36c7.416,0,11.881-3.816,11.881-10.153c0-5.977-3.601-9.793-11.593-9.793
		C94.858,749.612,91.617,749.684,89.241,749.756z"/>
	<path fill="#FFFFFF" d="M132.369,743.707h5.256l21.674,50.692h-6.552l-6.481-15.266h-22.97l-6.408,15.266h-6.193L132.369,743.707z
		 M125.744,773.374h18.146l-9.073-21.53L125.744,773.374z"/>
	<path fill="#FFFFFF" d="M163.975,743.995h28.515v5.761h-22.395v14.473c2.521-0.288,5.761-0.432,7.705-0.432
		c11.305,0,17.642,5.761,17.642,14.833c0,10.441-7.273,16.058-19.37,16.058c-5.112,0-9.145-0.288-12.097-0.288V743.995z
		 M170.095,769.99v18.649c2.232,0.145,4.465,0.288,6.913,0.288c8.28,0,12.312-3.744,12.312-9.864c0-5.617-3.816-9.505-11.881-9.505
		C175.495,769.558,172.759,769.701,170.095,769.99z"/>
	<path fill="#FFFFFF" d="M225.429,743.276c14.617,0,25.706,10.585,25.706,25.922c0,14.978-11.089,25.922-25.706,25.922
		c-14.618,0-25.707-10.585-25.707-25.922C199.722,754.58,210.451,743.276,225.429,743.276z M225.429,789.36
		c11.521,0,19.226-8.785,19.226-20.162c0-11.737-8.425-20.162-19.226-20.162c-10.945,0-19.226,8.425-19.226,20.162
		C206.203,780.647,214.628,789.36,225.429,789.36z"/>
	<path fill="#FFFFFF" d="M289.977,794.4h-6.12v-22.034c-2.593,1.872-7.489,3.889-13.321,3.889c-7.993,0-15.121-4.32-15.121-16.058
		v-16.201h6.12v14.545c0,8.713,4.465,11.953,10.585,11.953c4.896,0,9.073-2.016,11.737-3.816v-22.682h6.12V794.4z"/>
	<path fill="#FFFFFF" d="M297.966,794.4v-50.404h6.12v40.323l30.603-40.323h5.4V794.4h-6.121v-40.323L303.366,794.4H297.966z"/>
	<path fill="#FFFFFF" d="M348.15,794.4v-50.404h6.121v40.323l30.603-40.323h5.4V794.4h-6.121v-40.323L353.55,794.4H348.15z
		 M361.975,732.474c1.08,2.953,3.601,4.681,7.705,4.681c3.744,0,6.696-1.512,7.416-4.681h5.761
		c-0.648,5.401-6.265,9.001-13.177,9.001c-7.561,0-12.602-3.744-13.466-9.001H361.975z"/>
	<path fill="#FFFFFF" d="M416.693,794.4v-50.404h6.121v40.323l30.603-40.323h5.4V794.4h-6.121v-40.323L422.093,794.4H416.693z"/>
	<path fill="#FFFFFF" d="M485.236,743.995h6.121V794.4h-6.121V743.995z M499.637,767.686l23.618,26.714h-7.849l-22.826-26.282
		l22.105-24.122h7.417L499.637,767.686z"/>
	<path fill="#FFFFFF" d="M545.573,743.276c14.617,0,25.706,10.585,25.706,25.922c0,14.978-11.089,25.922-25.706,25.922
		s-25.706-10.585-25.706-25.922C519.867,754.58,530.596,743.276,545.573,743.276z M545.573,789.36
		c11.521,0,19.226-8.785,19.226-20.162c0-11.737-8.425-20.162-19.226-20.162c-10.944,0-19.226,8.425-19.226,20.162
		C526.348,780.647,534.773,789.36,545.573,789.36z"/>
	<path fill="#FFFFFF" d="M607.494,749.756h-18.29l-0.863,9.505c-2.953,32.042-9.722,36.146-17.642,35.139l0.071-6.12
		c3.601,0.359,9.649-1.44,11.953-34.203l0.721-10.081h30.17V794.4h-6.12V749.756z"/>
	<path fill="#FFFFFF" d="M644.875,768.766l18.506,25.634h-7.272l-15.266-20.954L625.65,794.4h-7.2l18.506-25.634l-17.714-24.771h7.2
		l14.618,20.162l14.4-20.162h7.273L644.875,768.766z"/>
	<path fill="#FFFFFF" d="M686.736,743.276c14.617,0,25.706,10.585,25.706,25.922c0,14.978-11.089,25.922-25.706,25.922
		s-25.706-10.585-25.706-25.922C661.029,754.58,671.758,743.276,686.736,743.276z M686.736,789.36
		c11.521,0,19.226-8.785,19.226-20.162c0-11.737-8.425-20.162-19.226-20.162c-10.944,0-19.226,8.425-19.226,20.162
		C667.51,780.647,675.935,789.36,686.736,789.36z"/>
	<path fill="#FFFFFF" d="M713.092,787.2l3.385-4.104c3.24,3.816,8.641,6.265,12.745,6.265c6.552,0,11.448-3.385,11.448-9.649
		c0-4.968-3.6-8.209-9.864-8.209h-5.833v-5.76h5.4c4.249,0,8.354-3.457,8.354-8.497c0-5.473-3.961-8.209-9.146-8.209
		c-4.968,0-8.425,2.017-11.448,5.617l-3.601-4.032c3.384-4.393,9.145-7.345,15.697-7.345c8.713,0,14.617,4.824,14.617,13.393
		c0,4.249-2.376,9.001-7.272,11.521v0.216c6.12,1.152,9.217,6.12,9.217,11.881c0,9.289-7.993,14.833-17.21,14.833
		C721.877,795.119,715.756,791.232,713.092,787.2z"/>
	<path fill="#FFFFFF" d="M787.687,771.574h-27.723V794.4h-6.12v-50.404h6.12v21.817h27.723v-21.817h6.12V794.4h-6.12V771.574z"/>
	<path fill="#FFFFFF" d="M801.868,794.4v-50.404h6.12v40.323l30.603-40.323h5.4V794.4h-6.12v-40.323L807.269,794.4H801.868z"/>
	<path fill="#FFFFFF" d="M852.052,743.995h6.12v44.644h27.003v-44.644h6.12v44.644h6.841v15.121h-5.761v-9.36h-40.323V743.995z"/>
	<path fill="#FFFFFF" d="M922.094,743.707h5.256l21.674,50.692h-6.552l-6.48-15.266h-22.971l-6.408,15.266h-6.192L922.094,743.707z
		 M915.469,773.374h18.146l-9.072-21.53L915.469,773.374z"/>
</g>
<g>
	<path fill="#FFFFFF" d="M102.796,569.204H87.599V594h-3.399v-27.995h21.996V594h-3.399V569.204z"/>
	<path fill="#FFFFFF" d="M111.667,576.003h3.199v2.12c1.24-1.44,3.64-2.52,6.119-2.52c5.119,0,8.318,3.799,8.318,9.118
		c0,5.479-3.719,9.679-9.358,9.679c-1.919,0-3.799-0.4-5.079-1.24v8.839h-3.199V576.003z M114.866,581.082v8.919
		c1.6,1.079,3.08,1.399,4.799,1.399c3.839,0,6.239-2.76,6.239-6.559c0-3.64-2.119-6.239-5.839-6.239
		C117.946,578.603,115.987,579.683,114.866,581.082z"/>
	<path fill="#FFFFFF" d="M141.602,575.604c5.759,0,9.599,3.999,9.599,9.398c0,5.398-3.84,9.398-9.599,9.398s-9.599-4-9.599-9.398
		C132.003,579.603,135.843,575.604,141.602,575.604z M141.602,591.401c3.6,0,6.199-2.56,6.199-6.398c0-3.76-2.6-6.399-6.199-6.399
		c-3.52,0-6.199,2.6-6.199,6.399C135.403,588.761,138.002,591.401,141.602,591.401z"/>
	<path fill="#FFFFFF" d="M170.456,591.401c-1.52,1.96-4.159,3-6.918,3c-5.719,0-9.639-3.72-9.639-9.398
		c0-5.239,3.839-9.398,9.118-9.398c2.88,0,5.399,0.68,7.079,2.359l-1.479,2.52c-1.52-1.4-3.28-1.88-5.159-1.88
		c-3.24,0-6.159,2.6-6.159,6.399c0,3.959,2.919,6.398,6.479,6.398c2.16,0,3.959-0.96,5.159-2.319L170.456,591.401z"/>
	<path fill="#FFFFFF" d="M186.512,579.003h-9.798V594h-3.2v-17.997h16.197V594h-3.199V579.003z"/>
	<path fill="#FFFFFF" d="M209.903,592.04c-1.76,1.6-4.359,2.36-6.759,2.36c-5.839,0-9.638-3.72-9.638-9.398
		c0-5.239,3.359-9.398,9.278-9.398c4.639,0,8.358,3.279,8.358,8.238c0,0.88-0.08,1.6-0.2,2.159h-13.837
		c0.28,3.399,2.759,5.399,6.279,5.399c2.32,0,4.359-0.8,5.52-1.88L209.903,592.04z M196.905,583.402h10.918
		c-0.16-2.959-2.08-4.799-5.199-4.799C199.345,578.603,197.265,580.643,196.905,583.402z"/>
	<path fill="#FFFFFF" d="M214.773,576.003h3.199V594h-3.199V576.003z M222.652,584.602L231.29,594h-4.439l-8.118-9.198l7.599-8.799
		h4.199L222.652,584.602z"/>
	<path fill="#FFFFFF" d="M232.505,576.003h16.397v3.199h-6.599V594h-3.199v-14.798h-6.599V576.003z"/>
	<path fill="#FFFFFF" d="M261.503,566.005h3.439l10.519,14.357l10.078-14.357h3.239V594h-3.399v-22.636l-9.918,13.917h-0.521
		l-10.038-13.798V594h-3.399V566.005z"/>
	<path fill="#FFFFFF" d="M294.287,594v-17.997h3.2v13.397l10.398-13.397h3.2V594h-3.2v-13.397L297.487,594H294.287z"/>
	<path fill="#FFFFFF" d="M315.939,576.003h3.2v2.12c1.24-1.44,3.639-2.52,6.119-2.52c5.119,0,8.319,3.799,8.319,9.118
		c0,5.479-3.719,9.679-9.358,9.679c-1.919,0-3.799-0.4-5.079-1.24v8.839h-3.2V576.003z M319.138,581.082v8.919
		c1.6,1.079,3.08,1.399,4.799,1.399c3.839,0,6.239-2.76,6.239-6.559c0-3.64-2.12-6.239-5.839-6.239
		C322.218,578.603,320.258,579.683,319.138,581.082z"/>
	<path fill="#FFFFFF" d="M337.487,577.243c1.6-1,3.76-1.64,5.999-1.64c5.119,0,6.919,2.679,6.919,7.358V594h-3.039v-2.319
		c-1.08,1.359-2.8,2.6-5.759,2.6c-3.28,0-5.519-2.08-5.519-5.56c0-3.68,2.919-5.719,6.799-5.719c1.399,0,3.279,0.28,4.479,1.16
		c0-3.36-0.521-5.68-4.08-5.68c-2.2,0-3.52,0.561-4.959,1.32L337.487,577.243z M347.365,589.081v-2.28
		c-1.12-0.8-2.48-1.199-4.04-1.199c-1.919,0-3.839,0.88-3.839,2.959c0,1.72,1.16,2.84,3.239,2.84
		C345.085,591.401,346.445,590.16,347.365,589.081z"/>
	<path fill="#FFFFFF" d="M356.35,590.041c1.68,0,2.88,1.52,2.88,3.879c0,3-1.8,5.159-4.399,5.919l-0.88-1.52
		c1.08-0.36,2.2-1.2,2.56-2.68c0.24-1.04,0.16-1.64-0.04-2c-0.2,0.32-0.56,0.36-0.88,0.36c-0.8,0-1.52-0.8-1.52-1.84
		C354.07,590.921,354.87,590.041,356.35,590.041z"/>
	<path fill="#FFFFFF" d="M376.749,565.845h2.239V594h-3.199v-23.556l-4.079,3.199l-1.68-2.6L376.749,565.845z"/>
	<path fill="#FFFFFF" d="M383.502,591.401c4.559-4.479,12.518-12.038,12.518-17.997c0-2.479-1.52-4.52-4.56-4.52
		c-2.239,0-4.439,1.48-4.999,4.479l-2.72-1.119c0.68-4.16,4.08-6.56,7.999-6.56c5.239,0,7.679,3.6,7.679,7.079
		c0,7.839-9.519,16.277-11.758,18.237h12.917V594h-17.077V591.401z"/>
	<path fill="#FFFFFF" d="M403.142,589.601l1.84-2.279c1.399,2.6,3.919,3.879,6.519,3.879c3.479,0,5.519-2.199,5.519-5.039
		c0-2.999-2.36-4.879-5.719-4.879h-2.199v-3.199h2c2.479,0,4.839-1.96,4.839-4.84c0-2.759-1.72-4.438-4.56-4.438
		c-2.759,0-4.519,1.319-5.759,3.479l-1.8-2.199c1.28-2.84,4.159-4.479,7.799-4.479c4.679,0,7.719,2.68,7.719,7.079
		c0,3.039-1.52,5.52-4.359,6.719v0.12c3.479,0.56,5.439,3.479,5.439,6.759c0,4.999-3.799,8.119-8.798,8.119
		C407.741,594.401,404.581,592.721,403.142,589.601z"/>
	<path fill="#FFFFFF" d="M449.338,568.124c-2.2,2.96-5.199,1.8-9.158,3.6c-3.359,1.52-4.319,5.319-4.56,8.679h0.08
		c1.16-2.52,4.079-4.199,7.119-4.199c5.159,0,8.358,3.56,8.358,8.958c0,5.039-3.76,9.239-9.238,9.239
		c-5.839,0-9.519-4.279-9.519-11.198c0-5.319,0.96-12.118,6.679-14.518c4.199-1.8,6.679-0.681,8.519-3.08L449.338,568.124z
		 M441.86,591.401c3.52,0,5.919-2.72,5.919-6.079c0-3.52-2.04-6.119-5.759-6.119c-3.399,0-5.639,2.28-6.199,4.6
		C435.82,588.442,438.3,591.401,441.86,591.401z"/>
</g>
</svg>
