<?xml version="1.0" encoding="utf-8"?>
<!-- Generator: Adobe Illustrator 17.0.0, SVG Export Plug-In . SVG Version: 6.00 Build 0)  -->
<!DOCTYPE svg PUBLIC "-//W3C//DTD SVG 1.1//EN" "http://www.w3.org/Graphics/SVG/1.1/DTD/svg11.dtd">
<svg version="1.1" id="Layer_1" xmlns="http://www.w3.org/2000/svg" xmlns:xlink="http://www.w3.org/1999/xlink" x="0px" y="0px"
	 width="1080px" height="1920px" viewBox="0 0 1080 1920" enable-background="new 0 0 1080 1920" xml:space="preserve">
<rect x="-4320" y="0" width="6480" height="1920"/>
<g>
	<path fill="#FFFFFF" d="M84.561,655.995h6.192l18.938,25.851l18.146-25.851h5.833V706.4h-6.121v-40.756l-17.857,25.059h-0.936
		l-18.074-24.842V706.4h-6.121V655.995z"/>
	<path fill="#FFFFFF" d="M166.75,694.878c-3.456,7.705-6.984,11.521-12.529,11.521c-2.232,0-4.752-0.72-6.121-1.8l2.16-5.185
		c1.368,0.936,2.448,1.296,3.889,1.296c2.88,0,4.824-2.232,6.192-5.112l0.864-1.872l-22.826-37.731h6.913l18.866,31.61l13.825-31.61
		h6.192L166.75,694.878z"/>
	<path fill="#FFFFFF" d="M184.647,699.2l3.384-4.104c3.24,3.816,8.641,6.265,12.745,6.265c6.553,0,11.449-3.385,11.449-9.649
		c0-4.968-3.6-8.209-9.865-8.209h-5.833v-5.76h5.4c4.249,0,8.353-3.457,8.353-8.497c0-5.473-3.96-8.209-9.145-8.209
		c-4.969,0-8.425,2.017-11.449,5.617l-3.6-4.032c3.384-4.393,9.145-7.345,15.698-7.345c8.712,0,14.617,4.824,14.617,13.393
		c0,4.249-2.376,9.001-7.273,11.521v0.216c6.121,1.152,9.217,6.12,9.217,11.881c0,9.289-7.993,14.833-17.209,14.833
		C193.431,707.119,187.311,703.232,184.647,699.2z"/>
	<path fill="#FFFFFF" d="M225.398,655.995h28.442v5.761h-22.322v16.273h20.162v5.76h-20.162v16.85h23.042v5.761h-29.163V655.995z"/>
	<path fill="#FFFFFF" d="M260.815,706.4v-50.404h6.12v40.323l30.603-40.323h5.4V706.4h-6.121v-40.323L266.215,706.4H260.815z
		 M274.64,644.474c1.08,2.953,3.6,4.681,7.705,4.681c3.745,0,6.697-1.512,7.417-4.681h5.761c-0.648,5.401-6.265,9.001-13.177,9.001
		c-7.561,0-12.601-3.744-13.465-9.001H274.64z"/>
	<path fill="#FFFFFF" d="M84.561,744.068c2.809-0.072,9.145-0.288,13.825-0.288c12.025,0,16.201,5.473,16.201,12.457
		c0,6.336-3.816,10.081-8.641,11.665v0.144c6.265,1.009,10.441,5.041,10.441,11.953c0,10.225-7.849,14.617-18.29,14.617
		c-4.464,0-10.585-0.144-13.537-0.288V744.068z M90.681,749.756v16.273h8.065c5.328,0,9.721-2.952,9.721-8.425
		c0-5.257-3.528-8.065-10.225-8.065C95.578,749.539,92.482,749.684,90.681,749.756z M90.681,771.43v17.138
		c1.656,0.144,4.896,0.287,7.777,0.287c7.417,0,11.809-3.023,11.809-9.217c0-5.328-4.176-8.208-11.449-8.208H90.681z"/>
	<path fill="#FFFFFF" d="M139.346,743.707h5.257l21.674,50.692h-6.553l-6.48-15.266h-22.97l-6.409,15.266h-6.192L139.346,743.707z
		 M132.721,773.374h18.146l-9.073-21.53L132.721,773.374z"/>
	<path fill="#FFFFFF" d="M168.035,788.639h5.4c2.088-2.592,7.2-13.465,8.28-34.562l0.504-10.081h29.667v44.644h6.841v15.121h-5.761
		v-9.36h-39.171v9.36h-5.76V788.639z M180.204,788.639h25.562v-38.883h-17.641l-0.648,9
		C186.253,776.11,182.076,786.335,180.204,788.639z"/>
	<path fill="#FFFFFF" d="M223.929,794.4v-50.404h6.12v40.323l30.603-40.323h5.4V794.4h-6.121v-40.323L229.329,794.4H223.929z"/>
	<path fill="#FFFFFF" d="M275.56,743.995h6.192l18.938,25.851l18.146-25.851h5.833V794.4h-6.121v-40.756l-17.857,25.059h-0.936
		l-18.074-24.842V794.4h-6.121V743.995z"/>
	<path fill="#FFFFFF" d="M351.053,743.707h5.257l21.674,50.692h-6.553l-6.48-15.266h-22.97l-6.409,15.266h-6.192L351.053,743.707z
		 M344.428,773.374h18.146l-9.073-21.53L344.428,773.374z"/>
	<path fill="#FFFFFF" d="M122.076,877.503c-3.385,3.456-9.649,5.616-15.914,5.616c-15.122,0-25.562-10.225-25.562-25.922
		c0-14.474,9.36-25.922,25.13-25.922c6.48,0,11.737,1.8,15.337,4.896l-2.808,4.608c-3.312-2.448-7.201-3.745-12.457-3.745
		c-10.945,0-18.722,8.209-18.722,20.162c0,12.025,7.992,20.162,19.657,20.162c4.825,0,9.433-1.656,12.89-4.465L122.076,877.503z"/>
	<path fill="#FFFFFF" d="M127.235,882.4v-50.404h6.12v40.323l30.603-40.323h5.4V882.4h-6.121v-40.323L132.635,882.4H127.235z"/>
	<path fill="#FFFFFF" d="M174.033,876.639h5.4c2.089-2.592,7.201-13.465,8.281-34.562l0.504-10.081h29.667v44.644h6.84v15.121h-5.76
		v-9.36h-39.171v9.36h-5.761V876.639z M186.202,876.639h25.562v-38.883h-17.642l-0.648,9
		C192.251,864.11,188.075,874.335,186.202,876.639z"/>
	<path fill="#FFFFFF" d="M251.579,870.878c-3.456,7.705-6.984,11.521-12.529,11.521c-2.232,0-4.752-0.72-6.121-1.8l2.16-5.185
		c1.368,0.936,2.448,1.296,3.889,1.296c2.88,0,4.824-2.232,6.192-5.112l0.864-1.872l-22.826-37.731h6.913l18.866,31.61l13.825-31.61
		h6.192L251.579,870.878z"/>
	<path fill="#FFFFFF" d="M273.681,882.4v-50.404c2.808,0,10.009-0.145,13.177-0.145c14.401,0,18.65,7.777,18.65,15.626
		c0,8.209-5.833,15.841-18.146,15.841c-2.016,0-5.041-0.071-7.561-0.288v19.37H273.681z M279.801,837.756v19.441
		c2.448,0.216,4.825,0.36,7.345,0.36c7.417,0,11.881-3.816,11.881-10.153c0-5.977-3.6-9.793-11.593-9.793
		C285.418,837.612,282.177,837.684,279.801,837.756z"/>
	<path fill="#FFFFFF" d="M322.95,831.707h5.257l21.674,50.692h-6.553l-6.48-15.266h-22.97l-6.409,15.266h-6.192L322.95,831.707z
		 M316.326,861.374h18.146l-9.073-21.53L316.326,861.374z"/>
</g>
<g>
	<path fill="#FFFFFF" d="M102.996,581.323H87.599V594h-3.399v-27.995h3.399v12.118h15.397v-12.118h3.399V594h-3.399V581.323z"/>
	<path fill="#FFFFFF" d="M120.306,575.604c5.759,0,9.599,3.999,9.599,9.398c0,5.398-3.839,9.398-9.599,9.398
		c-5.759,0-9.598-4-9.598-9.398C110.708,579.603,114.547,575.604,120.306,575.604z M120.306,591.401c3.6,0,6.199-2.56,6.199-6.398
		c0-3.76-2.6-6.399-6.199-6.399c-3.519,0-6.199,2.6-6.199,6.399C114.107,588.761,116.707,591.401,120.306,591.401z"/>
	<path fill="#FFFFFF" d="M133.652,576.003c1.56,0,3.919-0.16,6.519-0.16c5.039,0,7.759,1.4,7.759,4.64c0,2.119-1.44,3.799-3.6,4.119
		v0.08c2.88,0.52,4.199,2,4.199,4.239c0,3.399-2.68,5.239-8.278,5.239c-2.24,0-4.959-0.16-6.599-0.16V576.003z M136.851,578.563
		v5.359h4.039c2.12,0,3.64-1.04,3.64-2.8c0-1.96-1.8-2.68-4.119-2.68C138.97,578.443,137.651,578.523,136.851,578.563z
		 M136.851,585.921v5.52c0.96,0.04,2.239,0.12,3.679,0.12c2.959,0,4.599-1,4.599-2.88s-1.56-2.76-4.439-2.76H136.851z"/>
	<path fill="#FFFFFF" d="M160.789,575.604c5.759,0,9.599,3.999,9.599,9.398c0,5.398-3.84,9.398-9.599,9.398s-9.599-4-9.599-9.398
		C151.191,579.603,155.03,575.604,160.789,575.604z M160.789,591.401c3.6,0,6.199-2.56,6.199-6.398c0-3.76-2.6-6.399-6.199-6.399
		c-3.52,0-6.199,2.6-6.199,6.399C154.59,588.761,157.19,591.401,160.789,591.401z"/>
	<path fill="#FFFFFF" d="M174.134,576.003h11.398v3h-8.199V594h-3.199V576.003z"/>
	<path fill="#FFFFFF" d="M188.054,594v-17.997h3.199v13.397l10.398-13.397h3.2V594h-3.2v-13.397L191.253,594H188.054z"/>
	<path fill="#FFFFFF" d="M209.705,576.003h3.2v2.12c1.239-1.44,3.639-2.52,6.119-2.52c5.119,0,8.319,3.799,8.319,9.118
		c0,5.479-3.72,9.679-9.358,9.679c-1.92,0-3.8-0.4-5.079-1.24v8.839h-3.2V576.003z M212.905,581.082v8.919
		c1.6,1.079,3.079,1.399,4.799,1.399c3.839,0,6.239-2.76,6.239-6.559c0-3.64-2.12-6.239-5.839-6.239
		C215.985,578.603,214.025,579.683,212.905,581.082z"/>
	<path fill="#FFFFFF" d="M246.439,592.04c-1.76,1.6-4.359,2.36-6.759,2.36c-5.839,0-9.638-3.72-9.638-9.398
		c0-5.239,3.359-9.398,9.279-9.398c4.639,0,8.358,3.279,8.358,8.238c0,0.88-0.08,1.6-0.2,2.159h-13.838
		c0.28,3.399,2.76,5.399,6.279,5.399c2.319,0,4.359-0.8,5.519-1.88L246.439,592.04z M233.441,583.402h10.918
		c-0.16-2.959-2.08-4.799-5.199-4.799C235.881,578.603,233.801,580.643,233.441,583.402z"/>
	<path fill="#FFFFFF" d="M266.658,592.04c-1.76,1.6-4.359,2.36-6.759,2.36c-5.839,0-9.638-3.72-9.638-9.398
		c0-5.239,3.359-9.398,9.279-9.398c4.639,0,8.358,3.279,8.358,8.238c0,0.88-0.08,1.6-0.2,2.159h-13.838
		c0.28,3.399,2.76,5.399,6.279,5.399c2.319,0,4.359-0.8,5.519-1.88L266.658,592.04z M253.661,583.402h10.918
		c-0.16-2.959-2.08-4.799-5.199-4.799C256.101,578.603,254.021,580.643,253.661,583.402z"/>
	<path fill="#FFFFFF" d="M271.529,576.003c1.56,0,3.919-0.16,6.519-0.16c5.039,0,7.759,1.4,7.759,4.64c0,2.119-1.44,3.799-3.6,4.119
		v0.08c2.879,0.52,4.2,2,4.2,4.239c0,3.399-2.68,5.239-8.279,5.239c-2.24,0-4.959-0.16-6.599-0.16V576.003z M274.728,578.563v5.359
		h4.04c2.119,0,3.639-1.04,3.639-2.8c0-1.96-1.799-2.68-4.119-2.68C276.848,578.443,275.528,578.523,274.728,578.563z
		 M274.728,585.921v5.52c0.96,0.04,2.24,0.12,3.68,0.12c2.959,0,4.6-1,4.6-2.88s-1.56-2.76-4.439-2.76H274.728z"/>
	<path fill="#FFFFFF" d="M305.646,591.401c-1.52,1.96-4.159,3-6.919,3c-5.719,0-9.639-3.72-9.639-9.398
		c0-5.239,3.84-9.398,9.119-9.398c2.879,0,5.399,0.68,7.079,2.359l-1.479,2.52c-1.52-1.4-3.279-1.88-5.159-1.88
		c-3.239,0-6.159,2.6-6.159,6.399c0,3.959,2.92,6.398,6.479,6.398c2.159,0,3.959-0.96,5.159-2.319L305.646,591.401z"/>
	<path fill="#FFFFFF" d="M308.704,576.003h3.199V594h-3.199V576.003z M316.583,584.602l8.638,9.398h-4.439l-8.119-9.198l7.599-8.799
		h4.199L316.583,584.602z"/>
	<path fill="#FFFFFF" d="M327.723,577.243c1.6-1,3.759-1.64,5.999-1.64c5.119,0,6.918,2.679,6.918,7.358V594h-3.039v-2.319
		c-1.08,1.359-2.8,2.6-5.759,2.6c-3.28,0-5.52-2.08-5.52-5.56c0-3.68,2.92-5.719,6.799-5.719c1.4,0,3.279,0.28,4.479,1.16
		c0-3.36-0.52-5.68-4.079-5.68c-2.2,0-3.52,0.561-4.959,1.32L327.723,577.243z M337.602,589.081v-2.28
		c-1.12-0.8-2.479-1.199-4.039-1.199c-1.92,0-3.84,0.88-3.84,2.959c0,1.72,1.16,2.84,3.239,2.84
		C335.322,591.401,336.682,590.16,337.602,589.081z"/>
	<path fill="#FFFFFF" d="M358.505,576.003V594h-3.2v-5.999h-3.479L347.426,594h-3.879l5.199-6.799
		c-1.84-0.44-3.879-2.239-3.879-5.199c0-3.079,2.04-5.999,8.039-5.999H358.505z M351.626,585.002h3.679v-5.999h-2.919
		c-3,0-4.12,1.399-4.12,3.079C348.266,583.922,350.026,585.002,351.626,585.002z"/>
	<path fill="#FFFFFF" d="M381.265,594c-2.64,6.438-4.319,7.999-6.879,7.999c-1.359,0-2.439-0.48-3.399-1.12l1.04-2.439
		c0.6,0.279,1.28,0.6,2,0.6c1.52,0,2.639-1.199,3.839-4.079l0.4-0.96l-8.639-17.997h3.839l5.279,11.438
		c0.4,0.92,0.72,1.8,1.08,2.719c0.24-0.879,0.52-1.799,0.84-2.759l4.159-11.398h3.64L381.265,594z"/>
	<path fill="#FFFFFF" d="M401.96,579.202h-6.319l-0.2,3.04c-0.8,10.238-3.52,11.998-7.239,11.998l-0.24-3.12
		c1.36,0.12,3.919-1.199,4.359-9.518l0.32-5.6h12.518V594h-3.2V579.202z"/>
	<path fill="#FFFFFF" d="M409.994,594v-17.997h3.199v13.397l10.398-13.397h3.2V594h-3.2v-13.397L413.194,594H409.994z"/>
	<path fill="#FFFFFF" d="M431.646,576.003h3.2v14.998h9.598v-14.998h3.2v14.998h2.999v7.398h-2.999V594h-15.998V576.003z"/>
	<path fill="#FFFFFF" d="M454.066,577.243c1.6-1,3.76-1.64,5.999-1.64c5.119,0,6.919,2.679,6.919,7.358V594h-3.039v-2.319
		c-1.08,1.359-2.8,2.6-5.759,2.6c-3.28,0-5.519-2.08-5.519-5.56c0-3.68,2.919-5.719,6.799-5.719c1.399,0,3.279,0.28,4.479,1.16
		c0-3.36-0.521-5.68-4.08-5.68c-2.2,0-3.52,0.561-4.959,1.32L454.066,577.243z M463.945,589.081v-2.28
		c-1.12-0.8-2.48-1.199-4.04-1.199c-1.919,0-3.839,0.88-3.839,2.959c0,1.72,1.16,2.84,3.239,2.84
		C461.664,591.401,463.025,590.16,463.945,589.081z"/>
	<path fill="#FFFFFF" d="M472.929,590.041c1.68,0,2.88,1.52,2.88,3.879c0,3-1.8,5.159-4.399,5.919l-0.88-1.52
		c1.08-0.36,2.2-1.2,2.56-2.68c0.24-1.04,0.16-1.64-0.04-2c-0.2,0.32-0.56,0.36-0.88,0.36c-0.8,0-1.52-0.8-1.52-1.84
		C470.65,590.921,471.449,590.041,472.929,590.041z"/>
	<path fill="#FFFFFF" d="M486.61,589.601l1.839-2.279c1.4,2.6,3.92,3.879,6.52,3.879c3.479,0,5.519-2.199,5.519-5.039
		c0-2.999-2.359-4.879-5.719-4.879h-2.199v-3.199h1.999c2.479,0,4.84-1.96,4.84-4.84c0-2.759-1.72-4.438-4.56-4.438
		c-2.76,0-4.52,1.319-5.759,3.479l-1.8-2.199c1.279-2.84,4.159-4.479,7.799-4.479c4.679,0,7.719,2.68,7.719,7.079
		c0,3.039-1.521,5.52-4.359,6.719v0.12c3.479,0.56,5.438,3.479,5.438,6.759c0,4.999-3.799,8.119-8.798,8.119
		C491.208,594.401,488.049,592.721,486.61,589.601z"/>
	<path fill="#FFFFFF" d="M505.917,566.005h16.797v2.079L512.396,594h-3.52l9.959-24.796h-12.918V566.005z"/>
	<path fill="#FFFFFF" d="M532.303,565.605l2.479,0.92l-13.278,35.794l-2.52-0.92L532.303,565.605z"/>
	<path fill="#FFFFFF" d="M535.14,591.401c4.559-4.479,12.518-12.038,12.518-17.997c0-2.479-1.52-4.52-4.56-4.52
		c-2.239,0-4.438,1.48-4.999,4.479l-2.72-1.119c0.681-4.16,4.08-6.56,7.999-6.56c5.239,0,7.679,3.6,7.679,7.079
		c0,7.839-9.519,16.277-11.758,18.237h12.918V594H535.14V591.401z"/>
</g>
</svg>
