<?xml version="1.0" encoding="utf-8"?>
<!-- Generator: Adobe Illustrator 17.0.0, SVG Export Plug-In . SVG Version: 6.00 Build 0)  -->
<!DOCTYPE svg PUBLIC "-//W3C//DTD SVG 1.1//EN" "http://www.w3.org/Graphics/SVG/1.1/DTD/svg11.dtd">
<svg version="1.1" id="Layer_1" xmlns="http://www.w3.org/2000/svg" xmlns:xlink="http://www.w3.org/1999/xlink" x="0px" y="0px"
	 width="1080px" height="1920px" viewBox="0 0 1080 1920" enable-background="new 0 0 1080 1920" xml:space="preserve">
<rect x="-5400" y="0" width="6480" height="1920"/>
<g>
	<path fill="#FFFFFF" d="M84.561,655.995h6.192l18.938,25.851l18.146-25.851h5.833V706.4h-6.121v-40.756l-17.857,25.059h-0.936
		l-18.074-24.842V706.4h-6.121V655.995z"/>
	<path fill="#FFFFFF" d="M166.75,694.878c-3.456,7.705-6.984,11.521-12.529,11.521c-2.232,0-4.752-0.72-6.121-1.8l2.16-5.185
		c1.368,0.936,2.448,1.296,3.889,1.296c2.88,0,4.824-2.232,6.192-5.112l0.864-1.872l-22.826-37.731h6.913l18.866,31.61l13.825-31.61
		h6.192L166.75,694.878z"/>
	<path fill="#FFFFFF" d="M184.647,699.2l3.384-4.104c3.24,3.816,8.641,6.265,12.745,6.265c6.552,0,11.449-3.385,11.449-9.649
		c0-4.968-3.6-8.209-9.865-8.209h-5.833v-5.76h5.4c4.249,0,8.353-3.457,8.353-8.497c0-5.473-3.96-8.209-9.145-8.209
		c-4.968,0-8.425,2.017-11.449,5.617l-3.6-4.032c3.384-4.393,9.145-7.345,15.698-7.345c8.712,0,14.617,4.824,14.617,13.393
		c0,4.249-2.376,9.001-7.273,11.521v0.216c6.121,1.152,9.217,6.12,9.217,11.881c0,9.289-7.993,14.833-17.209,14.833
		C193.431,707.119,187.311,703.232,184.647,699.2z"/>
	<path fill="#FFFFFF" d="M225.398,655.995h28.442v5.761h-22.321v16.273h20.161v5.76h-20.161v16.85h23.042v5.761h-29.163V655.995z"/>
	<path fill="#FFFFFF" d="M260.815,706.4v-50.404h6.121v40.323l30.603-40.323h5.4V706.4h-6.121v-40.323L266.215,706.4H260.815z
		 M274.64,644.474c1.08,2.953,3.601,4.681,7.705,4.681c3.744,0,6.696-1.512,7.416-4.681h5.761
		c-0.648,5.401-6.265,9.001-13.177,9.001c-7.562,0-12.602-3.744-13.466-9.001H274.64z"/>
	<path fill="#FFFFFF" d="M310.415,678.245h17.209v5.4h-17.209V678.245z"/>
	<path fill="#FFFFFF" d="M335.024,655.995h6.193l18.938,25.851l18.146-25.851h5.833V706.4h-6.121v-40.756l-17.857,25.059h-0.937
		l-18.073-24.842V706.4h-6.121V655.995z"/>
	<path fill="#FFFFFF" d="M410.518,655.707h5.256l21.674,50.692h-6.553l-6.48-15.266h-22.97l-6.408,15.266h-6.192L410.518,655.707z
		 M403.893,685.374h18.146l-9.073-21.53L403.893,685.374z"/>
	<path fill="#FFFFFF" d="M477.737,701.503c-3.384,3.456-9.648,5.616-15.913,5.616c-15.121,0-25.562-10.225-25.562-25.922
		c0-14.474,9.361-25.922,25.131-25.922c6.48,0,11.736,1.8,15.337,4.896l-2.809,4.608c-3.312-2.448-7.2-3.745-12.457-3.745
		c-10.944,0-18.722,8.209-18.722,20.162c0,12.025,7.993,20.162,19.658,20.162c4.824,0,9.433-1.656,12.889-4.465L477.737,701.503z"/>
	<path fill="#FFFFFF" d="M479.267,655.995h41.403v5.761h-17.642V706.4h-6.12v-44.644h-17.642V655.995z"/>
	<path fill="#FFFFFF" d="M525.18,655.995h28.443v5.761h-22.322v16.273h20.162v5.76h-20.162v16.85h23.042v5.761H525.18V655.995z"/>
	<path fill="#FFFFFF" d="M560.598,706.4v-50.404c2.808,0,10.008-0.145,13.177-0.145c14.401,0,18.649,7.777,18.649,15.626
		c0,8.209-5.832,15.841-18.146,15.841c-2.017,0-5.04-0.071-7.561-0.288v19.37H560.598z M566.718,661.756v19.441
		c2.448,0.216,4.824,0.36,7.345,0.36c7.416,0,11.881-3.816,11.881-10.153c0-5.977-3.6-9.793-11.593-9.793
		C572.334,661.612,569.094,661.684,566.718,661.756z"/>
	<path fill="#FFFFFF" d="M637.531,701.503c-3.385,3.456-9.648,5.616-15.913,5.616c-15.122,0-25.562-10.225-25.562-25.922
		c0-14.474,9.36-25.922,25.13-25.922c6.48,0,11.737,1.8,15.338,4.896l-2.809,4.608c-3.312-2.448-7.2-3.745-12.457-3.745
		c-10.945,0-18.721,8.209-18.721,20.162c0,12.025,7.992,20.162,19.657,20.162c4.824,0,9.433-1.656,12.889-4.465L637.531,701.503z"/>
	<path fill="#FFFFFF" d="M642.69,655.995h6.121V706.4h-6.121V655.995z M657.092,679.686l23.617,26.714h-7.848l-22.826-26.282
		l22.105-24.122h7.416L657.092,679.686z"/>
	<path fill="#FFFFFF" d="M704.302,655.707h5.257l21.674,50.692h-6.553l-6.48-15.266h-22.971L688.82,706.4h-6.192L704.302,655.707z
		 M697.678,685.374h18.145l-9.072-21.53L697.678,685.374z"/>
	<path fill="#FFFFFF" d="M762.694,687.678h-9.432L740.229,706.4h-6.913l13.97-19.802c-5.186-2.088-9.938-6.912-9.938-14.113
		c0-9.072,6.049-16.705,19.658-16.705c3.384,0,8.856,0.216,11.809,0.216V706.4h-6.121V687.678z M762.694,681.917v-20.161
		c-1.656-0.072-4.68-0.217-6.84-0.217c-7.85,0-12.025,4.608-12.025,10.585c0,5.329,4.32,9.073,8.713,9.793H762.694z"/>
	<path fill="#FFFFFF" d="M118.404,771.574H90.681V794.4h-6.121v-50.404h6.121v21.817h27.722v-21.817h6.121V794.4h-6.121V771.574z"/>
	<path fill="#FFFFFF" d="M150.874,743.707h5.257l21.674,50.692h-6.553l-6.48-15.266h-22.97l-6.409,15.266H129.2L150.874,743.707z
		 M144.25,773.374h18.146l-9.073-21.53L144.25,773.374z"/>
	<path fill="#FFFFFF" d="M216.683,749.756h-18.29l-0.864,9.505c-2.952,32.042-9.721,36.146-17.642,35.139l0.072-6.12
		c3.601,0.359,9.649-1.44,11.953-34.203l0.72-10.081h30.17V794.4h-6.12V749.756z"/>
	<path fill="#FFFFFF" d="M232.311,743.995h28.515v5.761h-22.394v14.473c2.52-0.288,5.76-0.432,7.704-0.432
		c11.306,0,17.642,5.761,17.642,14.833c0,10.441-7.272,16.058-19.369,16.058c-5.113,0-9.146-0.288-12.098-0.288V743.995z
		 M238.432,769.99v18.649c2.231,0.145,4.464,0.288,6.912,0.288c8.281,0,12.312-3.744,12.312-9.864c0-5.617-3.815-9.505-11.881-9.505
		C243.832,769.558,241.096,769.701,238.432,769.99z"/>
	<path fill="#FFFFFF" d="M286.499,743.707h5.257L313.43,794.4h-6.553l-6.48-15.266h-22.971l-6.408,15.266h-6.192L286.499,743.707z
		 M279.875,773.374h18.145l-9.072-21.53L279.875,773.374z"/>
	<path fill="#FFFFFF" d="M351.947,771.574h-27.722V794.4h-6.121v-50.404h6.121v21.817h27.722v-21.817h6.121V794.4h-6.121V771.574z"
		/>
	<path fill="#FFFFFF" d="M362.744,788.639h5.4c2.088-2.592,7.201-13.465,8.281-34.562l0.504-10.081h29.666v44.644h6.841v15.121
		h-5.761v-9.36h-39.171v9.36h-5.761V788.639z M374.913,788.639h25.562v-38.883h-17.642l-0.648,9
		C380.962,776.11,376.785,786.335,374.913,788.639z"/>
	<path fill="#FFFFFF" d="M445.424,775.678h-9.433L422.958,794.4h-6.913l13.97-19.802c-5.185-2.088-9.937-6.912-9.937-14.113
		c0-9.072,6.048-16.705,19.657-16.705c3.384,0,8.856,0.216,11.81,0.216V794.4h-6.121V775.678z M445.424,769.917v-20.161
		c-1.656-0.072-4.681-0.217-6.841-0.217c-7.849,0-12.024,4.608-12.024,10.585c0,5.329,4.32,9.073,8.713,9.793H445.424z"/>
	<path fill="#FFFFFF" d="M494.852,771.574h-27.723V794.4h-6.12v-50.404h6.12v21.817h27.723v-21.817h6.121V794.4h-6.121V771.574z"/>
	<path fill="#FFFFFF" d="M527.322,743.707h5.256l21.674,50.692h-6.553l-6.48-15.266h-22.97L511.84,794.4h-6.191L527.322,743.707z
		 M520.697,773.374h18.146l-9.073-21.53L520.697,773.374z"/>
</g>
<g>
	<path fill="#FFFFFF" d="M80.401,566.005h22.996v3.199h-9.799V594h-3.399v-24.796h-9.798V566.005z"/>
	<path fill="#FFFFFF" d="M102.044,576.003c1.56,0,3.919-0.16,6.519-0.16c5.039,0,7.759,1.4,7.759,4.64c0,2.119-1.44,3.799-3.6,4.119
		v0.08c2.879,0.52,4.199,2,4.199,4.239c0,3.399-2.68,5.239-8.278,5.239c-2.24,0-4.959-0.16-6.599-0.16V576.003z M105.243,578.563
		v5.359h4.04c2.12,0,3.639-1.04,3.639-2.8c0-1.96-1.799-2.68-4.119-2.68C107.362,578.443,106.043,578.523,105.243,578.563z
		 M105.243,585.921v5.52c0.96,0.04,2.24,0.12,3.679,0.12c2.96,0,4.6-1,4.6-2.88s-1.56-2.76-4.439-2.76H105.243z"/>
	<path fill="#FFFFFF" d="M136,592.04c-1.759,1.6-4.359,2.36-6.759,2.36c-5.839,0-9.638-3.72-9.638-9.398
		c0-5.239,3.359-9.398,9.279-9.398c4.639,0,8.358,3.279,8.358,8.238c0,0.88-0.08,1.6-0.2,2.159h-13.838
		c0.28,3.399,2.76,5.399,6.279,5.399c2.319,0,4.359-0.8,5.519-1.88L136,592.04z M123.003,583.402h10.918
		c-0.16-2.959-2.08-4.799-5.199-4.799C125.443,578.603,123.362,580.643,123.003,583.402z"/>
	<path fill="#FFFFFF" d="M140.802,576.003h3.2v2.12c1.24-1.44,3.639-2.52,6.119-2.52c5.119,0,8.318,3.799,8.318,9.118
		c0,5.479-3.72,9.679-9.358,9.679c-1.92,0-3.799-0.4-5.079-1.24v8.839h-3.2V576.003z M144.002,581.082v8.919
		c1.6,1.079,3.079,1.399,4.799,1.399c3.84,0,6.239-2.76,6.239-6.559c0-3.64-2.12-6.239-5.839-6.239
		C147.081,578.603,145.122,579.683,144.002,581.082z"/>
	<path fill="#FFFFFF" d="M177.696,591.401c-1.52,1.96-4.159,3-6.918,3c-5.719,0-9.639-3.72-9.639-9.398
		c0-5.239,3.839-9.398,9.118-9.398c2.88,0,5.399,0.68,7.079,2.359l-1.479,2.52c-1.52-1.4-3.28-1.88-5.159-1.88
		c-3.24,0-6.159,2.6-6.159,6.399c0,3.959,2.919,6.398,6.479,6.398c2.16,0,3.959-0.96,5.159-2.319L177.696,591.401z"/>
	<path fill="#FFFFFF" d="M180.755,576.003h3.199V594h-3.199V576.003z M188.633,584.602l8.639,9.398h-4.439l-8.118-9.198l7.599-8.799
		h4.199L188.633,584.602z"/>
	<path fill="#FFFFFF" d="M199.774,577.243c1.6-1,3.76-1.64,5.999-1.64c5.119,0,6.919,2.679,6.919,7.358V594h-3.039v-2.319
		c-1.08,1.359-2.8,2.6-5.759,2.6c-3.28,0-5.519-2.08-5.519-5.56c0-3.68,2.919-5.719,6.799-5.719c1.399,0,3.279,0.28,4.479,1.16
		c0-3.36-0.521-5.68-4.08-5.68c-2.2,0-3.52,0.561-4.959,1.32L199.774,577.243z M209.653,589.081v-2.28
		c-1.12-0.8-2.48-1.199-4.04-1.199c-1.919,0-3.839,0.88-3.839,2.959c0,1.72,1.16,2.84,3.239,2.84
		C207.372,591.401,208.733,590.16,209.653,589.081z"/>
	<path fill="#FFFFFF" d="M230.555,576.003V594h-3.199v-5.999h-3.479L219.477,594h-3.879l5.199-6.799
		c-1.84-0.44-3.88-2.239-3.88-5.199c0-3.079,2.04-5.999,8.039-5.999H230.555z M223.676,585.002h3.679v-5.999h-2.919
		c-3,0-4.12,1.399-4.12,3.079C220.317,583.922,222.076,585.002,223.676,585.002z"/>
	<path fill="#FFFFFF" d="M253.316,594c-2.64,6.438-4.319,7.999-6.879,7.999c-1.36,0-2.439-0.48-3.399-1.12l1.04-2.439
		c0.6,0.279,1.279,0.6,1.999,0.6c1.52,0,2.64-1.199,3.84-4.079l0.4-0.96l-8.639-17.997h3.839l5.279,11.438
		c0.399,0.92,0.72,1.8,1.079,2.719c0.24-0.879,0.521-1.799,0.84-2.759l4.16-11.398h3.639L253.316,594z"/>
	<path fill="#FFFFFF" d="M274.011,579.202h-6.319l-0.199,3.04c-0.801,10.238-3.52,11.998-7.239,11.998l-0.24-3.12
		c1.36,0.12,3.92-1.199,4.359-9.518l0.32-5.6h12.518V594h-3.199V579.202z"/>
	<path fill="#FFFFFF" d="M282.045,594v-17.997h3.199v13.397l10.398-13.397h3.199V594h-3.199v-13.397L285.244,594H282.045z"/>
	<path fill="#FFFFFF" d="M303.696,576.003h3.2v14.998h9.598v-14.998h3.199v14.998h3v7.398h-3V594h-15.997V576.003z"/>
	<path fill="#FFFFFF" d="M326.116,577.243c1.6-1,3.759-1.64,5.999-1.64c5.119,0,6.919,2.679,6.919,7.358V594h-3.04v-2.319
		c-1.079,1.359-2.799,2.6-5.759,2.6c-3.279,0-5.519-2.08-5.519-5.56c0-3.68,2.919-5.719,6.799-5.719c1.399,0,3.279,0.28,4.479,1.16
		c0-3.36-0.52-5.68-4.079-5.68c-2.199,0-3.52,0.561-4.959,1.32L326.116,577.243z M335.994,589.081v-2.28
		c-1.119-0.8-2.479-1.199-4.039-1.199c-1.92,0-3.839,0.88-3.839,2.959c0,1.72,1.159,2.84,3.239,2.84
		C333.715,591.401,335.074,590.16,335.994,589.081z"/>
	<path fill="#FFFFFF" d="M344.98,590.041c1.68,0,2.88,1.52,2.88,3.879c0,3-1.8,5.159-4.399,5.919l-0.88-1.52
		c1.08-0.36,2.199-1.2,2.56-2.68c0.24-1.04,0.16-1.64-0.04-2c-0.199,0.32-0.56,0.36-0.88,0.36c-0.8,0-1.52-0.8-1.52-1.84
		C342.7,590.921,343.5,590.041,344.98,590.041z"/>
	<path fill="#FFFFFF" d="M359.86,586.761c0-3.479,2.16-6.198,5.279-7.078v-0.12c-2.439-0.84-4.399-3.52-4.399-6.639
		c0-4.399,3.759-7.319,8.398-7.319s8.438,2.92,8.438,7.319c0,2.72-1.72,5.479-4.6,6.599v0.12c3.08,0.52,5.479,3.159,5.479,6.879
		c0,4.999-4.239,7.879-9.278,7.879S359.86,591.521,359.86,586.761z M368.778,581.202c-2.959,0-5.519,2.04-5.519,4.959
		c0,2.92,2.479,5.039,5.879,5.039c3.6,0,5.919-2.039,5.919-5.039c-0.04-3.159-2.479-4.959-5.398-4.959H368.778z M369.697,578.003
		c2.36,0,4.479-2.04,4.479-4.6c0-2.919-2.359-4.599-5.079-4.599c-2.76,0-4.959,1.799-4.959,4.599c0,2.56,2.119,4.6,4.52,4.6H369.697
		z"/>
	<path fill="#FFFFFF" d="M391.049,565.605l2.479,0.92l-13.277,35.794l-2.52-0.92L391.049,565.605z"/>
	<path fill="#FFFFFF" d="M393.887,591.401c4.559-4.479,12.518-12.038,12.518-17.997c0-2.479-1.52-4.52-4.56-4.52
		c-2.239,0-4.438,1.48-4.999,4.479l-2.72-1.119c0.681-4.16,4.079-6.56,7.999-6.56c5.239,0,7.679,3.6,7.679,7.079
		c0,7.839-9.519,16.277-11.758,18.237h12.917V594h-17.076V591.401z"/>
</g>
</svg>
