<?xml version="1.0" encoding="utf-8"?>
<!-- Generator: Adobe Illustrator 16.0.0, SVG Export Plug-In . SVG Version: 6.00 Build 0)  -->
<!DOCTYPE svg PUBLIC "-//W3C//DTD SVG 1.1//EN" "http://www.w3.org/Graphics/SVG/1.1/DTD/svg11.dtd">
<svg version="1.1" id="Layer_1" xmlns="http://www.w3.org/2000/svg" xmlns:xlink="http://www.w3.org/1999/xlink" x="0px" y="0px"
	 width="364.627px" height="364.41px" viewBox="0 0 364.627 364.41" enable-background="new 0 0 364.627 364.41"
	 xml:space="preserve">
<g>
	<g>
		<path fill="#FFFFFF" d="M192.128,364.41c-95.117,0-172.5-77.383-172.5-172.5s77.383-172.5,172.5-172.5s172.5,77.383,172.5,172.5
			S287.245,364.41,192.128,364.41z M192.128,21.41c-94.014,0-170.5,76.486-170.5,170.5s76.486,170.5,170.5,170.5
			c94.014,0,170.5-76.486,170.5-170.5S286.142,21.41,192.128,21.41z"/>
	</g>
	<path fill="#FFFFFF" d="M359.942,104.609c0.367,0.703,0.148,1.182-0.395,1.465c-0.512,0.266-1.148,0.292-1.539-0.459l-0.98-1.886
		l1.936-1.007L359.942,104.609z M356.409,108.152c-0.656,0.341-1.199,0.155-1.615-0.644l-1.07-2.061l1.964-1.022l1.006,1.934
		C357.225,107.382,356.952,107.87,356.409,108.152 M359.583,100.173l-8.304,4.316l2.01,3.864c0.938,1.805,2.078,2.712,3.947,1.74
		c0.959-0.499,1.301-1.285,1.195-2.264c0.658,0.367,1.439,0.427,2.318-0.03c1.549-0.805,1.639-2.229,0.76-3.923L359.583,100.173z
		 M354.347,97.597c1.681-1.008,2.292-2.926,0.923-5.211c-1.371-2.286-3.349-2.649-5.033-1.642l-2.439,1.463
		c-1.683,1.009-2.294,2.926-0.925,5.212c1.37,2.285,3.349,2.65,5.032,1.641L354.347,97.597z M348.415,96.494
		c-0.693-1.158-0.357-2.137,0.477-2.637l2.287-1.37c0.834-0.5,1.855-0.336,2.549,0.822c0.695,1.159,0.358,2.138-0.476,2.638
		l-2.286,1.37C350.132,97.817,349.11,97.653,348.415,96.494 M341.476,88.74l6.188-4.344l1.748,2.489l1.471-1.032l-4.633-6.599
		l-1.471,1.033l1.748,2.489l-6.188,4.345L341.476,88.74z M335.556,78.115c-0.82-1.029-0.679-1.924,0.082-2.528l2.282-1.815
		c0.761-0.606,1.664-0.541,2.481,0.487c0.74,0.931,0.623,1.853-0.137,2.458l-0.086,0.067l1.232,1.548l0.084-0.068
		c1.689-1.344,1.76-3.307,0.314-5.123c-1.492-1.875-3.486-2.218-5.148-0.895l-2.227,1.771c-1.662,1.321-1.777,3.344-0.287,5.217
		c1.414,1.775,3.431,2.146,5.094,0.824l0.098-0.078l-1.23-1.549l-0.127,0.102C337.22,79.139,336.295,79.045,335.556,78.115
		 M333.886,68.991c1.461-1.312,1.695-3.31-0.085-5.293c-1.78-1.982-3.793-1.964-5.253-0.652l-2.117,1.901
		c-1.459,1.311-1.693,3.31,0.086,5.292c1.78,1.983,3.793,1.964,5.254,0.653L333.886,68.991z M327.854,69.038
		c-0.902-1.005-0.758-2.03-0.035-2.681l1.982-1.779c0.725-0.65,1.76-0.684,2.661,0.32c0.903,1.006,0.759,2.031,0.035,2.681
		l-1.983,1.78C329.792,70.01,328.757,70.043,327.854,69.038 M323.956,56.293c0.57,0.551,0.516,1.074,0.091,1.516
		c-0.401,0.414-0.995,0.642-1.604,0.053l-1.529-1.475l1.514-1.57L323.956,56.293z M321.731,60.777
		c-0.513,0.531-1.086,0.529-1.733-0.096l-1.672-1.613l1.539-1.596l1.567,1.514C322.263,59.787,322.158,60.336,321.731,60.777
		 M322.202,52.202l-6.498,6.735l3.134,3.023c1.464,1.412,2.833,1.909,4.295,0.395c0.751-0.778,0.825-1.633,0.415-2.527
		c0.739,0.139,1.499-0.053,2.188-0.766c1.211-1.258,0.844-2.637-0.529-3.961L322.202,52.202z M320.36,47.125l0.468-0.547
		l-1.573-1.346l-5.07,1.439l0.735-5.15l-1.668-1.428l-0.468,0.547l-0.725,6.439l-6.764,1.839l-0.468,0.547l1.573,1.347l5.519-1.578
		l-0.719,5.686l1.668,1.428l0.468-0.547l0.758-7.003L320.36,47.125z M300.11,31.662c-0.668-0.458-0.761-1.023-0.406-1.543
		l0.112-0.163L298.42,29l-0.122,0.178c-0.884,1.293-0.411,2.705,1,3.67c1.411,0.967,2.899,0.896,3.783-0.396l0.122-0.179
		l-1.381-0.945l-0.112,0.164C301.354,32.012,300.793,32.129,300.11,31.662 M291.784,40.16l6.976-2.857l-3.557,5.197l1.632,1.117
		l5.285-7.723l-1.632-1.117l-6.976,2.859l3.557-5.199l-1.632-1.116l-5.285,7.722L291.784,40.16z M281.843,34.342
		c1.151,0.672,2.315,0.643,3.108,0.355l0.127,1.281l0.994,0.578l3.227-5.533c0.925-1.588,0.539-3.353-1.638-4.621
		c-2.178-1.271-3.857-0.711-4.764,0.846l1.662,0.969c0.381-0.652,1.154-0.869,2.196-0.262c1.043,0.607,1.235,1.387,0.772,2.182
		l-0.372,0.637l-1.774-1.033c-2.239-1.307-3.885-1.018-4.855,0.646C279.601,31.973,280.381,33.489,281.843,34.342 M283.091,32.988
		c-0.809-0.473-1.148-1.107-0.748-1.792c0.326-0.56,1.017-0.888,2.278-0.152l1.773,1.034l-0.698,1.197
		C284.889,33.516,283.978,33.505,283.091,32.988 M279.609,22.193l-6.305-3.086l-2.303,4.705c-0.656,1.342-1.392,1.903-2.443,1.39
		l-0.178-0.087l-0.791,1.617l0.436,0.213c1.552,0.76,3.416,0.229,4.666-2.326l1.503-3.072l2.845,1.393l-3.323,6.791l1.779,0.871
		L279.609,22.193z M266.775,19.73c0.754-1.812,0.104-3.719-2.356-4.741c-2.46-1.023-4.27-0.138-5.023,1.674l-1.092,2.626
		c-0.753,1.811-0.104,3.719,2.356,4.742c2.46,1.021,4.27,0.138,5.024-1.674L266.775,19.73z M261.351,22.369
		c-1.247-0.52-1.557-1.506-1.184-2.403l1.022-2.46c0.374-0.898,1.293-1.373,2.539-0.855c1.247,0.519,1.558,1.506,1.184,2.404
		l-1.022,2.459C263.517,22.411,262.598,22.887,261.351,22.369 M248.237,19.252l1.201-3.622l1.042,0.347l1.396,4.482l1.828,0.605
		l0.227-0.684l-1.522-4.732l3.86-2.836l0.227-0.684l-1.709-0.566l-3.746,2.778l-1.059-0.351l1.2-3.622l-1.879-0.623l-2.945,8.884
		L248.237,19.252z M235.878,15.702l5.611-5.035l-1.608,6.092l1.915,0.505l2.389-9.05l-1.915-0.505l-5.611,5.035l1.608-6.092
		l-1.914-0.506l-2.389,9.051L235.878,15.702z M221.749,12.783l0.976-5.275l5.133,0.951l-0.976,5.273l2.124,0.394l2.293-12.39
		l-2.124-0.393L228.202,6.6l-5.133-0.949l0.973-5.258L221.918,0l-2.293,12.391L221.749,12.783z M209.269,4.547l-13.047-0.744
		L196.119,5.6l13.047,0.744L209.269,4.547z M180.685,10.982c1.33-0.075,2.284-0.742,2.786-1.42l0.814,0.998l1.15-0.064l-0.365-6.398
		c-0.104-1.832-1.402-3.093-3.918-2.949c-2.516,0.144-3.608,1.541-3.506,3.338l1.923-0.11c-0.043-0.755,0.482-1.362,1.686-1.43
		c1.204-0.069,1.794,0.474,1.846,1.391l0.042,0.737l-2.049,0.115c-2.588,0.148-3.802,1.3-3.692,3.223
		C177.506,10.245,178.996,11.079,180.685,10.982 M180.978,9.164c-0.934,0.053-1.567-0.29-1.612-1.08
		c-0.037-0.646,0.359-1.301,1.814-1.384l2.049-0.117l0.079,1.384C182.768,8.611,182.003,9.105,180.978,9.164 M167.542,12.047
		l-0.457-3.788l3.913-0.473l0.458,3.789l1.965-0.238L172.3,2.045l-1.966,0.237l0.457,3.789l-3.913,0.472l-0.458-3.789l-1.965,0.238
		l1.121,9.292L167.542,12.047z M154.74,14.26l2.836-6.984l1.225,6.181l1.942-0.385l-1.819-9.183l-1.942,0.385l-2.837,6.985
		l-1.224-6.18l-1.943,0.384l1.819,9.182L154.74,14.26z M142.524,17.247l-1.929-7.31l3.724-0.982l1.93,7.309l1.914-0.505l-2.388-9.05
		l-7.554,1.993l2.389,9.051L142.524,17.247z M131.594,12.678l0.846,2.449l-2.263,0.782c-0.63,0.217-1.298,0.048-1.627-0.905
		c-0.229-0.664,0.083-1.304,0.798-1.551L131.594,12.678z M128.776,21.725l1.736-0.6l0.93-3.979l1.515-0.521l1.128,3.266l1.871-0.646
		l-3.055-8.847l-4.594,1.586c-1.463,0.505-2.251,1.863-1.616,3.699c0.522,1.516,1.56,2.147,2.708,2.056l-0.858,3.305L128.776,21.725
		z M121.261,14.631l-6.482,2.695l2.011,4.836c0.573,1.38,0.509,2.303-0.572,2.753l-0.183,0.076l0.691,1.661l0.449-0.187
		c1.596-0.663,2.428-2.413,1.336-5.038l-1.313-3.158l2.925-1.217l2.903,6.981l1.828-0.761L121.261,14.631z M109.082,30.721
		c1.19-0.6,1.798-1.592,1.988-2.414l1.145,0.592l1.029-0.519l-2.887-5.721c-0.827-1.64-2.52-2.277-4.769-1.142
		c-2.25,1.135-2.695,2.851-1.884,4.457l1.72-0.867c-0.341-0.674-0.102-1.44,0.974-1.983c1.077-0.543,1.835-0.28,2.248,0.539
		l0.333,0.659l-1.832,0.924c-2.314,1.168-2.969,2.708-2.101,4.427C105.873,31.313,107.572,31.484,109.082,30.721 M108.625,28.936
		c-0.835,0.422-1.552,0.36-1.909-0.347c-0.292-0.579-0.19-1.336,1.112-1.993l1.832-0.924l0.624,1.237
		C110.046,27.715,109.541,28.475,108.625,28.936 M89.724,41.793l12.473-7.684l-6.606-10.726l-1.837,1.132l5.616,9.119l-3.481,2.143
		l-5.616-9.118l-1.837,1.132l5.616,9.119l-3.481,2.145l-5.616-9.119l-1.838,1.131L89.724,41.793z M79.184,49.811l1.918-1.488
		l-1.5-1.932l-1.918,1.488L79.184,49.811z M73.872,54.21l1.623-1.422l-8.305-9.474l-1.488,1.305l1.638,10.172l-5.754-6.563
		l-1.622,1.422l8.305,9.473l1.487-1.305l-1.638-10.172L73.872,54.21z M59.072,68.461l1.665-1.768l-1.78-1.676l-1.665,1.767
		L59.072,68.461z M48.069,76.061c-1.085,1.301-2.637,1.389-3.715,0.487l-0.94-0.784c-1.077-0.9-1.267-2.443-0.181-3.742l0.577-0.691
		l4.837,4.04L48.069,76.061z M50.095,76.58l1.271,1.063l1.384-1.656l-1.271-1.063l0.519-0.621c1.709-2.046,2.035-4.82-0.162-6.654
		l-0.995-0.832c-2.196-1.836-4.868-1.021-6.577,1.024l-0.52,0.622l-1.105-0.923l-1.383,1.656l1.105,0.923l-0.519,0.623
		c-1.709,2.045-2.035,4.818,0.161,6.654l0.995,0.832c2.197,1.834,4.869,1.02,6.578-1.026L50.095,76.58z M50.03,73.714l-4.837-4.04
		l0.578-0.691c1.085-1.299,2.637-1.387,3.715-0.487l0.939,0.785c1.078,0.901,1.268,2.444,0.182,3.743L50.03,73.714z M31.863,87.837
		c-0.726,1.118-0.714,2.221-0.465,3.026l-1.276,0.051l-0.627,0.965l10.263,6.666l1.077-1.658l-3.184-2.067
		c0.713-0.074,1.676-0.501,2.383-1.588c1.02-1.57,0.938-3.426-1.039-4.709l-2.445-1.589C34.571,85.648,32.834,86.342,31.863,87.837
		 M32.911,91.739c-0.189-0.768-0.315-1.73,0.234-2.575c0.51-0.786,1.511-1.102,2.447-0.494l2.204,1.433
		c0.937,0.607,1.054,1.65,0.534,2.45c-0.55,0.847-1.471,1.107-2.248,1.246L32.911,91.739z M32.796,105.371
		c0.643-1.168,0.586-2.33,0.28-3.116l1.277-0.158l0.556-1.008l-5.611-3.092c-1.609-0.887-3.364-0.458-4.581,1.749
		c-1.216,2.208-0.615,3.874,0.962,4.743l0.929-1.687c-0.663-0.364-0.898-1.132-0.316-2.188c0.582-1.058,1.357-1.269,2.162-0.824
		l0.647,0.357l-0.991,1.798c-1.252,2.27-0.923,3.909,0.763,4.838C30.482,107.67,31.979,106.853,32.796,105.371 M31.413,104.156
		c-0.452,0.819-1.079,1.174-1.774,0.791c-0.568-0.313-0.911-0.996-0.207-2.274l0.991-1.798l1.215,0.67
		C31.896,102.345,31.908,103.257,31.413,104.156 M21.024,111.236c0.339-0.716,0.852-0.831,1.405-0.569
		c0.52,0.247,0.925,0.738,0.563,1.502l-0.911,1.919l-1.968-0.933L21.024,111.236z M25.981,111.914
		c0.667,0.316,0.848,0.86,0.462,1.673l-0.995,2.098l-2.001-0.948l0.934-1.968C24.874,111.729,25.428,111.652,25.981,111.914
		 M17.704,114.203l8.456,4.012l1.867-3.936c0.872-1.838,0.906-3.296-0.997-4.198c-0.975-0.463-1.809-0.261-2.527,0.415
		c-0.104-0.747-0.529-1.407-1.423-1.831c-1.578-0.748-2.769,0.041-3.587,1.765L17.704,114.203z M18.708,120.112
		c-1.829-0.708-3.72-0.013-4.682,2.472c-0.962,2.485-0.033,4.273,1.796,4.981l2.652,1.026c1.83,0.709,3.721,0.014,4.683-2.472
		c0.962-2.484,0.033-4.272-1.797-4.981L18.708,120.112z M21.478,125.47c-0.487,1.26-1.466,1.595-2.372,1.243l-2.485-0.962
		c-0.906-0.351-1.404-1.258-0.917-2.517c0.488-1.26,1.467-1.595,2.373-1.243l2.485,0.962
		C21.468,123.304,21.966,124.211,21.478,125.47 M18.317,139.429l-7.205-2.29l1.167-3.671l7.204,2.29l0.6-1.887l-8.92-2.835
		l-2.366,7.445l8.92,2.835L18.317,139.429z M2.781,153.247c-0.167,0.792-0.654,1.094-1.27,0.964l-0.194-0.041l-0.35,1.656
		l0.212,0.044c1.532,0.324,2.658-0.652,3.011-2.326c0.353-1.673-0.282-3.021-1.814-3.344l-0.211-0.045l-0.346,1.638l0.194,0.041
		C2.629,151.964,2.952,152.438,2.781,153.247 M13.819,157.693l-5.309-5.353l6.164,1.302l0.409-1.938l-9.158-1.933l-0.409,1.937
		l5.309,5.353l-6.164-1.303l-0.409,1.938l9.158,1.934L13.819,157.693z M12.595,164.589l-9.293-1.122l-0.237,1.966l9.292,1.122
		L12.595,164.589z M11.885,170.468c0.186-1.537-0.726-2.843-2.817-3.096c-2.091-0.252-3.288,0.8-3.473,2.337l-0.324,2.68
		l-3.002-0.361l-0.237,1.966l9.292,1.121L11.885,170.468z M9.846,172.942l-2.859-0.347l0.265-2.197
		c0.08-0.661,0.631-1.175,1.578-1.061c0.948,0.114,1.361,0.744,1.279,1.423L9.846,172.942z M10.716,185.92l-3.813-0.169l0.175-3.938
		l3.812,0.169l0.088-1.979l-9.351-0.415l-0.088,1.979l3.813,0.169l-0.175,3.938l-3.812-0.169l-0.088,1.979l9.351,0.415
		L10.716,185.92z M4.588,200.6c2.178-0.041,3.049-1.552,3.006-3.802c-0.015-0.827-0.155-1.545-0.291-2.082l3.347-0.063l-0.037-1.98
		l-9.359,0.178l0.038,1.98l4.247-0.081c0.117,0.448,0.235,1.004,0.25,1.76c0.024,1.259-0.357,2.096-1.436,2.115l-2.988,0.057
		l0.038,1.98L4.588,200.6z M11.61,210.929l-6.664-3.523l6.271-0.598l-0.187-1.971l-9.318,0.887l0.187,1.972l6.664,3.523
		l-6.271,0.598l0.187,1.971l9.318-0.887L11.61,210.929z M1.237,227.559l5.671-0.902c3.341-0.532,4.89-0.306,5.134,1.224l0.054,0.338
		l1.955-0.312L14,227.586c-0.43-2.702-2.711-3.633-7.048-2.942l-4.16,0.662l-0.586-3.679l10.577-1.684l-0.34-2.135L0,219.791
		L1.237,227.559z"/>
</g>
</svg>
