<?xml version="1.0" encoding="utf-8"?>
<!-- Generator: Adobe Illustrator 16.0.0, SVG Export Plug-In . SVG Version: 6.00 Build 0)  -->
<!DOCTYPE svg PUBLIC "-//W3C//DTD SVG 1.1//EN" "http://www.w3.org/Graphics/SVG/1.1/DTD/svg11.dtd">
<svg version="1.1" id="Layer_1" xmlns="http://www.w3.org/2000/svg" xmlns:xlink="http://www.w3.org/1999/xlink" x="0px" y="0px"
	 width="467.352px" height="467.353px" viewBox="0 0 467.352 467.353" enable-background="new 0 0 467.352 467.353"
	 xml:space="preserve">
<g>
	<g>
		<path fill="#FFFFFF" d="M233.676,467.353c-62.417,0-121.099-24.307-165.234-68.442S0,296.094,0,233.677
			S24.307,112.578,68.442,68.442S171.258,0,233.676,0S354.774,24.307,398.91,68.442s68.442,102.817,68.442,165.234
			S443.045,354.774,398.91,398.91S296.093,467.353,233.676,467.353z M233.676,2C105.929,2,2,105.93,2,233.677
			c0,127.746,103.929,231.676,231.676,231.676s231.676-103.93,231.676-231.676C465.352,105.93,361.422,2,233.676,2z"/>
	</g>
	<path fill="#FFFFFF" d="M402.434,97.981c-0.754,0.615-1.691,0.52-2.499-0.472c-0.81-0.991-0.713-1.929,0.041-2.543l0.461-0.376
		l2.458,3.015L402.434,97.981z M400.357,92.104l-1.631,1.33c-1.675,1.365-1.71,3.342-0.23,5.157c1.535,1.883,3.568,2.244,5.216,0.9
		l2.231-1.818c1.675-1.366,1.676-3.385,0.14-5.27c-1.445-1.771-3.2-2.104-4.779-1.049l1.25,1.533
		c0.688-0.352,1.442-0.199,2.136,0.652c0.854,1.047,0.73,2.008-0.023,2.623l-0.602,0.488L400.357,92.104z M415.357,104.839
		l-3.069,2.267l-2.344-3.173l3.069-2.268l-1.174-1.59l-7.528,5.559l1.175,1.591l3.07-2.267l2.343,3.173l-3.069,2.267l1.175,1.592
		l7.527-5.56L415.357,104.839z M415.064,118.112c-0.432-0.666-0.261-1.162,0.253-1.496c0.483-0.314,1.114-0.402,1.575,0.308
		l1.158,1.782l-1.828,1.188L415.064,118.112z M418.241,114.243c0.619-0.401,1.178-0.271,1.669,0.484l1.266,1.949l-1.859,1.207
		l-1.187-1.827C417.502,115.09,417.728,114.577,418.241,114.243 M415.853,122.493l7.848-5.099l-2.372-3.651
		c-1.108-1.707-2.331-2.498-4.097-1.352c-0.906,0.589-1.171,1.404-0.973,2.368c-0.689-0.302-1.473-0.286-2.304,0.254
		c-1.465,0.951-1.416,2.378-0.377,3.978L415.853,122.493z M421.138,125.133c-1.707,0.968-2.364,2.87-1.05,5.188
		c1.313,2.316,3.284,2.729,4.991,1.762l2.475-1.403c1.707-0.968,2.364-2.87,1.05-5.188c-1.313-2.317-3.284-2.729-4.991-1.762
		L421.138,125.133z M427.04,126.378c0.666,1.176,0.306,2.146-0.54,2.625l-2.318,1.314c-0.846,0.48-1.864,0.291-2.53-0.884
		c-0.667-1.175-0.306-2.146,0.54-2.625l2.318-1.315C425.355,125.015,426.374,125.204,427.04,126.378 M425.575,140.896
		c0.585,1.197,1.537,1.752,2.357,1.953l-0.614,1.121l0.508,1.035l10.993-5.381l-0.869-1.778l-3.412,1.67
		c0.304-0.649,0.433-1.694-0.137-2.858c-0.822-1.683-2.458-2.565-4.575-1.529l-2.619,1.281
		C425.089,137.446,424.791,139.296,425.575,140.896 M429.462,141.999c-0.755-0.231-1.646-0.617-2.089-1.522
		c-0.411-0.841-0.169-1.86,0.834-2.353l2.359-1.154c1.003-0.49,1.957-0.055,2.376,0.801c0.443,0.906,0.194,1.829-0.086,2.568
		L429.462,141.999z M432.764,148.243c-1.812,0.752-2.697,2.563-1.674,5.022c1.022,2.46,2.93,3.11,4.742,2.356l2.626-1.092
		c1.812-0.754,2.696-2.563,1.674-5.023c-1.023-2.46-2.93-3.109-4.742-2.356L432.764,148.243z M438.47,150.198
		c0.518,1.246,0.042,2.166-0.855,2.539l-2.46,1.022c-0.897,0.373-1.885,0.062-2.402-1.185c-0.519-1.246-0.042-2.166,0.854-2.539
		l2.46-1.022C436.964,148.641,437.951,148.952,438.47,150.198 M440.48,165.501l-2.416,0.834l-1.052-3.047l5.445-1.879l1.287,3.727
		C442.804,165.003,441.654,165.095,440.48,165.501 M445.839,158.737l-0.635-1.838l-3.846,1.328l0.453,1.311l-7.146,2.467
		l2.309,6.687l3.828-1.321c1.616-0.559,2.811-0.629,3.646-0.193l0.283,0.816l3.846-1.328l-0.636-1.836l-2.144,0.74l-2.104-6.092
		L445.839,158.737z M438.156,177.636l-0.528-1.908l-1.908,0.529l0.529,1.908L438.156,177.636z M439.104,181.053l-0.528-1.908
		l-1.908,0.529l0.528,1.907L439.104,181.053z M443.294,179.051c-0.937,0.259-1.756-0.204-2.099-1.437
		c-0.341-1.23,0.123-2.051,1.06-2.311l0.573-0.159l1.038,3.747L443.294,179.051z M443.756,172.833l-2.03,0.563
		c-2.081,0.577-2.909,2.376-2.283,4.631c0.649,2.342,2.368,3.49,4.415,2.922l2.775-0.769c2.082-0.578,2.895-2.429,2.246-4.771
		c-0.611-2.203-2.087-3.213-3.956-2.881l0.529,1.907c0.771-0.045,1.398,0.397,1.691,1.455c0.361,1.301-0.138,2.13-1.074,2.39
		l-0.746,0.207L443.756,172.833z M449.33,193.314c0.329,1.66-0.577,2.922-1.954,3.195l-1.201,0.238
		c-1.377,0.271-2.696-0.55-3.025-2.209l-0.175-0.883l6.18-1.225L449.33,193.314z M451.009,192.064l1.624-0.322l-0.419-2.118
		l-1.625,0.321l-0.157-0.794c-0.518-2.613-2.473-4.611-5.281-4.056l-1.271,0.252c-2.809,0.556-3.854,3.149-3.336,5.762l0.157,0.795
		l-1.412,0.28l0.42,2.119l1.412-0.28l0.157,0.794c0.518,2.614,2.474,4.612,5.28,4.056l1.272-0.251
		c2.807-0.558,3.853-3.149,3.335-5.764L451.009,192.064z M448.734,190.313l-6.18,1.226l-0.174-0.884
		c-0.329-1.66,0.577-2.922,1.954-3.194l1.201-0.238c1.377-0.273,2.695,0.549,3.023,2.209L448.734,190.313z M449.547,216.259
		c-0.968,0.092-1.694-0.508-1.815-1.78c-0.121-1.271,0.479-1.999,1.446-2.091l0.592-0.056l0.368,3.87L449.547,216.259z
		 M451.087,210.218l-2.097,0.199c-2.15,0.205-3.279,1.831-3.058,4.16c0.23,2.42,1.723,3.851,3.837,3.649l2.867-0.273
		c2.15-0.204,3.274-1.885,3.044-4.304c-0.217-2.275-1.493-3.528-3.391-3.528l0.187,1.971c0.769,0.09,1.309,0.635,1.412,1.728
		c0.128,1.345-0.508,2.074-1.475,2.166l-0.771,0.073L451.087,210.218z M456.313,228.996l-3.813,0.12l-0.124-3.939l3.813-0.121
		l-0.063-1.979l-9.355,0.297l0.063,1.979l3.813-0.121l0.125,3.94l-3.813,0.121l0.063,1.979l9.355-0.296L456.313,228.996z
		 M456.21,243.067l-6.221-4.259l6.3,0.12l0.038-1.98l-9.359-0.178l-0.037,1.98l6.22,4.259l-6.299-0.12l-0.038,1.979l9.359,0.178
		L456.21,243.067z M445.903,253.125c-0.108,1.326,0.426,2.292,1.027,2.884l-1.101,0.648l-0.096,1.148l12.199,1.006l0.162-1.973
		l-3.785-0.313c0.593-0.402,1.24-1.234,1.346-2.525c0.154-1.866-0.798-3.461-3.147-3.655l-2.906-0.24
		C447.253,249.912,446.051,251.349,445.903,253.125 M448.678,256.062c-0.529-0.585-1.097-1.372-1.014-2.377
		c0.076-0.933,0.807-1.685,1.92-1.594l2.619,0.216c1.111,0.092,1.709,0.954,1.631,1.905c-0.083,1.004-0.771,1.67-1.39,2.161
		L448.678,256.062z M453.92,266.688l0.313-2.138l-12.468-1.824l-0.286,1.959l7.845,6.678l-8.638-1.264l-0.313,2.137l12.468,1.825
		l0.286-1.959l-7.846-6.679L453.92,266.688z M443.681,285.181l-3.335,12.636l1.74,0.459l3.335-12.635L443.681,285.181z
		 M440.837,316.112c0.48-1.241,0.268-2.386-0.143-3.124l1.247-0.328l0.416-1.073l-5.976-2.314c-1.712-0.663-3.396-0.003-4.306,2.347
		c-0.91,2.351-0.091,3.923,1.588,4.572l0.695-1.796c-0.705-0.272-1.041-1.001-0.604-2.126c0.435-1.124,1.174-1.437,2.03-1.104
		l0.688,0.266l-0.741,1.914c-0.936,2.417-0.39,3.999,1.406,4.694C438.85,318.701,440.226,317.69,440.837,316.112 M439.301,315.094
		c-0.338,0.873-0.911,1.307-1.65,1.021c-0.604-0.233-1.036-0.864-0.509-2.224l0.741-1.914l1.292,0.501
		C439.538,313.235,439.672,314.137,439.301,315.094 M434.929,329.136l-3.467-1.593l1.646-3.582l3.468,1.593l0.826-1.799
		l-8.505-3.908l-0.827,1.799l3.469,1.593l-1.646,3.582l-3.468-1.593l-0.826,1.799l8.505,3.908L434.929,329.136z M428.543,341.562
		l-3.598-6.625l5.554,2.973l0.933-1.742l-8.25-4.417l-0.933,1.742l3.597,6.625l-5.552-2.973l-0.935,1.744l8.25,4.417
		L428.543,341.562z M421.541,353.321l-6.438-3.965l2.021-3.282l6.437,3.966l1.038-1.685l-7.968-4.907l-4.096,6.649l7.968,4.908
		L421.541,353.321z M409.798,357.093l2.123,1.49l-1.376,1.961c-0.383,0.545-1.024,0.8-1.851,0.22
		c-0.574-0.404-0.697-1.106-0.263-1.726L409.798,357.093z M412.816,366.074l1.055-1.501l-1.577-3.77l0.922-1.313l2.828,1.986
		l1.137-1.618l-7.659-5.378l-2.792,3.978c-0.89,1.267-0.732,2.826,0.858,3.943c1.312,0.921,2.521,0.826,3.396,0.079l1.243,3.179
		L412.816,366.074z M402.216,364.472l-4.369,5.491l4.099,3.261c1.17,0.93,1.561,1.77,0.832,2.686l-0.123,0.155l1.406,1.119
		l0.302-0.38c1.076-1.353,0.958-3.284-1.267-5.054l-2.678-2.132l1.974-2.479l5.916,4.706l1.231-1.547L402.216,364.472z
		 M397.775,384.532c0.891-0.99,1.098-2.137,0.978-2.971l1.28,0.135l0.769-0.855l-4.767-4.281c-1.367-1.227-3.174-1.207-4.857,0.668
		c-1.684,1.876-1.475,3.634-0.137,4.838l1.287-1.432c-0.563-0.506-0.619-1.308,0.187-2.204c0.808-0.898,1.608-0.928,2.292-0.314
		l0.55,0.493l-1.372,1.528c-1.731,1.929-1.781,3.599-0.35,4.885C395.002,386.25,396.645,385.792,397.775,384.532 M396.703,383.036
		c-0.627,0.697-1.317,0.9-1.906,0.37c-0.483-0.433-0.663-1.176,0.313-2.261l1.37-1.528l1.033,0.928
		C397.582,381.383,397.389,382.273,396.703,383.036 M381.264,400.696l10.543-10.173l-8.747-9.064l-1.553,1.498l7.437,7.707
		L386,393.503l-7.436-7.707l-1.553,1.498l7.436,7.707l-2.941,2.839l-7.436-7.708l-1.554,1.499L381.264,400.696z M368.89,410.658
		l1.899-1.511l-1.522-1.914l-1.899,1.513L368.89,410.658z M362.395,415.4l1.766-1.24l-7.239-10.31l-1.618,1.136l0.535,10.29
		l-5.015-7.144l-1.766,1.24l7.239,10.31l1.618-1.137l-0.535-10.288L362.395,415.4z M342.615,427.959l2.098-1.224l-1.232-2.111
		l-2.097,1.222L342.615,427.959z M328.68,431.479c-1.511,0.762-2.969,0.229-3.602-1.025l-0.551-1.093
		c-0.633-1.254-0.195-2.744,1.315-3.507l0.804-0.405l2.838,5.625L328.68,431.479z M330.335,432.761l0.746,1.478l1.928-0.973
		l-0.746-1.478l0.724-0.365c2.378-1.2,3.778-3.62,2.489-6.175l-0.584-1.157c-1.289-2.556-4.068-2.867-6.446-1.667l-0.723,0.365
		l-0.649-1.286l-1.928,0.973l0.648,1.286l-0.723,0.364c-2.378,1.199-3.778,3.621-2.489,6.176l0.584,1.157
		c1.289,2.555,4.067,2.866,6.446,1.667L330.335,432.761z M331.412,430.101l-2.838-5.625l0.804-0.405
		c1.51-0.763,2.969-0.229,3.602,1.025l0.551,1.093c0.633,1.253,0.195,2.744-1.315,3.506L331.412,430.101z M308.224,443.596
		l1.676-7.35l2.203,5.902l1.855-0.691l-3.272-8.771l-1.855,0.693l-1.677,7.349l-2.202-5.902l-1.855,0.692l3.272,8.771
		L308.224,443.596z M295.086,437.798c-1.274,0.388-1.975,1.241-2.303,2.018l-1.009-0.784l-1.103,0.335l3.563,11.71l1.894-0.575
		l-1.105-3.635c0.593,0.403,1.604,0.697,2.844,0.32c1.791-0.545,2.923-2.018,2.237-4.273l-0.849-2.79
		C298.569,437.866,296.791,437.278,295.086,437.798 M293.378,441.46c0.349-0.708,0.871-1.526,1.836-1.819
		c0.895-0.273,1.864,0.129,2.189,1.196l0.765,2.515c0.325,1.067-0.256,1.94-1.169,2.218c-0.965,0.293-1.837-0.1-2.521-0.494
		L293.378,441.46z M280.992,445.051c-0.225-0.946,0.269-1.748,1.513-2.043c1.243-0.295,2.045,0.199,2.27,1.145l0.137,0.577
		l-3.783,0.899L280.992,445.051z M287.188,445.743l-0.487-2.049c-0.499-2.101-2.265-2.996-4.542-2.455
		c-2.364,0.562-3.576,2.237-3.085,4.304l0.665,2.802c0.499,2.102,2.318,2.982,4.682,2.422c2.224-0.528,3.289-1.965,3.028-3.845
		l-1.927,0.457c0.017,0.772-0.448,1.383-1.517,1.637c-1.313,0.312-2.123-0.218-2.348-1.163l-0.179-0.753L287.188,445.743z
		 M266.21,447.872c0.396,2.142,2.029,2.755,4.241,2.346c0.814-0.151,1.5-0.406,2.008-0.628l0.609,3.292l1.947-0.361l-1.704-9.203
		l-1.947,0.36l0.773,4.177c-0.422,0.188-0.951,0.396-1.695,0.534c-1.239,0.229-2.125-0.01-2.321-1.072l-0.544-2.938l-1.947,0.36
		L266.21,447.872z M261.733,448.456c-0.235-1.948-1.738-3.29-4.383-2.972c-2.645,0.32-3.786,1.98-3.551,3.929l0.341,2.823
		c0.235,1.948,1.739,3.289,4.383,2.971c2.646-0.319,3.786-1.98,3.551-3.929L261.733,448.456z M258.308,453.42
		c-1.341,0.162-2.097-0.545-2.213-1.511l-0.319-2.645c-0.117-0.965,0.449-1.831,1.79-1.993c1.34-0.161,2.096,0.545,2.212,1.51
		l0.32,2.646C260.214,452.392,259.647,453.258,258.308,453.42 M243.052,451.17l-0.146-2.552l3.217-0.184l0.328,5.751l-3.936,0.224
		C242.899,453.541,243.123,452.409,243.052,451.17 M248.102,458.166l1.941-0.11l-0.231-4.063l-1.384,0.079l-0.431-7.548
		l-7.062,0.403l0.23,4.044c0.098,1.707-0.16,2.875-0.806,3.561l-0.863,0.05l0.232,4.062l1.941-0.111l-0.129-2.264l6.433-0.367
		L248.102,458.166z M222.333,456.319c1.331,0.042,2.34-0.539,2.9-1.169l0.723,1.067l1.151,0.037l0.203-6.405
		c0.058-1.835-1.123-3.205-3.642-3.285c-2.519-0.08-3.73,1.214-3.787,3.014l1.925,0.062c0.024-0.756,0.6-1.314,1.805-1.276
		c1.206,0.038,1.745,0.633,1.716,1.55l-0.023,0.737l-2.051-0.064c-2.591-0.082-3.903,0.957-3.963,2.882
		C219.232,455.303,220.643,456.266,222.333,456.319 M222.787,454.532c-0.936-0.029-1.536-0.427-1.511-1.218
		c0.021-0.647,0.473-1.264,1.93-1.218l2.051,0.064l-0.044,1.386C224.618,454.141,223.812,454.564,222.787,454.532 M211.635,447.606
		c0.789,0.075,1.072,0.519,1.014,1.127c-0.054,0.573-0.378,1.121-1.22,1.041l-2.114-0.201l0.206-2.168L211.635,447.606z
		 M212.688,452.499c-0.07,0.733-0.52,1.089-1.416,1.004l-2.311-0.221l0.209-2.204l2.169,0.206
		C212.486,451.395,212.747,451.89,212.688,452.499 M207.714,445.498l-0.887,9.317l4.336,0.412c2.025,0.193,3.407-0.271,3.607-2.368
		c0.102-1.076-0.372-1.79-1.252-2.234c0.666-0.354,1.142-0.977,1.235-1.962c0.166-1.738-0.983-2.59-2.882-2.77L207.714,445.498z
		 M202.402,448.029c0.308-1.938-0.77-3.64-3.4-4.059c-2.631-0.419-4.184,0.865-4.493,2.802l-0.447,2.81
		c-0.309,1.937,0.769,3.64,3.4,4.059c2.631,0.419,4.184-0.865,4.492-2.802L202.402,448.029z M197.745,451.862
		c-1.333-0.212-1.867-1.099-1.714-2.059l0.419-2.631c0.153-0.959,0.935-1.638,2.269-1.425c1.333,0.213,1.866,1.1,1.713,2.06
		l-0.419,2.63C199.86,451.397,199.078,452.075,197.745,451.862 M186.354,451.314l1.561-7.396l2.977,0.629l0.372-1.763l-7.89-1.666
		l-0.372,1.762l2.976,0.629l-1.562,7.396L186.354,451.314z M174.037,446.631c-1.267-0.352-1.678-1.156-1.419-2.093l0.779-2.811
		c0.26-0.937,1.028-1.415,2.294-1.063c1.145,0.317,1.591,1.133,1.332,2.068l-0.029,0.104l1.908,0.528l0.029-0.104
		c0.577-2.081-0.521-3.712-2.759-4.332c-2.307-0.64-4.125,0.257-4.692,2.303l-0.76,2.741c-0.568,2.047,0.529,3.752,2.836,4.392
		c2.185,0.606,4.038-0.281,4.605-2.327l0.034-0.122l-1.908-0.529l-0.044,0.156C175.984,446.479,175.181,446.947,174.037,446.631
		 M166.857,439.753c0.618-1.863-0.171-3.718-2.7-4.556c-2.528-0.839-4.268,0.178-4.886,2.04l-0.895,2.699
		c-0.617,1.862,0.171,3.717,2.7,4.555c2.529,0.839,4.269-0.178,4.886-2.04L166.857,439.753z M161.642,442.783
		c-1.281-0.425-1.664-1.387-1.358-2.309l0.838-2.529c0.306-0.922,1.188-1.465,2.469-1.04c1.281,0.426,1.664,1.387,1.358,2.31
		l-0.838,2.528C163.805,442.666,162.924,443.208,161.642,442.783 M152.237,432.771c0.735,0.295,0.882,0.8,0.654,1.368
		c-0.215,0.535-0.68,0.969-1.465,0.653l-1.971-0.791l0.811-2.021L152.237,432.771z M151.864,437.761
		c-0.275,0.685-0.807,0.897-1.642,0.563l-2.155-0.864l0.825-2.056l2.021,0.813C151.982,436.645,152.092,437.192,151.864,437.761
		 M149.073,429.639l-3.487,8.686l4.042,1.623c1.888,0.758,3.345,0.702,4.13-1.252c0.402-1.002,0.149-1.82-0.569-2.498
		c0.739-0.148,1.371-0.612,1.74-1.531c0.651-1.62-0.21-2.762-1.981-3.473L149.073,429.639z M145.879,425.396l0.309-0.651
		l-1.87-0.887l-4.517,2.718l-0.639-5.162l-1.984-0.942l-0.308,0.651l0.986,6.404l-6.046,3.547l-0.308,0.65l1.87,0.888l4.914-2.969
		l0.794,5.676l1.984,0.942l0.309-0.651l-1.103-6.958L145.879,425.396z M118.549,424.351l2.097,1.223l1.232-2.112l-2.097-1.224
		L118.549,424.351z M107.416,417.149l2.976-4.463l4.345,2.898l-2.976,4.462l1.795,1.196l6.989-10.48l-1.795-1.197l-2.966,4.448
		l-4.345-2.897l2.966-4.447l-1.795-1.197l-6.989,10.48L107.416,417.149z M98.936,403.259c1.24-1.521,1.163-3.532-0.902-5.216
		s-4.051-1.354-5.291,0.167l-1.798,2.205c-1.24,1.521-1.163,3.531,0.903,5.216c2.065,1.683,4.05,1.354,5.29-0.167L98.936,403.259z
		 M92.984,404.237c-1.047-0.854-1.063-1.889-0.449-2.643l1.684-2.065c0.615-0.754,1.632-0.946,2.679-0.093
		c1.047,0.854,1.062,1.888,0.448,2.642l-1.684,2.065C95.048,404.897,94.03,405.091,92.984,404.237 M82.743,393.747l0.689,0.634
		l4.185-1.065l-4.264,4.636l1.455,1.34l6.335-6.889l-1.455-1.339l-5.019,1.229l0.857-5.057l-1.455-1.338l-6.336,6.887l1.456,1.34
		l4.264-4.637L82.743,393.747z M72.39,387.208c1.075,1.112,2.662,1.23,4.178-0.232c1.516-1.462,1.455-3.052,0.38-4.166l-2.001-2.074
		l2.177-2.1l-1.374-1.423l-6.734,6.498L72.39,387.208z M71.631,383.936l2.075-2.002l1.663,1.724c0.463,0.48,0.513,1.232-0.174,1.896
		s-1.438,0.586-1.913,0.094L71.631,383.936z M64.208,375.692c-0.855-0.999-0.747-1.897-0.008-2.529l2.216-1.897
		c0.739-0.632,1.643-0.6,2.498,0.399c0.773,0.902,0.688,1.828-0.051,2.461l-0.082,0.069l1.286,1.503l0.082-0.069
		c1.641-1.405,1.641-3.368,0.131-5.133c-1.557-1.819-3.564-2.091-5.178-0.71l-2.161,1.851c-1.614,1.381-1.656,3.405-0.099,5.225
		c1.475,1.724,3.505,2.021,5.118,0.641l0.096-0.082l-1.286-1.502l-0.123,0.104C65.909,376.654,64.982,376.596,64.208,375.692
		 M53.441,364.533l7.522-0.5l-5.021,3.803l1.193,1.577l7.461-5.649l-1.194-1.577l-7.522,0.5l5.021-3.802l-1.194-1.577l-7.46,5.649
		L53.441,364.533z M44.941,351.942l8.981-5.835l2.786,4.289l-8.981,5.835l1.176,1.81l10.564-6.863l-5.137-7.907l-10.564,6.863
		L44.941,351.942z"/>
</g>
</svg>
