<?xml version="1.0" encoding="utf-8"?>
<!-- Generator: Adobe Illustrator 16.0.0, SVG Export Plug-In . SVG Version: 6.00 Build 0)  -->
<!DOCTYPE svg PUBLIC "-//W3C//DTD SVG 1.1//EN" "http://www.w3.org/Graphics/SVG/1.1/DTD/svg11.dtd">
<svg version="1.1" id="Layer_1" xmlns="http://www.w3.org/2000/svg" xmlns:xlink="http://www.w3.org/1999/xlink" x="0px" y="0px"
	 width="547.347px" height="547.346px" viewBox="0 0 547.347 547.346" enable-background="new 0 0 547.347 547.346"
	 xml:space="preserve">
<g>
	<g>
		<path fill="#FFFFFF" d="M273.674,547.346c-73.101,0-141.826-28.467-193.517-80.156C28.467,415.499,0,346.773,0,273.673
			S28.467,131.847,80.157,80.157C131.848,28.467,200.573,0,273.674,0S415.5,28.467,467.189,80.157
			c51.69,51.689,80.157,120.415,80.157,193.516s-28.467,141.826-80.157,193.517C415.5,518.879,346.774,547.346,273.674,547.346z
			 M273.674,2C123.872,2,2,123.872,2,273.673s121.872,271.673,271.674,271.673c149.801,0,271.673-121.872,271.673-271.673
			S423.475,2,273.674,2z"/>
	</g>
	<g>
		<path fill="#FFFFFF" d="M509.566,389.843c0.585-1.195,0.471-2.354,0.126-3.124l1.27-0.22l0.508-1.035l-5.757-2.816
			c-1.648-0.808-3.384-0.293-4.491,1.971c-1.107,2.263-0.426,3.9,1.191,4.691l0.847-1.73c-0.68-0.332-0.951-1.087-0.422-2.17
			c0.53-1.083,1.293-1.331,2.118-0.928l0.662,0.325l-0.901,1.843c-1.14,2.328-0.731,3.951,0.998,4.797
			C507.365,392.253,508.822,391.363,509.566,389.843 M508.123,388.697c-0.411,0.84-1.02,1.224-1.73,0.876
			c-0.582-0.285-0.958-0.95-0.317-2.26l0.902-1.844l1.244,0.609C508.519,386.866,508.574,387.775,508.123,388.697 M497.487,396.077
			c0.374-0.698,0.892-0.789,1.432-0.5c0.51,0.273,0.89,0.783,0.49,1.529l-1.003,1.874l-1.922-1.029L497.487,396.077z
			 M502.407,396.996c0.651,0.348,0.805,0.901,0.38,1.694l-1.097,2.049l-1.953-1.046l1.028-1.922
			C501.31,396.755,501.867,396.706,502.407,396.996 M494.029,398.88l8.249,4.417l2.056-3.84c0.96-1.793,1.065-3.246-0.791-4.24
			c-0.953-0.51-1.794-0.348-2.544,0.29c-0.067-0.749-0.46-1.428-1.333-1.896c-1.539-0.824-2.766-0.094-3.667,1.588L494.029,398.88z
			 M494.44,404.483c-1.685-1.009-3.663-0.645-5.033,1.641c-1.369,2.285-0.758,4.203,0.925,5.212l2.44,1.462
			c1.683,1.01,3.663,0.645,5.032-1.641s0.759-4.203-0.925-5.212L494.44,404.483z M496.263,410.233
			c-0.694,1.158-1.717,1.322-2.551,0.823l-2.285-1.371c-0.834-0.499-1.172-1.479-0.478-2.638c0.695-1.157,1.717-1.322,2.551-0.822
			l2.286,1.369C496.62,408.095,496.957,409.074,496.263,410.233 M491.75,420.14l-6.289-4.194l1.688-2.531l-1.495-0.997l-4.473,6.707
			l1.496,0.997l1.687-2.531l6.29,4.195L491.75,420.14z M483.118,429.585c-0.781,1.059-1.681,1.155-2.463,0.577l-2.347-1.733
			c-0.782-0.577-0.954-1.466-0.173-2.523c0.707-0.956,1.628-1.082,2.409-0.504l0.087,0.063l1.176-1.591l-0.087-0.063
			c-1.738-1.283-3.651-0.842-5.031,1.026c-1.422,1.928-1.235,3.943,0.473,5.204l2.289,1.691c1.709,1.261,3.69,0.848,5.113-1.079
			c1.348-1.824,1.182-3.869-0.527-5.131l-0.101-0.075l-1.175,1.591l0.13,0.096C483.673,427.712,483.824,428.629,483.118,429.585
			 M474.456,433.441c-1.521-1.24-3.532-1.163-5.215,0.901c-1.684,2.065-1.354,4.051,0.167,5.29l2.205,1.799
			c1.521,1.239,3.532,1.162,5.215-0.902c1.685-2.065,1.354-4.051-0.167-5.29L474.456,433.441z M475.436,439.394
			c-0.854,1.047-1.89,1.063-2.643,0.447l-2.065-1.684c-0.753-0.614-0.946-1.631-0.093-2.678s1.889-1.063,2.642-0.448l2.066,1.684
			C476.097,437.329,476.289,438.346,475.436,439.394 M463.046,444.502c0.53-0.59,1.056-0.554,1.511-0.145
			c0.429,0.385,0.678,0.971,0.111,1.601l-1.42,1.582l-1.622-1.457L463.046,444.502z M467.607,446.564
			c0.549,0.494,0.566,1.066-0.034,1.736l-1.553,1.729l-1.649-1.481l1.457-1.621C466.599,446.069,467.151,446.155,467.607,446.564
			 M459.021,446.401l6.962,6.253l2.91-3.24c1.358-1.514,1.807-2.899,0.239-4.307c-0.804-0.723-1.659-0.767-2.539-0.323
			c0.112-0.745-0.107-1.497-0.845-2.159c-1.299-1.167-2.664-0.75-3.938,0.67L459.021,446.401z M454.163,447.821l-0.512-0.506
			l-1.455,1.473l1.074,5.16l-5.085-1.101l-1.543,1.562l0.512,0.506l6.37,1.184l1.352,6.877l0.513,0.506l1.455-1.473l-1.18-5.618
			l5.619,1.124l1.544-1.563l-0.512-0.506l-6.931-1.256L454.163,447.821z M440.324,466.739l1.687,1.971l-1.82,1.558
			c-0.506,0.433-1.19,0.521-1.846-0.246c-0.457-0.534-0.401-1.245,0.173-1.737L440.324,466.739z M441.02,476.189l1.394-1.193
			l-0.592-4.042l1.218-1.043l2.247,2.626l1.503-1.286l-6.085-7.109l-3.691,3.159c-1.177,1.007-1.411,2.558-0.147,4.034
			c1.042,1.217,2.237,1.425,3.271,0.918l0.415,3.39L441.02,476.189z M433.621,482.32c1.053-0.818,1.461-1.908,1.491-2.75l1.235,0.36
			l0.908-0.706l-3.928-5.061c-1.126-1.451-2.908-1.753-4.898-0.207c-1.991,1.545-2.099,3.313-0.994,4.735l1.52-1.181
			c-0.464-0.597-0.377-1.395,0.577-2.135c0.953-0.74,1.747-0.627,2.312,0.1l0.452,0.583l-1.622,1.259
			c-2.048,1.59-2.395,3.225-1.214,4.746C430.586,483.516,432.285,483.357,433.621,482.32 M432.832,480.656
			c-0.739,0.575-1.456,0.651-1.941,0.025c-0.397-0.513-0.443-1.275,0.71-2.171l1.622-1.259l0.85,1.097
			C433.993,479.186,433.644,480.027,432.832,480.656 M421.732,479.258l-5.743,4.032l3.009,4.286
			c0.859,1.223,0.996,2.139,0.039,2.812l-0.162,0.113l1.033,1.473l0.398-0.28c1.413-0.992,1.847-2.878,0.212-5.206l-1.966-2.8
			l2.595-1.822l4.344,6.187l1.619-1.136L421.732,479.258z M413.161,489.067c-1.05-1.658-2.98-2.224-5.232-0.799
			s-2.569,3.412-1.52,5.07l1.521,2.404c1.049,1.658,2.979,2.223,5.231,0.799c2.252-1.425,2.569-3.412,1.521-5.071L413.161,489.067z
			 M412.201,495.022c-1.142,0.723-2.128,0.409-2.647-0.412l-1.426-2.253c-0.52-0.821-0.38-1.848,0.762-2.569
			s2.128-0.409,2.647,0.413l1.425,2.252C413.482,493.274,413.343,494.3,412.201,495.022 M401.085,503.438l-1.882-3.32l0.955-0.541
			l4.262,1.97l1.677-0.95l-0.356-0.627l-4.53-2.043l0.484-4.764l-0.355-0.627l-1.565,0.888l-0.451,4.643l-0.97,0.551l-1.883-3.32
			l-1.721,0.977l4.616,8.14L401.085,503.438z M389.077,509.72l0.859-7.488l2.838,5.624l1.768-0.893l-4.217-8.355l-1.769,0.892
			l-0.857,7.489l-2.838-5.624l-1.768,0.891l4.217,8.357L389.077,509.72z M375.446,515.959l-2.181-4.9l4.77-2.121l2.18,4.9
			l1.975-0.878l-5.121-11.513l-1.973,0.878l2.172,4.885l-4.77,2.121l-2.173-4.885l-1.973,0.878l5.12,11.513L375.446,515.959z
			 M355.846,523.265l1.857-7.308l2.057,5.956l1.871-0.646l-3.056-8.848l-1.871,0.646l-1.856,7.306l-2.057-5.955l-1.871,0.647
			l3.055,8.847L355.846,523.265z M341.809,522.271l-0.713-2.454l3.094-0.9l1.607,5.531l-3.785,1.101
			C342.19,524.615,342.155,523.463,341.809,522.271 M348.299,527.957l1.867-0.543l-1.137-3.906l-1.331,0.388l-2.11-7.261
			l-6.793,1.976l1.131,3.889c0.478,1.643,0.487,2.839,0.012,3.652l-0.829,0.241l1.135,3.905l1.867-0.542l-0.633-2.178l6.188-1.799
			L348.299,527.957z M330.703,530.388c1.297-0.308,2.118-1.132,2.494-1.887l0.977,0.841l1.121-0.266l-1.48-6.235
			c-0.424-1.785-1.924-2.799-4.374-2.217c-2.452,0.582-3.283,2.148-2.867,3.899l1.874-0.444c-0.175-0.736,0.234-1.425,1.408-1.704
			s1.85,0.153,2.063,1.046l0.17,0.719l-1.996,0.474c-2.522,0.599-3.517,1.945-3.071,3.819
			C327.444,530.218,329.057,530.779,330.703,530.388 M330.674,528.545c-0.912,0.216-1.595-0.01-1.777-0.78
			c-0.149-0.631,0.125-1.344,1.544-1.681l1.997-0.474l0.32,1.349C332.338,527.688,331.672,528.309,330.674,528.545 M318.135,522.883
			c-1.311,0.243-2.102,1.013-2.515,1.747l-0.916-0.892l-1.132,0.209l2.229,12.036l1.945-0.36l-0.691-3.735
			c0.545,0.468,1.517,0.873,2.791,0.638c1.841-0.341,3.132-1.678,2.701-3.997l-0.529-2.867
			C321.588,523.342,319.887,522.56,318.135,522.883 M316.026,526.33c0.427-0.664,1.038-1.418,2.028-1.601
			c0.92-0.171,1.839,0.337,2.041,1.434l0.479,2.584c0.203,1.097-0.472,1.9-1.41,2.073c-0.99,0.184-1.814-0.305-2.449-0.773
			L316.026,526.33z M307.939,534.128l-1.001-7.493l3.015-0.402l-0.238-1.784l-7.992,1.067l0.238,1.784l3.014-0.402l1.002,7.493
			L307.939,534.128z M292.682,529.521c-0.079-0.97,0.529-1.688,1.804-1.793c1.274-0.105,1.992,0.504,2.071,1.473l0.05,0.592
			l-3.875,0.32L292.682,529.521z M298.703,531.137l-0.173-2.099c-0.177-2.152-1.789-3.302-4.121-3.109
			c-2.422,0.199-3.872,1.674-3.696,3.79l0.235,2.87c0.179,2.153,1.845,3.298,4.265,3.1c2.279-0.188,3.547-1.449,3.571-3.348
			l-1.973,0.162c-0.099,0.768-0.651,1.3-1.746,1.392c-1.345,0.11-2.065-0.534-2.146-1.503l-0.064-0.771L298.703,531.137z
			 M284.293,536.133l-0.336-7.553l3.039-0.135l-0.08-1.798l-8.056,0.356l0.08,1.799l3.039-0.135l0.335,7.552L284.293,536.133z
			 M264.116,524.448c-0.81-0.025-1.192-0.452-1.172-1.081l0.006-0.198l-1.69-0.054l-0.008,0.216
			c-0.05,1.565,1.109,2.502,2.819,2.557c1.709,0.055,2.925-0.808,2.974-2.372l0.008-0.217l-1.674-0.053l-0.006,0.198
			C265.354,524.073,264.944,524.475,264.116,524.448 M261.676,536.095l4.338-6.166l-0.199,6.298l1.979,0.063l0.297-9.355
			l-1.979-0.063l-4.337,6.165l0.199-6.296l-1.979-0.063l-0.297,9.355L261.676,536.095z M255.189,529.601
			c0.162-1.955-1.042-3.572-3.697-3.791c-2.654-0.219-4.105,1.179-4.268,3.134l-0.233,2.835c-0.161,1.955,1.042,3.571,3.697,3.79
			s4.106-1.178,4.268-3.134L255.189,529.601z M250.836,533.774c-1.346-0.111-1.943-0.955-1.865-1.923l0.22-2.655
			c0.08-0.969,0.81-1.704,2.155-1.593c1.345,0.11,1.943,0.955,1.863,1.924l-0.219,2.655
			C252.91,533.151,252.182,533.885,250.836,533.774 M236.918,533.796l0.506-3.783l1.088,0.146l2.207,4.144l1.908,0.256l0.096-0.714
			l-2.377-4.366l3.265-3.505l0.095-0.715l-1.783-0.237l-3.164,3.427l-1.106-0.147l0.505-3.782l-1.962-0.263l-1.239,9.278
			L236.918,533.796z M226.452,530.513c-1.295-0.223-1.784-0.982-1.62-1.94l0.494-2.874c0.165-0.958,0.883-1.51,2.176-1.287
			c1.172,0.201,1.697,0.967,1.532,1.925l-0.019,0.107l1.951,0.336l0.019-0.107c0.367-2.128-0.89-3.641-3.177-4.035
			c-2.359-0.405-4.079,0.667-4.439,2.762l-0.482,2.802c-0.36,2.094,0.9,3.681,3.261,4.087c2.235,0.385,3.989-0.683,4.35-2.776
			l0.021-0.125l-1.95-0.336l-0.028,0.16C228.375,530.168,227.623,530.714,226.452,530.513 M216.557,520.302
			c-1.301-0.291-2.33,0.105-2.998,0.619l-0.492-1.18l-1.124-0.252l-2.679,11.943l1.933,0.433l0.831-3.706
			c0.316,0.643,1.051,1.398,2.316,1.682c1.826,0.41,3.537-0.313,4.054-2.613l0.638-2.846
			C219.551,522.081,218.295,520.692,216.557,520.302 M213.264,522.645c0.652-0.443,1.511-0.897,2.494-0.677
			c0.914,0.205,1.559,1.032,1.314,2.121l-0.575,2.564c-0.245,1.089-1.181,1.562-2.112,1.353c-0.982-0.221-1.547-0.993-1.948-1.673
			L213.264,522.645z M200.077,526.141c1.283,0.355,2.401,0.03,3.095-0.449l0.449,1.208l1.11,0.308l1.712-6.175
			c0.49-1.771-0.333-3.38-2.762-4.054c-2.428-0.673-3.911,0.298-4.393,2.032l1.856,0.515c0.202-0.729,0.894-1.134,2.056-0.813
			c1.162,0.322,1.546,1.026,1.301,1.911l-0.197,0.711l-1.978-0.548c-2.498-0.693-4.019,0.006-4.532,1.862
			C197.305,524.419,198.446,525.688,200.077,526.141 M200.939,524.512c-0.902-0.251-1.391-0.777-1.18-1.542
			c0.174-0.624,0.758-1.115,2.164-0.726l1.977,0.548l-0.37,1.336C202.813,524.564,201.928,524.786,200.939,524.512 M191.99,515.357
			c0.752,0.249,0.93,0.744,0.737,1.325c-0.181,0.547-0.619,1.008-1.423,0.741l-2.016-0.668l0.686-2.067L191.99,515.357z
			 M191.926,520.36c-0.233,0.701-0.75,0.946-1.605,0.663l-2.204-0.73l0.697-2.102l2.067,0.685
			C191.975,519.239,192.117,519.779,191.926,520.36 M188.639,512.425l-2.945,8.886l4.135,1.37c1.932,0.64,3.383,0.495,4.045-1.504
			c0.34-1.024,0.036-1.826-0.722-2.458c0.729-0.194,1.331-0.696,1.644-1.636c0.549-1.658-0.381-2.743-2.192-3.344L188.639,512.425z
			 M183.188,513.842c0.708-1.829,0.012-3.72-2.473-4.682s-4.272-0.033-4.98,1.796l-1.027,2.653c-0.709,1.829-0.013,3.72,2.473,4.682
			c2.483,0.962,4.271,0.033,4.98-1.796L183.188,513.842z M177.829,516.613c-1.259-0.488-1.594-1.467-1.243-2.373l0.963-2.485
			c0.351-0.905,1.258-1.403,2.517-0.917c1.259,0.488,1.594,1.468,1.243,2.373l-0.963,2.485
			C179.995,516.603,179.088,517.101,177.829,516.613 M163.586,512.261l3.072-6.907l3.52,1.564l-3.072,6.908l1.809,0.805l3.805-8.553
			l-7.139-3.174l-3.803,8.552L163.586,512.261z M148.57,500.228l1.238,0.663c0.746,0.398,0.896,1.071,0.607,1.611
			c-0.349,0.652-1.103,0.8-2.103,0.265c-1.207-0.646-1.527-1.573-1.068-2.432l0.076-0.143l-1.696-0.908l-0.059,0.111
			c-1.003,1.873-0.262,3.8,1.945,4.981c2.127,1.139,3.815,0.88,4.717-0.802c0.484-0.906,0.371-1.762-0.195-2.493
			c0.798-0.083,1.51-0.458,1.926-1.236c0.799-1.491,0.047-3.097-1.906-4.142c-2.157-1.156-4.012-0.701-5.032,1.204l-0.052,0.095
			l1.697,0.908l0.051-0.095c0.459-0.858,1.266-1.183,2.377-0.587c0.938,0.502,1.256,1.163,0.916,1.799
			c-0.271,0.508-0.819,0.807-1.471,0.459l-1.223-0.655L148.57,500.228z M134.52,496.551l6.791-3.272l-3.238,5.403l1.697,1.016
			l4.811-8.026l-1.697-1.017l-6.791,3.272l3.238-5.401l-1.695-1.018l-4.812,8.026L134.52,496.551z M116.793,484.426l5.737-7.392
			l-1.562-1.212l-5.738,7.392L116.793,484.426z M112.115,480.796c1.223,0.949,2.811,0.839,4.102-0.825
			c1.293-1.663,1.006-3.229-0.217-4.178l-2.135-1.657l1.854-2.389l-1.562-1.212l-5.737,7.392L112.115,480.796z M111.039,477.776
			l1.768-2.277l1.75,1.359c0.527,0.409,0.684,1.146,0.099,1.899c-0.586,0.755-1.339,0.785-1.88,0.366L111.039,477.776z
			 M101.906,475.391l1.477,1.263l2.643-3.089l-1.053-0.901l4.916-5.744l-1.504-1.286l-4.914,5.744l-2.86-2.448l4.916-5.743
			l-1.503-1.286l-6.085,7.109l5.442,4.658L101.906,475.391z M89.635,461.101l7.354-1.656l-4.373,4.532l1.423,1.373l6.498-6.734
			l-1.424-1.373l-7.354,1.656l4.373-4.532l-1.422-1.373l-6.498,6.734L89.635,461.101z M80.334,451.504l2.776-2.617l2.705,2.871
			l-2.777,2.616l1.356,1.44l6.811-6.417l-1.355-1.439l-2.778,2.616l-2.704-2.87l2.777-2.617l-1.356-1.439l-6.811,6.417
			L80.334,451.504z M72.172,442.535c0.866,1.013,1.975,1.368,2.817,1.358l-0.301,1.251l0.748,0.874l4.868-4.165
			c1.395-1.195,1.611-2.989-0.028-4.903c-1.64-1.915-3.409-1.938-4.776-0.767l1.25,1.462c0.575-0.492,1.377-0.443,2.161,0.474
			c0.784,0.916,0.709,1.716,0.011,2.313l-0.561,0.479l-1.335-1.559c-1.687-1.971-3.335-2.239-4.798-0.987
			C70.832,439.562,71.071,441.25,72.172,442.535 M73.795,441.667c-0.608-0.711-0.72-1.422-0.117-1.938
			c0.492-0.421,1.252-0.503,2.201,0.604l1.336,1.561l-1.055,0.901C75.32,442.757,74.463,442.447,73.795,441.667 M73.012,427.941
			c-0.817-1.052-1.863-1.403-2.705-1.434l0.371-1.221l-0.707-0.909l-9.666,7.503l1.213,1.563l2.998-2.328
			c-0.163,0.697-0.076,1.747,0.719,2.771c1.148,1.479,2.926,2.012,4.788,0.566l2.303-1.788
			C74.189,431.218,74.104,429.35,73.012,427.941 M68.982,427.65c0.785,0.073,1.736,0.27,2.355,1.066
			c0.573,0.739,0.545,1.788-0.338,2.474l-2.076,1.611c-0.883,0.685-1.906,0.453-2.49-0.301c-0.618-0.797-0.563-1.753-0.438-2.533
			L68.982,427.65z M58.286,424.057l6.187-4.346l1.748,2.49l1.473-1.033l-4.633-6.598l-1.471,1.033l1.748,2.489l-6.188,4.345
			L58.286,424.057z M56.436,405.801c1.263-0.799,2.501-0.559,3.492,1.009c0.588,0.928,0.761,2.48-0.67,3.386l-0.152,0.096
			l1.154,1.824l0.151-0.097c2.571-1.626,2.517-4.166,1.198-6.251c-1.676-2.648-4.03-3.243-6.449-1.712l-3.439,2.175
			c-2.418,1.529-2.89,3.913-1.215,6.561c1.319,2.085,3.592,3.222,6.162,1.595l0.152-0.096l-1.152-1.823l-0.152,0.097
			c-1.432,0.904-2.76,0.084-3.348-0.846c-0.992-1.566-0.678-2.789,0.586-3.588L56.436,405.801z"/>
	</g>
</g>
</svg>
