<?xml version="1.0" encoding="utf-8"?>
<!-- Generator: Adobe Illustrator 16.0.0, SVG Export Plug-In . SVG Version: 6.00 Build 0)  -->
<!DOCTYPE svg PUBLIC "-//W3C//DTD SVG 1.1//EN" "http://www.w3.org/Graphics/SVG/1.1/DTD/svg11.dtd">
<svg version="1.1" id="Layer_1" xmlns="http://www.w3.org/2000/svg" xmlns:xlink="http://www.w3.org/1999/xlink" x="0px" y="0px"
	 width="52.25px" height="80.52px" viewBox="0 0 52.25 80.52" enable-background="new 0 0 52.25 80.52" xml:space="preserve">
<g>
	<path fill="#FFFFFF" d="M52.25,56.869c0-9.35-5.5-16.17-12.1-18.59c5.83-3.41,9.68-8.58,9.68-17.05C49.83,9.569,41.36,0,25.851,0
		C10.78,0,1.431,9.569,1.21,26.18h11.55C12.87,17.6,16.61,11,25.851,11c9.13,0,12.1,6.27,12.1,11.55
		c0,7.59-4.84,11.109-12.32,11.109H21.23V44h5.17c8.58,0,13.75,4.18,13.75,11.659c0,7.811-3.96,13.86-13.86,13.86
		c-9.68,0-14.41-6.49-14.63-15.18H0c0.221,16.5,10.34,26.18,26.181,26.18C42.79,80.52,52.25,71.39,52.25,56.869"/>
</g>
</svg>
