<?xml version="1.0" encoding="utf-8"?>
<!-- Generator: Adobe Illustrator 16.0.0, SVG Export Plug-In . SVG Version: 6.00 Build 0)  -->
<!DOCTYPE svg PUBLIC "-//W3C//DTD SVG 1.1//EN" "http://www.w3.org/Graphics/SVG/1.1/DTD/svg11.dtd">
<svg version="1.1" id="Layer_1" xmlns="http://www.w3.org/2000/svg" xmlns:xlink="http://www.w3.org/1999/xlink" x="0px" y="0px"
	 width="501.953px" height="501.346px" viewBox="0 0 501.953 501.346" enable-background="new 0 0 501.953 501.346"
	 xml:space="preserve">
<g>
	<path fill="#FFFFFF" d="M459.875,132.6l-7.527-0.4l5.438-3.176l-0.996-1.709l-8.082,4.719l0.998,1.707l7.527,0.402l-5.439,3.176
		l0.996,1.707l8.082-4.717L459.875,132.6z M466.25,144.541l-3.385,1.762l-1.82-3.499l3.385-1.762l-0.912-1.754l-8.301,4.321
		l0.912,1.754l3.385-1.762l1.82,3.498l-3.385,1.762l0.914,1.754l8.301-4.32L466.25,144.541z M471.926,156.911l-7.439-1.22
		l5.756-2.563l-0.807-1.809l-8.549,3.808l0.805,1.81l7.439,1.219l-5.756,2.563l0.807,1.809l8.549-3.808L471.926,156.911z
		 M475.477,165.799l-7.049,2.732l-1.1-2.836l-1.68,0.651l2.916,7.519l1.678-0.65l-1.1-2.837l7.049-2.733L475.477,165.799z
		 M480.463,180.332l-3.637,1.156l-1.195-3.756l3.637-1.158l-0.602-1.887l-8.92,2.84l0.602,1.887l3.637-1.158l1.195,3.757
		l-3.637,1.157l0.6,1.887l8.92-2.839L480.463,180.332z M478.029,194.477c-0.939,0.248-1.754-0.225-2.08-1.461
		c-0.326-1.234,0.146-2.05,1.086-2.298l0.574-0.151l0.994,3.758L478.029,194.477z M478.566,188.266l-2.037,0.538
		c-2.088,0.552-2.936,2.341-2.34,4.603c0.621,2.35,2.328,3.519,4.381,2.976l2.783-0.735c2.09-0.552,2.924-2.393,2.303-4.742
		c-0.584-2.211-2.047-3.238-3.92-2.93l0.506,1.914c0.773-0.035,1.395,0.414,1.674,1.475c0.346,1.307-0.162,2.129-1.102,2.377
		l-0.75,0.199L478.566,188.266z M476.82,204.872c0.275,1.304,1.064,2.075,1.811,2.469l-0.869,0.938l0.238,1.127l11.975-2.531
		l-0.41-1.938l-3.715,0.785c0.453-0.555,0.834-1.537,0.564-2.806c-0.387-1.831-1.756-3.087-4.063-2.599l-2.854,0.603
		C477.191,201.408,476.451,203.129,476.82,204.872 M480.32,206.893c-0.676-0.41-1.445-1.002-1.654-1.988
		c-0.193-0.916,0.291-1.846,1.383-2.076l2.57-0.543c1.094-0.231,1.912,0.424,2.109,1.357c0.209,0.985-0.258,1.82-0.711,2.467
		L480.32,206.893z M488.219,214.378l-10.598,1.553l-0.529-3.614l-1.869,0.273l1.373,9.368l1.869-0.274l-0.529-3.615l10.596-1.554
		L488.219,214.378z M484.115,231.927c-1.957,0.137-3.373,1.571-3.188,4.229s1.787,3.881,3.744,3.744l2.838-0.197
		c1.957-0.138,3.371-1.571,3.186-4.229c-0.186-2.657-1.787-3.881-3.744-3.744L484.115,231.927z M488.9,235.599
		c0.094,1.348-0.65,2.066-1.619,2.134l-2.658,0.186c-0.969,0.068-1.807-0.541-1.9-1.888c-0.094-1.348,0.65-2.066,1.619-2.135
		l2.658-0.185C487.971,233.643,488.807,234.252,488.9,235.599 M490.99,250.596l-3.814,0.072l-0.076-3.941l3.814-0.072l-0.035-1.979
		l-9.359,0.178l0.037,1.979l3.814-0.072l0.076,3.941l-3.814,0.071l0.037,1.98l9.357-0.178L490.99,250.596z M490.867,262.747
		c0.061-1.331-0.508-2.348-1.131-2.916l1.076-0.709l0.051-1.15l-6.4-0.285c-1.834-0.081-3.221,1.083-3.332,3.601
		s1.168,3.746,2.965,3.825l0.086-1.925c-0.754-0.032-1.307-0.615-1.252-1.82c0.053-1.205,0.652-1.737,1.57-1.696l0.736,0.033
		l-0.09,2.05c-0.115,2.589,0.908,3.914,2.832,3.999C489.813,265.835,490.793,264.437,490.867,262.747 M489.088,262.271
		c-0.041,0.936-0.447,1.53-1.238,1.495c-0.648-0.028-1.258-0.488-1.193-1.944l0.092-2.051l1.385,0.062
		C488.719,260.435,489.133,261.246,489.088,262.271 M487.188,277.408c0.338,0.43,0.631,0.965,0.559,1.717
		c-0.08,0.842-0.783,1.408-1.734,1.316l-2.975-0.282c-0.949-0.09-1.535-0.779-1.455-1.621c0.072-0.753,0.461-1.223,0.875-1.581
		L487.188,277.408z M492.348,277.899l0.188-1.971l-3.654-0.348c0.523-0.384,1.115-1.087,1.221-2.198
		c0.148-1.559-0.826-2.9-2.852-3.093l-3.512-0.334c-2.023-0.193-3.234,0.938-3.385,2.498c-0.105,1.11,0.342,1.913,0.785,2.389
		l-4.104-0.391l-0.188,1.971l4.104,0.391c-0.523,0.385-1.117,1.088-1.223,2.198c-0.148,1.56,0.828,2.9,2.852,3.092l3.514,0.335
		c2.023,0.193,3.234-0.938,3.383-2.498c0.105-1.11-0.342-1.912-0.785-2.389L492.348,277.899z M482.645,274.986
		c-0.338-0.431-0.631-0.965-0.561-1.717c0.08-0.843,0.785-1.407,1.734-1.317l2.977,0.284c0.949,0.09,1.533,0.778,1.453,1.62
		c-0.07,0.754-0.459,1.223-0.873,1.58L482.645,274.986z M481.158,292.282c-0.959-0.153-1.512-0.916-1.311-2.179
		c0.201-1.262,0.963-1.814,1.924-1.662l0.586,0.095l-0.613,3.839L481.158,292.282z M484.162,286.819l-2.08-0.332
		c-2.133-0.341-3.633,0.951-4.002,3.263c-0.383,2.398,0.705,4.158,2.803,4.493l2.844,0.453c2.133,0.34,3.641-1.006,4.023-3.405
		c0.361-2.257-0.561-3.789-2.4-4.265l-0.311,1.955c0.721,0.279,1.107,0.942,0.934,2.026c-0.211,1.333-1.01,1.88-1.969,1.728
		l-0.766-0.122L484.162,286.819z M485.432,302.034l-7.396-1.563l0.629-2.976l-1.76-0.373l-1.668,7.89l1.76,0.372l0.629-2.976
		l7.398,1.563L485.432,302.034z M473.213,315.714c-1.441-0.399-2.094-1.477-1.598-3.264c0.293-1.059,1.328-2.229,2.957-1.775
		l0.174,0.048l0.578-2.081l-0.174-0.048c-2.93-0.813-4.779,0.934-5.438,3.31c-0.84,3.018,0.303,5.166,3.059,5.931l3.92,1.088
		c2.758,0.766,4.844-0.486,5.682-3.504c0.658-2.376-0.023-4.826-2.955-5.64l-0.174-0.049l-0.578,2.081l0.174,0.05
		c1.631,0.451,1.914,1.987,1.619,3.046c-0.494,1.785-1.611,2.373-3.051,1.974L473.213,315.714z M475.348,336.5
		c0.465-1.248,0.238-2.389-0.18-3.122l1.242-0.343l0.404-1.079l-6.004-2.242c-1.719-0.643-3.396,0.037-4.277,2.398
		c-0.883,2.36-0.045,3.923,1.643,4.553l0.674-1.804c-0.709-0.266-1.053-0.989-0.631-2.119s1.156-1.451,2.018-1.13l0.691,0.259
		l-0.719,1.922c-0.906,2.428-0.344,4.003,1.463,4.677C473.391,339.113,474.754,338.085,475.348,336.5 M473.799,335.499
		c-0.328,0.877-0.896,1.317-1.639,1.041c-0.605-0.228-1.045-0.853-0.535-2.218l0.719-1.923l1.299,0.485
		C474.014,333.639,474.158,334.538,473.799,335.499 M462.1,342.968c-0.527,1.223-0.328,2.309,0.053,3.062l-1.25,0.264l-0.457,1.058
		l11.242,4.843l0.783-1.818l-3.488-1.503c0.691-0.192,1.57-0.774,2.082-1.965c0.74-1.72,0.346-3.535-1.82-4.469l-2.678-1.152
		C464.402,340.353,462.805,341.331,462.1,342.968 M463.791,346.637c-0.314-0.724-0.602-1.65-0.201-2.577
		c0.369-0.859,1.301-1.34,2.326-0.898l2.414,1.04c1.025,0.44,1.316,1.448,0.939,2.325c-0.4,0.926-1.264,1.338-2.006,1.605
		L463.791,346.637z M464.695,360.276c0.602-1.189,0.5-2.349,0.166-3.123l1.273-0.204l0.518-1.028l-5.719-2.889
		c-1.639-0.828-3.379-0.336-4.516,1.913s-0.475,3.894,1.133,4.706l0.867-1.72c-0.676-0.341-0.938-1.099-0.395-2.175
		c0.545-1.077,1.311-1.315,2.129-0.901l0.66,0.333l-0.926,1.831c-1.168,2.314-0.781,3.941,0.938,4.811
		C462.465,362.658,463.932,361.786,464.695,360.276 M463.268,359.111c-0.422,0.835-1.035,1.211-1.742,0.854
		c-0.578-0.292-0.947-0.962-0.289-2.263l0.926-1.832l1.236,0.625C463.686,357.285,463.73,358.195,463.268,359.111 M452.477,366.285
		c0.391-0.689,0.912-0.768,1.445-0.464c0.5,0.283,0.867,0.804,0.449,1.54l-1.049,1.849l-1.895-1.077L452.477,366.285z
		 M457.371,367.325c0.645,0.364,0.783,0.92,0.338,1.704l-1.146,2.02l-1.926-1.094l1.076-1.896
		C456.281,367.057,456.84,367.021,457.371,367.325 M448.949,369.001l8.139,4.62l2.15-3.787c1.004-1.77,1.145-3.219-0.686-4.259
		c-0.941-0.533-1.785-0.394-2.553,0.227c-0.049-0.751-0.424-1.438-1.285-1.928c-1.518-0.862-2.762-0.163-3.703,1.496
		L448.949,369.001z M449.268,374.626c-1.645-1.07-3.635-0.778-5.088,1.456c-1.453,2.232-0.912,4.172,0.732,5.242l2.385,1.551
		c1.645,1.07,3.637,0.778,5.09-1.455c1.453-2.234,0.912-4.173-0.734-5.242L449.268,374.626z M450.879,380.438
		c-0.736,1.134-1.764,1.26-2.578,0.729l-2.234-1.453c-0.816-0.53-1.117-1.521-0.381-2.653c0.738-1.132,1.764-1.259,2.58-0.729
		l2.232,1.453C451.314,378.316,451.615,379.307,450.879,380.438 M443.615,393.663l-6.131-4.421l2.254-3.127l6.131,4.422l1.158-1.604
		l-7.592-5.473l-4.566,6.334l7.59,5.473L443.615,393.663z M434.057,395.33l-3.611,4.534l1.406,1.119l3.611-4.533L434.057,395.33z
		 M425.912,411.38c0.018,0.548-0.066,1.152-0.572,1.714c-0.566,0.63-1.469,0.665-2.18,0.027l-2.223-1.999
		c-0.709-0.639-0.77-1.54-0.203-2.169c0.506-0.563,1.098-0.709,1.645-0.751L425.912,411.38z M429.766,414.845l1.324-1.471
		l-2.73-2.454c0.65,0.003,1.543-0.211,2.289-1.041c1.047-1.165,1.061-2.82-0.451-4.18l-2.625-2.36
		c-1.512-1.36-3.156-1.17-4.203-0.006c-0.746,0.831-0.863,1.742-0.793,2.388l-3.064-2.755l-1.322,1.47l3.064,2.755
		c-0.65-0.003-1.543,0.212-2.289,1.042c-1.049,1.164-1.063,2.82,0.449,4.181l2.625,2.358c1.514,1.36,3.158,1.171,4.205,0.007
		c0.746-0.83,0.865-1.741,0.793-2.388L429.766,414.845z M423.699,406.73c-0.016-0.547,0.068-1.15,0.574-1.714
		c0.566-0.629,1.469-0.665,2.178-0.026l2.225,1.999c0.709,0.638,0.77,1.54,0.203,2.17c-0.506,0.562-1.098,0.709-1.645,0.751
		L423.699,406.73z M412.234,419.845c-0.684-0.692-0.678-1.635,0.232-2.534c0.91-0.897,1.854-0.892,2.537-0.198l0.418,0.423
		l-2.77,2.732L412.234,419.845z M417.889,417.22l-1.479-1.497c-1.518-1.538-3.488-1.386-5.154,0.258
		c-1.73,1.708-1.896,3.767-0.404,5.279l2.023,2.049c1.518,1.538,3.527,1.348,5.258-0.359c1.627-1.606,1.791-3.386,0.592-4.857
		l-1.408,1.39c0.416,0.652,0.336,1.416-0.447,2.188c-0.961,0.949-1.93,0.917-2.611,0.225l-0.545-0.552L417.889,417.22z
		 M403.672,423.271l4.979,5.688l-2.141,1.875l-4.98-5.688l-1.486,1.304l4.979,5.688l-2.141,1.875l-4.98-5.688l-1.486,1.303
		l6.164,7.04l8.746-7.658l-6.166-7.041L403.672,423.271z M390.811,445.469l-4.414-6.137l2.469-1.776l-1.051-1.459l-6.543,4.707
		l1.049,1.46l2.471-1.776l4.414,6.137L390.811,445.469z M379.945,445.559c-1.068-1.646-3.006-2.188-5.242-0.738
		c-2.234,1.45-2.529,3.441-1.461,5.088l1.549,2.386c1.068,1.646,3.006,2.188,5.24,0.739c2.236-1.45,2.529-3.441,1.463-5.087
		L379.945,445.559z M379.055,451.524c-1.135,0.735-2.125,0.434-2.654-0.383l-1.449-2.234c-0.529-0.816-0.402-1.844,0.73-2.578
		c1.133-0.736,2.123-0.435,2.654,0.382l1.449,2.235C380.314,449.762,380.188,450.79,379.055,451.524 M360.281,458.586l-0.918,2.328
		l0.695,1.301l1.254-3.343l-0.697-1.301l-3.475-0.814l0.695,1.301L360.281,458.586z M363.075,457.092l-0.919,2.328l0.695,1.301
		l1.254-3.343l-0.695-1.301l-3.477-0.814l0.695,1.301L363.075,457.092z M350.414,468.895l1.044-7.466l2.696,5.693l1.791-0.849
		l-4.008-8.458l-1.789,0.848l-1.045,7.466l-2.697-5.693l-1.789,0.849l4.008,8.458L350.414,468.895z M338.771,473.846l-1.463-3.524
		l1.014-0.422l3.99,2.476l1.779-0.738l-0.277-0.665l-4.248-2.582l1.063-4.671l-0.277-0.665l-1.662,0.691l-1.013,4.552l-1.03,0.428
		l-1.465-3.523l-1.828,0.76l3.59,8.644L338.771,473.846z M328.087,476.031c-1.243,0.429-2.038-0.001-2.354-0.92l-0.951-2.758
		c-0.317-0.919,0.045-1.748,1.287-2.176c1.123-0.388,1.953,0.031,2.27,0.95l0.035,0.102l1.872-0.646l-0.036-0.103
		c-0.704-2.042-2.533-2.763-4.729-2.006c-2.263,0.781-3.252,2.551-2.56,4.559l0.927,2.688c0.693,2.008,2.563,2.792,4.825,2.011
		c2.146-0.738,3.168-2.52,2.476-4.527l-0.041-0.119l-1.873,0.645l0.054,0.153C329.605,474.803,329.21,475.644,328.087,476.031
		 M314.234,481.965l-1.063-3.665l3.786-1.099l1.064,3.664l1.9-0.553l-2.609-8.987l-1.901,0.552l1.063,3.664l-3.785,1.1l-1.064-3.665
		l-1.9,0.553l2.609,8.988L314.234,481.965z M301.016,485.142l2.662-7.052l1.377,6.147l1.932-0.433l-2.045-9.134l-1.933,0.433
		l-2.663,7.053l-1.377-6.147l-1.932,0.432l2.046,9.135L301.016,485.142z M287.807,487.576l-1.281-7.451l3.797-0.653l1.281,7.451
		l1.951-0.335l-1.587-9.225l-7.698,1.323l1.586,9.225L287.807,487.576z M277.615,481.207l0.279,2.577l-2.381,0.256
		c-0.662,0.072-1.275-0.242-1.384-1.245c-0.075-0.698,0.372-1.253,1.124-1.334L277.615,481.207z M272.852,489.396l1.824-0.196
		l1.795-3.67l1.594-0.172l0.369,3.437l1.969-0.213l-1.002-9.306l-4.832,0.521c-1.541,0.166-2.611,1.314-2.402,3.246
		c0.171,1.593,1.041,2.44,2.182,2.608l-1.574,3.029L272.852,489.396z M267.257,480.435l-7.009,0.4l0.298,5.229
		c0.085,1.492-0.28,2.343-1.448,2.409l-0.199,0.011l0.103,1.798l0.485-0.028c1.726-0.098,3.09-1.474,2.928-4.313l-0.195-3.415
		l3.163-0.18l0.431,7.548l1.977-0.112L267.257,480.435z M249.607,490.571c1.332-0.01,2.317-0.627,2.854-1.278l0.762,1.039
		l1.152-0.007l-0.04-6.408c-0.013-1.836-1.244-3.16-3.765-3.145c-2.52,0.016-3.682,1.355-3.67,3.155l1.927-0.012
		c-0.005-0.756,0.549-1.336,1.755-1.344s1.768,0.564,1.773,1.482l0.004,0.738l-2.051,0.013c-2.593,0.018-3.863,1.105-3.852,3.031
		C246.469,489.673,247.915,490.582,249.607,490.571 M249.99,488.768c-0.936,0.006-1.549-0.368-1.555-1.16
		c-0.004-0.647,0.424-1.28,1.883-1.29l2.052-0.013l0.009,1.386C251.807,488.307,251.018,488.762,249.99,488.768 M240.171,480.747
		l-0.429,7.548l-2.84-0.162l0.43-7.547l-1.977-0.113l-0.431,7.548l-2.839-0.162l0.43-7.548l-1.977-0.111l-0.532,9.344l11.608,0.662
		l0.533-9.345L240.171,480.747z M225.484,482.435l-5.764-0.622l-0.191,1.79l5.762,0.621L225.484,482.435z M215.193,481.529
		c0.309-1.938-0.77-3.641-3.4-4.06c-2.631-0.418-4.184,0.866-4.492,2.803l-0.447,2.81c-0.308,1.938,0.771,3.64,3.401,4.059
		c2.631,0.418,4.185-0.866,4.492-2.804L215.193,481.529z M210.538,485.363c-1.333-0.212-1.867-1.1-1.714-2.06l0.418-2.631
		c0.152-0.96,0.935-1.637,2.268-1.425c1.334,0.212,1.867,1.099,1.715,2.059l-0.418,2.631
		C212.652,484.896,211.871,485.575,210.538,485.363 M195.682,483.964l1.651-7.377l3.759,0.842l-1.652,7.377l1.933,0.434l2.045-9.134
		l-7.623-1.708l-2.045,9.135L195.682,483.964z M175.751,478.347l1.155-3.637l3.757,1.193l-1.155,3.637l1.889,0.599l2.832-8.921
		l-1.888-0.599l-1.155,3.637l-3.756-1.193l1.153-3.637l-1.888-0.599l-2.832,8.921L175.751,478.347z M171.087,470.271
		c0.687-1.838-0.034-3.72-2.53-4.65s-4.272,0.021-4.957,1.859l-0.994,2.665c-0.686,1.838,0.035,3.721,2.531,4.651
		c2.496,0.93,4.272-0.022,4.957-1.86L171.087,470.271z M165.766,473.108c-1.266-0.471-1.613-1.445-1.273-2.356l0.931-2.496
		c0.339-0.911,1.24-1.42,2.505-0.949c1.266,0.472,1.612,1.446,1.273,2.357l-0.932,2.496
		C167.932,473.071,167.029,473.581,165.766,473.108 M157.887,461.217c-1.218-0.541-2.305-0.354-3.062,0.02l-0.25-1.255l-1.054-0.468
		l-4.969,11.187l1.809,0.804l1.543-3.471c0.185,0.692,0.757,1.577,1.941,2.103c1.711,0.76,3.531,0.387,4.488-1.768l1.184-2.665
		C160.475,463.548,159.516,461.939,157.887,461.217 M154.199,462.868c0.727-0.308,1.656-0.584,2.578-0.174
		c0.855,0.38,1.326,1.316,0.873,2.337l-1.067,2.401c-0.453,1.021-1.464,1.299-2.336,0.912c-0.921-0.409-1.323-1.277-1.583-2.022
		L154.199,462.868z M140.38,463.69c1.188,0.6,2.349,0.499,3.122,0.163l0.206,1.272l1.028,0.519l2.884-5.723
		c0.827-1.639,0.333-3.38-1.918-4.514c-2.25-1.135-3.894-0.472-4.704,1.137l1.72,0.866c0.341-0.675,1.097-0.938,2.175-0.396
		c1.076,0.543,1.316,1.309,0.902,2.128l-0.332,0.659l-1.832-0.924c-2.314-1.166-3.941-0.777-4.809,0.943
		C137.996,461.462,138.869,462.93,140.38,463.69 M141.543,462.262c-0.836-0.421-1.212-1.034-0.855-1.742
		c0.291-0.577,0.961-0.945,2.263-0.29l1.833,0.924l-0.624,1.237C143.369,462.678,142.46,462.724,141.543,462.262 M129.098,457.217
		l1.881-3.32l0.955,0.541l0.5,4.668l1.676,0.949l0.355-0.626l-0.576-4.938l4.336-2.032l0.355-0.626l-1.566-0.887l-4.214,1.999
		l-0.971-0.551l1.88-3.32l-1.721-0.975l-4.611,8.143L129.098,457.217z M118.669,450.922c1.118,0.726,2.281,0.752,3.087,0.503
		l0.066,1.286l0.965,0.626l3.486-5.374c1-1.541,0.699-3.323-1.416-4.694c-2.113-1.372-3.818-0.893-4.799,0.618l1.615,1.048
		c0.411-0.635,1.194-0.814,2.206-0.157c1.013,0.656,1.167,1.443,0.667,2.215l-0.402,0.62l-1.723-1.118
		c-2.175-1.411-3.832-1.201-4.88,0.414C116.542,448.449,117.249,450.001,118.669,450.922 M119.98,449.63
		c-0.787-0.51-1.094-1.161-0.662-1.826c0.353-0.544,1.059-0.837,2.281-0.043l1.723,1.117l-0.754,1.164
		C121.751,450.242,120.841,450.188,119.98,449.63 M110.324,444.891l1.678,1.238l7.479-10.138l-1.592-1.174l-6.464,2.545l0.567-6.896
		l-1.635-1.206l-7.479,10.138l1.679,1.238l5.182-7.023l-0.448,5.461l1.101,0.812l5.157-2.077L110.324,444.891z M100.23,430.826
		l2.502-0.021l0.945-1.133l-3.568,0.092l-0.945,1.133l0.549,3.528l0.945-1.133L100.23,430.826z M97.798,428.797l2.502-0.021
		l0.946-1.134l-3.57,0.091l-0.945,1.134l0.549,3.527l0.947-1.133L97.798,428.797z M88.616,416.656l-1.8,1.867l-1.726-1.661
		c-0.479-0.464-0.632-1.136,0.068-1.862c0.487-0.506,1.2-0.52,1.745,0.006L88.616,416.656z M79.275,418.254l1.322,1.273l3.967-0.977
		l1.153,1.112l-2.397,2.488l1.424,1.372l6.494-6.737l-3.5-3.372c-1.114-1.074-2.68-1.16-4.028,0.24
		c-1.112,1.153-1.205,2.363-0.601,3.344l-3.334,0.738L79.275,418.254z M71.745,410.087l7.438-1.22l-4.633,4.267l1.34,1.455
		l6.883-6.339l-1.34-1.455l-7.438,1.22l4.633-4.267l-1.34-1.455l-6.884,6.339L71.745,410.087z M63.1,399.817l2.955-2.413
		l2.494,3.056l-2.956,2.413l1.251,1.532l7.249-5.917l-1.251-1.532l-2.955,2.413l-2.494-3.057l2.955-2.413l-1.25-1.531l-7.25,5.917
		L63.1,399.817z M60.146,385.741c0.783-0.579,1.715-0.439,2.475,0.589c0.761,1.027,0.621,1.96-0.161,2.539l-0.479,0.353
		l-2.313-3.128L60.146,385.741z M61.943,391.71l1.691-1.251c1.738-1.285,1.866-3.258,0.475-5.14
		c-1.444-1.955-3.459-2.411-5.168-1.147l-2.314,1.712c-1.738,1.284-1.834,3.301-0.389,5.255c1.359,1.839,3.097,2.254,4.724,1.274
		l-1.176-1.59c-0.705,0.319-1.449,0.131-2.103-0.752c-0.803-1.088-0.635-2.04,0.148-2.619l0.623-0.46L61.943,391.71z M59.051,378.44
		l-3.826-5.883l-4.39,2.856c-1.253,0.814-2.173,0.919-2.812-0.062l-0.107-0.166l-1.507,0.98l0.265,0.407
		c0.942,1.447,2.811,1.947,5.195,0.396l2.867-1.865l1.729,2.658l-6.338,4.122l1.079,1.657L59.051,378.44z M49.042,365.535
		c0.399,0.685,0.205,1.173-0.324,1.481c-0.497,0.291-1.132,0.349-1.559-0.383l-1.072-1.835l1.884-1.099L49.042,365.535z
		 M45.684,369.247c-0.638,0.372-1.188,0.215-1.643-0.563l-1.171-2.007l1.913-1.117l1.099,1.882
		C46.463,368.437,46.213,368.938,45.684,369.247 M48.463,361.121l-8.081,4.718l2.196,3.762c1.025,1.756,2.208,2.606,4.027,1.545
		c0.933-0.546,1.235-1.347,1.084-2.319c0.674,0.335,1.457,0.355,2.313-0.145c1.507-0.88,1.526-2.307,0.565-3.955L48.463,361.121z
		 M43.471,358.562c1.752-0.885,2.5-2.755,1.299-5.133s-3.151-2.885-4.902-2l-2.538,1.282c-1.752,0.885-2.501,2.755-1.3,5.133
		s3.152,2.885,4.902,2L43.471,358.562z M37.637,357.032c-0.609-1.205-0.203-2.156,0.665-2.595l2.378-1.201
		c0.867-0.438,1.875-0.201,2.483,1.004s0.202,2.156-0.665,2.595l-2.378,1.201C39.252,358.475,38.245,358.237,37.637,357.032
		 M31.527,347.804l6.906-3.075l1.238,2.779l1.645-0.731l-3.281-7.367l-1.645,0.731l1.238,2.779l-6.906,3.076L31.527,347.804z
		 M33.65,337.166c1.828-0.71,2.757-2.498,1.793-4.982c-0.963-2.483-2.854-3.179-4.682-2.47l-2.652,1.028
		c-1.83,0.709-2.758,2.498-1.795,4.981c0.963,2.484,2.854,3.18,4.684,2.471L33.65,337.166z M27.993,335.073
		c-0.488-1.26,0.009-2.166,0.916-2.518l2.483-0.963c0.906-0.352,1.885-0.017,2.373,1.242c0.488,1.258-0.01,2.166-0.916,2.517
		l-2.483,0.963C29.46,336.666,28.48,336.332,27.993,335.073 M22.402,323.917l7.176-2.382l1.355,4.083l1.709-0.567l-1.979-5.962
		l-8.884,2.948L22.402,323.917z M18.563,310.743l7.179,2.304l-6.07,1.685l0.529,1.908l9.019-2.504l-0.529-1.908l-7.178-2.304
		l6.07-1.685l-0.53-1.908l-9.019,2.504L18.563,310.743z M25.564,298.515c-0.275-1.304-1.063-2.075-1.81-2.47l0.869-0.938
		l-0.239-1.128l-11.975,2.532l0.41,1.938l3.716-0.785c-0.453,0.555-0.834,1.538-0.565,2.805c0.387,1.832,1.756,3.088,4.063,2.601
		l2.854-0.604C25.193,301.978,25.934,300.258,25.564,298.515 M22.064,296.495c0.677,0.409,1.445,1.001,1.653,1.986
		c0.194,0.916-0.29,1.847-1.382,2.077l-2.57,0.543c-1.093,0.231-1.912-0.424-2.109-1.356c-0.209-0.986,0.259-1.821,0.711-2.468
		L22.064,296.495z M13.357,284.62l7.465-1.19l0.607,3.804l-7.466,1.19l0.312,1.955l9.244-1.473l-1.23-7.716l-9.243,1.475
		L13.357,284.62z M13.105,266.5c-0.092-1.312,0.531-1.968,1.5-2.036l2.91-0.203c0.969-0.066,1.676,0.497,1.768,1.808
		c0.083,1.186-0.537,1.878-1.506,1.945l-0.108,0.008l0.138,1.976l0.108-0.008c2.153-0.15,3.325-1.73,3.164-4.046
		c-0.167-2.389-1.619-3.803-3.738-3.654l-2.837,0.198c-2.119,0.147-3.359,1.75-3.193,4.138c0.157,2.263,1.612,3.713,3.731,3.564
		l0.125-0.009l-0.138-1.975l-0.161,0.011C13.898,268.285,13.189,267.685,13.105,266.5 M12.611,254.156
		c-0.024-1.313,0.631-1.938,1.603-1.956l2.915-0.057c0.973-0.018,1.648,0.581,1.674,1.896c0.023,1.187-0.631,1.848-1.602,1.866
		l-0.108,0.002l0.037,1.979l0.108-0.002c2.16-0.041,3.408-1.559,3.365-3.881c-0.047-2.393-1.424-3.879-3.549-3.839l-2.843,0.054
		c-2.124,0.041-3.444,1.578-3.399,3.972c0.043,2.268,1.422,3.789,3.547,3.749l0.125-0.003l-0.037-1.979l-0.162,0.003
		C13.313,255.979,12.635,255.344,12.611,254.156 M10.993,240.397c-0.042,1.331,0.538,2.341,1.169,2.9l-1.068,0.723l-0.035,1.151
		l6.404,0.203c1.835,0.058,3.205-1.123,3.285-3.642c0.079-2.519-1.215-3.73-3.014-3.787l-0.062,1.925
		c0.757,0.023,1.313,0.6,1.276,1.806c-0.039,1.205-0.633,1.744-1.551,1.715l-0.736-0.022l0.064-2.051
		c0.082-2.592-0.957-3.902-2.881-3.964C12.01,237.296,11.047,238.707,10.993,240.397 M12.779,240.851
		c0.029-0.936,0.427-1.536,1.219-1.511c0.648,0.021,1.264,0.473,1.218,1.93l-0.065,2.052l-1.385-0.044
		C13.172,242.682,12.747,241.876,12.779,240.851 M21.023,233.074l0.576-6.996l-5.22-0.432c-1.489-0.123-2.28-0.604-2.185-1.77
		l0.018-0.197l-1.794-0.147l-0.04,0.483c-0.143,1.723,1.031,3.265,3.865,3.498l3.408,0.281l-0.26,3.158l-7.535-0.622l-0.162,1.973
		L21.023,233.074z M13.791,213.998l3.775,0.553l-0.159,1.086l-4.173,2.154l-0.278,1.906l0.712,0.104l4.396-2.32l3.463,3.309
		l0.713,0.104l0.261-1.779l-3.388-3.207l0.162-1.105l3.776,0.555l0.287-1.959l-9.261-1.358L13.791,213.998z M21.451,207.931
		l1.057-5.698l-1.77-0.328l-1.057,5.699L21.451,207.931z M27.313,195.177c0.308-1.296-0.076-2.331-0.58-3.006l1.186-0.478
		l0.268-1.121l-11.91-2.83l-0.457,1.927l3.695,0.878c-0.646,0.309-1.412,1.034-1.712,2.295c-0.432,1.821,0.269,3.542,2.563,4.087
		l2.837,0.675C25.496,198.148,26.9,196.91,27.313,195.177 M25.012,191.854c0.436,0.659,0.879,1.523,0.646,2.504
		c-0.218,0.91-1.052,1.545-2.138,1.287l-2.557-0.608c-1.086-0.259-1.547-1.2-1.326-2.128c0.233-0.981,1.012-1.536,1.698-1.928
		L25.012,191.854z M28.109,179.709c0.931,0.283,1.373,1.113,1.002,2.337c-0.373,1.222-1.204,1.665-2.135,1.382l-0.567-0.173
		l1.133-3.719L28.109,179.709z M24.387,184.708l2.014,0.614c2.066,0.629,3.729-0.445,4.412-2.684
		c0.707-2.324-0.127-4.216-2.16-4.835l-2.754-0.839c-2.067-0.629-3.746,0.496-4.455,2.821c-0.666,2.186,0.039,3.831,1.793,4.554
		l0.578-1.895c-0.676-0.375-0.969-1.084-0.648-2.135c0.395-1.291,1.259-1.725,2.189-1.441l0.74,0.226L24.387,184.708z
		 M25.141,169.43l7.114,2.559l-1.028,2.863l1.693,0.608l2.729-7.588l-1.693-0.609l-1.03,2.862l-7.114-2.559L25.141,169.43z
		 M31.305,158.027c0.504-1.213,1.354-1.521,2.252-1.148L36.248,158c0.896,0.373,1.277,1.193,0.771,2.406
		c-0.455,1.098-1.319,1.439-2.218,1.066l-0.099-0.042l-0.762,1.828l0.1,0.042c1.995,0.83,3.749-0.059,4.641-2.201
		c0.92-2.211,0.256-4.125-1.705-4.941l-2.627-1.094c-1.961-0.815-3.787,0.062-4.707,2.271c-0.873,2.094-0.221,4.042,1.74,4.857
		l0.116,0.049l0.761-1.827l-0.15-0.063C31.213,159.979,30.848,159.125,31.305,158.027 M35.372,144.77
		c-0.572,1.202-0.444,2.359-0.09,3.125l-1.269,0.235l-0.494,1.041l5.789,2.749c1.658,0.787,3.387,0.253,4.467-2.023
		c1.082-2.275,0.381-3.904-1.246-4.677l-0.825,1.74c0.683,0.323,0.964,1.075,0.446,2.165c-0.518,1.089-1.277,1.346-2.106,0.952
		l-0.666-0.317l0.88-1.854c1.112-2.34,0.686-3.959-1.055-4.784C37.544,142.334,36.098,143.24,35.372,144.77 M36.828,145.898
		c0.4-0.845,1.005-1.235,1.721-0.896c0.585,0.278,0.969,0.938,0.344,2.255l-0.881,1.854l-1.252-0.594
		C36.454,147.734,36.387,146.826,36.828,145.898 M40.337,135.755l-1.008,1.826l11.03,6.086l0.955-1.731l-3.369-6.074l6.91-0.342
		l0.981-1.779l-11.03-6.086l-1.008,1.826l7.643,4.217l-5.474,0.271l-0.661,1.198l2.735,4.841L40.337,135.755z"/>
	<g>
		<path fill="#FFFFFF" d="M250.977,501.346c-67.038,0-130.063-26.074-177.467-73.42S0,317.631,0,250.673
			C0,183.716,26.106,120.766,73.51,73.42S183.938,0,250.977,0S381.04,26.074,428.443,73.42s73.51,110.296,73.51,177.253
			c0,66.958-26.106,129.907-73.51,177.253S318.015,501.346,250.977,501.346z M250.977,2C113.69,2,2,113.554,2,250.673
			s111.69,248.673,248.977,248.673s248.977-111.554,248.977-248.673S388.263,2,250.977,2z"/>
	</g>
</g>
</svg>
