<?xml version="1.0" encoding="utf-8"?>
<!-- Generator: Adobe Illustrator 17.0.0, SVG Export Plug-In . SVG Version: 6.00 Build 0)  -->
<!DOCTYPE svg PUBLIC "-//W3C//DTD SVG 1.1//EN" "http://www.w3.org/Graphics/SVG/1.1/DTD/svg11.dtd">
<svg version="1.1" id="Layer_1" xmlns="http://www.w3.org/2000/svg" xmlns:xlink="http://www.w3.org/1999/xlink" x="0px" y="0px"
	 width="1080px" height="1920px" viewBox="0 0 1080 1920" enable-background="new 0 0 1080 1920" xml:space="preserve">
<rect x="0" y="0" width="6480" height="1920"/>
<polygon fill="#FFFFFF" points="1762.192,1369.005 1762.192,550.995 1626.635,550.995 1360.198,933.122 1080.904,550.995 
	936,550.995 936,1369.005 1079.737,1369.005 1079.737,781.206 1340.331,1141.131 1361.365,1141.131 1619.624,777.7 
	1619.624,1369.005 "/>
<g>
	<polygon fill="#FFFFFF" points="612,84 612,84 612,84 612,551 755,551 755,218 3168,218.321 3168,376 3312,376 3312,218 5724,218 
		5724,551 5868,551 5868,218.321 5868,84 5868,84 	"/>
	<polygon fill="#FFFFFF" points="5724,1702 3312,1701.679 3312,1544 3168,1544 3168,1702 755,1702 755,1369 612,1369 612,1836 
		612,1836 755.664,1836 3168.168,1836 3311.833,1836 5724.336,1836 5868,1836 5868,1701.679 5868,1369 5724,1369 	"/>
</g>
</svg>
