<?xml version="1.0" encoding="utf-8"?>
<!-- Generator: Adobe Illustrator 17.0.0, SVG Export Plug-In . SVG Version: 6.00 Build 0)  -->
<!DOCTYPE svg PUBLIC "-//W3C//DTD SVG 1.1//EN" "http://www.w3.org/Graphics/SVG/1.1/DTD/svg11.dtd">
<svg version="1.1" id="Layer_1" xmlns="http://www.w3.org/2000/svg" xmlns:xlink="http://www.w3.org/1999/xlink" x="0px" y="0px"
	 width="1080px" height="1920px" viewBox="0 0 1080 1920" enable-background="new 0 0 1080 1920" xml:space="preserve">
<rect x="-1080" y="0" width="6480" height="1920"/>
<polygon fill="#FFFFFF" points="682.192,1369.005 682.192,550.995 546.635,550.995 280.198,933.122 0.904,550.995 -144,550.995 
	-144,1369.005 -0.263,1369.005 -0.263,781.206 260.331,1141.131 281.365,1141.131 539.624,777.7 539.624,1369.005 "/>
<path fill="#FFFFFF" d="M1360.62,1159.829l85.305,209.177h153.085l-345.901-820.349h-126.208L781,1369.005h144.904l85.306-209.177
	H1360.62z M1186.5,734.462l119.196,290.979h-239.562L1186.5,734.462z"/>
<g>
	<polygon fill="#FFFFFF" points="-468,84 -468,84 -468,84 -468,551 -325,551 -325,218 2088,218.321 2088,376 2232,376 2232,218 
		4644,218 4644,551 4788,551 4788,218.321 4788,84 4788,84 	"/>
	<polygon fill="#FFFFFF" points="4644,1702 2232,1701.679 2232,1544 2088,1544 2088,1702 -325,1702 -325,1369 -468,1369 -468,1836 
		-468,1836 -324.336,1836 2088.168,1836 2231.833,1836 4644.336,1836 4788,1836 4788,1701.679 4788,1369 4644,1369 	"/>
</g>
</svg>
