<?xml version="1.0" encoding="utf-8"?>
<!-- Generator: Adobe Illustrator 17.0.0, SVG Export Plug-In . SVG Version: 6.00 Build 0)  -->
<!DOCTYPE svg PUBLIC "-//W3C//DTD SVG 1.1//EN" "http://www.w3.org/Graphics/SVG/1.1/DTD/svg11.dtd">
<svg version="1.1" id="Layer_1" xmlns="http://www.w3.org/2000/svg" xmlns:xlink="http://www.w3.org/1999/xlink" x="0px" y="0px"
	 width="1080px" height="1920px" viewBox="0 0 1080 1920" enable-background="new 0 0 1080 1920" xml:space="preserve">
<rect x="-2160" y="0" width="6480" height="1920"/>
<path fill="#FFFFFF" d="M280.62,1159.829l85.305,209.177H519.01L173.109,548.656H46.901L-299,1369.005h144.904l85.306-209.177
	H280.62z M106.5,734.462l119.196,290.979H-13.865L106.5,734.462z"/>
<polygon fill="#FFFFFF" points="1194.294,1369.005 1308.815,1369.005 1308.815,550.995 1174.427,550.995 1174.427,1120.097 
	724.521,550.995 610,550.995 610,1369.005 744.386,1369.005 744.386,802.24 "/>
<g>
	<polygon fill="#FFFFFF" points="-1548,84 -1548,84 -1548,84 -1548,551 -1405,551 -1405,218 1008,218.321 1008,376 1152,376 
		1152,218 3564,218 3564,551 3708,551 3708,218.321 3708,84 3708,84 	"/>
	<polygon fill="#FFFFFF" points="3564,1702 1152,1701.679 1152,1544 1008,1544 1008,1702 -1405,1702 -1405,1369 -1548,1369 
		-1548,1836 -1548,1836 -1404.336,1836 1008.168,1836 1151.833,1836 3564.336,1836 3708,1836 3708,1701.679 3708,1369 3564,1369 	
		"/>
</g>
</svg>
