<?xml version="1.0" encoding="utf-8"?>
<!-- Generator: Adobe Illustrator 17.0.0, SVG Export Plug-In . SVG Version: 6.00 Build 0)  -->
<!DOCTYPE svg PUBLIC "-//W3C//DTD SVG 1.1//EN" "http://www.w3.org/Graphics/SVG/1.1/DTD/svg11.dtd">
<svg version="1.1" id="Layer_1" xmlns="http://www.w3.org/2000/svg" xmlns:xlink="http://www.w3.org/1999/xlink" x="0px" y="0px"
	 width="1080px" height="1920px" viewBox="0 0 1080 1920" enable-background="new 0 0 1080 1920" xml:space="preserve">
<rect x="-3240" y="0" width="6480" height="1920"/>
<polygon fill="#FFFFFF" points="114.294,1369.005 228.815,1369.005 228.815,550.995 94.427,550.995 94.427,1120.097 
	-355.479,550.995 -470,550.995 -470,1369.005 -335.614,1369.005 -335.614,802.24 "/>
<polygon fill="#FFFFFF" points="877.279,685.383 877.279,550.995 404,550.995 404,1369.005 888.964,1369.005 888.964,1234.617 
	547.737,1234.617 547.737,1023.104 842.222,1023.104 842.222,888.716 547.737,888.716 547.737,685.383 "/>
<path fill="#FFFFFF" d="M1408.365,672.588c71.285,0,143.737,24.54,184.636,63.103l60.768-114.521
	c-66.611-52.587-146.075-82.97-262.933-82.97C1140.759,538.2,983,725.175,983,960.059c0,254.753,158.926,421.861,426.534,421.861
	c101.666,0,233.717-42.069,306.169-114.521V928.508h-331.879v134.388h197.491v128.543c-30.383,29.216-106.341,56.093-169.444,56.093
	c-165.94,0-276.955-113.353-276.955-287.473C1134.916,777.76,1250.606,672.588,1408.365,672.588z"/>
<g>
	<polygon fill="#FFFFFF" points="-2628,84 -2628,84 -2628,84 -2628,551 -2485,551 -2485,218 -72,218.321 -72,376 72,376 72,218 
		2484,218 2484,551 2628,551 2628,218.321 2628,84 2628,84 	"/>
	<polygon fill="#FFFFFF" points="2484,1702 72,1701.679 72,1544 -72,1544 -72,1702 -2485,1702 -2485,1369 -2628,1369 -2628,1836 
		-2628,1836 -2484.336,1836 -71.832,1836 71.833,1836 2484.336,1836 2628,1836 2628,1701.679 2628,1369 2484,1369 	"/>
</g>
</svg>
