<?xml version="1.0" encoding="utf-8"?>
<!-- Generator: Adobe Illustrator 17.0.0, SVG Export Plug-In . SVG Version: 6.00 Build 0)  -->
<!DOCTYPE svg PUBLIC "-//W3C//DTD SVG 1.1//EN" "http://www.w3.org/Graphics/SVG/1.1/DTD/svg11.dtd">
<svg version="1.1" id="Layer_1" xmlns="http://www.w3.org/2000/svg" xmlns:xlink="http://www.w3.org/1999/xlink" x="0px" y="0px"
	 width="1080px" height="1920px" viewBox="0 0 1080 1920" enable-background="new 0 0 1080 1920" xml:space="preserve">
<rect x="-4320" y="0" width="6480" height="1920"/>
<path fill="#FFFFFF" d="M328.365,672.588c71.285,0,143.737,24.54,184.636,63.103l60.768-114.521
	c-66.611-52.587-146.075-82.97-262.933-82.97C60.759,538.2-97,725.175-97,960.059c0,254.753,158.926,421.861,426.534,421.861
	c101.666,0,233.717-42.069,306.169-114.521V928.508H303.825v134.388h197.491v128.543c-30.383,29.216-106.341,56.093-169.444,56.093
	c-165.94,0-276.955-113.353-276.955-287.473C54.916,777.76,170.606,672.588,328.365,672.588z"/>
<polygon fill="#FFFFFF" points="1261.277,685.383 1261.277,550.995 788,550.995 788,1369.005 1272.962,1369.005 1272.962,1234.617 
	931.737,1234.617 931.737,1023.104 1226.22,1023.104 1226.22,888.716 931.737,888.716 931.737,685.383 "/>
<g>
	<polygon fill="#FFFFFF" points="-3708,84 -3708,84 -3708,84 -3708,551 -3565,551 -3565,218 -1152,218.321 -1152,376 -1008,376 
		-1008,218 1404,218 1404,551 1548,551 1548,218.321 1548,84 1548,84 	"/>
	<polygon fill="#FFFFFF" points="1404,1702 -1008,1701.679 -1008,1544 -1152,1544 -1152,1702 -3565,1702 -3565,1369 -3708,1369 
		-3708,1836 -3708,1836 -3564.336,1836 -1151.832,1836 -1008.167,1836 1404.336,1836 1548,1836 1548,1701.679 1548,1369 1404,1369 	
		"/>
</g>
</svg>
