<?xml version="1.0" encoding="utf-8"?>
<!-- Generator: Adobe Illustrator 17.0.0, SVG Export Plug-In . SVG Version: 6.00 Build 0)  -->
<!DOCTYPE svg PUBLIC "-//W3C//DTD SVG 1.1//EN" "http://www.w3.org/Graphics/SVG/1.1/DTD/svg11.dtd">
<svg version="1.1" id="Layer_1" xmlns="http://www.w3.org/2000/svg" xmlns:xlink="http://www.w3.org/1999/xlink" x="0px" y="0px"
	 width="1080px" height="1920px" viewBox="0 0 1080 1920" enable-background="new 0 0 1080 1920" xml:space="preserve">
<rect x="-5400" y="0" width="6480" height="1920"/>
<polygon fill="#FFFFFF" points="181.277,685.383 181.277,550.995 -292,550.995 -292,1369.005 192.962,1369.005 192.962,1234.617 
	-148.263,1234.617 -148.263,1023.104 146.22,1023.104 146.22,888.716 -148.263,888.716 -148.263,685.383 "/>
<g>
	<polygon fill="#FFFFFF" points="-4788,84 -4788,84 -4788,84 -4788,551 -4645,551 -4645,218 -2232,218.321 -2232,376 -2088,376 
		-2088,218 324,218 324,551 468,551 468,218.321 468,84 468,84 	"/>
	<polygon fill="#FFFFFF" points="324,1702 -2088,1701.679 -2088,1544 -2232,1544 -2232,1702 -4645,1702 -4645,1369 -4788,1369 
		-4788,1836 -4788,1836 -4644.336,1836 -2231.832,1836 -2088.167,1836 324.336,1836 468,1836 468,1701.679 468,1369 324,1369 	"/>
</g>
</svg>
