<?xml version="1.0" encoding="utf-8"?>
<!-- Generator: Adobe Illustrator 17.0.0, SVG Export Plug-In . SVG Version: 6.00 Build 0)  -->
<!DOCTYPE svg PUBLIC "-//W3C//DTD SVG 1.1//EN" "http://www.w3.org/Graphics/SVG/1.1/DTD/svg11.dtd">
<svg version="1.1" id="Layer_1" xmlns="http://www.w3.org/2000/svg" xmlns:xlink="http://www.w3.org/1999/xlink" x="0px" y="0px"
	 width="1080px" height="1920px" viewBox="0 0 1080 1920" enable-background="new 0 0 1080 1920" xml:space="preserve">
<rect x="0" y="0" width="6480" height="1920"/>
<g>
	<polygon fill="#FFFFFF" points="612,84 612,84 612,84 612,551.201 755.664,551.201 755.664,218.32 3168.167,218.32 3168.167,376 
		3311.832,376 3311.832,218.32 5724.336,218.32 5724.336,551.201 5868,551.201 5868,218.32 5868,84 5868,84 	"/>
	<polygon fill="#FFFFFF" points="5724.336,1701.68 3311.832,1701.68 3311.832,1544 3168.167,1544 3168.167,1701.68 755.664,1701.68 
		755.664,1368.799 612,1368.799 612,1836 612,1836 755.664,1836 3168.167,1836 3311.832,1836 5724.336,1836 5868,1836 5868,1701.68 
		5868,1368.799 5724.336,1368.799 	"/>
	<polygon fill="#FFFFFF" points="1759.702,1371.135 1759.702,553.536 1624.214,553.536 1357.911,935.471 1078.758,553.536 
		933.926,553.536 933.926,1371.135 1077.591,1371.135 1077.591,783.631 1338.054,1143.375 1359.078,1143.375 1617.207,780.127 
		1617.207,1371.135 	"/>
</g>
</svg>
