<?xml version="1.0" encoding="utf-8"?>
<!-- Generator: Adobe Illustrator 17.0.0, SVG Export Plug-In . SVG Version: 6.00 Build 0)  -->
<!DOCTYPE svg PUBLIC "-//W3C//DTD SVG 1.1//EN" "http://www.w3.org/Graphics/SVG/1.1/DTD/svg11.dtd">
<svg version="1.1" id="Layer_1" xmlns="http://www.w3.org/2000/svg" xmlns:xlink="http://www.w3.org/1999/xlink" x="0px" y="0px"
	 width="1080px" height="1920px" viewBox="0 0 1080 1920" enable-background="new 0 0 1080 1920" xml:space="preserve">
<rect x="-1080" y="0" width="6480" height="1920"/>
<g>
	<polygon fill="#FFFFFF" points="-468,84 -468,84 -468,84 -468,551.201 -324.336,551.201 -324.336,218.32 2088.167,218.32 
		2088.167,376 2231.832,376 2231.832,218.32 4644.336,218.32 4644.336,551.201 4788,551.201 4788,218.32 4788,84 4788,84 	"/>
	<polygon fill="#FFFFFF" points="4644.336,1701.68 2231.832,1701.68 2231.832,1544 2088.167,1544 2088.167,1701.68 
		-324.336,1701.68 -324.336,1368.799 -468,1368.799 -468,1836 -468,1836 -324.336,1836 2088.167,1836 2231.832,1836 4644.336,1836 
		4788,1836 4788,1701.68 4788,1368.799 4644.336,1368.799 	"/>
	<polygon fill="#FFFFFF" points="679.702,1371.135 679.702,553.536 544.214,553.536 277.911,935.471 -1.242,553.536 
		-146.074,553.536 -146.074,1371.135 -2.409,1371.135 -2.409,783.631 258.054,1143.375 279.077,1143.375 537.207,780.127 
		537.207,1371.135 	"/>
	<path fill="#FFFFFF" d="M1350.001,1162.064l85.262,209.071h153.008l-345.727-819.936H1116.4l-345.727,819.936h144.832
		l85.264-209.071H1350.001z M1175.969,736.911l119.136,290.833h-239.441L1175.969,736.911z"/>
</g>
</svg>
