<?xml version="1.0" encoding="utf-8"?>
<!-- Generator: Adobe Illustrator 17.0.0, SVG Export Plug-In . SVG Version: 6.00 Build 0)  -->
<!DOCTYPE svg PUBLIC "-//W3C//DTD SVG 1.1//EN" "http://www.w3.org/Graphics/SVG/1.1/DTD/svg11.dtd">
<svg version="1.1" id="Layer_1" xmlns="http://www.w3.org/2000/svg" xmlns:xlink="http://www.w3.org/1999/xlink" x="0px" y="0px"
	 width="1080px" height="1920px" viewBox="0 0 1080 1920" enable-background="new 0 0 1080 1920" xml:space="preserve">
<rect x="-4320" y="0" width="6480" height="1920"/>
<g>
	<polygon fill="#FFFFFF" points="-3708,84 -3708,84 -3708,84 -3708,551.201 -3564.336,551.201 -3564.336,218.32 -1151.833,218.32 
		-1151.833,376 -1008.169,376 -1008.169,218.32 1404.336,218.32 1404.336,551.201 1548,551.201 1548,218.32 1548,84 1548,84 	"/>
	<polygon fill="#FFFFFF" points="1404.336,1701.68 -1008.169,1701.68 -1008.169,1544 -1151.833,1544 -1151.833,1701.68 
		-3564.336,1701.68 -3564.336,1368.799 -3708,1368.799 -3708,1836 -3708,1836 -3564.336,1836 -1151.833,1836 -1008.169,1836 
		1404.336,1836 1548,1836 1548,1701.68 1548,1368.799 1404.336,1368.799 	"/>
	<path fill="#FFFFFF" d="M320.54,675.008c71.249,0,143.664,24.528,184.543,63.071l60.738-114.463
		c-66.578-52.56-146.002-82.928-262.8-82.928c-249.952,0-407.632,186.881-407.632,421.647c0,254.625,158.846,421.649,426.32,421.649
		c101.615,0,233.599-42.048,306.015-114.463V930.8H296.012v134.32h197.392v128.479c-30.368,29.201-106.288,56.065-169.359,56.065
		c-165.857,0-276.816-113.296-276.816-287.329C47.229,780.127,162.861,675.008,320.54,675.008z"/>
	<polygon fill="#FFFFFF" points="1254.11,687.856 1254.11,553.536 781.071,553.536 781.071,1371.135 1265.789,1371.135 
		1265.789,1236.815 924.735,1236.815 924.735,1025.408 1219.071,1025.408 1219.071,891.088 924.735,891.088 924.735,687.856 	"/>
</g>
</svg>
