<?xml version="1.0" encoding="utf-8"?>
<!-- Generator: Adobe Illustrator 17.0.0, SVG Export Plug-In . SVG Version: 6.00 Build 0)  -->
<!DOCTYPE svg PUBLIC "-//W3C//DTD SVG 1.1//EN" "http://www.w3.org/Graphics/SVG/1.1/DTD/svg11.dtd">
<svg version="1.1" id="Layer_1" xmlns="http://www.w3.org/2000/svg" xmlns:xlink="http://www.w3.org/1999/xlink" x="0px" y="0px"
	 width="1080px" height="1920px" viewBox="0 0 1080 1920" enable-background="new 0 0 1080 1920" xml:space="preserve">
<rect x="0" y="0" width="6480" height="1920"/>
<g>
	<path fill="#FFFFFF" d="M84.56,655.996h6.193l18.938,25.85l18.146-25.85h5.833V706.4h-6.121v-40.756l-17.857,25.059h-0.936
		l-18.073-24.842V706.4H84.56V655.996z"/>
	<path fill="#FFFFFF" d="M184.277,685.375c0,15.408-9.217,21.674-19.514,21.674c-12.097,0-20.882-7.418-20.882-22.18v-28.873h6.121
		v27.723c0,10.943,5.328,17.568,14.761,17.568c8.281,0,13.393-5.688,13.393-17.137v-28.154h6.121V685.375z"/>
	<path fill="#FFFFFF" d="M191.408,668.453c0-7.273,5.616-13.178,15.193-13.178c5.833,0,11.017,2.088,13.897,5.256l-3.312,4.609
		c-2.664-2.664-5.833-4.105-10.225-4.105c-5.616,0-9.073,2.953-9.073,7.418c0,12.457,24.626,7.775,24.626,24.986
		c0,8.279-7.273,13.68-16.417,13.68c-6.193,0-13.393-2.807-15.913-7.561l3.528-4.176c2.952,3.889,8.209,5.977,12.457,5.977
		c5.256,0,9.865-2.736,9.865-7.848C216.034,681.197,191.408,685.158,191.408,668.453z"/>
	<path fill="#FFFFFF" d="M229.474,655.996h28.443v5.76h-22.322v16.273h20.162v5.76h-20.162v16.85h23.042v5.762h-29.163V655.996z"/>
	<path fill="#FFFFFF" d="M304.566,685.375c0,15.408-9.217,21.674-19.514,21.674c-12.097,0-20.882-7.418-20.882-22.18v-28.873h6.121
		v27.723c0,10.943,5.328,17.568,14.761,17.568c8.281,0,13.393-5.688,13.393-17.137v-28.154h6.121V685.375z"/>
	<path fill="#FFFFFF" d="M314.743,655.996h6.193l18.938,25.85l18.146-25.85h5.833V706.4h-6.121v-40.756l-17.857,25.059h-0.936
		l-18.073-24.842V706.4h-6.121V655.996z"/>
	<path fill="#FFFFFF" d="M99.754,743.707h5.257l21.674,50.693h-6.552l-6.481-15.266h-22.97L84.273,794.4H78.08L99.754,743.707z
		 M93.129,773.375h18.146l-9.073-21.531L93.129,773.375z"/>
	<path fill="#FFFFFF" d="M168.587,794.4l-31.467-39.604V794.4h-5.76v-50.404h4.896l31.467,39.746v-39.746h5.76V794.4H168.587z"/>
	<path fill="#FFFFFF" d="M184.179,743.996h0.864c3.312,0,8.785-0.217,12.889-0.217c20.162,0,28.298,11.594,28.298,24.77
		c0,14.33-9.649,25.994-28.875,25.994c-3.384,0-8.137-0.143-12.385-0.143h-0.792V743.996z M190.299,749.756v38.883
		c3.312,0.072,6.409,0.145,7.273,0.145c14.401,0,22.178-8.496,22.178-20.234c0-10.943-7.345-19.01-21.962-19.01
		C194.764,749.539,192.82,749.683,190.299,749.756z"/>
	<path fill="#FFFFFF" d="M250.13,743.996h28.443v5.76H256.25v16.273h20.162v5.76H256.25v16.85h23.042v5.762H250.13V743.996z"/>
	<path fill="#FFFFFF" d="M309.222,768.765l18.506,25.635h-7.273l-15.265-20.955L289.997,794.4h-7.201l18.506-25.635l-17.714-24.77
		h7.201l14.617,20.162l14.401-20.162h7.272L309.222,768.765z"/>
	<path fill="#FFFFFF" d="M366.405,771.574h-27.722V794.4h-6.121v-50.404h6.121v21.816h27.722v-21.816h6.121V794.4h-6.121V771.574z"
		/>
	<path fill="#FFFFFF" d="M383.862,743.996h6.121V794.4h-6.121V743.996z"/>
	<path fill="#FFFFFF" d="M401.185,744.068c2.808-0.072,9.145-0.289,13.825-0.289c12.025,0,16.201,5.473,16.201,12.457
		c0,6.336-3.816,10.082-8.641,11.666v0.143c6.264,1.01,10.441,5.041,10.441,11.953c0,10.225-7.849,14.617-18.29,14.617
		c-4.464,0-10.585-0.143-13.537-0.287V744.068z M407.305,749.756v16.273h8.065c5.328,0,9.721-2.951,9.721-8.424
		c0-5.258-3.528-8.066-10.225-8.066C412.202,749.539,409.105,749.683,407.305,749.756z M407.305,771.43v17.139
		c1.656,0.143,4.896,0.287,7.777,0.287c7.417,0,11.809-3.023,11.809-9.217c0-5.328-4.176-8.209-11.449-8.209H407.305z"/>
	<path fill="#FFFFFF" d="M441.993,743.996h6.121V794.4h-6.121V743.996z"/>
	<path fill="#FFFFFF" d="M453.152,743.996h41.404v5.76h-17.642V794.4h-6.121v-44.645h-17.642V743.996z"/>
	<path fill="#FFFFFF" d="M499.714,743.996h6.12V794.4h-6.12V743.996z"/>
	<path fill="#FFFFFF" d="M539.517,743.275c14.617,0,25.706,10.586,25.706,25.922c0,14.979-11.089,25.922-25.706,25.922
		s-25.707-10.584-25.707-25.922C513.81,754.58,524.539,743.275,539.517,743.275z M539.517,789.359
		c11.521,0,19.226-8.785,19.226-20.162c0-11.736-8.425-20.162-19.226-20.162c-10.945,0-19.226,8.426-19.226,20.162
		C520.291,780.646,528.716,789.359,539.517,789.359z"/>
	<path fill="#FFFFFF" d="M609.818,794.4l-31.467-39.604V794.4h-5.761v-50.404h4.896l31.467,39.746v-39.746h5.76V794.4H609.818z"/>
	<path fill="#FFFFFF" d="M99.754,831.707h5.257l21.674,50.693h-6.552l-6.481-15.266h-22.97L84.273,882.4H78.08L99.754,831.707z
		 M93.129,861.375h18.146l-9.073-21.531L93.129,861.375z"/>
	<path fill="#FFFFFF" d="M129.495,844.453c0-7.273,5.616-13.178,15.193-13.178c5.833,0,11.017,2.088,13.897,5.256l-3.312,4.609
		c-2.664-2.664-5.832-4.105-10.225-4.105c-5.616,0-9.073,2.953-9.073,7.418c0,12.457,24.626,7.775,24.626,24.986
		c0,8.279-7.273,13.68-16.417,13.68c-6.193,0-13.393-2.807-15.913-7.561l3.528-4.176c2.952,3.889,8.209,5.977,12.457,5.977
		c5.256,0,9.865-2.736,9.865-7.848C154.121,857.197,129.495,861.158,129.495,844.453z"/>
	<path fill="#FFFFFF" d="M165.257,844.453c0-7.273,5.616-13.178,15.193-13.178c5.833,0,11.017,2.088,13.897,5.256l-3.312,4.609
		c-2.664-2.664-5.833-4.105-10.225-4.105c-5.616,0-9.073,2.953-9.073,7.418c0,12.457,24.626,7.775,24.626,24.986
		c0,8.279-7.273,13.68-16.417,13.68c-6.193,0-13.393-2.807-15.913-7.561l3.528-4.176c2.952,3.889,8.209,5.977,12.457,5.977
		c5.256,0,9.865-2.736,9.865-7.848C189.883,857.197,165.257,861.158,165.257,844.453z"/>
	<path fill="#FFFFFF" d="M225.343,831.275c14.617,0,25.706,10.586,25.706,25.922c0,14.979-11.089,25.922-25.706,25.922
		c-14.617,0-25.706-10.584-25.706-25.922C199.636,842.58,210.365,831.275,225.343,831.275z M225.343,877.359
		c11.521,0,19.226-8.785,19.226-20.162c0-11.736-8.425-20.162-19.226-20.162c-10.945,0-19.226,8.426-19.226,20.162
		C206.117,868.646,214.542,877.359,225.343,877.359z"/>
	<path fill="#FFFFFF" d="M296.588,877.504c-3.384,3.455-9.649,5.615-15.913,5.615c-15.121,0-25.562-10.225-25.562-25.922
		c0-14.473,9.361-25.922,25.13-25.922c6.48,0,11.737,1.801,15.337,4.896l-2.808,4.609c-3.312-2.449-7.201-3.746-12.457-3.746
		c-10.945,0-18.722,8.209-18.722,20.162c0,12.025,7.993,20.162,19.658,20.162c4.824,0,9.433-1.656,12.889-4.465L296.588,877.504z"/>
	<path fill="#FFFFFF" d="M302.394,831.996h6.121V882.4h-6.121V831.996z"/>
	<path fill="#FFFFFF" d="M335.392,831.707h5.257l21.674,50.693h-6.552l-6.481-15.266h-22.97l-6.408,15.266h-6.193L335.392,831.707z
		 M328.768,861.375h18.146l-9.073-21.531L328.768,861.375z"/>
	<path fill="#FFFFFF" d="M354.174,831.996h41.404v5.76h-17.641V882.4h-6.121v-44.645h-17.642V831.996z"/>
	<path fill="#FFFFFF" d="M400.736,831.996h6.121V882.4h-6.121V831.996z"/>
	<path fill="#FFFFFF" d="M440.539,831.275c14.617,0,25.706,10.586,25.706,25.922c0,14.979-11.089,25.922-25.706,25.922
		c-14.617,0-25.706-10.584-25.706-25.922C414.833,842.58,425.562,831.275,440.539,831.275z M440.539,877.359
		c11.521,0,19.226-8.785,19.226-20.162c0-11.736-8.425-20.162-19.226-20.162c-10.945,0-19.226,8.426-19.226,20.162
		C421.313,868.646,429.738,877.359,440.539,877.359z"/>
	<path fill="#FFFFFF" d="M510.841,882.4l-31.467-39.604V882.4h-5.761v-50.404h4.896l31.467,39.746v-39.746h5.76V882.4H510.841z"/>
</g>
<g>
	<g>
		<polygon fill="#FFFFFF" points="80,550 80,550 80,550 80,566 84.92,566 84.92,554.6 167.54,554.6 167.54,560 172.46,560 
			172.46,554.6 255.08,554.6 255.08,566 260,566 260,554.6 260,550 260,550 		"/>
		<polygon fill="#FFFFFF" points="255.08,605.4 172.46,605.4 172.46,600 167.54,600 167.54,605.4 84.92,605.4 84.92,594 80,594 
			80,610 80,610 84.92,610 167.54,610 172.46,610 255.08,610 260,610 260,605.4 260,594 255.08,594 		"/>
		<polygon fill="#FFFFFF" points="119.305,594.08 119.305,566.08 114.665,566.08 105.545,579.16 95.985,566.08 91.025,566.08 
			91.025,594.08 95.945,594.08 95.945,573.96 104.865,586.28 105.585,586.28 114.425,573.84 114.425,594.08 		"/>
		<path fill="#FFFFFF" d="M142.26,586.92l2.92,7.16h5.24L138.58,566h-4.32l-11.84,28.08h4.96l2.92-7.16H142.26z M136.3,572.36
			l4.08,9.96h-8.2L136.3,572.36z"/>
		<polygon fill="#FFFFFF" points="173.556,594.08 177.476,594.08 177.476,566.08 172.876,566.08 172.876,585.56 157.476,566.08 
			153.556,566.08 153.556,594.08 158.156,594.08 158.156,574.68 		"/>
		<polygon fill="#FFFFFF" points="200.116,570.68 200.116,566.08 183.916,566.08 183.916,594.08 200.516,594.08 200.516,589.48 
			188.836,589.48 188.836,582.24 198.916,582.24 198.916,577.64 188.836,577.64 188.836,570.68 		"/>
		<path fill="#FFFFFF" d="M217.964,570.24c2.44,0,4.92,0.84,6.32,2.16l2.08-3.92c-2.28-1.8-5-2.84-9-2.84
			c-8.56,0-13.96,6.4-13.96,14.44c0,8.72,5.44,14.44,14.6,14.44c3.48,0,8-1.44,10.48-3.92V579h-11.36v4.6h6.76v4.4
			c-1.04,1-3.64,1.92-5.8,1.92c-5.68,0-9.48-3.88-9.48-9.84C208.604,573.84,212.564,570.24,217.964,570.24z"/>
		<polygon fill="#FFFFFF" points="249.935,570.68 249.935,566.08 233.735,566.08 233.735,594.08 250.335,594.08 250.335,589.48 
			238.655,589.48 238.655,582.24 248.735,582.24 248.735,577.64 238.655,577.64 238.655,570.68 		"/>
	</g>
</g>
</svg>
