<?xml version="1.0" encoding="utf-8"?>
<!-- Generator: Adobe Illustrator 17.0.0, SVG Export Plug-In . SVG Version: 6.00 Build 0)  -->
<!DOCTYPE svg PUBLIC "-//W3C//DTD SVG 1.1//EN" "http://www.w3.org/Graphics/SVG/1.1/DTD/svg11.dtd">
<svg version="1.1" id="Layer_1" xmlns="http://www.w3.org/2000/svg" xmlns:xlink="http://www.w3.org/1999/xlink" x="0px" y="0px"
	 width="1080px" height="1920px" viewBox="0 0 1080 1920" enable-background="new 0 0 1080 1920" xml:space="preserve">
<rect x="-1080" y="0" width="6480" height="1920"/>
<g>
	<path fill="#FFFFFF" d="M122.076,701.504c-3.384,3.455-9.649,5.615-15.913,5.615c-15.121,0-25.562-10.225-25.562-25.922
		c0-14.473,9.361-25.922,25.13-25.922c6.48,0,11.737,1.801,15.337,4.896l-2.808,4.609c-3.312-2.449-7.201-3.746-12.457-3.746
		c-10.945,0-18.722,8.209-18.722,20.162c0,12.025,7.993,20.162,19.658,20.162c4.824,0,9.433-1.656,12.889-4.465L122.076,701.504z"/>
	<path fill="#FFFFFF" d="M127.234,655.996h28.443v5.76h-22.322v16.273h20.162v5.76h-20.162v16.85h23.042v5.762h-29.163V655.996z"/>
	<path fill="#FFFFFF" d="M200.505,706.4l-31.467-39.604V706.4h-5.76v-50.404h4.896l31.467,39.746v-39.746h5.76V706.4H200.505z"/>
	<path fill="#FFFFFF" d="M209.911,655.996h41.404v5.76h-17.641V706.4h-6.121v-44.645h-17.642V655.996z"/>
	<path fill="#FFFFFF" d="M255.825,706.4v-50.404c2.808,0,12.097-0.145,13.537-0.145c13.753,0,17.929,6.84,17.929,14.977
		c0,7.85-5.4,12.818-10.945,14.258l16.777,21.314h-7.489l-15.481-20.162h-8.209V706.4H255.825z M261.945,661.756v18.723h7.417
		c5.833,0,11.449-3.602,11.449-9.578c0-5.184-2.88-9.289-11.809-9.289C267.418,661.611,264.322,661.683,261.945,661.756z"/>
	<path fill="#FFFFFF" d="M316.716,655.707h5.257l21.674,50.693h-6.552l-6.481-15.266h-22.97l-6.408,15.266h-6.193L316.716,655.707z
		 M310.091,685.375h18.146l-9.073-21.531L310.091,685.375z"/>
	<path fill="#FFFFFF" d="M348.322,655.996h6.121v44.643h24.842v5.762h-30.963V655.996z"/>
	<path fill="#FFFFFF" d="M400.664,655.996h6.193l18.938,25.85l18.146-25.85h5.833V706.4h-6.121v-40.756l-17.857,25.059h-0.936
		l-18.073-24.842V706.4h-6.121V655.996z"/>
	<path fill="#FFFFFF" d="M476.158,655.707h5.256l21.674,50.693h-6.552l-6.48-15.266h-22.97l-6.409,15.266h-6.192L476.158,655.707z
		 M469.533,685.375h18.146l-9.073-21.531L469.533,685.375z"/>
	<path fill="#FFFFFF" d="M544.991,706.4l-31.467-39.604V706.4h-5.761v-50.404h4.896l31.467,39.746v-39.746h5.76V706.4H544.991z"/>
	<path fill="#FFFFFF" d="M560.582,655.996h28.442v5.76h-22.322v16.273h20.162v5.76h-20.162v16.85h23.042v5.762h-29.163V655.996z"/>
	<path fill="#FFFFFF" d="M617.695,680.765h19.37v19.369c-4.464,4.465-12.601,6.984-18.866,6.984
		c-15.697,0-25.562-10.225-25.562-25.922c0-14.473,9.721-25.922,24.771-25.922c6.84,0,11.737,1.656,15.841,4.896l-2.665,4.896
		c-2.952-2.664-7.632-4.033-12.457-4.033c-11.233,0-19.009,7.994-19.009,20.162c0,12.242,7.776,20.162,19.226,20.162
		c4.752,0,10.297-1.871,12.961-4.465v-10.369h-13.609V680.765z"/>
	<path fill="#FFFFFF" d="M645.405,655.996h28.442v5.76h-22.322v16.273h20.162v5.76h-20.162v16.85h23.042v5.762h-29.163V655.996z"/>
</g>
<g>
	<g>
		<path fill="#FFFFFF" d="M88.119,565.846h2.24V594h-3.199v-23.555l-4.079,3.199l-1.68-2.6L88.119,565.846z"/>
		<path fill="#FFFFFF" d="M107.159,566.006h3.439l10.518,14.357l10.078-14.357h3.239V594h-3.399v-22.635l-9.918,13.916h-0.52
			l-10.038-13.797V594h-3.399V566.006z"/>
		<path fill="#FFFFFF" d="M140.319,577.244c1.6-1,3.759-1.641,5.999-1.641c5.119,0,6.919,2.68,6.919,7.359V594h-3.039v-2.318
			c-1.08,1.359-2.8,2.6-5.759,2.6c-3.28,0-5.519-2.08-5.519-5.561c0-3.68,2.919-5.719,6.799-5.719c1.4,0,3.279,0.281,4.479,1.16
			c0-3.359-0.52-5.68-4.079-5.68c-2.2,0-3.52,0.561-4.959,1.32L140.319,577.244z M150.197,589.082v-2.281
			c-1.12-0.799-2.48-1.199-4.039-1.199c-1.92,0-3.839,0.881-3.839,2.959c0,1.721,1.16,2.84,3.239,2.84
			C147.918,591.4,149.278,590.16,150.197,589.082z"/>
		<path fill="#FFFFFF" d="M157.595,576.004h3.2v2.199c1.24-1.359,3.519-2.52,5.879-2.52c4.679,0,7.479,2.279,7.479,7.918V594h-3.199
			v-9.799c0-3.758-1.72-5.518-5.079-5.518c-2.04,0-3.919,1-5.079,2.318V594h-3.2V576.004z"/>
		<path fill="#FFFFFF" d="M193.788,592.041c-1.76,1.6-4.359,2.359-6.759,2.359c-5.839,0-9.638-3.719-9.638-9.398
			c0-5.238,3.359-9.398,9.279-9.398c4.639,0,8.358,3.279,8.358,8.238c0,0.881-0.08,1.6-0.2,2.16H180.99
			c0.28,3.398,2.76,5.398,6.279,5.398c2.32,0,4.359-0.799,5.519-1.879L193.788,592.041z M180.79,583.402h10.918
			c-0.16-2.959-2.08-4.799-5.199-4.799C183.23,578.603,181.15,580.642,180.79,583.402z"/>
		<path fill="#FFFFFF" d="M201.574,591.121c-0.32-0.4-0.44-0.961-0.44-1.48c0-0.559,0.16-1.119,0.48-1.52
			c-2.56-1.039-4.039-3.279-4.039-5.918c0-3.6,2.84-6.6,7.359-6.6c1.76,0,3.32,0.48,4.559,1.32l5.279-1.279l0.08,2.598l-3.399,0.84
			c0.56,0.92,0.84,2,0.84,3.121c0,3.6-2.919,6.479-7.359,6.479c-0.4,0-0.8,0-1.2-0.041c-0.16,0.32-0.2,0.68-0.2,1
			c0,0.441,0.12,0.881,0.36,1.201c0.36,0,0.72-0.041,1.08-0.041c5.239,0,9.158,1.881,9.158,5.799c0,3.84-3.919,5.719-9.158,5.719
			c-5.239,0-9.158-1.799-9.158-5.719C195.815,593.68,198.134,591.842,201.574,591.121z M204.973,599.719
			c3.719,0,6.159-1.078,6.159-3.119c0-2-2.32-3.199-6.159-3.199s-6.159,1.199-6.159,3.199S201.254,599.719,204.973,599.719z
			 M204.933,586.082c2.52,0,4.359-1.561,4.359-3.879c0-2.24-1.68-4-4.359-4c-2.639,0-4.359,1.76-4.359,4
			C200.574,584.441,202.294,586.082,204.933,586.082z"/>
		<path fill="#FFFFFF" d="M232.027,592.041c-1.76,1.6-4.359,2.359-6.759,2.359c-5.839,0-9.638-3.719-9.638-9.398
			c0-5.238,3.359-9.398,9.279-9.398c4.639,0,8.358,3.279,8.358,8.238c0,0.881-0.08,1.6-0.2,2.16h-13.838
			c0.28,3.398,2.76,5.398,6.279,5.398c2.32,0,4.359-0.799,5.519-1.879L232.027,592.041z M219.029,583.402h10.918
			c-0.16-2.959-2.08-4.799-5.199-4.799C221.469,578.603,219.389,580.642,219.029,583.402z"/>
		<path fill="#FFFFFF" d="M244.829,580.683c0-3.16,2.56-5.08,6.119-5.08c2.959,0,5.119,1.08,6.199,2.119l-1.52,2.439
			c-1.08-0.959-2.64-1.76-4.519-1.76c-1.8,0-2.88,1.041-2.88,2.24c0,3.799,9.719,2,9.719,8.318c0,3.799-3.359,5.439-6.959,5.439
			c-2.919,0-5.799-1.52-6.639-2.799l1.8-2.281c1.04,1.201,3.399,2.281,5.199,2.281c1.68,0,3.199-0.84,3.199-2.48
			C254.548,585.482,244.829,587.281,244.829,580.683z"/>
		<path fill="#FFFFFF" d="M274.742,592.56c-1.44,1.119-3.439,1.84-5.239,1.84c-5.639,0-9.239-3.719-9.239-9.398
			c0-5.238,4.239-9.398,10.118-9.398c2.879,0,5.719,0.881,7.559,2.039V602h-3.199V592.56z M274.742,589.242v-9.479
			c-1.4-0.801-2.919-1.16-4.399-1.16c-4.039,0-6.679,2.959-6.679,6.559c0,3.68,2.48,6.238,6.239,6.238
			C271.823,591.4,273.783,590.4,274.742,589.242z"/>
		<path fill="#FFFFFF" d="M298.478,594h-3.199v-2.559c-1.24,1.52-3.519,2.959-6.359,2.959c-3.999,0-6.639-2.4-6.639-7.678v-10.719
			h3.199v9.998c0,3.398,1.36,5.398,4.639,5.398c2.08,0,4.039-1.24,5.159-2.68v-12.717h3.199V594z"/>
		<path fill="#FFFFFF" d="M303.268,577.244c1.6-1,3.759-1.641,5.999-1.641c5.119,0,6.919,2.68,6.919,7.359V594h-3.039v-2.318
			c-1.08,1.359-2.8,2.6-5.759,2.6c-3.28,0-5.519-2.08-5.519-5.561c0-3.68,2.919-5.719,6.799-5.719c1.4,0,3.279,0.281,4.479,1.16
			c0-3.359-0.52-5.68-4.079-5.68c-2.2,0-3.52,0.561-4.959,1.32L303.268,577.244z M313.147,589.082v-2.281
			c-1.12-0.799-2.48-1.199-4.039-1.199c-1.92,0-3.839,0.881-3.839,2.959c0,1.721,1.16,2.84,3.239,2.84
			C310.867,591.4,312.227,590.16,313.147,589.082z"/>
		<path fill="#FFFFFF" d="M320.544,576.004h3.199v2.119c0.92-1.359,2.24-2.439,4.519-2.439c1.48,0,2.2,0.24,2.8,0.68l-1.12,3
			c-0.88-0.52-1.36-0.68-2.439-0.68c-2.08,0-3.08,1.238-3.76,2.559V594h-3.199V576.004z"/>
		<path fill="#FFFFFF" d="M347.969,592.041c-1.76,1.6-4.359,2.359-6.759,2.359c-5.839,0-9.638-3.719-9.638-9.398
			c0-5.238,3.359-9.398,9.279-9.398c4.639,0,8.358,3.279,8.358,8.238c0,0.881-0.08,1.6-0.2,2.16h-13.838
			c0.28,3.398,2.76,5.398,6.279,5.398c2.32,0,4.359-0.799,5.519-1.879L347.969,592.041z M334.971,583.402h10.918
			c-0.16-2.959-2.08-4.799-5.199-4.799C337.411,578.603,335.331,580.642,334.971,583.402z"/>
	</g>
</g>
</svg>
