<?xml version="1.0" encoding="utf-8"?>
<!-- Generator: Adobe Illustrator 17.0.0, SVG Export Plug-In . SVG Version: 6.00 Build 0)  -->
<!DOCTYPE svg PUBLIC "-//W3C//DTD SVG 1.1//EN" "http://www.w3.org/Graphics/SVG/1.1/DTD/svg11.dtd">
<svg version="1.1" id="Layer_1" xmlns="http://www.w3.org/2000/svg" xmlns:xlink="http://www.w3.org/1999/xlink" x="0px" y="0px"
	 width="1080px" height="1920px" viewBox="0 0 1080 1920" enable-background="new 0 0 1080 1920" xml:space="preserve">
<rect x="-2160" y="0" width="6480" height="1920"/>
<g>
	<path fill="#FFFFFF" d="M121.788,706.4l-31.467-39.604V706.4h-5.76v-50.404h4.896l31.467,39.746v-39.746h5.76V706.4H121.788z"/>
	<path fill="#FFFFFF" d="M137.38,655.996h28.443v5.76H143.5v16.273h20.162v5.76H143.5v16.85h23.042v5.762H137.38V655.996z"/>
	<path fill="#FFFFFF" d="M223.186,706.4h-5.617l-13.825-40.539L190.207,706.4h-5.616l-15.266-50.404h6.913l11.737,40.107
		l13.033-40.107h5.904l13.393,40.107l11.449-40.107h5.977L223.186,706.4z"/>
	<path fill="#FFFFFF" d="M258.748,655.996h6.192l18.938,25.85l18.146-25.85h5.833V706.4h-6.121v-40.756l-17.857,25.059h-0.937
		l-18.073-24.842V706.4h-6.121V655.996z"/>
	<path fill="#FFFFFF" d="M334.241,655.707h5.257l21.674,50.693h-6.553l-6.48-15.266h-22.97L318.76,706.4h-6.193L334.241,655.707z
		 M327.617,685.375h18.146l-9.073-21.531L327.617,685.375z"/>
	<path fill="#FFFFFF" d="M403.074,706.4l-31.467-39.604V706.4h-5.761v-50.404h4.896l31.467,39.746v-39.746h5.761V706.4H403.074z"/>
	<path fill="#FFFFFF" d="M418.666,655.996h28.442v5.76h-22.322v16.273h20.162v5.76h-20.162v16.85h23.042v5.762h-29.163V655.996z"/>
	<path fill="#FFFFFF" d="M475.778,680.765h19.37v19.369c-4.464,4.465-12.601,6.984-18.865,6.984
		c-15.698,0-25.562-10.225-25.562-25.922c0-14.473,9.721-25.922,24.77-25.922c6.841,0,11.737,1.656,15.841,4.896l-2.664,4.896
		c-2.952-2.664-7.633-4.033-12.457-4.033c-11.233,0-19.01,7.994-19.01,20.162c0,12.242,7.777,20.162,19.226,20.162
		c4.752,0,10.296-1.871,12.961-4.465v-10.369h-13.609V680.765z"/>
	<path fill="#FFFFFF" d="M503.488,655.996h28.442v5.76h-22.322v16.273h20.162v5.76h-20.162v16.85h23.042v5.762h-29.163V655.996z"/>
</g>
<g>
	<path fill="#FFFFFF" d="M81.4,589.601l1.84-2.279c1.4,2.6,3.919,3.879,6.519,3.879c3.479,0,5.519-2.199,5.519-5.039
		c0-3-2.36-4.879-5.719-4.879h-2.2v-3.199h2c2.479,0,4.839-1.961,4.839-4.84c0-2.76-1.72-4.439-4.559-4.439
		c-2.759,0-4.519,1.32-5.759,3.479l-1.8-2.199c1.28-2.84,4.159-4.479,7.799-4.479c4.679,0,7.718,2.68,7.718,7.078
		c0,3.039-1.52,5.52-4.359,6.719v0.121c3.479,0.559,5.439,3.479,5.439,6.758c0,5-3.799,8.119-8.798,8.119
		C85.999,594.4,82.84,592.721,81.4,589.601z"/>
	<path fill="#FFFFFF" d="M111.25,565.605l2.479,0.92l-13.278,35.793l-2.52-0.92L111.25,565.605z"/>
	<path fill="#FFFFFF" d="M113.959,589.601l1.84-2.279c1.4,2.6,3.919,3.879,6.519,3.879c3.479,0,5.519-2.199,5.519-5.039
		c0-3-2.36-4.879-5.719-4.879h-2.2v-3.199h2c2.479,0,4.839-1.961,4.839-4.84c0-2.76-1.72-4.439-4.559-4.439
		c-2.759,0-4.519,1.32-5.759,3.479l-1.8-2.199c1.28-2.84,4.159-4.479,7.799-4.479c4.679,0,7.718,2.68,7.718,7.078
		c0,3.039-1.52,5.52-4.359,6.719v0.121c3.479,0.559,5.439,3.479,5.439,6.758c0,5-3.799,8.119-8.798,8.119
		C118.559,594.4,115.399,592.721,113.959,589.601z"/>
	<path fill="#FFFFFF" d="M144.319,572.924c0-4.039,3.12-7.318,8.439-7.318c3.239,0,6.119,1.16,7.719,2.92l-1.84,2.559
		c-1.48-1.479-3.24-2.279-5.679-2.279c-3.119,0-5.039,1.641-5.039,4.119c0,6.92,13.678,4.32,13.678,13.877c0,4.6-4.04,7.6-9.119,7.6
		c-3.439,0-7.438-1.561-8.838-4.199l1.959-2.32c1.64,2.16,4.56,3.32,6.919,3.32c2.919,0,5.479-1.52,5.479-4.359
		C157.996,580.002,144.319,582.203,144.319,572.924z"/>
	<path fill="#FFFFFF" d="M165.174,571.004h3.2v5h6.599v3h-6.599v7.838c0,2.84,0.92,4.479,3.199,4.479c1.24,0,2.2-0.52,2.84-1l1,2.48
		c-0.959,0.799-2.599,1.52-4.599,1.52c-4.039,0-5.639-2.559-5.639-7.158V571.004z"/>
	<path fill="#FFFFFF" d="M180.246,589.721c1.24,0,2.12,1.08,2.12,2.121c0,1.199-0.88,2.279-2.12,2.279
		c-1.4,0-2.279-1.08-2.279-2.279C177.967,590.801,178.846,589.721,180.246,589.721z"/>
	<path fill="#FFFFFF" d="M208.084,579.763h10.758v10.758c-2.479,2.479-6.999,3.879-10.479,3.879c-8.718,0-14.197-5.68-14.197-14.398
		c0-8.037,5.399-14.396,13.757-14.396c3.799,0,6.519,0.92,8.799,2.719l-1.48,2.721c-1.64-1.48-4.239-2.24-6.919-2.24
		c-6.239,0-10.558,4.439-10.558,11.197c0,6.799,4.319,11.199,10.678,11.199c2.64,0,5.719-1.041,7.199-2.48v-5.758h-7.559V579.763z"
		/>
	<path fill="#FFFFFF" d="M238.807,592.041c-1.76,1.6-4.359,2.359-6.759,2.359c-5.839,0-9.639-3.719-9.639-9.398
		c0-5.238,3.359-9.398,9.279-9.398c4.639,0,8.358,3.279,8.358,8.238c0,0.881-0.08,1.6-0.2,2.16h-13.837
		c0.28,3.398,2.759,5.398,6.279,5.398c2.32,0,4.359-0.799,5.519-1.879L238.807,592.041z M225.809,583.402h10.918
		c-0.16-2.959-2.08-4.799-5.199-4.799C228.249,578.603,226.169,580.642,225.809,583.402z"/>
	<path fill="#FFFFFF" d="M251.98,575.603c5.759,0,9.598,4,9.598,9.398s-3.839,9.398-9.598,9.398c-5.759,0-9.599-4-9.599-9.398
		S246.22,575.603,251.98,575.603z M251.98,591.4c3.599,0,6.199-2.559,6.199-6.398c0-3.76-2.6-6.398-6.199-6.398
		c-3.52,0-6.199,2.6-6.199,6.398C245.78,588.762,248.38,591.4,251.98,591.4z"/>
	<path fill="#FFFFFF" d="M265.076,576.004h3.199v2.119c0.92-1.359,2.24-2.439,4.52-2.439c1.479,0,2.2,0.24,2.799,0.68l-1.12,3
		c-0.88-0.52-1.36-0.68-2.439-0.68c-2.08,0-3.08,1.238-3.76,2.559V594h-3.199V576.004z"/>
	<path fill="#FFFFFF" d="M280.772,591.121c-0.32-0.4-0.44-0.961-0.44-1.48c0-0.559,0.16-1.119,0.48-1.52
		c-2.56-1.039-4.04-3.279-4.04-5.918c0-3.6,2.84-6.6,7.359-6.6c1.76,0,3.319,0.48,4.559,1.32l5.279-1.279l0.08,2.598l-3.399,0.84
		c0.56,0.92,0.84,2,0.84,3.121c0,3.6-2.919,6.479-7.359,6.479c-0.4,0-0.8,0-1.2-0.041c-0.16,0.32-0.2,0.68-0.2,1
		c0,0.441,0.12,0.881,0.36,1.201c0.36,0,0.72-0.041,1.08-0.041c5.239,0,9.158,1.881,9.158,5.799c0,3.84-3.919,5.719-9.158,5.719
		s-9.159-1.799-9.159-5.719C275.012,593.68,277.332,591.842,280.772,591.121z M284.171,599.719c3.719,0,6.159-1.078,6.159-3.119
		c0-2-2.319-3.199-6.159-3.199s-6.159,1.199-6.159,3.199S280.452,599.719,284.171,599.719z M284.131,586.082
		c2.52,0,4.359-1.561,4.359-3.879c0-2.24-1.68-4-4.359-4c-2.64,0-4.359,1.76-4.359,4
		C279.772,584.441,281.491,586.082,284.131,586.082z"/>
	<path fill="#FFFFFF" d="M311.225,592.041c-1.76,1.6-4.359,2.359-6.759,2.359c-5.839,0-9.639-3.719-9.639-9.398
		c0-5.238,3.359-9.398,9.279-9.398c4.639,0,8.358,3.279,8.358,8.238c0,0.881-0.08,1.6-0.2,2.16h-13.837
		c0.28,3.398,2.759,5.398,6.279,5.398c2.32,0,4.359-0.799,5.519-1.879L311.225,592.041z M298.227,583.402h10.918
		c-0.16-2.959-2.08-4.799-5.199-4.799C300.667,578.603,298.587,580.642,298.227,583.402z"/>
	<path fill="#FFFFFF" d="M315.091,566.006h3.2v8.918h-3.2V566.006z"/>
	<path fill="#FFFFFF" d="M321.731,580.683c0-3.16,2.56-5.08,6.119-5.08c2.959,0,5.119,1.08,6.199,2.119l-1.52,2.439
		c-1.08-0.959-2.64-1.76-4.519-1.76c-1.8,0-2.88,1.041-2.88,2.24c0,3.799,9.719,2,9.719,8.318c0,3.799-3.359,5.439-6.959,5.439
		c-2.919,0-5.799-1.52-6.639-2.799l1.799-2.281c1.04,1.201,3.399,2.281,5.199,2.281c1.68,0,3.2-0.84,3.2-2.48
		C331.45,585.482,321.731,587.281,321.731,580.683z"/>
	<path fill="#FFFFFF" d="M347.331,566.006h3.199v21.756c0,2.439,0.6,3.559,2.12,3.559c0.879,0,1.68-0.398,2.279-0.799l0.72,2.439
		c-0.959,0.76-2.359,1.359-4.239,1.359c-2.719,0-4.079-1.639-4.079-5.119V566.006z"/>
	<path fill="#FFFFFF" d="M358.434,577.244c1.6-1,3.759-1.641,5.999-1.641c5.119,0,6.919,2.68,6.919,7.359V594h-3.04v-2.318
		c-1.08,1.359-2.799,2.6-5.759,2.6c-3.28,0-5.52-2.08-5.52-5.561c0-3.68,2.92-5.719,6.799-5.719c1.399,0,3.279,0.281,4.479,1.16
		c0-3.359-0.52-5.68-4.079-5.68c-2.2,0-3.52,0.561-4.959,1.32L358.434,577.244z M368.313,589.082v-2.281
		c-1.12-0.799-2.479-1.199-4.039-1.199c-1.92,0-3.839,0.881-3.839,2.959c0,1.721,1.16,2.84,3.239,2.84
		C366.033,591.4,367.393,590.16,368.313,589.082z"/>
	<path fill="#FFFFFF" d="M375.71,576.004h3.2v2.199c1.24-1.359,3.52-2.52,5.879-2.52c4.679,0,7.479,2.279,7.479,7.918V594h-3.2
		v-9.799c0-3.758-1.72-5.518-5.079-5.518c-2.04,0-3.919,1-5.079,2.318V594h-3.2V576.004z"/>
	<path fill="#FFFFFF" d="M411.903,592.041c-1.76,1.6-4.359,2.359-6.759,2.359c-5.839,0-9.638-3.719-9.638-9.398
		c0-5.238,3.359-9.398,9.278-9.398c4.639,0,8.358,3.279,8.358,8.238c0,0.881-0.08,1.6-0.2,2.16h-13.838
		c0.28,3.398,2.76,5.398,6.279,5.398c2.319,0,4.359-0.799,5.519-1.879L411.903,592.041z M398.905,583.402h10.918
		c-0.16-2.959-2.08-4.799-5.199-4.799C401.345,578.603,399.265,580.642,398.905,583.402z"/>
</g>
</svg>
