<?xml version="1.0" encoding="utf-8"?>
<!-- Generator: Adobe Illustrator 17.0.0, SVG Export Plug-In . SVG Version: 6.00 Build 0)  -->
<!DOCTYPE svg PUBLIC "-//W3C//DTD SVG 1.1//EN" "http://www.w3.org/Graphics/SVG/1.1/DTD/svg11.dtd">
<svg version="1.1" id="Layer_1" xmlns="http://www.w3.org/2000/svg" xmlns:xlink="http://www.w3.org/1999/xlink" x="0px" y="0px"
	 width="1080px" height="1920px" viewBox="0 0 1080 1920" enable-background="new 0 0 1080 1920" xml:space="preserve">
<rect x="-3240" y="0" width="6480" height="1920"/>
<g>
	<path fill="#FFFFFF" d="M84.561,655.995h28.442v5.761H90.681v16.273h20.162v5.76H90.681v16.85h23.042v5.761H84.561V655.995z"/>
	<path fill="#FFFFFF" d="M143.653,680.765l18.505,25.634h-7.272l-15.266-20.954l-15.193,20.954h-7.201l18.506-25.634l-17.714-24.771
		h7.201l14.617,20.162l14.401-20.162h7.272L143.653,680.765z"/>
	<path fill="#FFFFFF" d="M200.836,683.573h-27.722v22.826h-6.121v-50.404h6.121v21.817h27.722v-21.817h6.121v50.404h-6.121V683.573z
		"/>
	<path fill="#FFFFFF" d="M218.293,655.995h6.12v50.404h-6.12V655.995z"/>
	<path fill="#FFFFFF" d="M235.615,656.067c2.808-0.072,9.145-0.288,13.825-0.288c12.025,0,16.201,5.473,16.201,12.457
		c0,6.336-3.816,10.081-8.641,11.665v0.144c6.265,1.009,10.441,5.041,10.441,11.953c0,10.225-7.849,14.617-18.29,14.617
		c-4.464,0-10.585-0.144-13.537-0.288V656.067z M241.736,661.756v16.273h8.065c5.329,0,9.721-2.952,9.721-8.425
		c0-5.257-3.528-8.065-10.225-8.065C246.632,661.539,243.536,661.683,241.736,661.756z M241.736,683.43v17.138
		c1.656,0.144,4.896,0.287,7.777,0.287c7.417,0,11.809-3.023,11.809-9.217c0-5.328-4.176-8.208-11.449-8.208H241.736z"/>
	<path fill="#FFFFFF" d="M276.424,655.995h6.121v50.404h-6.121V655.995z"/>
	<path fill="#FFFFFF" d="M287.583,655.995h41.404v5.761h-17.642v44.644h-6.121v-44.644h-17.642V655.995z"/>
	<path fill="#FFFFFF" d="M334.145,655.995h6.121v50.404h-6.121V655.995z"/>
	<path fill="#FFFFFF" d="M373.948,655.275c14.617,0,25.706,10.585,25.706,25.922c0,14.978-11.089,25.922-25.706,25.922
		c-14.618,0-25.707-10.585-25.707-25.922C348.241,666.58,358.971,655.275,373.948,655.275z M373.948,701.359
		c11.521,0,19.226-8.785,19.226-20.162c0-11.737-8.425-20.162-19.226-20.162c-10.945,0-19.226,8.425-19.226,20.162
		C354.722,692.646,363.147,701.359,373.948,701.359z"/>
	<path fill="#FFFFFF" d="M444.249,706.399l-31.467-39.604v39.604h-5.76v-50.404h4.896l31.467,39.747v-39.747h5.76v50.404H444.249z"
		/>
	<path fill="#FFFFFF" d="M514.521,701.503c-3.384,3.456-9.649,5.616-15.914,5.616c-15.121,0-25.562-10.225-25.562-25.922
		c0-14.474,9.361-25.922,25.13-25.922c6.48,0,11.737,1.8,15.337,4.896l-2.808,4.608c-3.312-2.448-7.201-3.745-12.457-3.745
		c-10.945,0-18.722,8.209-18.722,20.162c0,12.025,7.993,20.162,19.658,20.162c4.824,0,9.433-1.656,12.889-4.465L514.521,701.503z"/>
	<path fill="#FFFFFF" d="M519.679,655.995h28.442v5.761h-22.322v16.273h20.162v5.76h-20.162v16.85h23.042v5.761h-29.163V655.995z"/>
	<path fill="#FFFFFF" d="M592.95,706.399l-31.467-39.604v39.604h-5.761v-50.404h4.896l31.467,39.747v-39.747h5.76v50.404H592.95z"/>
	<path fill="#FFFFFF" d="M602.356,655.995h41.403v5.761h-17.642v44.644h-6.12v-44.644h-17.642V655.995z"/>
	<path fill="#FFFFFF" d="M648.27,706.399v-50.404c2.808,0,12.097-0.145,13.537-0.145c13.753,0,17.93,6.841,17.93,14.978
		c0,7.849-5.4,12.817-10.945,14.258l16.777,21.313h-7.489l-15.481-20.162h-8.209v20.162H648.27z M654.39,661.756v18.722h7.417
		c5.833,0,11.449-3.601,11.449-9.577c0-5.185-2.88-9.289-11.809-9.289C659.863,661.611,656.767,661.683,654.39,661.756z"/>
	<path fill="#FFFFFF" d="M690.404,655.995h28.442v5.761h-22.322v16.273h20.162v5.76h-20.162v16.85h23.042v5.761h-29.163V655.995z"/>
	<path fill="#FFFFFF" d="M131.581,794.399h-5.617l-13.825-40.539l-13.538,40.539h-5.616L77.72,743.995h6.913l11.737,40.107
		l13.033-40.107h5.905l13.393,40.107l11.449-40.107h5.977L131.581,794.399z"/>
	<path fill="#FFFFFF" d="M172.02,743.275c14.617,0,25.706,10.585,25.706,25.922c0,14.978-11.089,25.922-25.706,25.922
		c-14.618,0-25.707-10.585-25.707-25.922C146.314,754.58,157.043,743.275,172.02,743.275z M172.02,789.359
		c11.521,0,19.226-8.785,19.226-20.162c0-11.737-8.425-20.162-19.226-20.162c-10.945,0-19.226,8.425-19.226,20.162
		C152.794,780.646,161.219,789.359,172.02,789.359z"/>
	<path fill="#FFFFFF" d="M205.094,794.399v-50.404c2.808,0,12.097-0.145,13.538-0.145c13.753,0,17.929,6.841,17.929,14.978
		c0,7.849-5.4,12.817-10.945,14.258l16.777,21.313h-7.488l-15.481-20.162h-8.209v20.162H205.094z M211.215,749.756v18.722h7.417
		c5.832,0,11.449-3.601,11.449-9.577c0-5.185-2.88-9.289-11.809-9.289C216.688,749.611,213.591,749.683,211.215,749.756z"/>
	<path fill="#FFFFFF" d="M247.228,743.995h6.121v50.404h-6.121V743.995z M261.629,767.685l23.618,26.714h-7.849l-22.826-26.282
		l22.106-24.122h7.416L261.629,767.685z"/>
	<path fill="#FFFFFF" d="M290.082,743.995h28.443v5.761h-22.322v16.273h20.162v5.76h-20.162v16.85h23.042v5.761h-29.163V743.995z"/>
	<path fill="#FFFFFF" d="M326.126,794.399v-50.404c2.808,0,12.097-0.145,13.538-0.145c13.753,0,17.929,6.841,17.929,14.978
		c0,7.849-5.4,12.817-10.945,14.258l16.777,21.313h-7.488l-15.481-20.162h-8.209v20.162H326.126z M332.246,749.756v18.722h7.417
		c5.832,0,11.449-3.601,11.449-9.577c0-5.185-2.88-9.289-11.809-9.289C337.719,749.611,334.622,749.683,332.246,749.756z"/>
	<path fill="#FFFFFF" d="M400.358,743.707h5.257l21.674,50.692h-6.553l-6.48-15.266h-22.97l-6.409,15.266h-6.192L400.358,743.707z
		 M393.733,773.374h18.146l-9.073-21.53L393.733,773.374z"/>
	<path fill="#FFFFFF" d="M469.191,794.399l-31.467-39.604v39.604h-5.761v-50.404h4.896l31.467,39.747v-39.747h5.761v50.404H469.191z
		"/>
	<path fill="#FFFFFF" d="M484.782,743.995h0.864c3.312,0,8.785-0.216,12.889-0.216c20.162,0,28.298,11.593,28.298,24.77
		c0,14.329-9.649,25.994-28.875,25.994c-3.384,0-8.137-0.144-12.385-0.144h-0.792V743.995z M490.903,749.756v38.883
		c3.312,0.072,6.409,0.145,7.272,0.145c14.401,0,22.178-8.497,22.178-20.234c0-10.944-7.345-19.01-21.962-19.01
		C495.367,749.539,493.423,749.683,490.903,749.756z"/>
	<path fill="#FFFFFF" d="M84.561,831.995h6.121v50.404h-6.121V831.995z M98.962,855.685l23.618,26.714h-7.849l-22.826-26.282
		l22.106-24.122h7.417L98.962,855.685z"/>
	<path fill="#FFFFFF" d="M146.066,831.275c14.617,0,25.706,10.585,25.706,25.922c0,14.978-11.089,25.922-25.706,25.922
		c-14.618,0-25.707-10.585-25.707-25.922C120.359,842.58,131.088,831.275,146.066,831.275z M146.066,877.359
		c11.521,0,19.226-8.785,19.226-20.162c0-11.737-8.425-20.162-19.226-20.162c-10.945,0-19.226,8.425-19.226,20.162
		C126.84,868.646,135.264,877.359,146.066,877.359z"/>
	<path fill="#FFFFFF" d="M179.14,831.995h6.121v44.644h24.842v5.761H179.14V831.995z"/>
	<path fill="#FFFFFF" d="M214.736,831.995h6.121v50.404h-6.121V831.995z M229.137,855.685l23.618,26.714h-7.849l-22.826-26.282
		l22.106-24.122h7.417L229.137,855.685z"/>
	<path fill="#FFFFFF" d="M291.433,859.573H263.71v22.826h-6.12v-50.404h6.12v21.817h27.723v-21.817h6.121v50.404h-6.121V859.573z"/>
	<path fill="#FFFFFF" d="M330.586,831.275c14.617,0,25.706,10.585,25.706,25.922c0,14.978-11.089,25.922-25.706,25.922
		c-14.618,0-25.707-10.585-25.707-25.922C304.879,842.58,315.609,831.275,330.586,831.275z M330.586,877.359
		c11.521,0,19.226-8.785,19.226-20.162c0-11.737-8.425-20.162-19.226-20.162c-10.945,0-19.226,8.425-19.226,20.162
		C311.36,868.646,319.784,877.359,330.586,877.359z"/>
	<path fill="#FFFFFF" d="M357.079,831.995h37.803v4.104l-30.962,40.539h31.683v5.761h-39.964v-4.104l30.819-40.539h-29.378V831.995z
		"/>
	<path fill="#FFFFFF" d="M465.802,882.399h-5.616l-13.825-40.539l-13.537,40.539h-5.617l-15.265-50.404h6.912l11.737,40.107
		l13.033-40.107h5.904l13.394,40.107l11.449-40.107h5.977L465.802,882.399z"/>
	<path fill="#FFFFFF" d="M506.241,831.275c14.617,0,25.706,10.585,25.706,25.922c0,14.978-11.089,25.922-25.706,25.922
		s-25.707-10.585-25.707-25.922C480.535,842.58,491.264,831.275,506.241,831.275z M506.241,877.359
		c11.521,0,19.226-8.785,19.226-20.162c0-11.737-8.425-20.162-19.226-20.162c-10.945,0-19.226,8.425-19.226,20.162
		C487.016,868.646,495.44,877.359,506.241,877.359z"/>
	<path fill="#FFFFFF" d="M539.316,831.995h6.193l18.938,25.851l18.146-25.851h5.833v50.404h-6.121v-40.756l-17.857,25.059h-0.936
		l-18.074-24.842v40.539h-6.121V831.995z"/>
	<path fill="#FFFFFF" d="M614.808,831.707h5.256l21.674,50.692h-6.552l-6.48-15.266h-22.97l-6.409,15.266h-6.192L614.808,831.707z
		 M608.184,861.374h18.146l-9.073-21.53L608.184,861.374z"/>
	<path fill="#FFFFFF" d="M683.641,882.399l-31.467-39.604v39.604h-5.761v-50.404h4.896l31.467,39.747v-39.747h5.76v50.404H683.641z"
		/>
</g>
<g>
	<path fill="#FFFFFF" d="M88.118,565.845h2.24V594h-3.2v-23.556l-4.079,3.199l-1.68-2.6L88.118,565.845z"/>
	<path fill="#FFFFFF" d="M94.872,591.4c4.559-4.479,12.518-12.038,12.518-17.997c0-2.479-1.52-4.52-4.56-4.52
		c-2.239,0-4.439,1.48-4.999,4.479l-2.72-1.119c0.68-4.16,4.079-6.56,7.999-6.56c5.239,0,7.679,3.6,7.679,7.079
		c0,7.839-9.519,16.277-11.758,18.237h12.918V594H94.872V591.4z"/>
	<path fill="#FFFFFF" d="M114.511,589.6l1.84-2.279c1.4,2.6,3.919,3.879,6.519,3.879c3.479,0,5.519-2.199,5.519-5.039
		c0-2.999-2.359-4.879-5.719-4.879h-2.2v-3.199h2c2.479,0,4.839-1.96,4.839-4.84c0-2.759-1.719-4.438-4.559-4.438
		c-2.76,0-4.52,1.319-5.759,3.479l-1.8-2.199c1.28-2.84,4.16-4.479,7.799-4.479c4.679,0,7.719,2.68,7.719,7.079
		c0,3.039-1.52,5.52-4.359,6.719v0.12c3.479,0.56,5.439,3.479,5.439,6.759c0,4.999-3.799,8.119-8.798,8.119
		C119.111,594.4,115.951,592.721,114.511,589.6z"/>
	<path fill="#FFFFFF" d="M136.079,566.005h3.199v11.718c1.28-1.16,3.439-2.119,5.599-2.119c5.359,0,8.559,3.799,8.559,9.118
		c0,5.919-3.959,9.679-9.998,9.679c-2.88,0-5.64-0.84-7.359-2.08V566.005z M139.278,580.922v9.238c1.44,0.96,2.76,1.24,4.319,1.24
		c3.639,0,6.439-2.399,6.439-6.438c0-4.04-2.399-6.359-5.879-6.359C142.077,578.602,140.158,579.803,139.278,580.922z"/>
	<path fill="#FFFFFF" d="M167.158,594v-27.995c1.56,0,5.559-0.08,7.319-0.08c7.999,0,10.358,4.319,10.358,8.679
		c0,4.559-3.239,8.798-10.078,8.798c-1.12,0-2.8-0.04-4.2-0.159V594H167.158z M170.557,569.204v10.798c1.36,0.12,2.68,0.2,4.08,0.2
		c4.119,0,6.599-2.119,6.599-5.639c0-3.319-2-5.439-6.439-5.439C173.677,569.124,171.877,569.164,170.557,569.204z"/>
	<path fill="#FFFFFF" d="M188.113,576.003h3.2v2.12c0.919-1.36,2.24-2.44,4.519-2.44c1.479,0,2.2,0.24,2.8,0.681l-1.12,2.999
		c-0.88-0.52-1.359-0.68-2.439-0.68c-2.08,0-3.08,1.239-3.759,2.56V594h-3.2V576.003z"/>
	<path fill="#FFFFFF" d="M208.696,575.603c5.759,0,9.598,3.999,9.598,9.398c0,5.398-3.839,9.398-9.598,9.398s-9.598-4-9.598-9.398
		C199.098,579.602,202.937,575.603,208.696,575.603z M208.696,591.4c3.599,0,6.199-2.56,6.199-6.398c0-3.76-2.6-6.399-6.199-6.399
		c-3.519,0-6.199,2.6-6.199,6.399C202.497,588.761,205.097,591.4,208.696,591.4z"/>
	<path fill="#FFFFFF" d="M220.881,580.682c0-3.16,2.56-5.079,6.119-5.079c2.959,0,5.119,1.079,6.199,2.119l-1.52,2.439
		c-1.08-0.96-2.64-1.76-4.519-1.76c-1.8,0-2.879,1.04-2.879,2.24c0,3.799,9.718,1.999,9.718,8.318c0,3.799-3.359,5.439-6.959,5.439
		c-2.919,0-5.799-1.521-6.639-2.8l1.799-2.28c1.04,1.2,3.399,2.28,5.199,2.28c1.68,0,3.2-0.84,3.2-2.479
		C230.599,585.481,220.881,587.281,220.881,580.682z"/>
	<path fill="#FFFFFF" d="M237.445,576.003h3.2v2.12c1.24-1.44,3.639-2.52,6.119-2.52c5.119,0,8.319,3.799,8.319,9.118
		c0,5.479-3.719,9.679-9.358,9.679c-1.919,0-3.799-0.4-5.079-1.24v8.839h-3.2V576.003z M240.644,581.082v8.919
		c1.6,1.079,3.08,1.399,4.799,1.399c3.839,0,6.239-2.76,6.239-6.559c0-3.64-2.12-6.239-5.839-6.239
		C243.724,578.602,241.764,579.682,240.644,581.082z"/>
	<path fill="#FFFFFF" d="M273.93,592.04c-1.76,1.6-4.359,2.36-6.759,2.36c-5.839,0-9.639-3.72-9.639-9.398
		c0-5.239,3.359-9.398,9.279-9.398c4.639,0,8.358,3.279,8.358,8.238c0,0.88-0.08,1.6-0.2,2.159h-13.838
		c0.28,3.399,2.76,5.399,6.279,5.399c2.319,0,4.359-0.8,5.519-1.88L273.93,592.04z M260.932,583.401h10.918
		c-0.16-2.959-2.08-4.799-5.199-4.799C263.372,578.602,261.292,580.642,260.932,583.401z"/>
	<path fill="#FFFFFF" d="M278.552,566.005h3.2V594h-3.2V566.005z M286.311,584.361l8.599,9.639h-4.359l-8.119-9.398l7.439-8.599
		h4.079L286.311,584.361z"/>
	<path fill="#FFFFFF" d="M296.608,571.004h3.2v4.999h6.599v3h-6.599v7.838c0,2.84,0.92,4.479,3.2,4.479c1.24,0,2.199-0.52,2.839-1
		l1,2.479c-0.959,0.8-2.599,1.521-4.599,1.521c-4.04,0-5.64-2.56-5.64-7.159V571.004z"/>
	<path fill="#FFFFFF" d="M320.247,566.005h3.439l10.518,14.357l10.079-14.357h3.239V594h-3.399v-22.636l-9.918,13.917h-0.52
		l-10.038-13.798V594h-3.399V566.005z"/>
	<path fill="#FFFFFF" d="M355.319,567.324c1,0,1.959,0.76,1.959,1.92c0,1.319-0.96,2.08-1.959,2.08c-1.12,0-2.08-0.761-2.08-2.08
		C353.239,568.084,354.199,567.324,355.319,567.324z M353.639,576.003h3.2V594h-3.2V576.003z"/>
	<path fill="#FFFFFF" d="M361.823,576.003h3.199v2.12c0.92-1.36,2.24-2.44,4.519-2.44c1.48,0,2.2,0.24,2.8,0.681l-1.12,2.999
		c-0.879-0.52-1.359-0.68-2.439-0.68c-2.079,0-3.079,1.239-3.759,2.56V594h-3.199V576.003z"/>
	<path fill="#FFFFFF" d="M374.631,577.243c1.6-1,3.759-1.64,5.999-1.64c5.119,0,6.918,2.679,6.918,7.358V594h-3.039v-2.319
		c-1.08,1.359-2.8,2.6-5.759,2.6c-3.28,0-5.52-2.08-5.52-5.56c0-3.68,2.92-5.719,6.799-5.719c1.4,0,3.279,0.28,4.479,1.16
		c0-3.36-0.52-5.68-4.079-5.68c-2.2,0-3.52,0.561-4.959,1.32L374.631,577.243z M384.509,589.081v-2.28
		c-1.12-0.8-2.479-1.199-4.039-1.199c-1.92,0-3.84,0.88-3.84,2.959c0,1.72,1.16,2.84,3.239,2.84
		C382.229,591.4,383.589,590.16,384.509,589.081z"/>
</g>
</svg>
