<?xml version="1.0" encoding="utf-8"?>
<!-- Generator: Adobe Illustrator 17.0.0, SVG Export Plug-In . SVG Version: 6.00 Build 0)  -->
<!DOCTYPE svg PUBLIC "-//W3C//DTD SVG 1.1//EN" "http://www.w3.org/Graphics/SVG/1.1/DTD/svg11.dtd">
<svg version="1.1" id="Layer_1" xmlns="http://www.w3.org/2000/svg" xmlns:xlink="http://www.w3.org/1999/xlink" x="0px" y="0px"
	 width="1080px" height="1920px" viewBox="0 0 1080 1920" enable-background="new 0 0 1080 1920" xml:space="preserve">
<rect x="-4320" y="0" width="6480" height="1920"/>
<g>
	<path fill="#FFFFFF" d="M103.138,706.687h-4.537l-21.241-50.691h6.552l17.137,41.475l16.634-41.475h6.192L103.138,706.687z"/>
	<path fill="#FFFFFF" d="M138.965,655.707h5.256l21.674,50.693h-6.552l-6.481-15.266h-22.97l-6.408,15.266h-6.193L138.965,655.707z
		 M132.34,685.375h18.146l-9.073-21.531L132.34,685.375z"/>
	<path fill="#FFFFFF" d="M170.57,655.996h0.864c3.312,0,8.784-0.217,12.889-0.217c20.162,0,28.299,11.594,28.299,24.77
		c0,14.33-9.649,25.994-28.875,25.994c-3.384,0-8.137-0.143-12.385-0.143h-0.792V655.996z M176.691,661.756v38.883
		c3.312,0.072,6.409,0.145,7.273,0.145c14.401,0,22.178-8.496,22.178-20.234c0-10.943-7.345-19.01-21.962-19.01
		C181.155,661.539,179.211,661.683,176.691,661.756z"/>
	<path fill="#FFFFFF" d="M220.718,655.996h6.121V706.4h-6.121V655.996z"/>
	<path fill="#FFFFFF" d="M238.062,655.996h6.193l18.938,25.85l18.146-25.85h5.833V706.4h-6.121v-40.756l-17.857,25.059h-0.937
		l-18.073-24.842V706.4h-6.121V655.996z"/>
	<path fill="#FFFFFF" d="M81.824,756.453c0-7.273,5.617-13.178,15.193-13.178c5.833,0,11.017,2.088,13.897,5.256l-3.312,4.609
		c-2.664-2.664-5.832-4.105-10.225-4.105c-5.617,0-9.073,2.953-9.073,7.418c0,12.457,24.626,7.775,24.626,24.986
		c0,8.279-7.273,13.68-16.417,13.68c-6.192,0-13.393-2.807-15.913-7.561l3.528-4.176c2.952,3.889,8.208,5.977,12.457,5.977
		c5.256,0,9.864-2.736,9.864-7.848C106.45,769.197,81.824,773.158,81.824,756.453z"/>
	<path fill="#FFFFFF" d="M120.668,743.996h6.121V794.4h-6.121V743.996z"/>
	<path fill="#FFFFFF" d="M138.012,743.996h0.864c3.312,0,8.785-0.217,12.889-0.217c20.162,0,28.298,11.594,28.298,24.77
		c0,14.33-9.649,25.994-28.875,25.994c-3.384,0-8.137-0.143-12.385-0.143h-0.792V743.996z M144.133,749.756v38.883
		c3.312,0.072,6.409,0.145,7.272,0.145c14.401,0,22.178-8.496,22.178-20.234c0-10.943-7.345-19.01-21.962-19.01
		C148.597,749.539,146.654,749.683,144.133,749.756z"/>
	<path fill="#FFFFFF" d="M226.95,773.375c0,15.408-9.217,21.674-19.514,21.674c-12.098,0-20.882-7.418-20.882-22.18v-28.873h6.12
		v27.723c0,10.943,5.329,17.568,14.762,17.568c8.28,0,13.393-5.688,13.393-17.137v-28.154h6.121V773.375z"/>
	<path fill="#FFFFFF" d="M237.127,794.4v-50.404c2.808,0,12.097-0.145,13.538-0.145c13.753,0,17.929,6.84,17.929,14.977
		c0,7.85-5.4,12.818-10.945,14.258l16.777,21.314h-7.488l-15.481-20.162h-8.209V794.4H237.127z M243.247,749.756v18.723h7.417
		c5.832,0,11.449-3.602,11.449-9.578c0-5.184-2.88-9.289-11.809-9.289C248.72,749.611,245.623,749.683,243.247,749.756z"/>
	<path fill="#FFFFFF" d="M84.561,831.996h6.192l18.938,25.85l18.146-25.85h5.833V882.4h-6.121v-40.756l-17.857,25.059h-0.936
		l-18.074-24.842V882.4h-6.121V831.996z"/>
	<path fill="#FFFFFF" d="M184.277,861.375c0,15.408-9.217,21.674-19.514,21.674c-12.097,0-20.882-7.418-20.882-22.18v-28.873h6.121
		v27.723c0,10.943,5.328,17.568,14.761,17.568c8.281,0,13.393-5.688,13.393-17.137v-28.154h6.121V861.375z"/>
	<path fill="#FFFFFF" d="M191.408,844.453c0-7.273,5.617-13.178,15.193-13.178c5.833,0,11.017,2.088,13.897,5.256l-3.312,4.609
		c-2.664-2.664-5.832-4.105-10.225-4.105c-5.616,0-9.073,2.953-9.073,7.418c0,12.457,24.626,7.775,24.626,24.986
		c0,8.279-7.273,13.68-16.418,13.68c-6.192,0-13.393-2.807-15.913-7.561l3.528-4.176c2.952,3.889,8.209,5.977,12.457,5.977
		c5.256,0,9.865-2.736,9.865-7.848C216.034,857.197,191.408,861.158,191.408,844.453z"/>
	<path fill="#FFFFFF" d="M229.474,831.996h28.443v5.76h-22.322v16.273h20.162v5.76h-20.162v16.85h23.042v5.762h-29.163V831.996z"/>
	<path fill="#FFFFFF" d="M304.567,861.375c0,15.408-9.217,21.674-19.514,21.674c-12.098,0-20.882-7.418-20.882-22.18v-28.873h6.12
		v27.723c0,10.943,5.329,17.568,14.762,17.568c8.28,0,13.393-5.688,13.393-17.137v-28.154h6.121V861.375z"/>
	<path fill="#FFFFFF" d="M314.743,831.996h6.193l18.938,25.85l18.146-25.85h5.833V882.4h-6.121v-40.756l-17.857,25.059h-0.937
		l-18.073-24.842V882.4h-6.121V831.996z"/>
</g>
<g>
	<path fill="#FFFFFF" d="M81.4,589.601l1.84-2.279c1.4,2.6,3.919,3.879,6.519,3.879c3.479,0,5.519-2.199,5.519-5.039
		c0-3-2.359-4.879-5.719-4.879h-2.2v-3.199h2c2.479,0,4.839-1.961,4.839-4.84c0-2.76-1.72-4.439-4.559-4.439
		c-2.76,0-4.52,1.32-5.759,3.479l-1.8-2.199c1.28-2.84,4.16-4.479,7.799-4.479c4.679,0,7.718,2.68,7.718,7.078
		c0,3.039-1.52,5.52-4.359,6.719v0.121c3.479,0.559,5.439,3.479,5.439,6.758c0,5-3.799,8.119-8.798,8.119
		C85.999,594.4,82.84,592.721,81.4,589.601z"/>
	<path fill="#FFFFFF" d="M100.708,566.006h16.797v2.078L107.187,594h-3.52l9.959-24.795h-12.918V566.006z"/>
	<path fill="#FFFFFF" d="M127.093,565.605l2.48,0.92l-13.278,35.793l-2.52-0.92L127.093,565.605z"/>
	<path fill="#FFFFFF" d="M129.931,591.4c4.56-4.479,12.518-12.037,12.518-17.996c0-2.48-1.52-4.52-4.559-4.52
		c-2.24,0-4.439,1.48-4.999,4.479l-2.72-1.119c0.68-4.16,4.079-6.559,7.999-6.559c5.239,0,7.679,3.6,7.679,7.078
		c0,7.84-9.518,16.277-11.758,18.238h12.918V594h-17.077V591.4z"/>
	<path fill="#FFFFFF" d="M181.886,594l-17.477-21.996V594h-3.199v-27.994h2.72l17.477,22.076v-22.076h3.2V594H181.886z"/>
	<path fill="#FFFFFF" d="M198.777,575.603c5.759,0,9.599,4,9.599,9.398s-3.84,9.398-9.599,9.398s-9.599-4-9.599-9.398
		S193.018,575.603,198.777,575.603z M198.777,591.4c3.6,0,6.199-2.559,6.199-6.398c0-3.76-2.6-6.398-6.199-6.398
		c-3.52,0-6.199,2.6-6.199,6.398C192.577,588.762,195.177,591.4,198.777,591.4z"/>
	<path fill="#FFFFFF" d="M219.372,594.16h-2.319l-8.359-18.156h3.759l4.359,9.719c0.52,1.158,1.08,2.68,1.52,3.998
		c0.4-1.318,0.96-2.879,1.48-4.078l4.12-9.639h3.399L219.372,594.16z"/>
	<path fill="#FFFFFF" d="M237.276,575.603c5.759,0,9.598,4,9.598,9.398s-3.839,9.398-9.598,9.398s-9.598-4-9.598-9.398
		S231.517,575.603,237.276,575.603z M237.276,591.4c3.599,0,6.199-2.559,6.199-6.398c0-3.76-2.6-6.398-6.199-6.398
		c-3.519,0-6.199,2.6-6.199,6.398C231.077,588.762,233.677,591.4,237.276,591.4z"/>
	<path fill="#FFFFFF" d="M253.488,591.121c-0.319-0.4-0.439-0.961-0.439-1.48c0-0.559,0.16-1.119,0.479-1.52
		c-2.56-1.039-4.039-3.279-4.039-5.918c0-3.6,2.84-6.6,7.358-6.6c1.76,0,3.32,0.48,4.56,1.32l5.279-1.279l0.08,2.598l-3.399,0.84
		c0.56,0.92,0.84,2,0.84,3.121c0,3.6-2.92,6.479-7.359,6.479c-0.399,0-0.8,0-1.199-0.041c-0.16,0.32-0.2,0.68-0.2,1
		c0,0.441,0.12,0.881,0.36,1.201c0.36,0,0.72-0.041,1.08-0.041c5.239,0,9.159,1.881,9.159,5.799c0,3.84-3.919,5.719-9.159,5.719
		c-5.239,0-9.158-1.799-9.158-5.719C247.73,593.68,250.049,591.842,253.488,591.121z M256.888,599.719
		c3.72,0,6.159-1.078,6.159-3.119c0-2-2.319-3.199-6.159-3.199c-3.839,0-6.159,1.199-6.159,3.199S253.169,599.719,256.888,599.719z
		 M256.848,586.082c2.52,0,4.359-1.561,4.359-3.879c0-2.24-1.68-4-4.359-4c-2.639,0-4.359,1.76-4.359,4
		C252.489,584.441,254.209,586.082,256.848,586.082z"/>
	<path fill="#FFFFFF" d="M271.22,567.324c1,0,1.96,0.76,1.96,1.92c0,1.32-0.96,2.08-1.96,2.08c-1.119,0-2.079-0.76-2.079-2.08
		C269.141,568.084,270.101,567.324,271.22,567.324z M269.54,576.004h3.2V594h-3.2V576.004z"/>
	<path fill="#FFFFFF" d="M277.724,576.004h3.2v2.119c0.919-1.359,2.239-2.439,4.519-2.439c1.48,0,2.2,0.24,2.8,0.68l-1.12,3
		c-0.879-0.52-1.359-0.68-2.439-0.68c-2.079,0-3.079,1.238-3.759,2.559V594h-3.2V576.004z"/>
	<path fill="#FFFFFF" d="M305.15,592.041c-1.76,1.6-4.359,2.359-6.759,2.359c-5.839,0-9.639-3.719-9.639-9.398
		c0-5.238,3.359-9.398,9.278-9.398c4.64,0,8.358,3.279,8.358,8.238c0,0.881-0.08,1.6-0.2,2.16h-13.837
		c0.28,3.398,2.759,5.398,6.279,5.398c2.32,0,4.359-0.799,5.519-1.879L305.15,592.041z M292.152,583.402h10.918
		c-0.16-2.959-2.079-4.799-5.199-4.799C294.591,578.603,292.512,580.642,292.152,583.402z"/>
	<path fill="#FFFFFF" d="M317.483,594.16h-2.32l-8.359-18.156h3.76l4.359,9.719c0.52,1.158,1.08,2.68,1.52,3.998
		c0.4-1.318,0.96-2.879,1.479-4.078l4.12-9.639h3.399L317.483,594.16z"/>
	<path fill="#FFFFFF" d="M326.804,580.683c0-3.16,2.56-5.08,6.119-5.08c2.959,0,5.119,1.08,6.199,2.119l-1.52,2.439
		c-1.08-0.959-2.64-1.76-4.519-1.76c-1.8,0-2.879,1.041-2.879,2.24c0,3.799,9.718,2,9.718,8.318c0,3.799-3.359,5.439-6.959,5.439
		c-2.919,0-5.799-1.52-6.639-2.799l1.799-2.281c1.04,1.201,3.399,2.281,5.199,2.281c1.68,0,3.2-0.84,3.2-2.48
		C336.522,585.482,326.804,587.281,326.804,580.683z"/>
	<path fill="#FFFFFF" d="M343.367,566.006h3.199V594h-3.199V566.006z M351.126,584.361l8.599,9.639h-4.359l-8.119-9.398l7.439-8.598
		h4.079L351.126,584.361z"/>
	<path fill="#FFFFFF" d="M361.923,577.244c1.6-1,3.76-1.641,5.999-1.641c5.119,0,6.919,2.68,6.919,7.359V594h-3.039v-2.318
		c-1.08,1.359-2.8,2.6-5.759,2.6c-3.28,0-5.519-2.08-5.519-5.561c0-3.68,2.919-5.719,6.799-5.719c1.399,0,3.279,0.281,4.479,1.16
		c0-3.359-0.521-5.68-4.08-5.68c-2.2,0-3.52,0.561-4.959,1.32L361.923,577.244z M371.802,589.082v-2.281
		c-1.12-0.799-2.48-1.199-4.04-1.199c-1.919,0-3.839,0.881-3.839,2.959c0,1.721,1.16,2.84,3.239,2.84
		C369.522,591.4,370.882,590.16,371.802,589.082z"/>
	<path fill="#FFFFFF" d="M387.781,594c-2.64,6.439-4.319,8-6.879,8c-1.36,0-2.439-0.48-3.399-1.121l1.04-2.439
		c0.6,0.279,1.279,0.6,1.999,0.6c1.52,0,2.64-1.199,3.84-4.078l0.4-0.961l-8.639-17.996h3.839l5.279,11.438
		c0.399,0.92,0.72,1.801,1.08,2.719c0.24-0.879,0.52-1.799,0.84-2.758l4.16-11.398h3.639L387.781,594z"/>
	<path fill="#FFFFFF" d="M397.327,577.244c1.6-1,3.759-1.641,5.999-1.641c5.119,0,6.918,2.68,6.918,7.359V594h-3.039v-2.318
		c-1.08,1.359-2.8,2.6-5.759,2.6c-3.28,0-5.52-2.08-5.52-5.561c0-3.68,2.92-5.719,6.799-5.719c1.4,0,3.279,0.281,4.479,1.16
		c0-3.359-0.52-5.68-4.079-5.68c-2.2,0-3.52,0.561-4.959,1.32L397.327,577.244z M407.205,589.082v-2.281
		c-1.12-0.799-2.479-1.199-4.039-1.199c-1.92,0-3.84,0.881-3.84,2.959c0,1.721,1.16,2.84,3.239,2.84
		C404.925,591.4,406.285,590.16,407.205,589.082z"/>
	<path fill="#FFFFFF" d="M422.806,580.683c0-3.16,2.56-5.08,6.119-5.08c2.96,0,5.119,1.08,6.199,2.119l-1.52,2.439
		c-1.08-0.959-2.64-1.76-4.52-1.76c-1.8,0-2.88,1.041-2.88,2.24c0,3.799,9.719,2,9.719,8.318c0,3.799-3.359,5.439-6.959,5.439
		c-2.919,0-5.799-1.52-6.639-2.799l1.8-2.281c1.04,1.201,3.399,2.281,5.199,2.281c1.68,0,3.199-0.84,3.199-2.48
		C432.525,585.482,422.806,587.281,422.806,580.683z"/>
	<path fill="#FFFFFF" d="M439.026,571.004h3.199v5h6.599v3h-6.599v7.838c0,2.84,0.92,4.479,3.2,4.479c1.24,0,2.2-0.52,2.839-1
		l1,2.48c-0.96,0.799-2.6,1.52-4.599,1.52c-4.04,0-5.639-2.559-5.639-7.158V571.004z"/>
	<path fill="#FFFFFF" d="M452.11,576.004h3.199v2.119c0.92-1.359,2.24-2.439,4.52-2.439c1.479,0,2.2,0.24,2.8,0.68l-1.12,3
		c-0.88-0.52-1.359-0.68-2.439-0.68c-2.08,0-3.08,1.238-3.76,2.559V594h-3.199V576.004z"/>
	<path fill="#FFFFFF" d="M479.535,592.041c-1.759,1.6-4.359,2.359-6.759,2.359c-5.839,0-9.638-3.719-9.638-9.398
		c0-5.238,3.359-9.398,9.278-9.398c4.639,0,8.358,3.279,8.358,8.238c0,0.881-0.08,1.6-0.2,2.16h-13.837
		c0.28,3.398,2.759,5.398,6.279,5.398c2.32,0,4.359-0.799,5.52-1.879L479.535,592.041z M466.537,583.402h10.918
		c-0.16-2.959-2.08-4.799-5.199-4.799C468.977,578.603,466.897,580.642,466.537,583.402z"/>
	<path fill="#FFFFFF" d="M499.506,592.041c-1.76,1.6-4.359,2.359-6.759,2.359c-5.839,0-9.639-3.719-9.639-9.398
		c0-5.238,3.359-9.398,9.278-9.398c4.64,0,8.359,3.279,8.359,8.238c0,0.881-0.08,1.6-0.2,2.16h-13.838
		c0.28,3.398,2.76,5.398,6.279,5.398c2.319,0,4.359-0.799,5.519-1.879L499.506,592.041z M486.508,583.402h10.919
		c-0.16-2.959-2.08-4.799-5.199-4.799C488.947,578.603,486.868,580.642,486.508,583.402z"/>
	<path fill="#FFFFFF" d="M503.872,571.004h3.2v5h6.599v3h-6.599v7.838c0,2.84,0.92,4.479,3.199,4.479c1.239,0,2.199-0.52,2.84-1
		l0.999,2.48c-0.96,0.799-2.6,1.52-4.599,1.52c-4.04,0-5.64-2.559-5.64-7.158V571.004z"/>
</g>
</svg>
