<?xml version="1.0" encoding="utf-8"?>
<!-- Generator: Adobe Illustrator 17.0.0, SVG Export Plug-In . SVG Version: 6.00 Build 0)  -->
<!DOCTYPE svg PUBLIC "-//W3C//DTD SVG 1.1//EN" "http://www.w3.org/Graphics/SVG/1.1/DTD/svg11.dtd">
<svg version="1.1" id="Layer_1" xmlns="http://www.w3.org/2000/svg" xmlns:xlink="http://www.w3.org/1999/xlink" x="0px" y="0px"
	 width="1080px" height="1920px" viewBox="0 0 1080 1920" enable-background="new 0 0 1080 1920" xml:space="preserve">
<rect x="-5400" y="0" width="6480" height="1920"/>
<g>
	<path fill="#FFFFFF" d="M121.788,706.4l-31.467-39.604V706.4h-5.761v-50.404h4.896l31.467,39.746v-39.746h5.761V706.4H121.788z"/>
	<path fill="#FFFFFF" d="M153.034,655.707h5.256l21.674,50.693h-6.552l-6.481-15.266h-22.97l-6.408,15.266h-6.193L153.034,655.707z
		 M146.409,685.375h18.146l-9.073-21.531L146.409,685.375z"/>
	<path fill="#FFFFFF" d="M184.64,655.996h6.192l18.938,25.85l18.146-25.85h5.833V706.4h-6.121v-40.756l-17.857,25.059h-0.936
		l-18.074-24.842V706.4h-6.12V655.996z"/>
	<path fill="#FFFFFF" d="M244.479,656.068c2.809-0.072,9.145-0.289,13.825-0.289c12.025,0,16.201,5.473,16.201,12.457
		c0,6.336-3.815,10.082-8.641,11.666v0.143c6.265,1.01,10.441,5.041,10.441,11.953c0,10.225-7.849,14.617-18.29,14.617
		c-4.464,0-10.585-0.143-13.537-0.287V656.068z M250.6,661.756v16.273h8.064c5.328,0,9.721-2.951,9.721-8.424
		c0-5.258-3.528-8.066-10.225-8.066C255.496,661.539,252.4,661.683,250.6,661.756z M250.6,683.43v17.139
		c1.656,0.143,4.896,0.287,7.776,0.287c7.417,0,11.809-3.023,11.809-9.217c0-5.328-4.176-8.209-11.448-8.209H250.6z"/>
	<path fill="#FFFFFF" d="M299.264,655.707h5.257l21.674,50.693h-6.553l-6.48-15.266h-22.97l-6.408,15.266h-6.193L299.264,655.707z
		 M292.64,685.375h18.146l-9.073-21.531L292.64,685.375z"/>
	<path fill="#FFFFFF" d="M330.869,655.996h6.121v44.643h24.842v5.762h-30.963V655.996z"/>
	<path fill="#FFFFFF" d="M366.466,655.996h0.864c3.312,0,8.784-0.217,12.889-0.217c20.162,0,28.299,11.594,28.299,24.77
		c0,14.33-9.649,25.994-28.875,25.994c-3.384,0-8.137-0.143-12.385-0.143h-0.792V655.996z M372.586,661.756v38.883
		c3.312,0.072,6.409,0.145,7.273,0.145c14.4,0,22.178-8.496,22.178-20.234c0-10.943-7.345-19.01-21.962-19.01
		C377.051,661.539,375.107,661.683,372.586,661.756z"/>
	<path fill="#FFFFFF" d="M430,684.799V706.4h-6.121v-21.602l-17.857-28.803h7.057l14.113,23.041l14.186-23.041h6.696L430,684.799z"
		/>
	<path fill="#FFFFFF" d="M461.578,655.707h5.256l21.674,50.693h-6.553l-6.48-15.266h-22.97l-6.408,15.266h-6.192L461.578,655.707z
		 M454.953,685.375h18.146l-9.072-21.531L454.953,685.375z"/>
	<path fill="#FFFFFF" d="M530.411,706.4l-31.467-39.604V706.4h-5.761v-50.404h4.896l31.467,39.746v-39.746h5.76V706.4H530.411z"/>
	<path fill="#FFFFFF" d="M84.561,743.996h6.192l18.938,25.85l18.146-25.85h5.833V794.4h-6.121v-40.756l-17.857,25.059h-0.936
		l-18.074-24.842V794.4h-6.121V743.996z"/>
	<path fill="#FFFFFF" d="M184.277,773.375c0,15.408-9.217,21.674-19.514,21.674c-12.097,0-20.882-7.418-20.882-22.18v-28.873h6.121
		v27.723c0,10.943,5.328,17.568,14.761,17.568c8.281,0,13.393-5.688,13.393-17.137v-28.154h6.121V773.375z"/>
	<path fill="#FFFFFF" d="M191.408,756.453c0-7.273,5.616-13.178,15.193-13.178c5.832,0,11.017,2.088,13.897,5.256l-3.312,4.609
		c-2.664-2.664-5.833-4.105-10.225-4.105c-5.616,0-9.072,2.953-9.072,7.418c0,12.457,24.626,7.775,24.626,24.986
		c0,8.279-7.272,13.68-16.417,13.68c-6.193,0-13.393-2.807-15.914-7.561l3.528-4.176c2.952,3.889,8.209,5.977,12.457,5.977
		c5.257,0,9.865-2.736,9.865-7.848C216.034,769.197,191.408,773.158,191.408,756.453z"/>
	<path fill="#FFFFFF" d="M268.782,773.375c0,15.408-9.217,21.674-19.514,21.674c-12.097,0-20.882-7.418-20.882-22.18v-28.873h6.121
		v27.723c0,10.943,5.328,17.568,14.761,17.568c8.281,0,13.394-5.688,13.394-17.137v-28.154h6.12V773.375z"/>
	<path fill="#FFFFFF" d="M278.959,743.996h6.192l18.938,25.85l18.145-25.85h5.833V794.4h-6.12v-40.756l-17.857,25.059h-0.937
		l-18.073-24.842V794.4h-6.121V743.996z"/>
	<path fill="#FFFFFF" d="M336.776,766.246h17.209v5.4h-17.209V766.246z"/>
	<path fill="#FFFFFF" d="M408.347,794.4h-5.616l-13.826-40.539L375.367,794.4h-5.616l-15.265-50.404h6.912l11.737,40.107
		l13.033-40.107h5.904l13.394,40.107l11.448-40.107h5.977L408.347,794.4z"/>
	<path fill="#FFFFFF" d="M448.786,743.275c14.617,0,25.706,10.586,25.706,25.922c0,14.979-11.089,25.922-25.706,25.922
		c-14.618,0-25.706-10.584-25.706-25.922C423.08,754.58,433.809,743.275,448.786,743.275z M448.786,789.359
		c11.521,0,19.226-8.785,19.226-20.162c0-11.736-8.425-20.162-19.226-20.162c-10.945,0-19.226,8.426-19.226,20.162
		C429.561,780.646,437.985,789.359,448.786,789.359z"/>
	<path fill="#FFFFFF" d="M481.861,794.4v-50.404c2.808,0,12.097-0.145,13.537-0.145c13.753,0,17.93,6.84,17.93,14.977
		c0,7.85-5.401,12.818-10.945,14.258L519.16,794.4h-7.489l-15.481-20.162h-8.209V794.4H481.861z M487.981,749.756v18.723h7.417
		c5.833,0,11.448-3.602,11.448-9.578c0-5.184-2.879-9.289-11.809-9.289C493.453,749.611,490.358,749.683,487.981,749.756z"/>
	<path fill="#FFFFFF" d="M523.994,743.996h6.12V794.4h-6.12V743.996z M538.395,767.685l23.619,26.715h-7.85l-22.826-26.283
		l22.106-24.121h7.417L538.395,767.685z"/>
	<path fill="#FFFFFF" d="M563.838,756.453c0-7.273,5.617-13.178,15.193-13.178c5.833,0,11.018,2.088,13.898,5.256l-3.312,4.609
		c-2.664-2.664-5.833-4.105-10.225-4.105c-5.617,0-9.073,2.953-9.073,7.418c0,12.457,24.626,7.775,24.626,24.986
		c0,8.279-7.272,13.68-16.418,13.68c-6.191,0-13.393-2.807-15.913-7.561l3.528-4.176c2.953,3.889,8.209,5.977,12.457,5.977
		c5.257,0,9.865-2.736,9.865-7.848C588.465,769.197,563.838,773.158,563.838,756.453z"/>
	<path fill="#FFFFFF" d="M635.748,771.574h-27.723V794.4h-6.121v-50.404h6.121v21.816h27.723v-21.816h6.12V794.4h-6.12V771.574z"/>
	<path fill="#FFFFFF" d="M674.901,743.275c14.617,0,25.707,10.586,25.707,25.922c0,14.979-11.09,25.922-25.707,25.922
		s-25.706-10.584-25.706-25.922C649.195,754.58,659.924,743.275,674.901,743.275z M674.901,789.359
		c11.521,0,19.227-8.785,19.227-20.162c0-11.736-8.426-20.162-19.227-20.162c-10.944,0-19.225,8.426-19.225,20.162
		C655.676,780.646,664.1,789.359,674.901,789.359z"/>
	<path fill="#FFFFFF" d="M707.976,794.4v-50.404c2.809,0,10.009-0.145,13.177-0.145c14.402,0,18.65,7.777,18.65,15.625
		c0,8.209-5.833,15.842-18.146,15.842c-2.016,0-5.04-0.072-7.561-0.289V794.4H707.976z M714.096,749.756v19.441
		c2.449,0.217,4.824,0.361,7.346,0.361c7.416,0,11.881-3.816,11.881-10.154c0-5.977-3.601-9.793-11.594-9.793
		C719.713,749.611,716.473,749.683,714.096,749.756z"/>
</g>
<g>
	<path fill="#FFFFFF" d="M82.6,586.762c0-3.479,2.16-6.199,5.279-7.078v-0.121c-2.439-0.84-4.399-3.52-4.399-6.639
		c0-4.398,3.76-7.318,8.398-7.318c4.64,0,8.439,2.92,8.439,7.318c0,2.721-1.72,5.479-4.599,6.6v0.119
		c3.079,0.52,5.479,3.16,5.479,6.879c0,5-4.239,7.879-9.279,7.879C86.879,594.4,82.6,591.521,82.6,586.762z M91.519,581.203
		c-2.96,0-5.52,2.039-5.52,4.959s2.479,5.039,5.879,5.039c3.6,0,5.919-2.039,5.919-5.039c-0.04-3.16-2.48-4.959-5.399-4.959H91.519z
		 M92.439,578.004c2.359,0,4.479-2.041,4.479-4.6c0-2.92-2.36-4.6-5.079-4.6c-2.76,0-4.959,1.799-4.959,4.6
		c0,2.559,2.12,4.6,4.52,4.6H92.439z"/>
	<path fill="#FFFFFF" d="M113.79,565.605l2.479,0.92l-13.278,35.793l-2.52-0.92L113.79,565.605z"/>
	<path fill="#FFFFFF" d="M116.627,591.4c4.56-4.479,12.518-12.037,12.518-17.996c0-2.48-1.52-4.52-4.559-4.52
		c-2.24,0-4.439,1.48-4.999,4.479l-2.72-1.119c0.68-4.16,4.079-6.559,7.999-6.559c5.239,0,7.679,3.6,7.679,7.078
		c0,7.84-9.518,16.277-11.758,18.238h12.918V594h-17.077V591.4z"/>
	<path fill="#FFFFFF" d="M144.107,566.006h22.996v3.199h-9.798V594h-3.399v-24.795h-9.799V566.006z"/>
	<path fill="#FFFFFF" d="M173.868,594.16h-2.319l-8.358-18.156h3.759l4.359,9.719c0.521,1.158,1.08,2.68,1.52,3.998
		c0.4-1.318,0.959-2.879,1.48-4.078l4.119-9.639h3.399L173.868,594.16z"/>
	<path fill="#FFFFFF" d="M198.591,592.041c-1.759,1.6-4.359,2.359-6.759,2.359c-5.839,0-9.638-3.719-9.638-9.398
		c0-5.238,3.359-9.398,9.279-9.398c4.639,0,8.358,3.279,8.358,8.238c0,0.881-0.08,1.6-0.2,2.16h-13.838
		c0.28,3.398,2.76,5.398,6.279,5.398c2.319,0,4.359-0.799,5.519-1.879L198.591,592.041z M185.593,583.402h10.918
		c-0.16-2.959-2.08-4.799-5.199-4.799C188.033,578.603,185.953,580.642,185.593,583.402z"/>
	<path fill="#FFFFFF" d="M203.214,576.004h3.199v2.119c0.92-1.359,2.24-2.439,4.519-2.439c1.48,0,2.2,0.24,2.8,0.68l-1.12,3
		c-0.879-0.52-1.359-0.68-2.439-0.68c-2.079,0-3.079,1.238-3.759,2.559V594h-3.199V576.004z"/>
	<path fill="#FFFFFF" d="M215.221,580.683c0-3.16,2.56-5.08,6.119-5.08c2.959,0,5.119,1.08,6.199,2.119l-1.52,2.439
		c-1.08-0.959-2.64-1.76-4.52-1.76c-1.8,0-2.879,1.041-2.879,2.24c0,3.799,9.718,2,9.718,8.318c0,3.799-3.359,5.439-6.959,5.439
		c-2.919,0-5.799-1.52-6.639-2.799l1.8-2.281c1.04,1.201,3.399,2.281,5.199,2.281c1.68,0,3.199-0.84,3.199-2.48
		C224.94,585.482,215.221,587.281,215.221,580.683z"/>
	<path fill="#FFFFFF" d="M231.785,566.006h3.199V594h-3.199V566.006z M239.543,584.361l8.6,9.639h-4.359l-8.119-9.398l7.438-8.598
		h4.079L239.543,584.361z"/>
	<path fill="#FFFFFF" d="M250.341,577.244c1.6-1,3.759-1.641,5.999-1.641c5.119,0,6.918,2.68,6.918,7.359V594h-3.039v-2.318
		c-1.08,1.359-2.799,2.6-5.759,2.6c-3.279,0-5.519-2.08-5.519-5.561c0-3.68,2.919-5.719,6.799-5.719c1.399,0,3.279,0.281,4.479,1.16
		c0-3.359-0.52-5.68-4.079-5.68c-2.2,0-3.52,0.561-4.959,1.32L250.341,577.244z M260.219,589.082v-2.281
		c-1.119-0.799-2.479-1.199-4.039-1.199c-1.92,0-3.84,0.881-3.84,2.959c0,1.721,1.16,2.84,3.24,2.84
		C257.94,591.4,259.299,590.16,260.219,589.082z"/>
	<path fill="#FFFFFF" d="M276.199,594c-2.64,6.439-4.319,8-6.879,8c-1.36,0-2.439-0.48-3.399-1.121l1.04-2.439
		c0.6,0.279,1.279,0.6,1.999,0.6c1.52,0,2.64-1.199,3.839-4.078l0.4-0.961l-8.639-17.996h3.84l5.279,11.438
		c0.399,0.92,0.72,1.801,1.079,2.719c0.24-0.879,0.521-1.799,0.84-2.758l4.159-11.398h3.64L276.199,594z"/>
	<path fill="#FFFFFF" d="M285.744,577.244c1.6-1,3.76-1.641,5.999-1.641c5.119,0,6.919,2.68,6.919,7.359V594h-3.039v-2.318
		c-1.08,1.359-2.8,2.6-5.76,2.6c-3.279,0-5.52-2.08-5.52-5.561c0-3.68,2.92-5.719,6.8-5.719c1.399,0,3.279,0.281,4.479,1.16
		c0-3.359-0.521-5.68-4.08-5.68c-2.199,0-3.52,0.561-4.959,1.32L285.744,577.244z M295.623,589.082v-2.281
		c-1.12-0.799-2.48-1.199-4.04-1.199c-1.919,0-3.839,0.881-3.839,2.959c0,1.721,1.159,2.84,3.239,2.84
		C293.343,591.4,294.703,590.16,295.623,589.082z"/>
	<path fill="#FFFFFF" d="M311.224,580.683c0-3.16,2.56-5.08,6.119-5.08c2.959,0,5.119,1.08,6.198,2.119l-1.52,2.439
		c-1.08-0.959-2.64-1.76-4.52-1.76c-1.799,0-2.879,1.041-2.879,2.24c0,3.799,9.719,2,9.719,8.318c0,3.799-3.359,5.439-6.959,5.439
		c-2.92,0-5.799-1.52-6.639-2.799l1.799-2.281c1.04,1.201,3.399,2.281,5.199,2.281c1.68,0,3.199-0.84,3.199-2.48
		C320.942,585.482,311.224,587.281,311.224,580.683z"/>
	<path fill="#FFFFFF" d="M327.444,571.004h3.199v5h6.599v3h-6.599v7.838c0,2.84,0.92,4.479,3.199,4.479c1.24,0,2.2-0.52,2.84-1
		l1,2.48c-0.96,0.799-2.6,1.52-4.6,1.52c-4.039,0-5.639-2.559-5.639-7.158V571.004z"/>
	<path fill="#FFFFFF" d="M340.528,576.004h3.199v2.119c0.92-1.359,2.239-2.439,4.52-2.439c1.479,0,2.199,0.24,2.799,0.68l-1.119,3
		c-0.88-0.52-1.36-0.68-2.439-0.68c-2.08,0-3.08,1.238-3.76,2.559V594h-3.199V576.004z"/>
	<path fill="#FFFFFF" d="M367.952,592.041c-1.76,1.6-4.359,2.359-6.759,2.359c-5.839,0-9.639-3.719-9.639-9.398
		c0-5.238,3.359-9.398,9.279-9.398c4.639,0,8.357,3.279,8.357,8.238c0,0.881-0.079,1.6-0.199,2.16h-13.838
		c0.28,3.398,2.76,5.398,6.279,5.398c2.319,0,4.359-0.799,5.519-1.879L367.952,592.041z M354.954,583.402h10.919
		c-0.16-2.959-2.08-4.799-5.199-4.799C357.395,578.603,355.315,580.642,354.954,583.402z"/>
	<path fill="#FFFFFF" d="M387.924,592.041c-1.76,1.6-4.359,2.359-6.759,2.359c-5.839,0-9.639-3.719-9.639-9.398
		c0-5.238,3.359-9.398,9.278-9.398c4.64,0,8.359,3.279,8.359,8.238c0,0.881-0.08,1.6-0.2,2.16h-13.838
		c0.28,3.398,2.76,5.398,6.279,5.398c2.319,0,4.358-0.799,5.519-1.879L387.924,592.041z M374.926,583.402h10.918
		c-0.159-2.959-2.079-4.799-5.199-4.799C377.365,578.603,375.286,580.642,374.926,583.402z"/>
	<path fill="#FFFFFF" d="M392.29,571.004h3.199v5h6.599v3h-6.599v7.838c0,2.84,0.92,4.479,3.2,4.479c1.239,0,2.199-0.52,2.839-1
		l1,2.48c-0.96,0.799-2.6,1.52-4.599,1.52c-4.04,0-5.64-2.559-5.64-7.158V571.004z"/>
</g>
</svg>
