<?xml version="1.0" encoding="UTF-8" standalone="no"?>
<svg width="335px" height="225px" viewBox="0 0 335 225" version="1.1" xmlns="http://www.w3.org/2000/svg" xmlns:xlink="http://www.w3.org/1999/xlink" xmlns:sketch="http://www.bohemiancoding.com/sketch/ns">
    <!-- Generator: Sketch 3.3.1 (12002) - http://www.bohemiancoding.com/sketch -->
    <title>Imported Layers</title>
    <desc>Created with Sketch.</desc>
    <defs></defs>
    <g id="Page-1" stroke="none" stroke-width="1" fill="none" fill-rule="evenodd" sketch:type="MSPage">
        <g id="true" sketch:type="MSArtboardGroup" transform="translate(-444.000000, -183.000000)" fill="#000000">
            <g id="Imported-Layers" sketch:type="MSLayerGroup" transform="translate(444.000000, 183.000000)">
                <path d="M318.524,224.94 C318.382,224.94 318.231,224.937 318.068,224.932 C317.894,224.927 317.706,224.921 317.504,224.921 C314.251,224.921 310.625,224.504 305.244,219.519 C303.548,217.949 299.813,216.552 295.488,214.934 C286.513,211.575 275.343,207.395 271.506,198.326 C269.614,193.856 266.137,191.59 261.17,191.59 C255.166,191.59 249.092,194.94 249.03,194.973 L248.688,195.026 L220.209,189.244 C219.956,189.101 213.951,185.662 209.487,178.905 C205.193,172.399 166.401,160.863 166.009,160.747 L165.753,160.57 L162.681,156.542 L115.354,182.254 L114.9,182.265 L107.319,178.663 L104.063,190.071 L103.667,190.427 L67.904,196.606 L67.716,196.603 L64.077,195.838 C60.671,197.989 20.524,223.275 14.717,223.275 C13.92,223.275 13.238,222.973 12.692,222.374 C10.256,219.707 11.017,211.336 11.687,203.95 C11.961,200.942 12.219,198.101 12.202,196.116 L12.196,195.738 C12.121,193.055 11.068,187.972 9.066,180.634 C7.049,173.24 4.768,166.177 4.746,166.106 L4.936,165.735 L4.858,165.609 L8.316,161.945 L6.75,153.908 L6.67,148.493 L6.74,139.421 L6.893,139.25 L6.828,139.141 L14.975,127.266 L9.409,100.352 C9.327,100.301 9.26,100.184 9.188,99.927 L9.134,99.932 C9.128,99.884 9.09,99.622 9.006,99.054 C8.898,98.444 8.763,97.559 8.567,96.278 L8.59,96.273 L8.362,94.755 C6.768,84.162 5.062,76.695 5.045,76.62 L5.152,76.184 L7.45,73.493 L6.647,47.023 L6.882,46.584 L17.015,40.25 L4.873,40.25 C1.276,40.25 0,38.487 0,36.977 C0,35.468 1.276,33.705 4.873,33.705 L329.968,33.705 C333.562,33.705 334.838,35.468 334.838,36.977 C334.838,38.487 333.562,40.25 329.968,40.25 L309.24,40.25 L325.97,58.482 L326.074,58.982 L319.701,77.576 L325.112,81.713 L325.294,82.231 L324.282,86.294 L323.805,86.673 L315.778,86.801 L322.035,93.339 L322.172,93.641 L325.108,127.048 L325.08,127.067 L325.11,127.112 L324.51,141.588 L326.312,143.006 L326.385,143.722 L323.284,147.386 C323.139,149.846 321.447,178.746 321.086,198.635 C321.042,201.092 321.016,203.415 321.018,205.543 L321.021,209.077 C321.031,220.675 321.034,223.431 320.004,224.463 C319.584,224.883 319.044,224.94 318.524,224.94 L318.524,224.94 Z M261.17,190.59 C266.576,190.59 270.364,193.062 272.427,197.937 C276.096,206.61 287.043,210.705 295.839,213.997 C300.263,215.652 304.083,217.082 305.924,218.785 C311.044,223.528 314.323,223.921 317.504,223.921 C317.716,223.921 317.914,223.927 318.098,223.932 C318.745,223.953 319.119,223.935 319.296,223.756 C319.969,223.083 320.025,219.868 320.023,211.616 L310.82,200.36 L311.594,199.727 L320.022,210.035 C320.02,209.722 320.02,209.403 320.02,209.078 L320.018,205.543 C320.017,203.476 320.04,201.226 320.082,198.848 L310.878,190.789 L311.536,190.037 L320.108,197.541 C320.332,186.401 320.945,172.718 321.466,162.424 L312.718,158.637 L313.114,157.719 L321.519,161.357 C321.886,154.19 322.196,148.852 322.276,147.494 L309.851,141.494 L310.286,140.594 L322.663,146.57 L325.286,143.471 L323.723,142.241 L319.229,139.799 L319.705,138.92 L323.533,141 L324.096,127.418 L311.47,122.1 L311.858,121.178 L324.039,126.308 L321.191,93.904 L314.264,86.664 L314.617,85.819 L323.404,85.679 L324.244,82.309 L313.477,74.093 L314.082,73.297 L318.863,76.937 L325.032,58.939 L307.883,40.25 L307.711,40.25 L307.711,194.024 L307.052,194.497 L167.539,147.56 L68.319,180.884 L68.319,195.519 L103.187,189.494 L106.519,177.821 L107.215,177.507 L115.1,181.254 L162.58,155.459 L163.216,155.596 L166.45,159.835 C169.546,160.756 205.927,171.695 210.321,178.354 C214.409,184.54 219.968,187.942 220.635,188.335 L248.332,193.934 L248.904,186.478 L249.901,186.554 L249.354,193.68 C251.25,192.744 256.16,190.59 261.17,190.59 L261.17,190.59 Z M13.203,196.492 C13.187,198.495 12.942,201.194 12.683,204.041 C12.063,210.865 11.292,219.359 13.431,221.7 C13.785,222.087 14.205,222.276 14.717,222.276 C19.215,222.276 48.462,204.529 63.498,195.021 L64.101,185.488 L65.099,185.551 L65.097,185.583 C65.064,186.112 64.631,193.018 64.508,194.906 L67.319,195.497 L67.319,181.22 L27.787,194.497 L27.128,194.024 L27.128,159.57 L5.85,166.278 C6.382,167.943 8.196,173.701 9.874,179.8 L22.433,173.985 L22.853,174.893 L10.141,180.778 C12.034,187.758 13.057,192.692 13.186,195.459 L19.572,193.68 L19.84,194.643 L13.203,196.492 L13.203,196.492 Z M28.128,34.705 L28.128,193.328 L167.38,146.558 L167.699,146.558 L306.711,193.328 L306.713,34.705 L299.459,34.705 L299.459,182.54 L298.8,183.014 L167.539,138.852 L36.04,183.014 L35.381,182.54 L35.381,34.705 L28.128,34.705 L28.128,34.705 Z M36.381,34.705 L36.381,181.845 L167.38,137.85 L167.699,137.85 L298.459,181.844 L298.459,34.705 L36.381,34.705 L36.381,34.705 Z M9.148,162.52 L6.905,164.897 L27.128,158.522 L27.128,116.239 L15.895,127.692 L8.275,138.801 L14.048,138.126 L14.164,139.12 L7.737,139.87 L7.67,148.49 L7.74,153.806 L9.228,161.4 L16.23,158.429 L16.621,159.349 L9.148,162.52 L9.148,162.52 Z M6.075,76.643 C6.382,78.022 7.912,85.049 9.351,94.607 L9.641,96.543 L15.808,126.353 L27.128,114.811 L27.128,62.005 L8.287,74.052 L6.075,76.643 L6.075,76.643 Z M7.655,47.28 L8.428,72.775 L27.128,60.818 L27.128,35.107 L7.655,47.28 L7.655,47.28 Z M308.323,39.25 L329.968,39.25 C332.355,39.25 333.838,38.379 333.838,36.977 C333.838,35.576 332.355,34.705 329.968,34.705 L307.713,34.705 L307.713,38.586 L308.323,39.25 L308.323,39.25 Z M4.873,34.705 C2.484,34.705 1,35.576 1,36.977 C1,38.379 2.484,39.25 4.873,39.25 L18.614,39.25 L25.885,34.705 L4.873,34.705 L4.873,34.705 Z M307.215,28.016 C303.318,28.016 300.149,24.839 300.149,20.932 C300.149,17.197 303.05,14.127 306.713,13.867 L306.713,0 L307.713,0 L307.713,13.867 C309.411,13.986 310.993,14.706 312.209,15.925 C313.544,17.264 314.28,19.042 314.28,20.932 C314.28,24.839 311.11,28.016 307.215,28.016 L307.215,28.016 Z M306.713,14.871 C303.601,15.127 301.148,17.749 301.148,20.932 C301.148,24.287 303.87,27.016 307.215,27.016 C310.559,27.016 313.279,24.287 313.279,20.932 C313.279,17.748 310.825,15.127 307.715,14.871 L307.713,20.932 L306.713,20.932 L306.713,14.871 L306.713,14.871 Z M24.115,28.016 C20.217,28.016 17.045,24.839 17.045,20.932 C17.045,17.197 19.948,14.127 23.613,13.867 L23.613,0 L24.613,0 L24.613,13.867 C28.277,14.124 31.18,17.195 31.18,20.932 C31.18,24.839 28.011,28.016 24.115,28.016 L24.115,28.016 Z M23.613,14.871 C20.5,15.128 18.045,17.749 18.045,20.932 C18.045,24.287 20.768,27.016 24.115,27.016 C27.459,27.016 30.18,24.287 30.18,20.932 C30.18,17.746 27.725,15.125 24.613,14.871 L24.613,20.932 L23.613,20.932 L23.613,14.871 L23.613,14.871 Z" id="Fill-1" sketch:type="MSShapeGroup"></path>
                <path d="M83.088,80.4 L83.088,81.128 L85.02,81.268 C85.804,81.324 85.832,81.856 85.832,82.136 L85.832,98.264 C85.832,98.46 85.832,99.076 85.02,99.132 L83.088,99.272 L83.088,100 C84.124,99.944 85.44,99.86 87.036,99.86 C90.48,99.86 88.464,100 91.74,100 C93.756,100 95.548,99.468 96.668,98.432 C98.04,97.172 98.236,95.492 98.236,94.428 C98.236,93 97.872,91.712 96.5,90.844 C95.688,90.34 94.428,90.06 93.504,90.004 L93.504,89.696 C94.036,89.5 95.352,88.968 96.136,88.184 C97.2,87.12 97.396,85.804 97.396,84.852 C97.396,83.872 97.172,82.416 95.828,81.352 C94.624,80.4 92.944,80.316 91.88,80.316 C89.752,80.316 89.612,80.54 87.036,80.54 C85.748,80.54 84.096,80.456 83.088,80.4 L83.088,80.4 Z M88.24,90.284 C89.024,90.228 89.752,90.172 90.396,90.172 C92.076,90.172 93.224,90.424 94.064,91.04 C95.548,92.132 95.604,93.896 95.604,94.568 C95.604,95.772 95.324,97.088 94.68,97.9 C93.756,99.104 92.356,99.216 91.18,99.216 C90.004,99.216 89.192,99.048 88.24,98.628 L88.24,90.284 L88.24,90.284 Z M88.24,81.352 C89.248,81.128 90.144,81.044 91.096,81.044 C92.104,81.044 93.224,81.156 94.064,82.164 C94.82,83.088 94.82,84.208 94.82,85.104 C94.82,86 94.736,87.204 94.092,88.1 C93.224,89.276 91.74,89.528 90.144,89.528 C89.528,89.528 88.884,89.472 88.24,89.444 L88.24,81.352 L88.24,81.352 Z M104.564,89.052 C104.564,88.688 104.508,88.324 105.292,88.268 L106.468,88.184 L106.468,87.568 C105.46,87.652 104.48,87.68 103.472,87.68 C102.464,87.68 101.456,87.652 100.476,87.568 L100.476,88.184 L101.652,88.268 C102.38,88.324 102.436,88.66 102.436,89.052 L102.436,98.516 C102.436,98.908 102.38,99.244 101.652,99.3 L100.476,99.384 L100.476,100 C101.428,99.916 102.156,99.888 102.8,99.888 C104.34,99.888 105.32,100.056 107.448,100.056 C108.484,100.056 109.884,99.972 110.864,98.796 C111.424,98.124 111.844,96.892 111.844,95.94 C111.844,94.624 110.976,93.532 109.716,92.972 C109.016,92.664 108.064,92.524 107.14,92.524 C106.356,92.524 105.824,92.636 104.564,92.944 L104.564,89.052 L104.564,89.052 Z M104.564,93.7 C105.264,93.308 106.076,93.14 106.72,93.14 C107.448,93.14 108.26,93.392 108.792,93.868 C109.548,94.568 109.604,95.492 109.604,96.108 C109.604,96.752 109.52,97.48 109.184,98.096 C108.68,99.048 107.784,99.384 106.356,99.384 C105.544,99.384 105.208,99.272 105.012,99.188 C104.564,98.964 104.564,98.74 104.564,98.404 L104.564,93.7 L104.564,93.7 Z M114.532,98.516 C114.532,98.908 114.476,99.244 113.748,99.3 L112.572,99.384 L112.572,100 C113.552,99.944 114.56,99.888 115.568,99.888 C116.576,99.888 117.556,99.944 118.564,100 L118.564,99.384 L117.388,99.3 C116.66,99.244 116.604,98.908 116.604,98.516 L116.604,89.052 C116.604,88.66 116.66,88.324 117.388,88.268 L118.564,88.184 L118.564,87.568 C117.556,87.652 116.576,87.68 115.568,87.68 C114.56,87.68 113.552,87.652 112.572,87.568 L112.572,88.184 L113.748,88.268 C114.476,88.324 114.532,88.66 114.532,89.052 L114.532,98.516 L114.532,98.516 Z M132.76,87.568 C131.752,87.652 130.772,87.68 129.764,87.68 C128.756,87.68 127.748,87.652 126.768,87.568 L126.768,88.184 L127.944,88.268 C128.672,88.324 128.728,88.66 128.728,89.052 L128.728,98.516 C128.728,98.908 128.672,99.244 127.944,99.3 L126.768,99.384 L126.768,100 C127.748,99.944 128.756,99.888 129.764,99.888 C130.772,99.888 131.752,99.944 132.76,100 L132.76,99.384 L131.584,99.3 C130.856,99.244 130.8,98.908 130.8,98.516 L130.8,93.644 L137.8,93.644 L137.8,98.516 C137.8,98.908 137.744,99.244 137.016,99.3 L135.84,99.384 L135.84,100 C136.82,99.944 137.828,99.888 138.836,99.888 C139.844,99.888 140.824,99.944 141.832,100 L141.832,99.384 L140.656,99.3 C139.928,99.244 139.872,98.908 139.872,98.516 L139.872,89.052 C139.872,88.66 139.928,88.324 140.656,88.268 L141.832,88.184 L141.832,87.568 C140.824,87.652 139.844,87.68 138.836,87.68 C137.828,87.68 136.82,87.652 135.84,87.568 L135.84,88.184 L137.016,88.268 C137.744,88.324 137.8,88.66 137.8,89.052 L137.8,93.028 L130.8,93.028 L130.8,89.052 C130.8,88.66 130.856,88.324 131.584,88.268 L132.76,88.184 L132.76,87.568 L132.76,87.568 Z M154.936,96.36 L154.404,96.052 C153.2,99.384 151.492,99.608 150.344,99.608 C149.28,99.608 146.088,99.552 146.088,94.456 C146.088,93.56 146.172,92.692 146.228,92.076 L154.6,92.076 L154.796,91.852 C154.88,89.416 153.032,87.288 149.868,87.288 C145.444,87.288 143.792,90.704 143.792,93.84 C143.792,97.144 145.948,100.28 150.008,100.28 C151.576,100.28 153.62,99.916 154.936,96.36 L154.936,96.36 Z M146.312,91.46 C146.368,90.62 146.676,89.724 147.264,89.024 C148.104,88.044 149,87.904 149.728,87.904 C150.232,87.904 151.156,87.988 151.884,88.716 C152.696,89.528 152.78,90.732 152.724,91.46 L146.312,91.46 L146.312,91.46 Z M170.42,97.816 L166.528,88.996 C166.5,88.912 166.444,88.8 166.444,88.688 C166.444,88.324 166.724,88.268 167.144,88.24 L168.152,88.184 L168.152,87.568 C166.724,87.624 166.108,87.708 165.296,87.708 C164.54,87.708 163.784,87.624 162.58,87.568 L162.58,88.184 L163.252,88.24 C163.924,88.296 164.092,88.772 164.204,89.024 L169.496,100.672 C168.768,102.156 167.228,105.124 165.912,105.124 C165.688,105.124 165.436,105.04 165.1,104.956 C164.708,104.844 164.4,104.788 164.092,104.788 C163.084,104.788 162.804,105.432 162.804,105.908 C162.804,106.3 163.084,106.832 164.12,106.832 C165.772,106.832 167.424,106.02 169.607,101.96 C170.532,100.252 171.512,97.76 171.624,97.48 C172.044,96.388 172.492,95.128 173.332,92.888 C174.2,90.564 174.424,89.696 174.676,89.164 C174.984,88.548 175.18,88.24 175.88,88.212 L176.355,88.184 L176.355,87.568 C174.508,87.652 175.684,87.708 174.34,87.708 C173.668,87.708 173.611,87.624 172.1,87.568 L172.1,88.184 L173.08,88.212 C174.004,88.24 173.809,88.912 173.668,89.416 C173.416,90.312 172.687,92.944 170.729,97.816 L170.42,97.816 L170.42,97.816 Z M186.744,92.02 L186.156,87.764 L185.764,87.372 C183.832,87.568 181.984,87.68 180.053,87.68 C178.96,87.68 177.84,87.652 176.637,87.568 L176.637,88.184 L177.812,88.268 C178.54,88.324 178.596,88.66 178.596,89.052 L178.596,98.516 C178.596,98.908 178.54,99.244 177.812,99.3 L176.637,99.384 L176.637,100 C177.7,99.916 178.736,99.888 179.744,99.888 C180.836,99.888 181.9,99.916 182.908,100 L182.908,99.412 L181.452,99.3 C180.725,99.244 180.668,98.908 180.668,98.516 L180.668,88.212 L182.628,88.212 C184.477,88.212 184.672,88.24 185.456,90.116 C185.512,90.256 185.68,90.648 186.212,92.02 L186.744,92.02 L186.744,92.02 Z M195.788,92.076 C195.62,92.132 195.452,92.16 195.284,92.216 C194.64,92.384 193.968,92.524 193.324,92.72 C192.484,92.972 190.16,93.672 189.124,94.512 C188.145,95.324 187.863,96.192 187.863,97.06 C187.863,99.104 189.264,100.28 191.28,100.28 C192.233,100.28 192.932,100.084 193.912,99.44 C194.473,99.076 195.144,98.544 195.592,98.152 L195.788,98.208 C195.788,99.44 196.768,100.28 197.973,100.28 C198.897,100.28 199.568,99.86 200.183,99.02 L199.848,98.656 C199.568,99.048 199.065,99.44 198.616,99.44 C198.252,99.44 197.859,99.272 197.859,98.404 L197.859,90.788 C197.859,89.976 197.692,88.744 195.928,87.876 C194.809,87.316 194.024,87.288 193.128,87.288 C192.288,87.288 191.42,87.316 190.412,87.792 C189.405,88.268 188.424,89.164 188.424,90.06 C188.424,90.592 188.901,90.788 189.264,90.788 C189.6,90.788 190.02,90.704 190.356,90.284 C191.027,89.5 190.637,88.996 191.42,88.38 C191.924,87.988 192.54,87.904 193.1,87.904 C193.688,87.904 194.359,87.96 194.977,88.436 C195.704,88.996 195.788,89.752 195.788,90.732 L195.788,92.076 L195.788,92.076 Z M195.788,97.144 C195.256,97.648 194.611,98.18 194.024,98.544 C193.436,98.908 192.848,99.188 192.12,99.188 C191.195,99.188 190.691,98.796 190.412,98.432 C190.048,97.928 189.992,97.284 189.992,96.92 C189.992,96.08 190.187,95.408 190.748,94.792 C191.504,93.952 192.708,93.56 193.52,93.308 C194.444,93.028 195.172,92.832 195.788,92.692 L195.788,97.144 L195.788,97.144 Z M203.292,87.652 L203.292,88.268 L205.448,88.184 C206.008,88.156 206.344,88.268 206.344,88.688 C206.344,88.828 206.288,88.996 206.176,89.248 L202.368,98.712 C202.145,99.272 201.92,99.244 201.584,99.244 L200.856,99.272 L200.632,99.748 L202.368,104.732 L202.9,104.732 L202.733,100.588 C202.704,99.916 202.76,99.86 204.973,99.86 L206.624,99.86 C210.908,99.86 211.523,99.916 211.973,100.028 C212.504,100.168 212.476,100.336 212.42,101.148 L212.168,104.592 L212.7,104.592 L214.324,99.832 L214.128,99.3 L213.12,99.3 C212.784,99.3 212.616,99.216 212.447,98.656 L209.368,88.716 C209.145,88.016 208.668,87.288 207.212,87.288 C206.344,87.288 205.56,87.456 204.271,87.568 L203.292,87.652 L203.292,87.652 Z M206.96,89.136 L207.352,89.22 L210.348,98.936 L210.18,99.3 C209.368,99.272 208.108,99.244 206.737,99.244 C205.252,99.244 204.076,99.272 203.124,99.3 L202.984,99.048 L206.96,89.136 L206.96,89.136 Z M222.893,92.076 C222.725,92.132 222.557,92.16 222.389,92.216 C221.744,92.384 221.072,92.524 220.428,92.72 C219.588,92.972 217.264,93.672 216.229,94.512 C215.248,95.324 214.968,96.192 214.968,97.06 C214.968,99.104 216.368,100.28 218.384,100.28 C219.336,100.28 220.036,100.084 221.016,99.44 C221.576,99.076 222.248,98.544 222.695,98.152 L222.893,98.208 C222.893,99.44 223.872,100.28 225.076,100.28 C226,100.28 226.672,99.86 227.288,99.02 L226.952,98.656 C226.672,99.048 226.168,99.44 225.721,99.44 C225.355,99.44 224.964,99.272 224.964,98.404 L224.964,90.788 C224.964,89.976 224.796,88.744 223.032,87.876 C221.912,87.316 221.128,87.288 220.232,87.288 C219.393,87.288 218.523,87.316 217.515,87.792 C216.508,88.268 215.528,89.164 215.528,90.06 C215.528,90.592 216.004,90.788 216.368,90.788 C216.704,90.788 217.124,90.704 217.46,90.284 C218.132,89.5 217.74,88.996 218.523,88.38 C219.027,87.988 219.645,87.904 220.204,87.904 C220.792,87.904 221.464,87.96 222.08,88.436 C222.809,88.996 222.893,89.752 222.893,90.732 L222.893,92.076 L222.893,92.076 Z M222.893,97.144 C222.36,97.648 221.716,98.18 221.128,98.544 C220.54,98.908 219.952,99.188 219.225,99.188 C218.3,99.188 217.796,98.796 217.515,98.432 C217.152,97.928 217.096,97.284 217.096,96.92 C217.096,96.08 217.292,95.408 217.852,94.792 C218.608,93.952 219.812,93.56 220.624,93.308 C221.548,93.028 222.276,92.832 222.893,92.692 L222.893,97.144 L222.893,97.144 Z M230.312,87.596 L230.312,88.212 L231.936,88.1 C233.252,88.016 233.225,88.604 233.111,89.052 C233.027,89.444 232.805,90.256 232.02,92.636 C231.152,95.268 230.816,96.192 230.481,96.92 C230.34,97.2 230.172,97.536 229.836,97.76 C229.389,98.04 229.108,97.9 228.38,98.208 C227.988,98.376 227.456,98.74 227.456,99.384 C227.456,99.972 227.848,100.28 228.519,100.28 C229.164,100.28 229.641,100 230.061,99.468 C230.565,98.824 231.012,97.788 232.3,93.84 C233,91.768 233.168,91.068 233.924,88.632 L234.12,88.604 C234.4,88.632 234.484,88.828 234.652,89.416 C234.932,90.424 235.212,91.46 235.52,92.496 C235.744,93.28 235.996,94.092 236.221,94.876 C236.809,96.892 236.92,97.396 237.2,98.488 C237.229,98.6 237.424,99.356 236.752,99.356 L235.408,99.384 L235.408,100 C236.359,99.916 237.313,99.86 238.237,99.86 C239.244,99.86 240.225,99.916 241.176,100 L241.176,99.384 L240.279,99.3 C239.916,99.272 239.553,99.132 239.384,98.544 L236.444,88.66 C236.137,87.652 235.38,87.288 234.233,87.288 C233.672,87.288 233.195,87.4 232.244,87.456 L230.312,87.596 L230.312,87.596 Z M253.16,98.516 C253.16,98.908 253.103,99.244 252.376,99.3 L251.2,99.384 L251.2,100 C252.18,99.944 253.187,99.888 254.195,99.888 C255.204,99.888 256.184,99.944 257.191,100 L257.191,99.384 L256.016,99.3 C255.288,99.244 255.233,98.908 255.233,98.516 L255.233,89.052 C255.233,88.66 255.288,88.324 256.016,88.268 L257.191,88.184 L257.191,87.568 C256.184,87.652 255.204,87.68 254.195,87.68 C253.187,87.68 252.18,87.652 251.2,87.568 L251.2,88.184 L252.376,88.268 C252.516,88.268 253.216,88.324 253.16,88.856 L246.048,97.368 L246.048,89.052 C246.048,88.66 246.104,88.324 246.832,88.268 L248.008,88.184 L248.008,87.568 C247,87.652 246.02,87.68 245.012,87.68 C244.004,87.68 242.996,87.652 242.016,87.568 L242.016,88.184 L243.191,88.268 C243.92,88.324 243.976,88.66 243.976,89.052 L243.976,98.516 C243.976,98.908 243.92,99.244 243.191,99.3 L242.016,99.384 L242.016,100 C242.996,99.944 244.004,99.888 245.012,99.888 C246.02,99.888 247,99.944 248.008,100 L248.008,99.384 L246.832,99.3 C246.58,99.272 245.908,99.188 246.048,98.432 L253.16,90.06 L253.16,98.516 L253.16,98.516 Z" id="Fill-2" sketch:type="MSShapeGroup"></path>
            </g>
        </g>
    </g>
</svg>