<?xml version="1.0" encoding="utf-8"?>
<!-- Generator: Adobe Illustrator 17.0.0, SVG Export Plug-In . SVG Version: 6.00 Build 0)  -->
<!DOCTYPE svg PUBLIC "-//W3C//DTD SVG 1.1//EN" "http://www.w3.org/Graphics/SVG/1.1/DTD/svg11.dtd">
<svg version="1.1" id="Layer_1" xmlns="http://www.w3.org/2000/svg" xmlns:xlink="http://www.w3.org/1999/xlink" x="0px" y="0px"
	 width="1080px" height="1920px" viewBox="0 0 1080 1920" enable-background="new 0 0 1080 1920" xml:space="preserve">
<rect x="-1080" width="6480" height="1920"/>
<g>
	<polygon fill="#FFFFFF" points="-468,84 -468,84 -468,84 -468,551 -325,551 -325,218 2088,218.321 2088,376 2232,376 2232,218 
		4644,218 4644,551 4788,551 4788,218.321 4788,84 4788,84 	"/>
	<polygon fill="#FFFFFF" points="4644,1702 2232,1701.68 2232,1544 2088,1544 2088,1702 -325,1702 -325,1369 -468,1369 -468,1836 
		-468,1836 -324.336,1836 2088.168,1836 2231.833,1836 4644.336,1836 4788,1836 4788,1701.68 4788,1369 4644,1369 	"/>
</g>
<polygon fill="#FFFFFF" points="826.189,1369.01 826.189,551 690.633,551 424.195,933.128 144.905,551 0,551 0,1369.01 
	143.736,1369.01 143.736,781.211 404.33,1141.136 425.364,1141.136 683.622,777.706 683.622,1369.01 "/>
<path fill="#FFFFFF" d="M1490.617,1159.833l85.308,209.177h153.085l-345.902-820.347h-126.208L911,1369.01h144.904l85.306-209.177
	H1490.617z M1316.498,734.468l119.197,290.978h-239.561L1316.498,734.468z"/>
</svg>
