<?xml version="1.0" encoding="utf-8"?>
<!-- Generator: Adobe Illustrator 17.0.0, SVG Export Plug-In . SVG Version: 6.00 Build 0)  -->
<!DOCTYPE svg PUBLIC "-//W3C//DTD SVG 1.1//EN" "http://www.w3.org/Graphics/SVG/1.1/DTD/svg11.dtd">
<svg version="1.1" id="Layer_1" xmlns="http://www.w3.org/2000/svg" xmlns:xlink="http://www.w3.org/1999/xlink" x="0px" y="0px"
	 width="1080px" height="1920px" viewBox="0 0 1080 1920" enable-background="new 0 0 1080 1920" xml:space="preserve">
<rect x="-2160" width="6480" height="1920"/>
<g>
	<polygon fill="#FFFFFF" points="-1548,84 -1548,84 -1548,84 -1548,551 -1405,551 -1405,218 1008,218.321 1008,376 1152,376 
		1152,218 3564,218 3564,551 3708,551 3708,218.321 3708,84 3708,84 	"/>
	<polygon fill="#FFFFFF" points="3564,1702 1152,1701.68 1152,1544 1008,1544 1008,1702 -1405,1702 -1405,1369 -1548,1369 
		-1548,1836 -1548,1836 -1404.336,1836 1008.168,1836 1151.833,1836 3564.336,1836 3708,1836 3708,1701.68 3708,1369 3564,1369 	"/>
</g>
<path fill="#FFFFFF" d="M410.617,1159.833l85.308,209.177H649.01L303.108,548.663H176.901L-169,1369.01h144.904l85.306-209.177
	H410.617z M236.498,734.468l119.197,290.978H116.134L236.498,734.468z"/>
<polygon fill="#FFFFFF" points="749.874,551 749.874,1369.01 893.61,1369.01 893.61,1019.602 1267.558,1019.602 1267.558,1369.01 
	1410.126,1369.01 1410.126,551 1267.558,551 1267.558,885.216 893.61,885.216 893.61,551 "/>
</svg>
