<?xml version="1.0" encoding="utf-8"?>
<!-- Generator: Adobe Illustrator 17.0.0, SVG Export Plug-In . SVG Version: 6.00 Build 0)  -->
<!DOCTYPE svg PUBLIC "-//W3C//DTD SVG 1.1//EN" "http://www.w3.org/Graphics/SVG/1.1/DTD/svg11.dtd">
<svg version="1.1" id="Layer_1" xmlns="http://www.w3.org/2000/svg" xmlns:xlink="http://www.w3.org/1999/xlink" x="0px" y="0px"
	 width="1080px" height="1920px" viewBox="0 0 1080 1920" enable-background="new 0 0 1080 1920" xml:space="preserve">
<rect x="-3240" width="6480" height="1920"/>
<g>
	<polygon fill="#FFFFFF" points="-2628,84 -2628,84 -2628,84 -2628,551 -2485,551 -2485,218 -72,218.321 -72,376 72,376 72,218 
		2484,218 2484,551 2628,551 2628,218.321 2628,84 2628,84 	"/>
	<polygon fill="#FFFFFF" points="2484,1702 72,1701.68 72,1544 -72,1544 -72,1702 -2485,1702 -2485,1369 -2628,1369 -2628,1836 
		-2628,1836 -2484.336,1836 -71.832,1836 71.833,1836 2484.336,1836 2628,1836 2628,1701.68 2628,1369 2484,1369 	"/>
</g>
<polygon fill="#FFFFFF" points="-330.126,551 -330.126,1369.01 -186.39,1369.01 -186.39,1019.602 187.558,1019.602 187.558,1369.01 
	330.126,1369.01 330.126,551 187.558,551 187.558,885.216 -186.39,885.216 -186.39,551 "/>
<polygon fill="#FFFFFF" points="959.277,685.388 959.277,551 486,551 486,1369.01 970.964,1369.01 970.964,1234.622 
	629.736,1234.622 629.736,1023.109 924.221,1023.109 924.221,888.721 629.736,888.721 629.736,685.388 "/>
<polygon fill="#FFFFFF" points="1839.808,941.313 2147.145,551.005 1981.206,551.005 1685.554,941.313 1685.554,551.005 
	1542.986,551.005 1542.986,941.313 1246.166,551.005 1081.396,551.005 1388.733,942.481 1080,1353.75 1080,1369.015 
	1233.311,1369.015 1542.986,944.818 1542.986,1369.015 1685.554,1369.015 1685.554,944.818 1994.061,1369.015 2160,1369.015 "/>
</svg>
