<?xml version="1.0" encoding="utf-8"?>
<!-- Generator: Adobe Illustrator 17.0.0, SVG Export Plug-In . SVG Version: 6.00 Build 0)  -->
<!DOCTYPE svg PUBLIC "-//W3C//DTD SVG 1.1//EN" "http://www.w3.org/Graphics/SVG/1.1/DTD/svg11.dtd">
<svg version="1.1" id="Layer_1" xmlns="http://www.w3.org/2000/svg" xmlns:xlink="http://www.w3.org/1999/xlink" x="0px" y="0px"
	 width="1080px" height="1920px" viewBox="0 0 1080 1920" enable-background="new 0 0 1080 1920" xml:space="preserve">
<rect x="-4320" width="6480" height="1920"/>
<g>
	<polygon fill="#FFFFFF" points="-3708,84 -3708,84 -3708,84 -3708,551 -3565,551 -3565,218 -1152,218.321 -1152,376 -1008,376 
		-1008,218 1404,218 1404,551 1548,551 1548,218.321 1548,84 1548,84 	"/>
	<polygon fill="#FFFFFF" points="1404,1702 -1008,1701.68 -1008,1544 -1152,1544 -1152,1702 -3565,1702 -3565,1369 -3708,1369 
		-3708,1836 -3708,1836 -3564.336,1836 -1151.832,1836 -1008.167,1836 1404.336,1836 1548,1836 1548,1701.68 1548,1369 1404,1369 	
		"/>
</g>
<polygon fill="#FFFFFF" points="759.808,941.313 1067.145,551.005 901.206,551.005 605.554,941.313 605.554,551.005 
	462.986,551.005 462.986,941.313 166.166,551.005 1.396,551.005 308.733,942.481 0,1353.75 0,1369.015 153.311,1369.015 
	462.986,944.818 462.986,1369.015 605.554,1369.015 605.554,944.818 914.061,1369.015 1080,1369.015 "/>
</svg>
