<?xml version="1.0" encoding="utf-8"?>
<!-- Generator: Adobe Illustrator 17.0.0, SVG Export Plug-In . SVG Version: 6.00 Build 0)  -->
<!DOCTYPE svg PUBLIC "-//W3C//DTD SVG 1.1//EN" "http://www.w3.org/Graphics/SVG/1.1/DTD/svg11.dtd">
<svg version="1.1" id="Layer_1" xmlns="http://www.w3.org/2000/svg" xmlns:xlink="http://www.w3.org/1999/xlink" x="0px" y="0px"
	 width="1080px" height="1920px" viewBox="0 0 1080 1920" enable-background="new 0 0 1080 1920" xml:space="preserve">
<g>
	<polygon points="-468,84 -468,84 -468,84 -468,551.2 -324.336,551.2 -324.336,218.321 2088.168,218.321 2088.168,376 2231.833,376 
		2231.833,218.321 4644.336,218.321 4644.336,551.2 4788,551.2 4788,218.321 4788,84 4788,84 	"/>
	<polygon points="4644.336,1701.68 2231.833,1701.68 2231.833,1544 2088.168,1544 2088.168,1701.68 -324.336,1701.68 
		-324.336,1368.8 -468,1368.8 -468,1836 -468,1836 -324.336,1836 2088.168,1836 2231.833,1836 4644.336,1836 4788,1836 
		4788,1701.68 4788,1368.8 4644.336,1368.8 	"/>
	<polygon points="827.78,1371.136 827.78,553.535 692.291,553.535 425.988,935.471 146.837,553.535 2.005,553.535 2.005,1371.136 
		145.669,1371.136 145.669,783.631 406.132,1143.376 427.156,1143.376 685.285,780.128 685.285,1371.136 	"/>
	<path d="M1498.078,1162.064l85.265,209.072h153.009l-345.729-819.937h-126.144l-345.728,819.937h144.832l85.263-209.072H1498.078z
		 M1324.046,736.911l119.138,290.832h-239.441L1324.046,736.911z"/>
</g>
</svg>
