<?xml version="1.0" encoding="utf-8"?>
<!-- Generator: Adobe Illustrator 17.0.0, SVG Export Plug-In . SVG Version: 6.00 Build 0)  -->
<!DOCTYPE svg PUBLIC "-//W3C//DTD SVG 1.1//EN" "http://www.w3.org/Graphics/SVG/1.1/DTD/svg11.dtd">
<svg version="1.1" id="Layer_1" xmlns="http://www.w3.org/2000/svg" xmlns:xlink="http://www.w3.org/1999/xlink" x="0px" y="0px"
	 width="1080px" height="1920px" viewBox="0 0 1080 1920" enable-background="new 0 0 1080 1920" xml:space="preserve">
<g>
	<polygon points="-1548,84 -1548,84 -1548,84 -1548,551.2 -1404.336,551.2 -1404.336,218.321 1008.168,218.321 1008.168,376 
		1151.833,376 1151.833,218.321 3564.336,218.321 3564.336,551.2 3708,551.2 3708,218.321 3708,84 3708,84 	"/>
	<polygon points="3564.336,1701.68 1151.833,1701.68 1151.833,1544 1008.168,1544 1008.168,1701.68 -1404.336,1701.68 
		-1404.336,1368.8 -1548,1368.8 -1548,1836 -1548,1836 -1404.336,1836 1008.168,1836 1151.833,1836 3564.336,1836 3708,1836 
		3708,1701.68 3708,1368.8 3564.336,1368.8 	"/>
	<path d="M418.078,1162.064l85.265,209.072h153.009L310.623,551.199H184.479l-345.728,819.937h144.832l85.263-209.072H418.078z
		 M244.046,736.911l119.138,290.832H123.742L244.046,736.911z"/>
	<polygon points="747.916,553.535 747.916,1371.136 891.58,1371.136 891.58,1021.903 1265.341,1021.903 1265.341,1371.136 
		1407.838,1371.136 1407.838,553.535 1265.341,553.535 1265.341,887.584 891.58,887.584 891.58,553.535 	"/>
</g>
</svg>
