<?xml version="1.0" encoding="utf-8"?>
<!-- Generator: Adobe Illustrator 17.0.0, SVG Export Plug-In . SVG Version: 6.00 Build 0)  -->
<!DOCTYPE svg PUBLIC "-//W3C//DTD SVG 1.1//EN" "http://www.w3.org/Graphics/SVG/1.1/DTD/svg11.dtd">
<svg version="1.1" id="Layer_1" xmlns="http://www.w3.org/2000/svg" xmlns:xlink="http://www.w3.org/1999/xlink" x="0px" y="0px"
	 width="1080px" height="1920px" viewBox="0 0 1080 1920" enable-background="new 0 0 1080 1920" xml:space="preserve">
<g>
	<polygon points="-2628,84 -2628,84 -2628,84 -2628,551.2 -2484.336,551.2 -2484.336,218.321 -71.832,218.321 -71.832,376 
		71.833,376 71.833,218.321 2484.336,218.321 2484.336,551.2 2628,551.2 2628,218.321 2628,84 2628,84 	"/>
	<polygon points="2484.336,1701.68 71.833,1701.68 71.833,1544 -71.832,1544 -71.832,1701.68 -2484.336,1701.68 -2484.336,1368.8 
		-2628,1368.8 -2628,1836 -2628,1836 -2484.336,1836 -71.832,1836 71.833,1836 2484.336,1836 2628,1836 2628,1701.68 2628,1368.8 
		2484.336,1368.8 	"/>
	<polygon points="-332.084,553.535 -332.084,1371.136 -188.42,1371.136 -188.42,1021.903 185.341,1021.903 185.341,1371.136 
		327.838,1371.136 327.838,553.535 185.341,553.535 185.341,887.584 -188.42,887.584 -188.42,553.535 	"/>
	<polygon points="969.638,687.856 969.638,553.535 496.597,553.535 496.597,1371.136 981.319,1371.136 981.319,1236.815 
		640.262,1236.815 640.262,1025.408 934.599,1025.408 934.599,891.087 640.262,891.087 640.262,687.856 	"/>
	<polygon points="1219.47,1371.136 1528.99,947.151 1528.99,1371.136 1671.487,1371.136 1671.487,947.151 1979.839,1371.136 
		2145.695,1371.136 1825.663,943.648 2132.846,553.535 1966.99,553.535 1671.487,943.648 1671.487,553.535 1528.99,553.535 
		1528.99,943.648 1232.319,553.535 1067.631,553.535 1374.814,944.815 1054.782,1371.136 	"/>
</g>
</svg>
