<?xml version="1.0" encoding="utf-8"?>
<!-- Generator: Adobe Illustrator 17.0.0, SVG Export Plug-In . SVG Version: 6.00 Build 0)  -->
<!DOCTYPE svg PUBLIC "-//W3C//DTD SVG 1.1//EN" "http://www.w3.org/Graphics/SVG/1.1/DTD/svg11.dtd">
<svg version="1.1" id="Layer_1" xmlns="http://www.w3.org/2000/svg" xmlns:xlink="http://www.w3.org/1999/xlink" x="0px" y="0px"
	 width="1080px" height="1920px" viewBox="0 0 1080 1920" enable-background="new 0 0 1080 1920" xml:space="preserve">
<g>
	<polygon points="-4788,84 -4788,84 -4788,84 -4788,551.2 -4644.336,551.2 -4644.336,218.321 -2231.832,218.321 -2231.832,376 
		-2088.167,376 -2088.167,218.321 324.336,218.321 324.336,551.2 468,551.2 468,218.321 468,84 468,84 	"/>
	<polygon points="324.336,1701.68 -2088.167,1701.68 -2088.167,1544 -2231.832,1544 -2231.832,1701.68 -4644.336,1701.68 
		-4644.336,1368.8 -4788,1368.8 -4788,1836 -4788,1836 -4644.336,1836 -2231.832,1836 -2088.167,1836 324.336,1836 468,1836 
		468,1701.68 468,1368.8 324.336,1368.8 	"/>
</g>
</svg>
