<?xml version="1.0" encoding="utf-8"?>
<!-- Generator: Adobe Illustrator 15.0.0, SVG Export Plug-In . SVG Version: 6.00 Build 0)  -->
<!DOCTYPE svg PUBLIC "-//W3C//DTD SVG 1.1//EN" "http://www.w3.org/Graphics/SVG/1.1/DTD/svg11.dtd">
<svg version="1.1" id="Layer_1" xmlns="http://www.w3.org/2000/svg" xmlns:xlink="http://www.w3.org/1999/xlink" x="0px" y="0px"
	 width="1000px" height="144px" viewBox="0 0 1000 144" enable-background="new 0 0 1000 144" xml:space="preserve">
<g>
	<defs>
		<rect id="SVGID_1_" x="1" width="999" height="145"/>
	</defs>
	<clipPath id="SVGID_2_">
		<use xlink:href="#SVGID_1_"  overflow="visible"/>
	</clipPath>
	<path clip-path="url(#SVGID_2_)" d="M371.124,116.735c-0.061,1.164-0.16,2.658,1.455,2.408c1.291-0.198,2.808-1.295,4.021-1.836
		c0.579-0.259,1.162-0.52,1.69-0.876c0.175-0.117,1.389-1.351,1.419-1.344c-0.712-0.154-1.182,0.187-1.801,0.418
		c-1.086,0.406-2.229,0.743-3.371,0.957C373.781,116.604,372.133,117.014,371.124,116.735 M358.377,44.737
		c0.122,0.033,0.227,0.079,0.356,0.107c-0.112-0.025-0.211-0.023-0.303-0.011L358.377,44.737z M389.167,60.947
		c-2.214,1.63-5.158,2.621-7.699,3.558c-1.489,0.643-3.036,1.056-4.641,1.24c-2.131,0.226-4.193-0.225-6.151-1.083
		c-4.105-1.801-10.114-6.712-7.919-11.861l-0.4,0.432c0.059-0.168,0.12-0.336,0.163-0.515c-1.557-0.95-3.273-1.591-4.78-2.669
		c-0.651-0.465-1.3-0.877-1.967-1.26c0.69-0.676,1.767-1.832,2.499-2.523c0.106,0.104,0.23,0.2,0.387,0.277
		c1.021,0.51,3.961-0.102,3.961-0.102c0.106-0.977,0.126-1.835,0.087-2.614l0.643-0.131c0,0-0.961-4.931-3.157-5.543
		c-0.345-0.223-0.599-0.33-0.599-0.33l-0.1-0.021c-2.815-0.561-4.622,1.328-4.811,2.823c-0.095,0.75,0.256,1.816,1.157,2.715
		c-1.583,0.895-3.852,2.633-4.582,3.295c-0.629-0.285-1.26-0.569-1.89-0.853c-0.55-0.249-1.118-0.595-1.689-0.769
		c-0.001,0-0.001,0-0.001,0s-4.466-0.773-6.321-0.934c-0.614-0.053-2.898-0.265-3.517-0.313c-1.446-0.114-2.935-0.038-4.345,0.12
		c-2.462,0.275-4.786,0.214-7.088,1.234c-2.284,1.01-4.663,1.701-6.81,2.987c-2.36,1.412-4.177,3.557-6.062,5.566
		c-0.631,0.672-1.155,1.332-1.658,2.095c-0.353,0.538-0.807,0.963-1.121,1.527c-0.326,0.586-0.514,1.246-0.84,1.835
		c-1.595,2.871-2.891,5.975-3.923,9.076c-0.058,0.175,0.518-0.191,0.643-0.402c0.622-1.04,1.333-2.135,2.133-3.086
		c1.589-1.889,3.12-4.256,5.132-5.715c1.853-1.344,3.563-2.892,5.386-4.272c0.81-0.614,1.743-1,2.572-1.591
		c0.854-0.608,1.833-1.096,2.816-1.428c3.148-1.067,6.385-2.814,9.722-3.116c1.346-0.123,2.685,0.08,4-0.061
		c0.354-0.039,0.761-0.05,1.109-0.106c0.139-0.022,0.498-0.241,0.611-0.229c0.309,0.031,0.579,0.105,0.857,0.173
		c-0.247,0.187-0.505,0.374-0.748,0.558c-2.838,2.156-5.561,4.303-8.076,6.837c-1.375,1.386-2.904,2.663-4.152,4.174
		c-1.015,1.228-1.885,2.589-2.848,3.857c-1.535,2.02-3.024,4.076-4.541,6.108c-0.904,1.21-1.831,2.51-2.603,3.869
		c-0.208,0.112-0.414,0.227-0.624,0.325c-1.88,0.877-4.131,1.405-6.137,1.902c-6.657,1.651-13.316,1.854-20.1,1.112
		c-2.884-0.314-5.752-0.908-8.61-1.368c-1.453-0.235-3.091-0.426-4.462-0.986c-1.054-0.43-2.05-1.011-3.129-1.365
		c-1.578-0.518-4.336-1.287-4.215-1.072c-0.325,0.076-0.64,0.22-0.914,0.401c-0.942,0.629-1.707,1.174-2.741,1.668
		c-1.776,0.849-3.315,2.147-5.03,3.068c0.418,0.003,1.069-0.412,1.525-0.554c1.059-0.332,2.165-0.77,3.184-1.204
		c1.698-0.726,3.296-1.575,4.957-2.366c0.189,0.1,0.381,0.196,0.568,0.302c2.036,1.352,4.06,2.723,6.07,4.112
		c1.379,0.969,2.762,1.935,4.147,2.896c1.617,0.785,3.263,1.507,4.936,2.166c3.612,1.526,6.947,3.227,10.832,3.868
		c5.151,0.849,10.451-0.162,15.31-2.019c2.134-0.815,4.385-2.057,6.191-3.476c0.988-0.776,1.659-1.742,2.509-2.645
		c0.015-0.015,0.031-0.028,0.046-0.043c0.38,0.159,0.766,0.303,1.143,0.473c2.1,0.929,4.171,1.855,6.31,2.693
		c2.035,0.798,4.058,1.508,6.045,2.422c0.459,0.211,1.229,0.638,1.733,0.546c0.557-0.104,0.531-0.231,0.887-0.749
		c0.901,0.353,1.793,0.723,2.661,1.131c4.154,1.955,7.978,4.639,11.629,7.413c4.667,3.549,9.03,7.214,12.441,12.072
		c1.674,2.382,3.215,4.903,4.209,7.663c0.25,0.692,0.465,1.397,0.636,2.115c0.134,0.564,0.107,1.604,0.454,2.068
		c0.147,0.196,0.384,0.312,0.658,0.387c0.003-0.068,0.007-0.142,0.01-0.209c0.079-1.736,0.106-3.478,0.148-5.216
		c0.181-7.417-2.55-16.183-8.316-21.113c-3.706-2.57-7.692-4.586-11.959-6.045c-2.932-1.19-6.588-2.964-10.033-3.362
		c0.492-0.561,0.984-1.12,1.456-1.692c1.782-2.151,16.041-19.462,17.082-21.065c0.014,0.485,0.833,3.526,1.376,4.396
		c0.479,0.765,0.835,1.6,1.438,2.275c1.189,1.333,2.263,2.917,3.639,4.06c0.984,0.819,1.922,1.668,3.103,2.18
		c0.933,0.404,1.848,1.036,2.866,1.2c0.607-0.011,1.203,0.07,1.787,0.242c3.305,0.655,6.081-1.012,8.857-2.66
		c1.868-1.108,3.724-2.431,5.196-4.022c0.698-0.757,1.371-1.534,2.131-2.232c1.599-1.468,2.856-3.777,3.724-5.776
		C394.229,56.312,391.777,59.026,389.167,60.947"/>
	
		<line clip-path="url(#SVGID_2_)" fill="none" stroke="#939598" stroke-width="80.638" stroke-linecap="round" stroke-linejoin="round" stroke-dasharray="0,182.569" x1="780.743" y1="40.243" x2="870.539" y2="40.243"/>
	
		<path clip-path="url(#SVGID_2_)" fill="none" stroke="#939598" stroke-width="80.638" stroke-linecap="round" stroke-linejoin="round" d="
		M960.338,40.243L960.338,40.243 M601.146,40.243L601.146,40.243"/>
	
		<line clip-path="url(#SVGID_2_)" fill="none" stroke="#C32A1B" stroke-width="15.8" stroke-dasharray="61.06,61.06" x1="1" y1="137.114" x2="901.985" y2="137.114"/>
</g>
</svg>
