<?xml version="1.0" encoding="utf-8"?>
<!-- Generator: Adobe Illustrator 15.0.0, SVG Export Plug-In . SVG Version: 6.00 Build 0)  -->
<!DOCTYPE svg PUBLIC "-//W3C//DTD SVG 1.1//EN" "http://www.w3.org/Graphics/SVG/1.1/DTD/svg11.dtd">
<svg version="1.1" id="Layer_1" xmlns="http://www.w3.org/2000/svg" xmlns:xlink="http://www.w3.org/1999/xlink" x="0px" y="0px"
	 width="1000px" height="295px" viewBox="0 0 1000 295" enable-background="new 0 0 1000 295" xml:space="preserve">
<g>
	<defs>
		<rect id="SVGID_1_" x="5.416" width="994.584" height="294.365"/>
	</defs>
	<clipPath id="SVGID_2_">
		<use xlink:href="#SVGID_1_"  overflow="visible"/>
	</clipPath>
	<path clip-path="url(#SVGID_2_)" fill="#CFD1D2" d="M543.732,294.365c81.287,0,147.182-65.896,147.182-147.183
		C690.914,65.896,625.02,0,543.732,0C462.446,0,396.55,65.896,396.55,147.183C396.55,228.47,462.446,294.365,543.732,294.365"/>
	
		<line clip-path="url(#SVGID_2_)" fill="none" stroke="#000000" stroke-width="12.584" stroke-dasharray="52.024,52.024" x1="5.416" y1="169.495" x2="1000" y2="169.495"/>
</g>
<polyline fill="#5C5D60" points="749.801,134.859 749.801,272.827 385.025,272.827 "/>
<line fill="none" stroke="#FFFFFF" stroke-width="1.258" stroke-dasharray="12.05,12.05" x1="386.209" y1="273.993" x2="754.52" y2="136.919"/>
<g>
	<defs>
		<rect id="SVGID_3_" x="9" y="-1.061" width="994.584" height="294.365"/>
	</defs>
	<clipPath id="SVGID_4_">
		<use xlink:href="#SVGID_3_"  overflow="visible"/>
	</clipPath>
	<path clip-path="url(#SVGID_4_)" fill="#FFFFFF" d="M575.3,200.073c9.127,0,16.525-7.398,16.525-16.526
		c0-9.125-7.398-16.524-16.525-16.524s-16.526,7.399-16.526,16.524C558.773,192.675,566.173,200.073,575.3,200.073"/>
	
		<line clip-path="url(#SVGID_4_)" fill="none" stroke="#C32A1B" stroke-width="26.426" stroke-linecap="round" stroke-linejoin="round" stroke-dasharray="0,70.489" x1="626.912" y1="25.974" x2="825.087" y2="25.974"/>
	
		<path clip-path="url(#SVGID_4_)" fill="none" stroke="#C32A1B" stroke-width="26.426" stroke-linecap="round" stroke-linejoin="round" d="
		M864.721,25.974L864.721,25.974 M547.642,25.974L547.642,25.974"/>
	<path clip-path="url(#SVGID_4_)" d="M740.362,74.389c-0.366,0-0.661-0.297-0.661-0.661c0-0.366,0.295-0.662,0.661-0.662
		c0.364,0,0.66,0.295,0.66,0.662C741.022,74.092,740.727,74.389,740.362,74.389 M749.965,90.767
		c-0.125-2.732-1.673-7.079-4.153-8.997c-0.974-0.75-3.146-2.824-4.899-2.978c-0.009-0.589-0.015-1.189-0.019-1.857
		c2.287,0.765,4.035-0.238,4.566-1.225c0.662-1.227,0.393-3.606-1.891-4.671L743.488,71c0,0-0.236-0.053-0.599-0.067
		c-1.874-0.698-5.172,2.511-5.172,2.511l0.383,0.438c-0.44,0.566-0.884,1.225-1.328,2.017c0,0,1.197,1.373,2.172,1.936
		c-0.087,0.649-0.157,1.286-0.168,1.934l-0.188,0.122c-2.135-0.74-2.779,1.328-3.42,2.692c-0.796,1.692-0.438,2.712-0.598,4.512
		c-0.329,3.731-0.624,7.319-0.422,11.17c0.195,3.728,0.99,7.834,0.632,11.555c-0.124,1.284-0.776,1.17,0.536,1.739
		c0.152,0.066,0.37,0.115,0.62,0.15c-0.031,0.279-0.052,0.561-0.066,0.828c-0.032,0.595,0.03,1.148,0.015,1.744
		c-0.032,1.421,0.072,2.89-0.018,4.33c-0.072,1.155-0.227,2.317-0.348,3.469c-0.083,0.802,0.052,1.577-0.036,2.392
		c-0.099,0.929,0.022,1.844-0.078,2.776c-0.075,0.698,0.045,1.263,0.013,1.937c-0.024,0.556-0.171,1.099-0.126,1.654
		c0.065,0.786,0.01,1.501-0.073,2.289c-0.061,0.592,0.034,1.081,0.041,1.662c0.005,0.546-0.169,1.075-0.125,1.625
		c0.029,0.358,0.034,0.656,0.042,1.033c0.006,0.323,0.131,0.394,0.143,0.654c0.022,0.472-0.428,1.704-0.093,2.047
		c-0.414-0.193-0.561,0.543-0.803,0.75c-0.369,0.312-0.801,0.545-1.187,0.838c-0.328,0.249-0.591,0.394-0.937,0.609
		c-0.522,0.33-0.938,0.683-1.431,1.069c0.753,0.047,1.464-0.476,2.145-0.691c0.79-0.247,1.515-0.714,2.318-0.952
		c0.543-0.161,1.122-0.166,1.647-0.433c0.585-0.298,1.209-0.671,1.849-0.68c0.268-0.735,0.172-1.693,0.122-2.44
		c-0.087-1.239,0-2.462,0.118-3.699c0.275-2.87,0.554-5.742,0.831-8.614c0.089-0.919,0.178-1.838,0.265-2.757
		c0.202-2.111,0.667-4.148,0.749-6.264c0.067-1.695,0.106-3.367,0.203-5.044c0.973-0.014,1.934-0.027,2.857,0.007
		c0.029,0.704-0.024,1.428-0.023,2.132c0.004,2.969,0,5.941,0,8.911v9.871c0,0.821-0.099,1.719-0.004,2.535
		c0.086,0.738,0.391,1.562,0.213,2.348c0.036,0.129,0.025,0.254-0.03,0.373c-0.084,0.134-0.503,0.292-0.649,0.421
		c-0.311,0.277-0.552,0.592-0.841,0.895c-0.884,0.929-2.038,1.351-2.703,2.549c1.041-0.767,2.245-1.347,3.401-1.952
		c0.534-0.279,1.034-0.657,1.589-0.864c0.183-0.067,0.505-0.095,0.668-0.191c0.234-0.137,0.292-0.308,0.553-0.435
		c0.321-0.158,0.719-0.146,0.878-0.557c0.176-0.456-0.01-1.391-0.01-1.918c0-1.077,0.007-2.153,0.001-3.228
		c-0.007-1.15,0.176-2.231,0.359-3.362c0.215-1.303,0.047-2.74,0.047-4.059v-3.743v-5.46v-3.717
		c0.459,0.284,0.652,0.441,1.335-0.552c1.378-2.01,0.751-5.653,0.891-7.844C749.932,99.551,750.17,95.274,749.965,90.767"/>
</g>
</svg>
