<?xml version="1.0" encoding="utf-8"?>
<!-- Generator: Adobe Illustrator 15.0.0, SVG Export Plug-In . SVG Version: 6.00 Build 0)  -->
<!DOCTYPE svg PUBLIC "-//W3C//DTD SVG 1.1//EN" "http://www.w3.org/Graphics/SVG/1.1/DTD/svg11.dtd">
<svg version="1.1" id="Layer_1" xmlns="http://www.w3.org/2000/svg" xmlns:xlink="http://www.w3.org/1999/xlink" x="0px" y="0px"
	 width="1000px" height="295px" viewBox="0 0 1000 295" enable-background="new 0 0 1000 295" xml:space="preserve">
<g>
	<defs>
		<rect id="SVGID_1_" x="-3.5" y="-0.68" width="1008.561" height="294.784"/>
	</defs>
	<clipPath id="SVGID_2_">
		<use xlink:href="#SVGID_1_"  overflow="visible"/>
	</clipPath>
	<path clip-path="url(#SVGID_2_)" fill="#231F20" d="M841.366,39.042l0.008-0.076c0.058,0.068,0.1,0.135,0.164,0.203
		C841.481,39.109,841.423,39.071,841.366,39.042 M835.979-0.68c-0.731,0.255-1.002-0.013-1.686,0.458
		c-2.495,1.716-4.293,5.189-5.33,7.855c-1.259,3.236-1.916,7.466-2.09,10.867c-0.188,3.684,0.186,7.743,0.946,11.351
		c0.141,0.665,0.303,1.336,0.47,2.006c-0.979,0.416-1.956,0.835-2.926,1.275c-4.278,1.937-8.662,3.773-12.53,6.512
		c-0.187,0.132-0.375,0.282-0.564,0.432c-2.673,0.716-5.37,1.363-8.068,2.017c-6.433,1.562-12.836,3.333-19.255,4.974
		c-3.545,1.007-7.104,1.952-10.681,2.835c-1.948,0.356-3.928,0.46-5.878,0.779c-1.488,0.243-1.437,1.22-2.546,2.238
		c-1.284,1.179-3.022,1.717-4.3,2.961c1.83,0.487,4.062-2.141,5.968-2.156c11.591-0.095,23.226-1.31,34.478-4.199
		c-0.302,0.233-0.613,0.454-0.91,0.694c-4.72,3.617-9.597,6.983-14.392,10.493c-2.938,2.151-5.751,4.427-8.747,6.503
		c-1.529,1.058-3.085,2.092-4.411,3.403c0.679,1.921-1.134,3.933-1.829,5.669c0.912-0.315,0.829-0.867,1.284-1.562
		c0.337-0.514,1.156-1.392,1.613-1.78c1.437-1.219,3.756-2.139,5.376-3.13c3.857-2.357,7.779-4.612,11.768-6.741
		c4.736-2.529,9.481-5.298,14.381-7.498c2.459-1.104,5.037-1.89,7.618-2.655c1.507,0.252,3.008,0.64,4.562,0.914
		c3.834,0.676,7.682,0.866,11.416,0.652c1.067-0.062,2.139-0.171,3.213-0.219c-0.425,0.164-0.836,0.36-1.214,0.64
		c-2.063,1.539-3.036,4.229-3.654,6.546c-1.119,4.19-1.385,8.413-1.383,12.699c0.002,4.702,0.233,10.631,3.3,14.473
		c0.706,0.885,1.116,0.769,2.172,0.467c0.004-0.89-0.261-1.799-0.386-2.678c-0.391-2.763-0.329-5.76-0.07-8.543
		c0.36-3.875,1.109-7.817,2.224-11.558c1.389-4.663,2.265-9.42,3.326-14.156l-0.325,0.23c-0.009-0.086-0.013-0.161-0.025-0.253
		c-0.471-3.47-0.402-6.925-0.332-10.334c0.01-0.396,0.025-0.792,0.041-1.186c0.341-0.042,0.724-0.259,1.207-0.31
		c0.55-0.058,2.01-0.379,2.875-0.506c0.02,0.102,0.053,0.206,0.111,0.312c0.386,0.699,2.351,1.518,2.351,1.518
		c0.463-0.517,0.826-1.001,1.124-1.462l0.429,0.181c0,0,1.466-3.206,0.438-4.431c-0.109-0.265-0.214-0.428-0.214-0.428l-0.05-0.051
		c-1.409-1.441-3.237-1.079-3.962-0.299c-0.364,0.392-0.598,1.142-0.441,2.016c-1.129-0.104-2.827-0.045-3.705,0.031
		c0.13-2.808,0.163-5.635-0.488-8.544c-0.581-0.359-1.498,0.364-1.871,0.542c-0.509,0.241-1.021,0.468-1.534,0.698
		c-0.299-6.016,0.056-12.285,0.776-18.24c0.259-2.139,0.773-4.195,0.971-6.34c0.014-0.971,0.164-1.923,0.454-2.855
		C835.361,1.443,835.922,0.359,835.979-0.68"/>
</g>
<polygon fill="#C22A1B" points="663.021,118.708 449.245,118.708 449.245,118.859 235.654,294.104 449.43,294.104 449.43,293.952 
	"/>
<g>
	<defs>
		<rect id="SVGID_3_" x="-3.5" y="-0.68" width="1008.561" height="294.784"/>
	</defs>
	<clipPath id="SVGID_4_">
		<use xlink:href="#SVGID_3_"  overflow="visible"/>
	</clipPath>
	
		<line clip-path="url(#SVGID_4_)" fill="none" stroke="#7E8081" stroke-width="13.793" stroke-dasharray="50.543,50.543" x1="413.581" y1="231.452" x2="1005.061" y2="231.452"/>
	
		<line clip-path="url(#SVGID_4_)" fill="none" stroke="#231F20" stroke-width="55.173" stroke-linecap="round" stroke-linejoin="round" stroke-dasharray="0,140.941" x1="608.546" y1="177.38" x2="533.575" y2="177.38"/>
	
		<path clip-path="url(#SVGID_4_)" fill="none" stroke="#231F20" stroke-width="55.173" stroke-linecap="round" stroke-linejoin="round" d="
		M458.603,177.38L458.603,177.38 M758.489,177.38L758.489,177.38"/>
	<path clip-path="url(#SVGID_4_)" fill="none" stroke="#E2E3E4" stroke-width="5.483" d="M-3.5,61.036
		c11.787-10.759,35.361-10.759,47.148,0c11.787,10.759,35.361,10.759,47.147,0c11.788-10.759,35.361-10.759,47.149,0
		c11.787,10.759,35.361,10.759,47.147,0c11.788-10.759,35.362-10.759,47.148,0c11.787,10.759,35.361,10.759,47.149,0
		c11.786-10.759,35.36-10.759,47.147,0c11.788,10.759,35.36,10.759,47.148,0c11.787-10.759,35.36-10.759,47.147,0
		c11.788,10.759,35.362,10.759,47.148,0c11.787-10.759,35.362-10.759,47.149,0c11.787,10.759,35.361,10.759,47.147,0
		c11.787-10.759,35.36-10.759,47.148,0c11.787,10.759,35.361,10.759,47.149,0c11.786-10.759,35.359-10.759,47.146,0
		c11.788,10.759,35.361,10.759,47.148,0"/>
</g>
</svg>
