<svg width="340" height="45" viewBox="0 0 340 45" fill="none" xmlns="http://www.w3.org/2000/svg">
<path d="M192.473 0.373013C192.473 0.543339 192.268 0.713665 191.996 0.713665C190.906 0.713665 186.477 2.85975 184.434 4.42672C181.538 6.60687 177.382 11.6144 177.484 12.8067C177.484 12.9089 177.28 13.4198 177.007 13.9308C176.156 15.5659 175.1 20.3009 175.1 22.4129C175.1 24.3887 176.122 29.0556 176.803 30.3841C177.007 30.7588 177.246 31.372 177.314 31.7126C177.689 33.6543 182.015 38.5937 185.49 41.0464C187.431 42.409 191.962 44.3166 193.256 44.3166C193.563 44.3166 193.835 44.4528 193.835 44.6572C193.835 45.066 201.909 45.1341 202.079 44.7254C202.147 44.5891 203.51 44.0441 205.145 43.5331C209.096 42.2046 212.639 39.7519 215.637 36.2092C217 34.6081 218.532 31.6445 219.316 28.9874C220.474 25.2744 220.542 19.7559 219.554 16.5538C219.214 15.4297 218.941 14.4077 218.975 14.2374C219.009 14.1011 218.873 13.9989 218.669 13.9989C218.498 13.9989 218.43 13.8286 218.532 13.6583C218.771 13.2836 216.693 9.63864 215.569 8.4123C211.788 4.2564 207.938 1.76967 203.816 0.815857C203.374 0.713665 203.033 0.509274 203.033 0.338951C203.033 0.168625 200.648 0.0323677 197.753 0.0323677C194.449 0.0323677 192.473 0.168625 192.473 0.373013ZM195.232 2.79161C194.176 3.0982 192.439 4.12014 191.042 5.24428C190.702 5.5168 190.429 6.19809 190.429 6.77719C190.429 7.62881 190.599 7.86727 191.485 8.17385C192.814 8.61669 194.619 8.65076 196.22 8.24198C196.867 8.07166 197.821 7.8332 198.366 7.73101C199.49 7.45849 202.011 5.10802 202.011 4.32453C202.011 4.01795 201.704 3.47291 201.296 3.06413L200.614 2.38284L201.909 2.58722C203.851 2.89381 205.894 3.71136 208.075 5.00583C210.153 6.26622 213.729 9.19579 213.491 9.46832C213.389 9.53644 213.661 9.97929 214.104 10.4562C214.99 11.41 216.863 15.1912 217.545 17.4054C218.158 19.4834 218.192 25.3425 217.579 27.2842C216.829 29.6006 214.99 33.2796 214.07 34.2675C213.627 34.7444 213.252 35.2894 213.252 35.4597C213.252 35.8345 208.824 39.5475 208.381 39.5475C208.211 39.5475 207.666 39.82 207.189 40.1947C204.532 42.0342 199.763 42.8177 194.857 42.2727C190.293 41.7617 185.251 38.9343 182.185 35.1532C180.448 33.0411 178.506 28.8852 178.098 26.4326C177.689 23.9799 177.553 19.1086 177.893 19.1086C178.029 19.1086 178.098 18.6658 178.098 18.1208C178.063 17.5757 178.54 16.0769 179.154 14.8165C179.767 13.522 180.278 12.3979 180.278 12.2957C180.346 11.7166 182.526 9.05954 184.229 7.49255C187.363 4.59705 192.064 2.5191 195.539 2.48503C196.22 2.48503 196.186 2.55316 195.232 2.79161Z" fill="#EE3831"/>
<path d="M200.137 7.56204C197.344 8.78837 194.039 9.57186 191.553 9.57186C189.441 9.57186 189.168 10.151 190.769 11.2751C192.37 12.3992 192.54 13.0124 191.995 15.2947C191.076 19.2122 190.02 20.5067 186.818 21.6308C185.898 21.9374 185.455 22.3121 185.387 22.789C185.285 23.5044 185.387 23.5384 188.623 23.5384L191.961 23.5725L190.667 24.1857C188.998 24.9691 186.818 27.1152 185.932 28.7844C184.91 30.7942 184.944 34.5413 186 36.4149C186.443 37.1984 186.886 37.8456 186.988 37.8456C187.09 37.8456 187.703 38.2885 188.351 38.8335C190.258 40.4686 193.869 41.6609 197.514 41.8653C200.341 42.0015 201.023 41.8993 203.612 41.0818C205.996 40.2983 206.814 39.8214 208.108 38.561C209.573 37.1303 210.867 35.427 210.867 34.9501C210.867 34.8479 209.982 34.7798 208.892 34.7798C207.256 34.7798 206.848 34.9161 206.439 35.5292C204.395 38.5269 202.76 39.5489 200.103 39.5489C196.015 39.5489 194.346 35.9721 195.674 30.0107C195.913 28.8866 197.514 26.6724 198.672 25.8208C199.728 25.0373 203.748 24.6285 205.076 25.1735C205.928 25.5482 205.928 25.5482 205.144 25.5482C203.237 25.6164 201.704 27.1493 201.67 28.9888C201.67 32.8722 207.359 34.0644 210.084 30.7602C210.935 29.7382 211.14 27.2174 210.493 25.8548C209.982 24.6626 207.393 23.1978 204.633 22.4824C200.512 21.3923 200.341 20.8473 201.942 13.6596C203.475 6.94888 203.543 6.50603 202.998 6.50603C202.726 6.5401 201.465 6.98294 200.137 7.56204Z" fill="#EE3831"/>
<path d="M23.3424 10.7967C19.5613 11.6483 18.7437 12.0912 18.7437 13.2834C18.7437 13.8625 18.88 14.3394 19.0162 14.3394C19.1865 14.3394 19.2547 14.7823 19.1525 15.3614C19.0162 16.2471 19.1184 16.3833 19.7997 16.3833C20.2426 16.3833 21.3667 16.1449 22.2864 15.8724C23.2062 15.5998 25.1819 15.3614 26.6467 15.3614C29.2016 15.3614 29.3378 15.3954 29.6444 16.2471C30.2576 17.814 30.1213 17.9503 27.2599 18.3931C25.761 18.5975 23.7512 19.0063 22.7633 19.2448C21.7755 19.5173 20.5491 19.7898 20.0382 19.9261C18.6415 20.2326 16.6998 22.1062 15.9845 23.8094C15.3372 25.2742 15.1669 28.2719 15.6097 29.362C15.746 29.6345 16.3251 30.4521 16.9042 31.1674C17.824 32.2575 18.3349 32.53 20.1404 32.9388C24.0919 33.7564 31.8586 33.3816 34.1069 32.1894C35.6398 31.4059 36.1167 30.2136 36.798 25.4786C37.4793 20.8458 37.6497 13.3175 37.1046 13.3175C36.9343 13.3175 36.798 13.1131 36.798 12.8747C36.798 12.6703 35.8783 12.023 34.7201 11.478C32.9828 10.6604 32.1652 10.4901 29.2016 10.3879C26.8511 10.3198 24.9435 10.422 23.3424 10.7967ZM29.4741 23.1963C29.5763 23.3666 29.5422 23.5369 29.3378 23.5369C29.1675 23.5369 28.9972 24.5248 28.9972 25.7852C28.9972 27.0456 28.8269 28.2379 28.6225 28.4423C28.4181 28.6466 27.328 28.817 26.2039 28.817C24.4325 28.817 24.0578 28.7148 23.5128 27.9653C21.9799 25.9896 23.2743 23.7754 26.4083 23.0941C27.7027 22.7875 29.2697 22.8556 29.4741 23.1963Z" fill="#EE3831"/>
<path d="M43.1333 10.7963C41.4642 11.0689 39.9994 11.3414 39.9313 11.4436C39.8291 11.5117 39.6247 13.0106 39.4544 14.7479C39.0456 19.006 37.4786 31.3715 37.2742 32.155C37.1039 32.7 37.3764 32.7341 41.1235 32.6659L45.1432 32.5637L45.1772 31.5418C45.2794 29.0891 45.7563 25.3079 46.0289 24.8651C46.3014 24.4563 46.4036 24.4904 46.7101 24.9673C46.8805 25.3079 47.0167 25.6827 47.0167 25.7848C46.9827 25.9211 47.0849 26.1255 47.2552 26.2277C47.6299 26.5002 48.9584 28.8507 49.6397 30.4177C49.9463 31.133 50.321 31.7121 50.4913 31.7121C50.6276 31.7121 50.7639 31.9506 50.7639 32.2231C50.7639 32.6319 51.4452 32.7341 54.8516 32.7341C57.7471 32.7341 58.9394 32.6319 58.9394 32.3253C58.9394 31.8824 56.5889 27.5222 56.2142 27.2837C56.078 27.1815 55.6692 26.5683 55.3285 25.887C54.9538 25.2057 54.3066 23.9794 53.8638 23.1619L53.0803 21.6971L54.1363 20.7433C54.7154 20.2323 55.1923 19.7213 55.1923 19.5851C55.1923 19.4829 55.8395 18.6312 56.623 17.7115L58.0197 16.0423H61.5283H65.0029L64.8667 16.9621C64.7985 17.5071 64.3557 20.7433 63.8788 24.2179C63.4019 27.6925 62.925 31.0308 62.8228 31.644L62.6525 32.7681L66.6721 32.6659L70.6918 32.5637L70.7599 30.6902C70.7939 29.6682 71.2027 26.0574 71.6796 22.685C72.1906 19.3125 72.5653 16.4511 72.5653 16.3148C72.5653 16.1445 73.996 16.0423 75.7674 16.0423H78.9695L79.1739 14.4072C79.3101 13.5215 79.5145 12.2952 79.6167 11.682L79.7871 10.592H66.8424H53.9319L51.1045 14.1688C49.5716 16.1445 48.1749 17.7456 48.0046 17.7456C47.8343 17.7456 47.698 17.95 47.698 18.2225C47.698 18.4609 47.4596 18.8697 47.1871 19.1082C46.5739 19.6191 46.5739 19.7213 47.1871 15.7017C47.4596 13.9303 47.698 11.9545 47.698 11.3414C47.698 10.081 47.7662 10.081 43.1333 10.7963Z" fill="#EE3831"/>
<path d="M110.547 10.594C107.993 11.139 105.438 12.5016 104.348 13.8642C103.803 14.5796 103.326 15.4312 103.326 15.7037C103.292 15.9762 103.087 17.0663 102.781 18.0882C102.508 19.1102 102.099 21.5969 101.827 23.5727C101.452 26.8429 101.452 27.3539 101.963 28.7165C102.849 31.0329 104.45 32.3954 107.039 32.9405C111.467 33.8943 116.713 33.3152 119.677 31.612C122.334 30.045 123.799 25.9572 124.242 18.9399C124.446 15.6356 124.105 14.4433 122.538 12.7401C120.869 10.9006 114.397 9.74237 110.547 10.594ZM115.725 15.874C116.543 16.4531 116.543 16.2147 116.032 22.8573C115.759 26.0253 115.555 26.7748 114.635 27.6264C114.056 28.1714 113.375 28.4099 112.319 28.4439C111.093 28.478 110.684 28.3077 109.9 27.4561C109.185 26.6726 109.015 26.2297 109.151 25.4122C109.253 24.8671 109.491 23.0958 109.73 21.4947C110.207 18.1223 110.752 16.6235 111.808 15.9081C112.796 15.2268 114.771 15.2268 115.725 15.874Z" fill="#EE3831"/>
<path d="M130.306 10.7628C128.807 10.9672 127.308 11.2738 127.002 11.4101C126.389 11.6826 126.082 12.7727 126.082 14.8506C126.082 15.6 125.605 19.5175 125.026 23.5371C124.481 27.5568 124.004 31.2698 124.004 31.7808V32.7346H127.922H131.839L131.873 31.7808C132.043 28.1699 132.18 26.637 132.35 25.6491L132.554 24.5591H135.245C137.221 24.5591 137.971 24.6953 137.971 24.9678C137.971 25.2063 137.732 26.9436 137.46 28.8172C137.187 30.6907 136.949 32.3258 136.949 32.4621C136.949 32.6324 138.277 32.7346 139.878 32.7346C142.467 32.7346 142.91 32.6324 143.728 31.9511C144.205 31.5083 144.681 30.9292 144.75 30.6567C145.158 29.1238 147.611 10.5925 147.441 10.4222C147.1 10.0475 139.878 11.2738 139.606 11.7166C139.469 11.921 139.333 12.432 139.299 12.8067C139.061 17.3373 138.959 18.6659 138.822 19.0065C138.72 19.3131 137.8 19.4494 135.927 19.4494H133.168L133.372 18.3252C133.917 14.9187 134.224 12.6705 134.224 11.5123C134.224 10.0815 134.428 10.1156 130.306 10.7628Z" fill="#EE3831"/>
<path d="M287.787 10.7307C287.481 11.0032 286.22 11.2417 284.279 11.3439C280.702 11.5142 279.169 12.1274 278.079 13.8306C277.364 14.9207 277.295 15.3976 277.295 20.3029C277.295 26.6049 277.568 27.4565 280.021 28.785C281.417 29.5345 282.064 29.6707 284.585 29.6707C287.447 29.6707 287.515 29.6707 287.515 30.4883C287.515 31.7487 288.366 32.3959 290.104 32.3959H291.603V31.0333V29.6707H294.6C298.382 29.6707 300.255 28.8532 301.311 26.7752C301.924 25.5489 301.992 24.8335 301.924 20.2007C301.856 15.602 301.788 14.9207 301.175 14.035C300.8 13.524 300.562 12.979 300.664 12.8768C301.175 12.3999 296.883 11.2757 294.464 11.2757C292.522 11.2757 291.875 11.1395 291.739 10.7648C291.466 10.0835 288.435 10.0494 287.787 10.7307ZM287.515 20.4732V25.5829H285.13C283.155 25.5829 282.712 25.4808 282.405 24.9357C281.894 23.9819 281.962 16.2833 282.473 15.7723C282.712 15.5338 283.836 15.3635 285.198 15.3635H287.515V20.4732ZM297.223 15.7382C297.598 16.3173 297.394 24.6632 296.985 25.1401C296.746 25.4467 295.759 25.5829 294.123 25.5829H291.603V20.4732V15.3635H294.294C295.861 15.3635 297.121 15.5338 297.223 15.7382Z" fill="#EE3831"/>
<path d="M5.15302 14.1693C3.58604 16.1451 2.18939 17.7461 2.01906 17.7461C1.84874 17.7461 1.71248 17.9505 1.71248 18.189C1.71248 18.4615 1.33777 19.0065 0.860859 19.4494C-0.127019 20.3691 -0.297343 22.3789 0.520211 22.9921C0.79273 23.1965 1.09931 23.7075 1.20151 24.1503C1.26964 24.5591 1.54215 25.1382 1.81467 25.3766C2.08719 25.6491 2.49597 26.3304 2.73442 26.9095C2.97288 27.4886 3.31352 27.9656 3.48385 27.9656C3.65417 27.9656 3.68824 28.1018 3.58604 28.3062C3.48385 28.4765 3.55198 28.6468 3.75636 28.6468C3.96075 28.6468 4.06295 28.7831 3.96075 28.9534C3.85856 29.0897 4.06295 29.5666 4.4036 29.9754C4.74424 30.3842 5.22115 31.1676 5.4596 31.7127L5.86838 32.7346H9.58144C11.6253 32.7346 13.2945 32.6665 13.2945 32.5643C13.2945 32.3258 11.4891 28.8512 11.2847 28.6468C11.0462 28.4425 10.9781 28.3062 8.90015 24.4569C7.36723 21.6295 7.36723 21.0845 8.93421 19.9944C9.34299 19.6878 9.58144 19.4494 9.44518 19.4494C9.10453 19.4494 12.2044 15.6341 12.8176 15.2594C13.0901 15.1231 13.2945 14.7825 13.2945 14.544C13.2945 14.3396 13.8395 13.6243 14.4868 12.9771C15.134 12.3298 15.679 11.5463 15.679 11.2057C15.679 10.6607 15.3043 10.5925 11.8297 10.5925H7.9804L5.15302 14.1693Z" fill="#EE3831"/>
<path d="M80.5384 11.7848C80.4362 12.432 80.4022 13.2155 80.5384 13.488C80.6406 13.7605 80.5725 13.999 80.4022 13.999C80.2318 13.999 80.0956 14.8166 80.0956 15.7704C80.0956 16.7582 79.6187 20.7779 79.0736 24.6953C78.4945 28.5787 78.0176 32.0193 78.0176 32.2577C78.0176 32.6324 78.733 32.7346 81.1857 32.7346H84.3537L86.1251 30.9292C87.1129 29.9413 87.8964 28.9534 87.8964 28.749C87.8964 28.5447 88.1349 28.204 88.4415 27.9315C88.714 27.693 89.8722 26.2964 90.9963 24.7975C92.0864 23.2987 93.0061 22.1405 93.0061 22.2427C93.0061 22.3108 92.6996 24.5931 92.3248 27.2843C91.9501 29.9754 91.6435 32.2918 91.6435 32.4621C91.6435 32.5984 93.3127 32.7346 95.3907 32.7346C99.0015 32.7346 99.1378 32.7006 99.274 31.9511C99.6488 30.2479 101.522 16.1791 101.454 15.5319C101.42 15.1572 101.522 13.8968 101.659 12.7045L101.931 10.5925H99.3081C96.1742 10.5925 95.1522 11.0694 93.6534 13.1133C93.0743 13.9649 92.3589 14.7144 92.1205 14.8166C91.8479 14.9188 91.6435 15.2253 91.6435 15.4979C91.6435 15.7704 91.371 16.2132 91.0304 16.4517C90.6897 16.6901 89.7359 17.7802 88.9524 18.8703C88.1349 19.9603 87.4195 20.7779 87.3514 20.7098C87.2833 20.6757 87.5558 18.6318 87.8964 16.2132C88.2711 13.7605 88.5777 11.5123 88.5777 11.1716C88.5777 10.6607 88.1689 10.5925 84.6603 10.5925H80.7769L80.5384 11.7848Z" fill="#EE3831"/>
<path d="M150.576 11.3079C150.576 11.6826 150.882 12.398 151.257 12.8749C151.632 13.3518 151.836 13.8627 151.734 14.0331C151.632 14.2034 151.734 14.3396 151.904 14.3396C152.108 14.3396 152.279 14.51 152.279 14.7144C152.279 14.9188 152.756 15.7704 153.369 16.622C153.948 17.5077 154.425 18.3934 154.425 18.6659C154.425 18.9043 154.561 19.1087 154.731 19.1087C154.868 19.1087 155.004 19.3131 155.004 19.5175C155.004 19.7559 155.311 20.335 155.651 20.812C156.298 21.6295 156.298 21.6636 155.685 22.5152C155.345 22.9921 154.493 23.98 153.812 24.7294C151.155 27.659 147.85 31.9171 147.85 32.3599C147.85 32.5984 149.281 32.7346 151.904 32.7346H155.958L156.673 31.6105C157.048 31.0314 158.172 29.6007 159.126 28.4765C160.08 27.3524 161.544 25.547 162.396 24.4228L163.963 22.4471L162.634 19.7559C161.919 18.2571 161.238 17.0648 161.136 17.0648C161.033 17.0648 160.591 16.3495 160.148 15.4297C159.705 14.544 158.887 13.1133 158.308 12.1936L157.286 10.5925H153.914C150.746 10.5925 150.576 10.6266 150.576 11.3079Z" fill="#EE3831"/>
<path d="M228.855 11.6505C228.276 11.9571 228.242 12.8428 228.242 22.0062V32.0553H230.456H232.67L232.738 24.7995C232.84 17.9525 232.875 17.6459 233.317 19.1107C233.59 19.9623 234.373 21.8018 235.021 23.2326C235.702 24.6633 236.281 26.0259 236.349 26.2984C236.622 27.4566 238.529 30.9653 239.279 31.6806C240.471 32.8048 242.208 32.4641 243.435 30.8631C243.911 30.2158 244.218 29.5345 244.082 29.3302C243.98 29.1598 244.048 28.9895 244.218 28.9895C244.422 28.9895 244.559 28.8873 244.525 28.717C244.491 28.5807 245.036 27.3203 245.717 25.8896C246.398 24.4589 246.977 23.1985 246.977 23.0622C246.977 22.926 247.522 21.7337 248.17 20.3711L249.362 17.9185V25.0039V32.0553H251.746H254.131V22.3469C254.131 10.867 254.267 11.2758 250.588 11.2758C248.783 11.2758 248.204 11.4121 247.488 12.0252C247.011 12.4681 246.569 13.1494 246.466 13.5582C246.398 13.9669 245.717 15.5339 244.968 17.0668C244.184 18.5657 243.673 19.792 243.741 19.792C243.843 19.792 243.298 21.0183 242.549 22.5172C241.799 24.016 241.186 25.3105 241.186 25.4127C241.186 26.3325 241.05 26.1962 240.301 24.7314C239.824 23.7776 239.381 22.7897 239.313 22.5172C239.245 22.2447 238.631 20.7799 237.916 19.281C237.201 17.7822 236.656 16.4537 236.69 16.3174C236.792 15.8405 234.918 12.4681 234.237 11.889C233.42 11.2077 229.843 11.0374 228.855 11.6505Z" fill="#EE3831"/>
<path d="M256.892 11.7511C256.585 12.0917 256.517 14.5444 256.585 21.0508C256.687 30.623 256.619 30.1801 258.731 31.5768C259.617 32.1559 260.503 32.224 266.123 32.3262L272.527 32.4625V33.4504C272.527 34.4382 272.527 34.4382 274.708 34.4382H276.888L277.262 31.8834C277.808 28.1362 277.876 28.3066 275.934 28.3066H274.231V20.1992C274.231 14.34 274.129 11.9895 273.822 11.683C273.583 11.4445 272.527 11.2742 271.437 11.2742H269.462V19.8244V28.3747L265.749 28.2384C263.705 28.2044 261.899 28 261.729 27.8637C261.593 27.6934 261.388 23.9463 261.286 19.5179L261.116 11.4445L259.208 11.3423C257.846 11.2742 257.198 11.3764 256.892 11.7511Z" fill="#EE3831"/>
<path d="M303.527 11.8181C303.527 12.0906 303.697 13.0103 303.902 13.8619L304.276 15.3608H309.113C313.712 15.3608 314.019 15.3949 314.666 16.1102C315.075 16.5871 315.381 17.4728 315.415 18.3244L315.518 19.7892H309.965H304.447L304.685 21.0496C304.821 21.765 304.958 22.5144 304.958 22.7529C305.026 23.5023 306.014 23.6385 310.51 23.5704C312.963 23.5363 315.109 23.6385 315.279 23.7748C315.688 24.1154 315.756 25.9209 315.347 25.9209C315.177 25.9209 315.109 26.1253 315.211 26.3978C315.347 26.7044 315.041 27.1472 314.496 27.5219C313.746 28.0329 312.724 28.1692 308.671 28.2373L303.799 28.3735L303.97 29.2592C304.072 29.7702 304.31 30.6218 304.515 31.1328L304.889 32.1207L310.272 31.9844C315.518 31.8822 315.722 31.8481 317.085 30.9284C320.048 28.9867 320.423 27.5901 320.287 19.3464L320.219 15.6674L318.686 14.0323C316.506 11.6818 314.973 11.273 308.603 11.273C304.242 11.273 303.527 11.3412 303.527 11.8181Z" fill="#EE3831"/>
<path d="M324.136 11.547C321.99 12.2623 322.092 11.6492 321.99 22.3114L321.887 32.054H324.136H326.35V29.1584V26.2629H331.323C336.774 26.2629 338.341 25.8542 339.056 24.3213C339.226 23.9125 339.533 23.5378 339.703 23.5378C340.18 23.5378 340.044 14.3743 339.567 13.7952C338.375 12.3305 337.864 11.9557 336.672 11.6492C335.275 11.2404 325.26 11.2063 324.136 11.547ZM335.139 18.8368L335.241 22.1752H330.778H326.35V19.0071C326.35 17.2358 326.452 15.7029 326.588 15.5666C326.725 15.4644 328.666 15.3963 330.915 15.4303L335.036 15.5325L335.139 18.8368Z" fill="#EE3831"/>
</svg>
