<svg width="440" height="70" viewBox="0 0 440 70" fill="none" xmlns="http://www.w3.org/2000/svg">
<path d="M21.7044 69.1037C31.632 69.1037 39.1263 63.9453 41.2676 54.2123H34.9412C33.0919 60.7334 28.8094 63.7506 22.1911 63.7506H21.6071C13.6261 63.7506 6.52105 58.0082 6.3264 44.2848H41.3649V40.3916C41.3649 27.9335 33.5786 18.4925 21.7044 18.4925C10.5115 18.4925 0 26.6682 0 43.7008C0 60.3441 9.53826 69.1037 21.7044 69.1037ZM6.52105 38.9317C7.88366 27.3495 14.9887 23.8456 21.1204 23.8456H22.0937C29.7827 23.8456 34.7465 30.2694 35.0385 38.9317H6.52105Z" fill="#EE3831"/>
<path d="M67.0955 69.1037C73.4219 69.1037 80.4296 65.6972 83.3495 60.3441V68.1304H89.6759V0H83.3495V27.2522C80.4296 21.8991 73.4219 18.4925 67.0955 18.4925C54.4427 18.4925 45.3911 28.2255 45.3911 43.7981C45.3911 59.3708 54.4427 69.1037 67.0955 69.1037ZM67.2902 63.7506C56.876 63.7506 51.8149 54.3097 51.8149 43.7981C51.8149 33.2866 56.876 23.8456 67.2902 23.8456H67.7768C78.2884 23.8456 83.3495 33.2866 83.3495 43.7981C83.3495 54.3097 78.2884 63.7506 67.7768 63.7506H67.2902Z" fill="#EE3831"/>
<path d="M124.224 68.1304V62.7773H114.491C111.571 62.7773 110.598 61.804 110.598 58.8841V24.8189H122.764V19.4658H110.598V3.69851H104.271V19.4658H93.0786V24.8189H104.271V59.3708C104.271 65.6972 107.191 68.1304 113.518 68.1304H124.224Z" fill="#EE3831"/>
<path d="M146.472 69.1037C156.4 69.1037 163.894 63.9453 166.035 54.2123H159.709C157.86 60.7334 153.577 63.7506 146.959 63.7506H146.375C138.394 63.7506 131.289 58.0082 131.094 44.2848H166.133V40.3916C166.133 27.9335 158.346 18.4925 146.472 18.4925C135.279 18.4925 124.768 26.6682 124.768 43.7008C124.768 60.3441 134.306 69.1037 146.472 69.1037ZM131.289 38.9317C132.651 27.3495 139.756 23.8456 145.888 23.8456H146.861C154.55 23.8456 159.514 30.2694 159.806 38.9317H131.289Z" fill="#EE3831"/>
<path d="M192.544 69.1037C203.056 69.1037 209.772 62.5827 211.524 52.5578H205.197C203.932 58.7868 199.552 63.7506 193.031 63.7506H192.058C181.449 63.7506 176.485 54.407 176.485 43.7981C176.485 33.1892 181.449 23.8456 192.058 23.8456H193.031C199.552 23.8456 204.127 28.5175 205.197 35.0385H211.524C210.55 24.8189 203.056 18.4925 192.544 18.4925C178.14 18.4925 170.159 29.4907 170.159 43.7981C170.159 58.1055 178.14 69.1037 192.544 69.1037Z" fill="#EE3831"/>
<path d="M224.321 68.1304V41.8515C224.321 30.5614 231.913 23.8456 239.407 23.8456H240.38C248.167 23.8456 252.06 28.6148 252.06 37.9584V68.1304H258.386V36.0118C258.386 25.7922 252.644 18.4925 241.84 18.4925C233.665 18.4925 227.63 21.9964 224.321 27.7388V0H217.994V68.1304H224.321Z" fill="#EE3831"/>
<path d="M305.621 69.1037C316.133 69.1037 322.848 62.5827 324.6 52.5578H318.274C317.009 58.7868 312.629 63.7506 306.108 63.7506H305.135C294.526 63.7506 289.562 54.407 289.562 43.7981C289.562 33.1892 294.526 23.8456 305.135 23.8456H306.108C312.629 23.8456 317.203 28.5175 318.274 35.0385H324.6C323.627 24.8189 316.133 18.4925 305.621 18.4925C291.216 18.4925 283.235 29.4907 283.235 43.7981C283.235 58.1055 291.216 69.1037 305.621 69.1037Z" fill="#EE3831"/>
<path d="M337.398 68.1304V0H331.071V68.1304H337.398Z" fill="#EE3831"/>
<path d="M363.444 69.1037C371.425 69.1037 377.167 65.4052 379.698 58.9815V68.1304H386.024V19.4658H379.698V45.7447C379.698 57.0349 372.69 63.7506 365.585 63.7506H364.612C356.825 63.7506 352.932 58.9815 352.932 49.6379V19.4658H346.606V51.5845C346.606 61.804 352.64 69.1037 363.444 69.1037Z" fill="#EE3831"/>
<path d="M418.296 69.1037C430.948 69.1037 440 59.3708 440 43.7981C440 28.2255 430.948 18.4925 418.296 18.4925C411.969 18.4925 404.962 21.8991 402.042 27.2522V0H395.715V68.1304H402.042V60.3441C404.962 65.6972 411.969 69.1037 418.296 69.1037ZM417.614 63.7506C407.103 63.7506 402.042 54.3097 402.042 43.7981C402.042 33.2866 407.103 23.8456 417.614 23.8456H418.101C428.515 23.8456 433.576 33.2866 433.576 43.7981C433.576 54.3097 428.515 63.7506 418.101 63.7506H417.614Z" fill="#EE3831"/>
</svg>
