<?xml version="1.0" encoding="utf-8"?>
<!-- Generator: Adobe Illustrator 15.0.0, SVG Export Plug-In . SVG Version: 6.00 Build 0)  -->
<!DOCTYPE svg PUBLIC "-//W3C//DTD SVG 1.1//EN" "http://www.w3.org/Graphics/SVG/1.1/DTD/svg11.dtd">
<svg version="1.1" id="Layer_1" xmlns="http://www.w3.org/2000/svg" xmlns:xlink="http://www.w3.org/1999/xlink" x="0px" y="0px"
	 width="327px" height="400px" viewBox="0 0 327 400" enable-background="new 0 0 327 400" xml:space="preserve">
<g>
	<polygon fill="#010101" points="166.311,88.285 132.527,88.285 132.527,73.102 160.381,73.102 160.381,61.241 132.527,61.241 
		132.527,49.471 163.525,49.471 163.525,37.161 117.612,37.161 117.612,100.596 166.311,100.596 	"/>
	<polygon fill="#010101" points="186.706,92.957 214.11,61.87 214.11,100.596 229.025,100.596 229.025,37.161 214.11,37.161 
		214.11,44.708 186.706,75.796 186.706,37.161 171.791,37.161 171.791,100.596 186.706,100.596 	"/>
	<path fill="#010101" d="M71.79,57.018c0.957-2.215,2.022-3.877,3.189-4.986c1.169-1.108,1.842-1.721,2.022-1.842
		c1.197-0.838,2.545-1.467,4.043-1.887c1.496-0.418,2.994-0.63,4.492-0.63c1.377,0,2.709,0.15,3.999,0.449
		c1.287,0.301,2.351,0.75,3.188,1.349c1.078,0.779,1.767,1.633,2.066,2.561c0.299,0.93,0.45,1.723,0.45,2.381
		c0,1.559-0.3,2.816-0.897,3.773c-0.601,0.959-1.319,1.678-2.157,2.156c-0.36,0.24-1.214,0.584-2.562,1.034
		c-1.348,0.449-3.609,0.673-6.783,0.673h-5.121v11.502h5.121c2.097,0,3.953,0.059,5.571,0.18c1.617,0.119,3.054,0.509,4.312,1.168
		c1.438,0.719,2.44,1.662,3.011,2.83c0.569,1.168,0.854,2.531,0.854,4.088c0,0.84-0.151,1.768-0.451,2.785
		c-0.299,1.02-0.957,1.977-1.976,2.875c-0.719,0.66-1.813,1.289-3.28,1.887c-1.468,0.6-3.49,0.898-6.064,0.898
		c-1.498,0-3.176-0.209-5.032-0.629c-1.856-0.418-3.624-1.348-5.301-2.785c-0.897-0.777-1.706-1.691-2.425-2.74
		c-0.719-1.047-1.318-2.082-1.797-3.101l-11.95,5.931c0.237,0.539,0.643,1.258,1.213,2.156c0.567,0.898,1.287,1.873,2.155,2.92
		c0.869,1.049,1.918,2.127,3.146,3.234c1.228,1.109,2.651,2.143,4.269,3.1c2.515,1.438,5.225,2.44,8.131,3.01
		c2.904,0.57,6.033,0.854,9.389,0.854c1.378,0,2.859-0.075,4.448-0.225c1.586-0.15,3.188-0.435,4.807-0.853
		c1.617-0.421,3.234-1.019,4.851-1.798c1.619-0.778,3.205-1.798,4.764-3.055c2.395-1.978,4.057-4.118,4.986-6.425
		c0.928-2.305,1.393-4.896,1.393-7.771c0-0.839-0.045-1.736-0.135-2.695c-0.09-0.957-0.301-1.946-0.629-2.965
		c-0.329-1.019-0.795-2.022-1.394-3.011c-0.599-0.987-1.407-1.931-2.425-2.83c-0.96-0.838-2.098-1.586-3.415-2.247
		c-1.317-0.658-2.666-1.167-4.043-1.527c1.377-0.299,2.681-0.793,3.909-1.481c1.227-0.688,2.29-1.542,3.189-2.562
		c1.377-1.496,2.275-3.039,2.695-4.627c0.418-1.586,0.629-2.979,0.629-4.178c0-3.414-0.719-6.258-2.156-8.535
		c-1.438-2.275-3.295-4.162-5.572-5.66c-2.754-1.737-5.69-2.845-8.803-3.326c-3.117-0.479-6.021-0.719-8.717-0.719
		c-2.875,0-5.93,0.405-9.164,1.215c-3.234,0.808-6.38,2.56-9.435,5.256c-1.856,1.677-3.31,3.354-4.356,5.031
		c-1.05,1.678-1.724,2.875-2.022,3.594L71.79,57.018z"/>
	<path fill="#010101" d="M237.919,193.771l3.414-9.974h23.091l3.235,9.974h16.262l-23.091-63.434h-16.082l-23.092,63.434H237.919z
		 M252.834,146.96l7.906,25.158h-15.812L252.834,146.96z"/>
	<path fill="#010101" d="M65.5,223.515v36.389c0,1.618,0.029,3.311,0.09,5.077c0.06,1.767,0.27,3.549,0.629,5.346
		s0.912,3.563,1.662,5.301c0.748,1.738,1.812,3.356,3.19,4.853c0.776,0.898,1.752,1.812,2.92,2.74
		c1.168,0.93,2.606,1.783,4.312,2.562c1.709,0.777,3.67,1.422,5.887,1.931c2.215,0.508,4.762,0.763,7.637,0.763
		s5.42-0.255,7.637-0.763c2.215-0.509,4.178-1.153,5.885-1.931c1.707-0.778,3.146-1.632,4.313-2.562
		c1.168-0.928,2.142-1.842,2.92-2.74c1.317-1.496,2.351-3.114,3.101-4.853c0.748-1.737,1.302-3.504,1.662-5.301
		c0.358-1.797,0.584-3.579,0.674-5.346c0.089-1.767,0.135-3.459,0.135-5.077v-36.389h-14.915v34.683c0,3.474-0.149,6.08-0.45,7.815
		c-0.3,1.739-0.629,3.026-0.988,3.864c-0.897,2.156-2.156,3.699-3.773,4.627c-1.617,0.929-3.684,1.394-6.199,1.394
		s-4.583-0.465-6.199-1.394c-1.617-0.928-2.875-2.471-3.773-4.627c-0.36-0.838-0.69-2.125-0.989-3.864
		c-0.3-1.735-0.449-4.342-0.449-7.815v-34.683H65.5z"/>
	<path fill="#010101" d="M183.92,26.648c0.419,0.898,0.913,1.693,1.483,2.382c0.568,0.688,1.153,1.272,1.753,1.752
		c1.916,1.616,4.088,2.649,6.513,3.099c2.427,0.45,4.688,0.674,6.784,0.674c2.096,0,4.358-0.224,6.783-0.674
		c2.426-0.449,4.597-1.482,6.514-3.099c0.599-0.479,1.183-1.063,1.752-1.752s1.063-1.483,1.483-2.382
		c0.418-0.898,0.764-1.9,1.033-3.01c0.27-1.107,0.374-2.32,0.313-3.639h-12.219c0.059,0.66-0.015,1.363-0.225,2.112
		s-0.555,1.362-1.033,1.841c-0.419,0.42-1.004,0.764-1.752,1.034c-0.749,0.269-1.632,0.403-2.65,0.403
		c-1.02,0-1.901-0.135-2.65-0.403c-0.749-0.271-1.333-0.614-1.753-1.034c-0.479-0.479-0.823-1.092-1.032-1.841
		c-0.21-0.749-0.285-1.452-0.226-2.112h-12.219c-0.061,1.318,0.045,2.531,0.314,3.639C183.157,24.748,183.501,25.75,183.92,26.648z"
		/>
	<path fill="#010101" d="M175.204,254.647c2.157-3.203,3.234-6.993,3.234-11.365c0-2.876-0.448-5.616-1.347-8.223
		c-0.899-2.604-2.638-4.865-5.211-6.782c-1.438-1.139-3.026-2.021-4.763-2.651c-1.737-0.629-3.491-1.092-5.256-1.392
		c-1.769-0.3-3.49-0.494-5.167-0.585c-1.678-0.09-3.176-0.135-4.492-0.135h-26.775v63.434h14.916v-22.462h10.103l12.358,22.462
		h16.981l-14.284-25.518C169.814,260.114,173.049,257.853,175.204,254.647z M162.307,248.718c-0.631,1.229-1.729,2.201-3.291,2.919
		c-0.482,0.181-1.293,0.42-2.437,0.72c-1.143,0.3-2.916,0.448-5.323,0.448h-10.912v-17.609h10.912c3.248,0,5.549,0.256,6.901,0.764
		c1.354,0.51,2.271,0.974,2.751,1.392c0.602,0.54,1.053,1.124,1.354,1.754c0.301,0.629,0.525,1.257,0.677,1.887
		c0.151,0.628,0.241,1.228,0.271,1.797c0.03,0.569,0.045,1.003,0.045,1.302C163.254,245.948,162.938,247.491,162.307,248.718z"/>
	<path fill="#010101" d="M188.593,173.286h11.706c1.021,0,2.312-0.045,3.874-0.136c1.562-0.09,3.227-0.283,4.998-0.584
		c1.771-0.299,3.571-0.777,5.402-1.438c1.83-0.658,3.557-1.557,5.179-2.695c2.821-2.035,4.803-4.537,5.944-7.502
		c1.14-2.965,1.711-6.185,1.711-9.658c0-3.954-0.554-7.112-1.663-9.479c-1.107-2.366-2.29-4.178-3.548-5.437
		c-1.498-1.438-3.25-2.561-5.256-3.369c-2.008-0.809-4.044-1.406-6.11-1.797c-2.065-0.389-4.043-0.629-5.93-0.719
		s-3.43-0.135-4.627-0.135h-26.596v63.434h14.915V173.286z M188.593,142.018h10.013c0.78,0,1.668,0.017,2.66,0.045
		c0.991,0.031,1.983,0.136,2.976,0.315c0.992,0.181,1.969,0.464,2.932,0.853c0.963,0.392,1.773,0.945,2.437,1.662
		c1.021,1.021,1.652,2.172,1.894,3.461c0.24,1.287,0.36,2.44,0.36,3.459c0,1.498-0.181,2.875-0.542,4.133
		c-0.36,1.258-1.082,2.336-2.163,3.234c-0.722,0.539-1.534,0.975-2.436,1.303c-0.902,0.33-1.834,0.584-2.796,0.764
		c-0.965,0.18-1.91,0.285-2.843,0.314c-0.932,0.03-1.757,0.045-2.479,0.045h-10.013V142.018z"/>
	<polygon fill="#010101" points="281.405,316.692 269.096,366.558 256.696,316.692 234.773,316.692 234.773,380.124 248.79,380.124 
		247.082,323.16 247.711,323.16 262.087,380.124 276.015,380.124 290.479,323.16 291.109,323.16 289.312,380.124 303.328,380.124 
		303.328,316.692 	"/>
	<path fill="#010101" d="M44.926,351.373c0,3.475-0.149,6.081-0.449,7.817c-0.301,1.736-0.629,3.025-0.988,3.863
		c-0.898,2.156-2.156,3.699-3.773,4.627c-1.617,0.93-3.684,1.393-6.199,1.393c-2.517,0-4.582-0.463-6.199-1.393
		c-1.618-0.928-2.875-2.471-3.773-4.627c-0.361-0.838-0.691-2.127-0.99-3.863s-0.447-4.343-0.447-7.817v-34.681H7.19v36.388
		c0,1.617,0.028,3.31,0.089,5.077c0.059,1.766,0.27,3.549,0.629,5.346s0.913,3.564,1.662,5.301c0.749,1.738,1.812,3.355,3.189,4.852
		c0.778,0.898,1.752,1.812,2.922,2.742c1.166,0.928,2.604,1.781,4.312,2.559c1.707,0.779,3.668,1.422,5.886,1.932
		c2.215,0.51,4.762,0.764,7.637,0.764s5.421-0.254,7.637-0.764s4.178-1.152,5.885-1.932c1.708-0.777,3.146-1.631,4.312-2.559
		c1.168-0.93,2.142-1.844,2.922-2.742c1.316-1.496,2.349-3.113,3.099-4.852c0.748-1.736,1.304-3.504,1.662-5.301
		c0.36-1.797,0.584-3.58,0.674-5.346c0.091-1.768,0.136-3.46,0.136-5.077v-36.388H44.926V351.373z"/>
	<path fill="#010101" d="M60.11,243.326c-0.539-2.066-1.304-4.072-2.291-6.02c-0.989-1.945-2.322-3.759-3.998-5.436
		c-1.978-1.977-4.194-3.519-6.649-4.628c-2.457-1.107-4.928-1.946-7.412-2.516c-2.486-0.568-4.853-0.912-7.099-1.032
		s-4.118-0.181-5.614-0.181H6.29v63.434h21.925c1.377,0,3.039-0.06,4.986-0.18c1.945-0.119,4.012-0.404,6.199-0.854
		c2.186-0.449,4.387-1.152,6.604-2.112c2.215-0.957,4.281-2.246,6.199-3.862c2.096-1.797,3.76-3.804,4.987-6.021
		c1.228-2.215,2.157-4.432,2.784-6.648c0.63-2.216,1.033-4.371,1.214-6.47c0.18-2.096,0.271-3.953,0.271-5.569
		c0-1.799-0.091-3.714-0.271-5.751C61.008,247.445,60.649,245.394,60.11,243.326z M45.282,262.375
		c-0.542,2.486-1.622,4.688-3.246,6.604c-0.963,1.078-2.014,1.946-3.157,2.605c-1.143,0.66-2.3,1.168-3.472,1.528
		c-1.172,0.357-2.329,0.599-3.471,0.719c-1.144,0.12-2.224,0.179-3.246,0.179h-7.485v-37.557h7.485c2.043,0,4.178,0.256,6.401,0.764
		c2.224,0.509,4.269,1.633,6.133,3.369c1.142,1.079,2.027,2.277,2.66,3.594c0.631,1.318,1.111,2.638,1.442,3.953
		c0.33,1.319,0.541,2.592,0.632,3.819c0.09,1.228,0.135,2.322,0.135,3.28C46.094,257.508,45.823,259.89,45.282,262.375z"/>
	<path fill="#010101" d="M131.09,194.131c1.137,0,2.395-0.045,3.773-0.135c1.377-0.09,2.755-0.314,4.133-0.674
		c1.378-0.36,2.725-0.867,4.044-1.527c1.316-0.658,2.515-1.527,3.593-2.605c1.438-1.438,2.651-3.279,3.64-5.526
		c0.987-2.246,2.079-4.896,3.28-7.951l17.34-45.374h-16.174l-10.422,33.963l-14.466-33.963H112.76l22.373,45.104
		c0.119,0.121,0.239,0.466,0.359,1.033c0.119,0.57,0.18,0.914,0.18,1.035c0,0.299-0.076,0.674-0.225,1.122
		c-0.15,0.449-0.375,0.824-0.674,1.123c-0.539,0.539-1.289,0.884-2.246,1.033c-0.959,0.149-1.947,0.226-2.965,0.226h-1.799
		c-0.777-0.06-1.676-0.164-2.693-0.315c-1.02-0.149-1.947-0.345-2.786-0.584l0.09,13.208c1.078,0.24,2.337,0.435,3.773,0.584
		C127.586,194.055,129.232,194.131,131.09,194.131z"/>
	<path fill="#010101" d="M117.299,351.957c-0.629-1.347-1.559-2.635-2.785-3.863c-1.229-1.227-2.832-2.32-4.808-3.279
		c-0.6-0.3-1.768-0.748-3.504-1.349c-1.737-0.598-4.463-1.137-8.177-1.617l-4.492-0.629c-3.295-0.478-5.705-0.942-7.232-1.392
		s-2.711-0.973-3.549-1.573c-1.259-1.017-1.888-2.305-1.888-3.863c0-0.838,0.226-1.766,0.674-2.784
		c0.449-1.019,1.362-1.888,2.741-2.606c0.957-0.478,2.006-0.823,3.145-1.034c1.138-0.209,2.186-0.313,3.145-0.313
		c1.617,0,3.158,0.166,4.627,0.494c1.467,0.33,2.92,0.885,4.357,1.661c1.377,0.72,2.666,1.573,3.863,2.562
		c1.198,0.988,2.305,2.021,3.325,3.1l11.142-8.355c-2.218-2.574-4.569-4.657-7.054-6.245c-2.485-1.586-4.942-2.785-7.366-3.593
		c-2.428-0.81-4.764-1.349-7.01-1.618c-2.246-0.271-4.238-0.404-5.975-0.404c-2.516,0-4.793,0.195-6.828,0.584
		c-2.037,0.391-3.85,0.898-5.436,1.528c-1.588,0.629-2.966,1.333-4.134,2.111s-2.143,1.558-2.921,2.336
		c-1.738,1.678-3.189,3.759-4.357,6.243c-1.168,2.487-1.752,5.377-1.752,8.672c0,2.694,0.508,5.151,1.527,7.366
		c1.018,2.218,2.786,4.104,5.301,5.661c1.558,1.021,3.506,1.902,5.842,2.651s4.582,1.271,6.738,1.572l4.672,0.718
		c3.055,0.48,5.42,0.886,7.099,1.214c1.675,0.328,3.022,0.824,4.043,1.482c1.557,1.018,2.336,2.547,2.336,4.58
		c0,1.799-0.72,3.326-2.157,4.584c-1.078,1.02-2.486,1.738-4.222,2.156c-1.739,0.42-3.565,0.629-5.482,0.629
		c-1.378,0-2.845-0.135-4.401-0.404c-1.559-0.27-3.025-0.703-4.403-1.303c-1.199-0.479-2.501-1.213-3.908-2.203
		c-1.407-0.986-2.771-2.35-4.088-4.088l-11.591,7.01c0.958,1.438,2.201,2.936,3.729,4.492c1.528,1.559,3.414,2.996,5.661,4.312
		c2.246,1.318,4.927,2.396,8.041,3.234c3.114,0.84,6.769,1.258,10.961,1.258c4.134,0,7.923-0.48,11.367-1.438
		c3.442-0.957,6.408-2.381,8.896-4.268c2.484-1.887,4.416-4.223,5.795-7.008c1.377-2.785,2.066-5.975,2.066-9.568
		c0-1.018-0.105-2.17-0.314-3.459C118.346,354.623,117.928,353.305,117.299,351.957z"/>
	<polygon fill="#010101" points="137.828,352.631 165.682,352.631 165.682,340.771 137.828,340.771 137.828,329.001 
		168.826,329.001 168.826,316.692 122.913,316.692 122.913,380.124 171.611,380.124 171.611,367.815 137.828,367.815 	"/>
	<path fill="#010101" d="M107.91,130.338H65.861l-0.359,6.559c-0.121,2.217-0.332,4.748-0.631,7.593
		c-0.3,2.846-0.658,5.437-1.076,7.772c-0.541,3.115-1.244,6.17-2.113,9.164c-0.868,2.996-2.051,5.99-3.549,8.985
		c-0.301,0.479-0.914,1.587-1.842,3.323c-0.929,1.738-2.352,4.044-4.268,6.919h-6.828v26.326H59.84v-13.208h41.151v13.208h14.646
		v-26.326h-7.727V130.338z M92.995,180.653H67.747c1.617-2.156,2.995-4.343,4.134-6.56c1.137-2.215,2.125-4.521,2.965-6.918
		c0.957-2.695,1.722-5.57,2.291-8.625c0.568-3.056,1.033-6.648,1.393-10.781l0.359-4.313h14.106V180.653z"/>
	<path fill="#010101" d="M212.582,351.373c0,3.475-0.149,6.081-0.45,7.817c-0.3,1.736-0.628,3.025-0.987,3.863
		c-0.898,2.156-2.156,3.699-3.774,4.627c-1.617,0.93-3.684,1.393-6.199,1.393s-4.582-0.463-6.198-1.393
		c-1.618-0.928-2.876-2.471-3.774-4.627c-0.36-0.838-0.69-2.127-0.989-3.863c-0.3-1.736-0.447-4.343-0.447-7.817v-34.681h-14.916
		v36.388c0,1.617,0.029,3.31,0.09,5.077c0.059,1.766,0.269,3.549,0.629,5.346c0.359,1.797,0.912,3.564,1.662,5.301
		c0.748,1.738,1.812,3.355,3.189,4.852c0.778,0.898,1.752,1.812,2.92,2.742c1.168,0.928,2.605,1.781,4.313,2.559
		c1.707,0.779,3.668,1.422,5.885,1.932c2.215,0.51,4.762,0.764,7.637,0.764s5.422-0.254,7.638-0.764s4.178-1.152,5.885-1.932
		c1.708-0.777,3.145-1.631,4.312-2.559c1.168-0.93,2.142-1.844,2.922-2.742c1.315-1.496,2.349-3.113,3.099-4.852
		c0.748-1.736,1.303-3.504,1.662-5.301s0.584-3.58,0.674-5.346c0.09-1.768,0.135-3.46,0.135-5.077v-36.388h-14.915V351.373z"/>
	<polygon fill="#010101" points="42.23,193.771 42.23,130.338 27.316,130.338 27.316,137.885 0,168.874 0,186.035 27.316,155.046 
		27.316,193.771 	"/>
	<path fill="#010101" d="M25.879,83.298c0.118,0.57,0.18,0.915,0.18,1.034c0,0.3-0.076,0.674-0.225,1.123
		c-0.15,0.449-0.375,0.824-0.675,1.123c-0.539,0.539-1.289,0.885-2.246,1.033c-0.959,0.15-1.946,0.225-2.965,0.225H18.15
		c-0.778-0.059-1.676-0.164-2.694-0.314c-1.02-0.148-1.948-0.344-2.786-0.584l0.09,13.207c1.078,0.242,2.336,0.437,3.773,0.584
		c1.438,0.149,3.085,0.226,4.943,0.226c1.136,0,2.394-0.045,3.772-0.135c1.378-0.091,2.755-0.314,4.134-0.675
		c1.377-0.358,2.725-0.866,4.043-1.526c1.316-0.659,2.516-1.528,3.594-2.606c1.437-1.437,2.65-3.279,3.639-5.524
		c0.988-2.247,2.08-4.897,3.28-7.952l17.34-45.374H45.105L34.684,71.124L20.217,37.161H3.146l22.371,45.104
		C25.639,82.387,25.758,82.73,25.879,83.298z"/>
	<rect y="37.161" fill="#010101" width="0.002" height="63.435"/>
</g>
</svg>
