<?xml version="1.0" encoding="utf-8"?>
<!-- Generator: Adobe Illustrator 15.0.0, SVG Export Plug-In . SVG Version: 6.00 Build 0)  -->
<!DOCTYPE svg PUBLIC "-//W3C//DTD SVG 1.1//EN" "http://www.w3.org/Graphics/SVG/1.1/DTD/svg11.dtd">
<svg version="1.1" id="Layer_1" xmlns="http://www.w3.org/2000/svg" xmlns:xlink="http://www.w3.org/1999/xlink" x="0px" y="0px"
	 width="93.166px" height="400px" viewBox="0 0 93.166 400" enable-background="new 0 0 93.166 400" xml:space="preserve">
<g>
	<rect x="78.25" y="223.516" fill="#010101" width="14.916" height="63.433"/>
	<g>
		<path fill="#010101" d="M63.786,151.094c-1.259-2.935-3.056-5.211-5.392-6.83c-1.258-0.897-2.547-1.526-3.863-1.887
			c-1.318-0.359-2.666-0.537-4.043-0.537c-1.559,0-3.266,0.299-5.121,0.897c-1.857,0.599-3.625,1.856-5.301,3.774
			c-1.379,1.676-2.502,3.804-3.369,6.379c-0.87,2.576-1.303,5.66-1.303,9.254c0,2.217,0.133,4.148,0.403,5.796
			s0.613,3.055,1.033,4.223c0.418,1.168,0.838,2.126,1.258,2.875c0.418,0.75,0.778,1.304,1.078,1.662
			c1.019,1.379,2.456,2.651,4.313,3.819c1.855,1.166,4.252,1.752,7.188,1.752c2.036,0,3.803-0.284,5.301-0.854
			c1.496-0.567,2.875-1.422,4.133-2.56c1.198-1.018,2.112-2.067,2.741-3.146c0.628-1.076,1.062-1.886,1.302-2.425l11.95,5.931
			c-1.138,2.155-2.636,4.327-4.491,6.514c-1.858,2.187-3.955,4.029-6.291,5.525c-2.037,1.258-4.343,2.262-6.918,3.01
			c-2.576,0.748-5.422,1.123-8.535,1.123c-2.816,0-5.406-0.285-7.772-0.854c-2.367-0.57-4.492-1.316-6.379-2.246
			c-1.888-0.928-3.549-2.006-4.987-3.234c-1.438-1.228-2.666-2.5-3.684-3.818c-1.917-2.395-3.58-5.48-4.986-9.256
			c-1.408-3.772-2.111-8.385-2.111-13.836c0-5.629,0.809-10.407,2.426-14.33c1.617-3.924,3.684-7.233,6.199-9.93
			c1.078-1.137,2.336-2.246,3.774-3.324c1.437-1.077,3.067-2.035,4.896-2.875c1.828-0.838,3.85-1.512,6.065-2.021
			c2.216-0.508,4.642-0.764,7.278-0.764c2.336,0,4.462,0.211,6.379,0.629c1.917,0.42,3.641,0.959,5.167,1.617
			c1.526,0.66,2.875,1.393,4.043,2.201s2.171,1.604,3.01,2.381c1.198,1.139,2.351,2.502,3.459,4.089
			c1.108,1.588,2.08,3.278,2.921,5.075L63.786,151.094z"/>
		<polygon fill="#010101" points="37.548,43.63 36.921,43.63 38.628,100.596 24.611,100.596 24.611,37.161 46.534,37.161 
			58.934,87.027 71.242,37.161 93.166,37.161 93.166,100.596 79.15,100.596 80.946,43.63 80.318,43.63 65.852,100.596 
			51.925,100.596 		"/>
		<g>
			<path fill="#010101" d="M31.439,268.17c1.317,1.737,2.68,3.1,4.088,4.088c1.408,0.989,2.711,1.723,3.91,2.202
				c1.377,0.599,2.844,1.032,4.402,1.303c1.557,0.269,3.023,0.404,4.402,0.404c1.916,0,3.742-0.209,5.48-0.629
				c1.737-0.42,3.145-1.139,4.223-2.157c1.438-1.257,2.156-2.785,2.156-4.582c0-2.035-0.779-3.563-2.336-4.582
				c-1.019-0.658-2.367-1.153-4.043-1.483c-1.678-0.328-4.043-0.732-7.098-1.213l-4.674-0.718c-2.155-0.3-4.401-0.823-6.737-1.572
				s-4.284-1.632-5.84-2.651c-2.517-1.557-4.284-3.443-5.302-5.66c-1.02-2.216-1.527-4.672-1.527-7.368
				c0-3.293,0.584-6.184,1.752-8.67c1.169-2.485,2.62-4.567,4.357-6.244c0.778-0.778,1.752-1.558,2.92-2.337
				c1.168-0.777,2.545-1.482,4.134-2.111c1.587-0.629,3.399-1.137,5.437-1.527c2.034-0.389,4.312-0.584,6.827-0.584
				c1.737,0,3.729,0.135,5.976,0.404c2.246,0.271,4.582,0.81,7.009,1.618c2.425,0.808,4.881,2.007,7.366,3.593
				c2.485,1.588,4.838,3.67,7.055,6.245l-11.143,8.356c-1.019-1.079-2.125-2.112-3.324-3.101c-1.198-0.989-2.485-1.842-3.863-2.561
				c-1.438-0.777-2.891-1.332-4.357-1.662c-1.469-0.329-3.01-0.494-4.627-0.494c-0.959,0-2.008,0.105-3.146,0.314
				c-1.138,0.211-2.187,0.555-3.144,1.033c-1.379,0.719-2.291,1.587-2.74,2.605c-0.45,1.019-0.674,1.947-0.674,2.785
				c0,1.559,0.627,2.846,1.887,3.863c0.838,0.6,2.021,1.123,3.548,1.572c1.528,0.45,3.938,0.914,7.233,1.394l4.492,0.629
				c3.713,0.479,6.438,1.019,8.176,1.617c1.736,0.6,2.906,1.049,3.504,1.348c1.978,0.959,3.58,2.052,4.808,3.28
				c1.228,1.228,2.157,2.515,2.785,3.862c0.63,1.349,1.047,2.666,1.258,3.953c0.209,1.289,0.315,2.442,0.315,3.46
				c0,3.595-0.689,6.783-2.067,9.569c-1.378,2.785-3.31,5.121-5.795,7.007c-2.486,1.888-5.451,3.312-8.896,4.27
				c-3.444,0.956-7.232,1.437-11.365,1.437c-4.193,0-7.848-0.419-10.961-1.258c-3.116-0.838-5.795-1.916-8.043-3.235
				c-2.246-1.316-4.133-2.754-5.66-4.312s-2.771-3.056-3.729-4.493L31.439,268.17z"/>
		</g>
		<polygon fill="#010101" points="37.548,323.16 36.921,323.16 38.628,380.124 24.611,380.124 24.611,316.691 46.534,316.691 
			58.934,366.558 71.242,316.691 93.166,316.691 93.166,380.124 79.15,380.124 80.946,323.16 80.318,323.16 65.852,380.124 
			51.925,380.124 		"/>
		<polygon fill="#010101" points="71.242,37.161 58.934,87.027 46.533,37.161 24.611,37.161 24.611,100.595 38.628,100.595 
			36.919,43.63 37.548,43.63 51.925,100.595 65.852,100.595 80.318,43.63 80.947,43.63 79.149,100.595 93.164,100.595 
			93.164,37.161 		"/>
		<polygon fill="#010101" points="78.16,130.338 78.16,193.771 93.076,193.771 93.076,186.134 93.076,168.973 93.076,130.338 		"/>
		<g>
			<path fill="#010101" d="M31.439,268.17c1.317,1.737,2.68,3.1,4.088,4.088c1.408,0.989,2.711,1.723,3.91,2.202
				c1.377,0.599,2.844,1.032,4.402,1.303c1.557,0.269,3.023,0.404,4.402,0.404c1.916,0,3.742-0.209,5.48-0.629
				c1.737-0.42,3.145-1.139,4.223-2.157c1.438-1.257,2.156-2.785,2.156-4.582c0-2.035-0.779-3.563-2.336-4.582
				c-1.019-0.658-2.367-1.153-4.043-1.483c-1.678-0.328-4.043-0.732-7.098-1.213l-4.674-0.718c-2.155-0.3-4.401-0.823-6.737-1.572
				s-4.284-1.632-5.84-2.651c-2.517-1.557-4.284-3.443-5.302-5.66c-1.02-2.216-1.527-4.672-1.527-7.368
				c0-3.293,0.584-6.184,1.752-8.67c1.169-2.485,2.62-4.567,4.357-6.244c0.778-0.778,1.752-1.558,2.92-2.337
				c1.168-0.777,2.545-1.482,4.134-2.111c1.587-0.629,3.399-1.137,5.437-1.527c2.034-0.389,4.312-0.584,6.827-0.584
				c1.737,0,3.729,0.135,5.976,0.404c2.246,0.271,4.582,0.81,7.009,1.618c2.425,0.808,4.881,2.007,7.366,3.593
				c2.485,1.588,4.838,3.67,7.055,6.245l-11.143,8.356c-1.019-1.079-2.125-2.112-3.324-3.101c-1.198-0.989-2.485-1.842-3.863-2.561
				c-1.438-0.777-2.891-1.332-4.357-1.662c-1.469-0.329-3.01-0.494-4.627-0.494c-0.959,0-2.008,0.105-3.146,0.314
				c-1.138,0.211-2.187,0.555-3.144,1.033c-1.379,0.719-2.291,1.587-2.74,2.605c-0.45,1.019-0.674,1.947-0.674,2.785
				c0,1.559,0.627,2.846,1.887,3.863c0.838,0.6,2.021,1.123,3.548,1.572c1.528,0.45,3.938,0.914,7.233,1.394l4.492,0.629
				c3.713,0.479,6.438,1.019,8.176,1.617c1.736,0.6,2.906,1.049,3.504,1.348c1.978,0.959,3.58,2.052,4.808,3.28
				c1.228,1.228,2.157,2.515,2.785,3.862c0.63,1.349,1.047,2.666,1.258,3.953c0.209,1.289,0.315,2.442,0.315,3.46
				c0,3.595-0.689,6.783-2.067,9.569c-1.378,2.785-3.31,5.121-5.795,7.007c-2.486,1.888-5.451,3.312-8.896,4.27
				c-3.444,0.956-7.232,1.437-11.365,1.437c-4.193,0-7.848-0.419-10.961-1.258c-3.116-0.838-5.795-1.916-8.043-3.235
				c-2.246-1.316-4.133-2.754-5.66-4.312s-2.771-3.056-3.729-4.493L31.439,268.17z"/>
		</g>
		<polygon fill="#010101" points="71.242,316.691 58.934,366.556 46.533,316.691 24.611,316.691 24.611,380.124 38.628,380.124 
			36.919,323.16 37.548,323.16 51.925,380.124 65.852,380.124 80.318,323.16 80.947,323.16 79.149,380.124 93.164,380.124 
			93.164,316.691 		"/>
	</g>
</g>
</svg>
