<?xml version="1.0" encoding="utf-8"?>
<!-- Generator: Adobe Illustrator 15.0.0, SVG Export Plug-In . SVG Version: 6.00 Build 0)  -->
<!DOCTYPE svg PUBLIC "-//W3C//DTD SVG 1.1//EN" "http://www.w3.org/Graphics/SVG/1.1/DTD/svg11.dtd">
<svg version="1.1" id="Layer_1" xmlns="http://www.w3.org/2000/svg" xmlns:xlink="http://www.w3.org/1999/xlink" x="0px" y="0px"
	 width="327px" height="400px" viewBox="0 0 327 400" enable-background="new 0 0 327 400" xml:space="preserve">
<g>
	<polygon points="28.637,38.438 28.495,38.438 28.877,51.171 25.744,51.171 25.744,36.991 30.645,36.991 33.416,48.137 
		36.167,36.991 41.068,36.991 41.068,51.171 37.935,51.171 38.336,38.438 38.195,38.438 34.963,51.171 31.85,51.171 	"/>
	<path d="M45.445,40.626l1.77,7.63l1.786-7.63h3.214L48.72,51.511c-0.135,0.415-0.281,0.813-0.44,1.195
		c-0.161,0.383-0.356,0.726-0.583,1.034c-0.336,0.429-0.728,0.726-1.177,0.894c-0.448,0.169-0.985,0.251-1.615,0.251
		c-0.108,0-0.291-0.003-0.553-0.009c-0.262-0.007-0.64-0.044-1.136-0.111v-2.49c0.175,0.027,0.355,0.042,0.544,0.05
		c0.186,0.007,0.353,0.01,0.502,0.01c0.361,0,0.681-0.054,0.964-0.16c0.281-0.107,0.422-0.334,0.422-0.683
		c0-0.215-0.049-0.455-0.141-0.723c-0.095-0.268-0.174-0.515-0.241-0.743l-3.094-9.399H45.445z"/>
	<path d="M56.412,44.662c0.094,0,0.214-0.004,0.361-0.01c0.146-0.007,0.301-0.02,0.461-0.04c0.161-0.02,0.315-0.056,0.463-0.11
		c0.147-0.052,0.274-0.127,0.382-0.221c0.066-0.067,0.138-0.161,0.21-0.28c0.073-0.121,0.111-0.282,0.111-0.483
		c0-0.388-0.154-0.663-0.462-0.823c-0.056-0.025-0.155-0.066-0.302-0.121c-0.148-0.053-0.362-0.079-0.645-0.079
		c-0.293,0-0.58,0.038-0.861,0.11c-0.281,0.074-0.516,0.184-0.703,0.331c-0.147,0.108-0.291,0.255-0.432,0.44
		c-0.142,0.188-0.26,0.376-0.352,0.563l-2.27-1.245c0.107-0.187,0.273-0.424,0.504-0.713c0.225-0.288,0.539-0.565,0.941-0.834
		c0.562-0.374,1.149-0.613,1.758-0.712c0.609-0.1,1.147-0.151,1.617-0.151c0.736,0,1.322,0.071,1.757,0.212
		c0.435,0.14,0.767,0.277,0.994,0.411c0.589,0.335,0.984,0.722,1.185,1.165c0.201,0.441,0.302,0.896,0.302,1.365
		c0,0.309-0.043,0.583-0.131,0.823c-0.086,0.241-0.238,0.469-0.451,0.683c-0.146,0.161-0.319,0.292-0.513,0.393
		c-0.194,0.099-0.392,0.185-0.592,0.251c0.307,0.067,0.564,0.167,0.771,0.301c0.209,0.135,0.373,0.262,0.494,0.381
		c0.229,0.229,0.4,0.48,0.521,0.754s0.181,0.586,0.181,0.934c0,0.349-0.044,0.666-0.132,0.955c-0.086,0.286-0.202,0.549-0.351,0.782
		c-0.147,0.235-0.311,0.435-0.491,0.603c-0.182,0.168-0.365,0.311-0.553,0.432c-0.241,0.148-0.5,0.274-0.773,0.382
		c-0.274,0.108-0.553,0.19-0.834,0.251c-0.281,0.06-0.562,0.104-0.842,0.131c-0.281,0.027-0.543,0.04-0.783,0.04
		c-0.697,0-1.301-0.084-1.809-0.251c-0.508-0.168-0.937-0.365-1.286-0.593c-0.321-0.214-0.624-0.472-0.914-0.772
		c-0.287-0.303-0.538-0.666-0.753-1.095l2.23-1.165c0.067,0.161,0.163,0.348,0.291,0.563c0.126,0.213,0.291,0.4,0.49,0.562
		c0.203,0.161,0.446,0.289,0.734,0.392c0.289,0.101,0.613,0.151,0.975,0.151c0.228,0,0.458-0.031,0.693-0.092
		c0.233-0.06,0.432-0.15,0.592-0.271c0.188-0.147,0.304-0.312,0.353-0.492c0.046-0.182,0.069-0.332,0.069-0.452
		c0-0.121-0.023-0.259-0.069-0.412c-0.049-0.154-0.151-0.292-0.312-0.411c-0.055-0.04-0.189-0.104-0.403-0.19
		c-0.214-0.089-0.575-0.131-1.084-0.131h-1.104v-2.21H56.412z"/>
	<path d="M69.928,44.703c-0.026-0.267-0.09-0.551-0.191-0.845c-0.1-0.294-0.265-0.554-0.49-0.782
		c-0.121-0.121-0.295-0.238-0.523-0.351c-0.228-0.115-0.516-0.17-0.863-0.17s-0.629,0.055-0.843,0.17
		c-0.216,0.112-0.382,0.229-0.502,0.351c-0.149,0.147-0.28,0.344-0.402,0.592c-0.12,0.249-0.216,0.594-0.281,1.035H69.928z
		 M65.812,46.57c0,0.148,0.02,0.379,0.058,0.692c0.041,0.315,0.135,0.613,0.283,0.896c0.135,0.267,0.349,0.527,0.643,0.783
		c0.295,0.253,0.717,0.382,1.266,0.382c0.308,0,0.642-0.064,1.005-0.191c0.36-0.127,0.696-0.4,1.003-0.813
		c0.107-0.148,0.209-0.308,0.302-0.483c0.095-0.173,0.167-0.312,0.222-0.42l2.269,1.123c-0.254,0.535-0.553,0.978-0.894,1.326
		c-0.342,0.349-0.666,0.622-0.974,0.823c-0.415,0.268-0.885,0.476-1.406,0.622c-0.521,0.147-1.124,0.222-1.808,0.222
		c-0.481,0-0.917-0.047-1.306-0.142c-0.389-0.092-0.733-0.209-1.033-0.35c-0.303-0.141-0.569-0.301-0.804-0.483
		c-0.234-0.18-0.432-0.364-0.593-0.552c-0.389-0.429-0.7-0.974-0.934-1.636c-0.235-0.663-0.351-1.416-0.351-2.261
		c0-0.602,0.056-1.147,0.17-1.637c0.113-0.487,0.258-0.924,0.432-1.305c0.175-0.383,0.37-0.714,0.593-0.995
		c0.221-0.281,0.444-0.516,0.671-0.702c0.376-0.322,0.834-0.596,1.377-0.824c0.543-0.228,1.182-0.341,1.918-0.341
		c0.829,0,1.542,0.141,2.139,0.421c0.596,0.28,1.104,0.656,1.516,1.125c0.321,0.362,0.573,0.75,0.754,1.165
		c0.182,0.416,0.318,0.833,0.412,1.256c0.093,0.422,0.147,0.829,0.161,1.226c0.013,0.395,0.013,0.752,0,1.073H65.812z"/>
	<path d="M82.861,36.949c0.014,0.482-0.062,0.924-0.229,1.326c-0.168,0.4-0.386,0.73-0.653,0.985
		c-0.362,0.347-0.781,0.573-1.255,0.673c-0.477,0.1-0.907,0.149-1.296,0.149c-0.39,0-0.82-0.05-1.296-0.149
		s-0.894-0.326-1.256-0.673c-0.267-0.255-0.484-0.585-0.653-0.985c-0.165-0.402-0.242-0.844-0.229-1.326h2.269
		c0,0.135,0.016,0.286,0.05,0.453c0.035,0.166,0.104,0.305,0.21,0.412c0.067,0.08,0.175,0.157,0.324,0.23
		c0.146,0.073,0.339,0.111,0.581,0.111c0.105,0,0.25-0.017,0.432-0.052c0.181-0.032,0.339-0.129,0.471-0.29
		c0.108-0.107,0.178-0.246,0.212-0.412c0.034-0.167,0.052-0.318,0.052-0.453H82.861z M74.508,40.626h3.072v5.543l3.734-4.257v-1.286
		h3.074v10.545h-3.074l0.015-5.705l-3.749,4.259v1.446h-3.072V40.626z"/>
	<path d="M96.459,48.619h2.439c0.188,0,0.396-0.007,0.624-0.02c0.23-0.014,0.458-0.041,0.686-0.08
		c0.229-0.04,0.444-0.108,0.646-0.201c0.2-0.094,0.364-0.221,0.485-0.381c0.133-0.174,0.213-0.365,0.24-0.575
		c0.025-0.205,0.039-0.377,0.039-0.512c0-0.227-0.024-0.448-0.077-0.661c-0.056-0.216-0.188-0.407-0.405-0.583
		c-0.135-0.107-0.363-0.212-0.686-0.322c-0.322-0.106-0.841-0.16-1.553-0.16h-2.439V48.619z M96.459,42.556h2.087
		c1.193,0,1.957-0.161,2.291-0.483c0.148-0.147,0.243-0.315,0.29-0.502c0.048-0.188,0.072-0.362,0.072-0.521
		c0-0.149-0.018-0.306-0.051-0.474c-0.034-0.167-0.109-0.324-0.23-0.472c-0.107-0.133-0.252-0.237-0.433-0.312
		c-0.181-0.071-0.372-0.129-0.572-0.17c-0.2-0.038-0.396-0.062-0.584-0.069c-0.186-0.006-0.34-0.009-0.461-0.009h-2.409V42.556z
		 M93.124,36.991h6.065c0.563,0,1.151,0.032,1.769,0.1c0.615,0.067,1.164,0.208,1.646,0.422c0.696,0.309,1.188,0.71,1.476,1.205
		c0.289,0.495,0.433,1.085,0.433,1.769c0,0.401-0.044,0.759-0.132,1.074c-0.086,0.314-0.199,0.585-0.34,0.813
		c-0.141,0.227-0.296,0.417-0.463,0.571c-0.167,0.153-0.332,0.278-0.49,0.372c-0.271,0.161-0.581,0.28-0.936,0.359
		c-0.354,0.082-0.666,0.13-0.932,0.143c0.385,0.026,0.803,0.094,1.242,0.201c0.443,0.106,0.816,0.248,1.127,0.422
		c0.937,0.549,1.404,1.485,1.404,2.811c0,0.522-0.069,0.975-0.211,1.356c-0.139,0.383-0.316,0.708-0.532,0.974
		c-0.214,0.269-0.439,0.481-0.673,0.644c-0.234,0.16-0.453,0.288-0.652,0.38c-0.321,0.148-0.663,0.259-1.024,0.333
		c-0.359,0.073-0.729,0.127-1.104,0.159c-0.376,0.035-0.736,0.056-1.084,0.062c-0.351,0.007-0.67,0.011-0.964,0.011h-5.625V36.991z"
		/>
	<path d="M112.626,46.129l-0.644,0.161c-0.71,0.188-1.247,0.338-1.616,0.452c-0.368,0.112-0.652,0.243-0.853,0.392
		c-0.188,0.147-0.314,0.297-0.383,0.451c-0.066,0.154-0.099,0.332-0.099,0.531c0,0.27,0.049,0.479,0.149,0.633
		c0.1,0.155,0.212,0.273,0.332,0.352c0.12,0.081,0.256,0.138,0.411,0.172c0.154,0.033,0.305,0.051,0.451,0.051
		c0.361,0,0.688-0.064,0.976-0.191c0.285-0.127,0.526-0.306,0.712-0.532c0.147-0.188,0.278-0.436,0.392-0.744
		c0.113-0.307,0.171-0.683,0.171-1.123V46.129z M115.639,49.464c-0.013,0.508,0.01,0.883,0.069,1.123
		c0.061,0.241,0.139,0.436,0.232,0.584h-2.913c-0.066-0.217-0.109-0.405-0.131-0.574c-0.02-0.167-0.028-0.324-0.028-0.471v-0.121
		c-0.805,1.004-1.883,1.506-3.234,1.506c-0.495,0-0.954-0.069-1.376-0.209c-0.422-0.142-0.786-0.348-1.094-0.614
		c-0.307-0.268-0.549-0.595-0.726-0.984c-0.173-0.388-0.259-0.829-0.259-1.325c0-0.228,0.025-0.484,0.08-0.773
		c0.054-0.288,0.159-0.576,0.32-0.862c0.16-0.288,0.385-0.565,0.675-0.833c0.286-0.27,0.672-0.497,1.153-0.684
		c0.375-0.147,0.791-0.272,1.245-0.371c0.455-0.102,0.964-0.212,1.526-0.332l1.446-0.302v-0.462c0-0.173-0.021-0.376-0.06-0.602
		c-0.041-0.228-0.154-0.423-0.342-0.584c-0.161-0.134-0.354-0.213-0.582-0.242c-0.228-0.025-0.39-0.038-0.482-0.038
		c-0.348,0-0.611,0.038-0.784,0.121c-0.174,0.08-0.281,0.134-0.32,0.159c-0.134,0.109-0.244,0.249-0.333,0.422
		c-0.085,0.175-0.129,0.368-0.129,0.583v0.062h-2.993v-0.041c0-0.161,0.015-0.339,0.04-0.532c0.027-0.194,0.081-0.397,0.161-0.614
		c0.081-0.212,0.194-0.427,0.342-0.642c0.147-0.213,0.341-0.415,0.582-0.603c0.108-0.08,0.255-0.174,0.441-0.28
		c0.188-0.107,0.426-0.208,0.714-0.302c0.287-0.094,0.629-0.173,1.024-0.241c0.395-0.066,0.861-0.101,1.396-0.101
		c0.681,0,1.224,0.044,1.626,0.132c0.4,0.088,0.701,0.169,0.903,0.251c0.416,0.159,0.746,0.363,0.994,0.611
		c0.246,0.248,0.436,0.521,0.562,0.813c0.126,0.296,0.211,0.601,0.251,0.915c0.039,0.313,0.061,0.62,0.061,0.913L115.639,49.464z"/>
	<path d="M122.548,42.936c-0.027,0.348-0.057,0.681-0.091,0.994c-0.033,0.315-0.083,0.646-0.15,0.995
		c-0.08,0.468-0.185,0.905-0.311,1.314c-0.128,0.409-0.307,0.84-0.533,1.295c-0.134,0.255-0.271,0.486-0.411,0.693
		c-0.142,0.208-0.285,0.404-0.432,0.593h4.057v-5.885H122.548z M127.75,40.626v8.054h1.364v4.879h-2.893v-2.388h-6.567v2.388h-2.891
		V48.68h0.983c0.27-0.32,0.503-0.643,0.704-0.966c0.201-0.32,0.374-0.635,0.521-0.941c0.361-0.791,0.609-1.575,0.743-2.35
		c0.134-0.777,0.227-1.515,0.281-2.21l0.121-1.587H127.75z"/>
	<polygon points="130.521,40.626 133.594,40.626 133.594,46.169 137.33,41.912 137.33,40.626 140.402,40.626 140.402,51.171 
		137.33,51.171 137.344,45.466 133.594,49.725 133.594,51.171 130.521,51.171 	"/>
	<polygon points="142.671,40.626 146.91,40.626 148.857,48.359 150.784,40.626 155.002,40.626 155.002,51.171 152.392,51.171 
		152.552,41.931 152.431,41.931 150.084,51.171 147.593,51.171 145.242,41.931 145.124,41.931 145.283,51.171 142.671,51.171 	"/>
	<path d="M163.236,46.129l-0.642,0.161c-0.709,0.188-1.248,0.338-1.616,0.452c-0.369,0.112-0.652,0.243-0.854,0.392
		c-0.187,0.147-0.313,0.297-0.381,0.451s-0.101,0.332-0.101,0.531c0,0.27,0.051,0.479,0.15,0.633
		c0.102,0.155,0.212,0.273,0.331,0.352c0.12,0.081,0.259,0.138,0.412,0.172c0.153,0.033,0.305,0.051,0.454,0.051
		c0.359,0,0.685-0.064,0.973-0.191c0.287-0.127,0.524-0.306,0.713-0.532c0.146-0.188,0.276-0.436,0.391-0.744
		c0.115-0.307,0.17-0.683,0.17-1.123V46.129z M166.251,49.464c-0.014,0.508,0.01,0.883,0.069,1.123
		c0.06,0.241,0.137,0.436,0.231,0.584h-2.912c-0.067-0.217-0.109-0.405-0.131-0.574c-0.02-0.167-0.028-0.324-0.028-0.471v-0.121
		c-0.805,1.004-1.883,1.506-3.236,1.506c-0.495,0-0.954-0.069-1.375-0.209c-0.42-0.142-0.786-0.348-1.094-0.614
		c-0.31-0.268-0.549-0.595-0.724-0.984c-0.175-0.388-0.261-0.829-0.261-1.325c0-0.228,0.026-0.484,0.08-0.773
		c0.054-0.288,0.16-0.576,0.321-0.862c0.163-0.288,0.385-0.565,0.674-0.833c0.287-0.27,0.672-0.497,1.153-0.684
		c0.375-0.147,0.791-0.272,1.245-0.371c0.456-0.102,0.965-0.212,1.528-0.332l1.443-0.302v-0.462c0-0.173-0.02-0.376-0.059-0.602
		c-0.039-0.228-0.155-0.423-0.342-0.584c-0.16-0.134-0.354-0.213-0.582-0.242c-0.228-0.025-0.388-0.038-0.482-0.038
		c-0.35,0-0.609,0.038-0.781,0.121c-0.176,0.08-0.282,0.134-0.324,0.159c-0.134,0.109-0.244,0.249-0.33,0.422
		c-0.088,0.175-0.131,0.368-0.131,0.583v0.062h-2.992v-0.041c0-0.161,0.014-0.339,0.039-0.532c0.027-0.194,0.082-0.397,0.16-0.614
		c0.082-0.212,0.195-0.427,0.344-0.642c0.146-0.213,0.341-0.415,0.582-0.603c0.105-0.08,0.254-0.174,0.441-0.28
		c0.187-0.107,0.424-0.208,0.713-0.302c0.287-0.094,0.629-0.173,1.022-0.241c0.396-0.066,0.862-0.101,1.398-0.101
		c0.682,0,1.226,0.044,1.626,0.132c0.402,0.088,0.702,0.169,0.904,0.251c0.415,0.159,0.745,0.363,0.994,0.611
		c0.248,0.248,0.434,0.521,0.562,0.813c0.126,0.296,0.21,0.601,0.251,0.915c0.04,0.313,0.06,0.62,0.06,0.913L166.251,49.464z"/>
	<path d="M184.043,41.629c-0.279-0.655-0.682-1.164-1.205-1.525c-0.279-0.201-0.568-0.342-0.863-0.422
		c-0.294-0.08-0.595-0.12-0.902-0.12c-0.349,0-0.731,0.066-1.146,0.2c-0.416,0.135-0.811,0.416-1.185,0.843
		c-0.308,0.375-0.56,0.852-0.754,1.427c-0.192,0.575-0.291,1.266-0.291,2.07c0,0.494,0.03,0.926,0.092,1.295
		c0.058,0.368,0.138,0.683,0.229,0.942c0.095,0.263,0.188,0.475,0.282,0.644c0.093,0.167,0.173,0.291,0.24,0.372
		c0.227,0.308,0.549,0.593,0.964,0.853c0.414,0.262,0.952,0.393,1.605,0.393c0.457,0,0.853-0.063,1.187-0.191
		c0.336-0.128,0.644-0.317,0.924-0.573c0.268-0.227,0.471-0.461,0.612-0.701c0.142-0.242,0.238-0.422,0.291-0.542l2.672,1.325
		c-0.254,0.481-0.589,0.967-1.005,1.455c-0.414,0.489-0.884,0.9-1.404,1.234c-0.457,0.282-0.972,0.506-1.549,0.674
		c-0.575,0.167-1.212,0.251-1.906,0.251c-0.629,0-1.209-0.064-1.738-0.19c-0.529-0.127-1.004-0.294-1.425-0.502
		c-0.422-0.208-0.794-0.448-1.115-0.725c-0.321-0.272-0.595-0.558-0.824-0.852c-0.428-0.537-0.8-1.226-1.114-2.069
		c-0.313-0.845-0.472-1.875-0.472-3.092c0-1.261,0.181-2.327,0.543-3.204c0.361-0.877,0.823-1.618,1.386-2.22
		c0.24-0.255,0.521-0.502,0.844-0.744c0.321-0.24,0.685-0.454,1.094-0.642c0.408-0.188,0.859-0.339,1.354-0.452
		c0.496-0.112,1.04-0.171,1.629-0.171c0.522,0,0.997,0.048,1.426,0.142s0.812,0.213,1.153,0.361
		c0.342,0.147,0.645,0.311,0.904,0.492c0.262,0.181,0.486,0.357,0.674,0.532c0.268,0.255,0.526,0.559,0.772,0.913
		c0.248,0.354,0.466,0.734,0.653,1.135L184.043,41.629z"/>
	<polygon points="188.141,40.626 191.213,40.626 191.213,46.169 194.95,41.912 194.95,40.626 198.022,40.626 198.022,51.171 
		194.95,51.171 194.964,45.466 191.213,49.725 191.213,51.171 188.141,51.171 	"/>
	<path d="M204.931,42.936c-0.027,0.348-0.056,0.681-0.09,0.994c-0.033,0.315-0.083,0.646-0.15,0.995
		c-0.079,0.468-0.184,0.905-0.312,1.314c-0.127,0.409-0.303,0.84-0.531,1.295c-0.135,0.255-0.271,0.486-0.412,0.693
		c-0.142,0.208-0.285,0.404-0.432,0.593h4.057v-5.885H204.931z M210.133,40.626v8.054h1.366v4.879h-2.893v-2.388h-6.567v2.388
		h-2.892V48.68h0.983c0.269-0.32,0.503-0.643,0.703-0.966c0.202-0.32,0.376-0.635,0.521-0.941c0.362-0.791,0.609-1.575,0.743-2.35
		c0.134-0.777,0.229-1.515,0.282-2.21l0.12-1.587H210.133z"/>
	<path d="M214.812,40.626l1.767,7.63l1.789-7.63h3.212l-3.494,10.885c-0.134,0.415-0.281,0.813-0.44,1.195
		c-0.163,0.383-0.354,0.726-0.583,1.034c-0.334,0.429-0.728,0.726-1.176,0.894c-0.447,0.169-0.986,0.251-1.616,0.251
		c-0.107,0-0.291-0.003-0.554-0.009c-0.259-0.007-0.64-0.044-1.132-0.111v-2.49c0.172,0.027,0.352,0.042,0.541,0.05
		c0.186,0.007,0.354,0.01,0.501,0.01c0.361,0,0.684-0.054,0.966-0.16c0.28-0.107,0.42-0.334,0.42-0.683
		c0-0.215-0.047-0.455-0.14-0.723c-0.094-0.268-0.175-0.515-0.24-0.743l-3.095-9.399H214.812z"/>
	<path d="M228.058,49.022c0.267,0,0.557-0.071,0.87-0.214c0.312-0.141,0.582-0.419,0.809-0.835c0.188-0.336,0.307-0.701,0.36-1.098
		s0.081-0.756,0.081-1.077c0-0.364-0.038-0.768-0.111-1.21c-0.072-0.443-0.237-0.847-0.491-1.21
		c-0.118-0.174-0.299-0.348-0.538-0.522c-0.239-0.174-0.567-0.263-0.979-0.263c-0.254,0-0.5,0.051-0.74,0.15
		c-0.237,0.101-0.459,0.267-0.658,0.493c-0.228,0.27-0.406,0.613-0.541,1.029c-0.134,0.416-0.199,0.927-0.199,1.532
		c0,0.375,0.032,0.768,0.1,1.178c0.067,0.409,0.213,0.787,0.439,1.138c0.148,0.229,0.343,0.437,0.591,0.624
		C227.294,48.927,227.631,49.022,228.058,49.022 M222.846,40.626h2.831v1.003c0.253-0.28,0.521-0.505,0.802-0.673
		c0.281-0.165,0.553-0.289,0.82-0.371c0.267-0.08,0.521-0.133,0.761-0.161c0.241-0.026,0.463-0.039,0.661-0.039
		c0.242,0,0.496,0.016,0.762,0.051c0.27,0.033,0.537,0.093,0.812,0.181c0.274,0.087,0.548,0.214,0.822,0.38
		c0.272,0.169,0.53,0.38,0.771,0.633c0.468,0.482,0.811,1.086,1.03,1.809c0.222,0.723,0.331,1.506,0.331,2.351
		c0,0.87-0.119,1.653-0.36,2.349c-0.24,0.697-0.554,1.28-0.939,1.747c-0.149,0.161-0.322,0.329-0.523,0.503
		c-0.199,0.174-0.437,0.332-0.709,0.472c-0.274,0.141-0.578,0.254-0.912,0.343c-0.334,0.085-0.708,0.129-1.122,0.129
		c-0.428,0-0.881-0.069-1.362-0.209c-0.48-0.14-0.948-0.414-1.401-0.826v4.41h-3.073V40.626z"/>
	<path d="M240.883,46.129l-0.645,0.161c-0.709,0.188-1.248,0.338-1.615,0.452c-0.369,0.112-0.653,0.243-0.854,0.392
		c-0.188,0.147-0.313,0.297-0.382,0.451c-0.067,0.154-0.101,0.332-0.101,0.531c0,0.27,0.05,0.479,0.151,0.633
		c0.1,0.155,0.208,0.273,0.331,0.352c0.12,0.081,0.259,0.138,0.412,0.172c0.152,0.033,0.303,0.051,0.451,0.051
		c0.361,0,0.687-0.064,0.974-0.191c0.288-0.127,0.525-0.306,0.713-0.532c0.147-0.188,0.278-0.436,0.392-0.744
		c0.113-0.307,0.172-0.683,0.172-1.123V46.129z M243.894,49.464c-0.013,0.508,0.01,0.883,0.071,1.123
		c0.06,0.241,0.137,0.436,0.231,0.584h-2.913c-0.067-0.217-0.109-0.405-0.129-0.574c-0.021-0.167-0.031-0.324-0.031-0.471v-0.121
		c-0.804,1.004-1.88,1.506-3.233,1.506c-0.495,0-0.953-0.069-1.376-0.209c-0.422-0.142-0.785-0.348-1.094-0.614
		c-0.31-0.268-0.549-0.595-0.724-0.984c-0.175-0.388-0.261-0.829-0.261-1.325c0-0.228,0.024-0.484,0.08-0.773
		c0.054-0.288,0.16-0.576,0.32-0.862c0.161-0.288,0.387-0.565,0.674-0.833c0.288-0.27,0.674-0.497,1.153-0.684
		c0.374-0.147,0.793-0.272,1.247-0.371c0.456-0.102,0.963-0.212,1.525-0.332l1.447-0.302v-0.462c0-0.173-0.021-0.376-0.062-0.602
		c-0.04-0.228-0.153-0.423-0.341-0.584c-0.161-0.134-0.354-0.213-0.583-0.242c-0.228-0.025-0.388-0.038-0.481-0.038
		c-0.35,0-0.608,0.038-0.783,0.121c-0.174,0.08-0.281,0.134-0.32,0.159c-0.135,0.109-0.246,0.249-0.333,0.422
		c-0.086,0.175-0.13,0.368-0.13,0.583v0.062h-2.992v-0.041c0-0.161,0.014-0.339,0.039-0.532c0.027-0.194,0.081-0.397,0.16-0.614
		c0.081-0.212,0.194-0.427,0.342-0.642c0.147-0.213,0.342-0.415,0.584-0.603c0.106-0.08,0.253-0.174,0.441-0.28
		c0.188-0.107,0.424-0.208,0.712-0.302c0.289-0.094,0.63-0.173,1.025-0.241c0.395-0.066,0.859-0.101,1.396-0.101
		c0.682,0,1.225,0.044,1.626,0.132c0.402,0.088,0.703,0.169,0.904,0.251c0.415,0.159,0.746,0.363,0.994,0.611
		c0.249,0.248,0.435,0.521,0.563,0.813c0.126,0.296,0.211,0.601,0.249,0.915c0.041,0.313,0.062,0.62,0.062,0.913L243.894,49.464z"/>
	<path d="M34.803,61.715c-0.281-0.657-0.685-1.165-1.207-1.527c-0.28-0.199-0.568-0.342-0.863-0.423
		c-0.295-0.078-0.595-0.119-0.904-0.119c-0.348,0-0.729,0.067-1.145,0.2c-0.414,0.135-0.809,0.416-1.185,0.845
		c-0.308,0.375-0.56,0.85-0.753,1.425c-0.193,0.577-0.291,1.266-0.291,2.069c0,0.496,0.032,0.927,0.09,1.296
		c0.06,0.367,0.138,0.682,0.232,0.942c0.094,0.261,0.186,0.477,0.279,0.644c0.094,0.166,0.174,0.291,0.242,0.372
		c0.227,0.307,0.549,0.592,0.965,0.853c0.414,0.261,0.948,0.392,1.605,0.392c0.455,0,0.85-0.063,1.186-0.19
		c0.334-0.127,0.641-0.317,0.923-0.571c0.268-0.229,0.472-0.462,0.613-0.704c0.141-0.241,0.237-0.423,0.29-0.543L37.553,68
		c-0.254,0.482-0.59,0.967-1.005,1.456c-0.414,0.489-0.882,0.901-1.405,1.235c-0.454,0.282-0.971,0.505-1.547,0.672
		s-1.211,0.252-1.907,0.252c-0.63,0-1.21-0.063-1.737-0.191s-1.004-0.293-1.426-0.501c-0.422-0.207-0.793-0.449-1.114-0.723
		c-0.321-0.275-0.596-0.56-0.824-0.854c-0.428-0.533-0.8-1.225-1.114-2.068C25.157,66.435,25,65.403,25,64.185
		c0-1.258,0.182-2.326,0.543-3.203c0.36-0.876,0.822-1.617,1.386-2.219c0.239-0.255,0.521-0.504,0.844-0.744
		c0.321-0.24,0.686-0.455,1.095-0.643c0.408-0.188,0.859-0.338,1.356-0.453c0.494-0.113,1.036-0.171,1.626-0.171
		c0.521,0,0.996,0.048,1.426,0.142c0.429,0.095,0.812,0.214,1.155,0.361c0.341,0.147,0.643,0.312,0.903,0.492
		c0.261,0.182,0.484,0.358,0.672,0.532c0.267,0.255,0.526,0.56,0.773,0.914c0.248,0.355,0.464,0.732,0.653,1.135L34.803,61.715z"/>
	<path d="M43.949,69.105c0.268,0,0.557-0.071,0.87-0.212c0.314-0.14,0.583-0.42,0.809-0.837c0.188-0.335,0.307-0.701,0.362-1.098
		c0.052-0.396,0.077-0.756,0.077-1.078c0-0.362-0.036-0.765-0.108-1.208c-0.074-0.443-0.238-0.847-0.491-1.208
		c-0.118-0.175-0.298-0.35-0.539-0.525c-0.239-0.175-0.567-0.262-0.979-0.262c-0.252,0-0.499,0.05-0.739,0.151
		c-0.241,0.102-0.46,0.265-0.66,0.494c-0.226,0.269-0.406,0.611-0.539,1.027s-0.2,0.926-0.2,1.53c0,0.376,0.033,0.771,0.1,1.181
		c0.067,0.408,0.213,0.789,0.44,1.137c0.146,0.229,0.343,0.437,0.589,0.625C43.188,69.011,43.523,69.105,43.949,69.105
		 M38.738,60.709h2.829v1.006c0.254-0.282,0.52-0.507,0.802-0.674c0.28-0.167,0.555-0.292,0.822-0.371
		c0.266-0.082,0.521-0.134,0.76-0.161c0.242-0.026,0.46-0.04,0.662-0.04c0.241,0,0.494,0.018,0.76,0.051
		c0.271,0.032,0.54,0.093,0.813,0.181c0.272,0.088,0.547,0.214,0.819,0.382c0.274,0.167,0.532,0.377,0.773,0.633
		c0.468,0.48,0.811,1.084,1.031,1.806c0.22,0.724,0.332,1.508,0.332,2.35c0,0.872-0.122,1.655-0.361,2.351
		c-0.24,0.696-0.555,1.278-0.94,1.747c-0.147,0.162-0.321,0.329-0.521,0.503c-0.201,0.174-0.437,0.331-0.712,0.473
		c-0.272,0.14-0.577,0.253-0.91,0.341c-0.334,0.087-0.709,0.129-1.123,0.129c-0.427,0-0.881-0.068-1.362-0.208
		c-0.481-0.138-0.947-0.415-1.401-0.825v4.408h-3.072V60.709z"/>
	<rect x="50.869" y="64.465" width="20.084" height="2.149"/>
	<path d="M76.797,68.702h2.439c0.188,0,0.398-0.007,0.625-0.02c0.229-0.011,0.457-0.04,0.686-0.079
		c0.229-0.041,0.443-0.107,0.645-0.201s0.364-0.222,0.486-0.382c0.134-0.173,0.212-0.365,0.24-0.572
		c0.026-0.208,0.04-0.378,0.04-0.513c0-0.229-0.026-0.448-0.079-0.663c-0.055-0.213-0.188-0.408-0.404-0.581
		c-0.135-0.108-0.362-0.215-0.685-0.322c-0.324-0.106-0.841-0.16-1.554-0.16h-2.439V68.702z M76.797,62.638h2.088
		c1.191,0,1.955-0.161,2.289-0.482c0.148-0.146,0.245-0.314,0.292-0.503c0.048-0.187,0.07-0.361,0.07-0.521
		c0-0.148-0.016-0.305-0.049-0.473c-0.034-0.167-0.11-0.325-0.232-0.472c-0.107-0.135-0.251-0.238-0.432-0.312
		c-0.181-0.072-0.371-0.131-0.572-0.17c-0.201-0.041-0.396-0.064-0.582-0.07c-0.188-0.008-0.341-0.011-0.462-0.011h-2.41V62.638z
		 M73.463,57.074h6.064c0.562,0,1.152,0.035,1.768,0.101c0.616,0.066,1.166,0.207,1.648,0.421c0.694,0.31,1.188,0.711,1.477,1.206
		c0.287,0.496,0.43,1.084,0.43,1.767c0,0.402-0.042,0.76-0.129,1.075c-0.088,0.314-0.201,0.586-0.344,0.814
		c-0.138,0.228-0.293,0.418-0.46,0.569c-0.167,0.155-0.333,0.28-0.492,0.374c-0.269,0.159-0.58,0.28-0.935,0.362
		c-0.354,0.078-0.666,0.127-0.933,0.141c0.387,0.026,0.802,0.093,1.245,0.199c0.441,0.108,0.816,0.247,1.124,0.423
		c0.937,0.548,1.406,1.486,1.406,2.812c0,0.522-0.071,0.974-0.211,1.354c-0.141,0.383-0.318,0.707-0.532,0.975
		c-0.215,0.269-0.439,0.482-0.673,0.644c-0.235,0.16-0.454,0.287-0.653,0.381c-0.32,0.147-0.663,0.259-1.023,0.332
		c-0.361,0.073-0.73,0.127-1.104,0.159c-0.374,0.034-0.737,0.055-1.086,0.061s-0.67,0.01-0.964,0.01h-5.623V57.074z"/>
	<path d="M93.989,64.225c-0.095-0.188-0.212-0.375-0.353-0.563c-0.141-0.187-0.283-0.332-0.432-0.44
		c-0.147-0.107-0.323-0.198-0.533-0.271c-0.206-0.075-0.442-0.111-0.711-0.111c-0.35,0-0.653,0.057-0.914,0.171
		c-0.262,0.113-0.486,0.259-0.674,0.433c-0.214,0.201-0.412,0.502-0.592,0.903c-0.182,0.401-0.271,0.95-0.271,1.646
		c0,0.642,0.073,1.142,0.221,1.496c0.147,0.356,0.275,0.612,0.383,0.773c0.159,0.227,0.378,0.43,0.652,0.61
		c0.273,0.182,0.633,0.273,1.075,0.273c0.199,0,0.431-0.03,0.69-0.092c0.263-0.061,0.514-0.191,0.754-0.39
		c0.201-0.161,0.366-0.349,0.492-0.563c0.129-0.213,0.225-0.401,0.292-0.562l2.271,1.247c-0.188,0.348-0.426,0.688-0.715,1.021
		c-0.287,0.336-0.619,0.638-0.994,0.905c-0.51,0.348-1.023,0.586-1.547,0.712c-0.521,0.128-1.017,0.191-1.484,0.191
		c-0.657,0-1.294-0.099-1.908-0.302c-0.616-0.199-1.152-0.501-1.607-0.902c-0.442-0.388-0.834-0.932-1.175-1.626
		c-0.341-0.697-0.512-1.582-0.512-2.652c0-0.937,0.137-1.765,0.41-2.479c0.275-0.717,0.646-1.31,1.116-1.778
		c0.172-0.175,0.382-0.353,0.622-0.533s0.525-0.341,0.854-0.482c0.329-0.14,0.698-0.257,1.114-0.351s0.878-0.142,1.387-0.142
		c0.455,0,0.938,0.054,1.447,0.161c0.506,0.108,0.995,0.335,1.464,0.684c0.31,0.228,0.583,0.485,0.825,0.774
		c0.239,0.286,0.446,0.592,0.621,0.913L93.989,64.225z"/>
	<path d="M101.301,64.506c0.132,0,0.332-0.021,0.601-0.061s0.496-0.166,0.684-0.382c0.133-0.147,0.229-0.321,0.29-0.523
		c0.062-0.199,0.11-0.406,0.152-0.621l0.141-0.724c0.053-0.241,0.127-0.495,0.221-0.763c0.093-0.268,0.313-0.508,0.662-0.724h2.871
		c-0.2,0.242-0.346,0.476-0.441,0.704c-0.093,0.227-0.172,0.508-0.24,0.843l-0.2,1.165c-0.055,0.295-0.121,0.578-0.201,0.854
		c-0.08,0.274-0.254,0.524-0.523,0.753c-0.147,0.135-0.319,0.248-0.521,0.341c-0.201,0.094-0.396,0.161-0.583,0.2
		c0.2,0.04,0.462,0.122,0.784,0.242c0.319,0.12,0.608,0.314,0.862,0.581c0.242,0.268,0.401,0.547,0.483,0.834
		c0.077,0.289,0.152,0.601,0.219,0.935l0.182,1.023c0.053,0.269,0.104,0.493,0.152,0.674c0.045,0.182,0.096,0.338,0.15,0.472
		c0.065,0.188,0.146,0.354,0.24,0.503c0.092,0.146,0.193,0.289,0.301,0.42h-3.112c-0.229-0.212-0.409-0.475-0.544-0.782
		c-0.066-0.188-0.13-0.401-0.188-0.644c-0.062-0.24-0.104-0.455-0.131-0.643l-0.121-0.743c-0.041-0.228-0.104-0.465-0.192-0.712
		c-0.086-0.248-0.256-0.452-0.51-0.615c-0.147-0.091-0.336-0.165-0.563-0.219c-0.228-0.053-0.442-0.081-0.643-0.081h-1.125v4.438
		h-3.072V60.709h3.072v3.797H101.301z"/>
	<path d="M114.062,69.105c0.268,0,0.557-0.071,0.869-0.212c0.314-0.14,0.584-0.42,0.811-0.837c0.187-0.335,0.307-0.701,0.359-1.098
		c0.054-0.396,0.08-0.756,0.08-1.078c0-0.362-0.036-0.765-0.109-1.208c-0.074-0.443-0.236-0.847-0.491-1.208
		c-0.119-0.175-0.3-0.35-0.537-0.525c-0.242-0.175-0.567-0.262-0.981-0.262c-0.254,0-0.499,0.05-0.738,0.151
		c-0.24,0.102-0.461,0.265-0.66,0.494c-0.229,0.269-0.407,0.611-0.54,1.027s-0.2,0.926-0.2,1.53c0,0.376,0.032,0.771,0.1,1.181
		c0.065,0.408,0.215,0.789,0.44,1.137c0.146,0.229,0.343,0.437,0.589,0.625C113.299,69.011,113.637,69.105,114.062,69.105
		 M108.851,60.709h2.831v1.006c0.253-0.282,0.52-0.507,0.802-0.674c0.278-0.167,0.554-0.292,0.821-0.371
		c0.268-0.082,0.519-0.134,0.76-0.161c0.242-0.026,0.463-0.04,0.662-0.04c0.24,0,0.494,0.018,0.761,0.051
		c0.269,0.032,0.538,0.093,0.813,0.181c0.273,0.088,0.547,0.214,0.82,0.382c0.273,0.167,0.53,0.377,0.771,0.633
		c0.466,0.48,0.81,1.084,1.031,1.806c0.222,0.724,0.331,1.508,0.331,2.35c0,0.872-0.121,1.655-0.36,2.351
		c-0.24,0.696-0.555,1.278-0.941,1.747c-0.147,0.162-0.32,0.329-0.52,0.503c-0.202,0.174-0.438,0.331-0.713,0.473
		c-0.273,0.14-0.577,0.253-0.91,0.341c-0.335,0.087-0.71,0.129-1.123,0.129c-0.427,0-0.881-0.068-1.361-0.208
		c-0.48-0.138-0.948-0.415-1.402-0.825v4.408h-3.073V60.709z"/>
	<path fill="none" d="M120.762,67.76h3.173v2.771c0,2.369-1.059,3.713-3.173,4.035v-1.385c0.429-0.147,0.733-0.37,0.914-0.673
		c0.182-0.303,0.279-0.72,0.291-1.255h-1.205V67.76z"/>
	<path d="M136.668,62.115h-2.451v-2.409h0.281c0.816,0,1.454-0.17,1.908-0.513c0.455-0.342,0.784-0.895,0.984-1.657h2.43v13.717
		h-3.152V62.115z"/>
	<path d="M145.002,68.604c1.152-0.776,2.169-1.483,3.053-2.119c0.884-0.637,1.626-1.228,2.229-1.778
		c0.603-0.549,1.059-1.07,1.367-1.566c0.308-0.496,0.46-0.99,0.46-1.487c0-0.533-0.162-0.966-0.492-1.295
		c-0.328-0.327-0.772-0.49-1.335-0.49c-0.668,0-1.184,0.195-1.546,0.592c-0.36,0.394-0.543,0.954-0.543,1.677
		c0,0.255,0.024,0.495,0.07,0.725c0.047,0.226,0.124,0.455,0.231,0.682l-3.153-0.402c-0.054-0.269-0.094-0.516-0.121-0.743
		c-0.027-0.227-0.041-0.436-0.041-0.622c0-0.655,0.125-1.26,0.373-1.808c0.247-0.55,0.602-1.022,1.064-1.416
		c0.461-0.396,1.018-0.703,1.667-0.925c0.648-0.221,1.376-0.33,2.181-0.33c0.762,0,1.443,0.106,2.047,0.321
		c0.602,0.215,1.113,0.515,1.537,0.904c0.421,0.389,0.746,0.863,0.975,1.426c0.227,0.562,0.339,1.185,0.339,1.867
		c0,0.644-0.119,1.237-0.362,1.787c-0.238,0.549-0.598,1.082-1.072,1.598c-0.475,0.514-1.071,1.026-1.787,1.535
		c-0.717,0.51-1.556,1.052-2.521,1.628h6.065v2.891h-10.685V68.604z"/>
	<path d="M158.398,67.759h3.153v3.496h-3.153V67.759z M158.398,60.71h3.153v3.475h-3.153V60.71z"/>
	<path d="M169.604,59.886c-0.763,0-1.356,0.386-1.777,1.155s-0.632,1.905-0.632,3.404c0,1.46,0.213,2.567,0.642,3.323
		c0.429,0.758,1.013,1.135,1.748,1.135c0.79,0,1.393-0.381,1.809-1.145c0.414-0.763,0.622-1.907,0.622-3.434
		c0-1.472-0.212-2.581-0.632-3.324C170.96,60.258,170.367,59.886,169.604,59.886 M163.962,64.284c0-1.11,0.129-2.098,0.392-2.962
		c0.261-0.863,0.635-1.593,1.125-2.188c0.487-0.597,1.076-1.052,1.768-1.366c0.689-0.314,1.468-0.472,2.339-0.472
		c0.869,0,1.653,0.157,2.351,0.472c0.695,0.314,1.291,0.77,1.787,1.366c0.494,0.596,0.873,1.328,1.134,2.198
		c0.263,0.871,0.392,1.854,0.392,2.952c0,2.344-0.489,4.127-1.467,5.352c-0.977,1.227-2.328,1.84-4.056,1.84
		c-1.875,0-3.304-0.606-4.288-1.818S163.962,66.653,163.962,64.284"/>
	<path d="M182.057,59.886c-0.762,0-1.355,0.386-1.777,1.155s-0.632,1.905-0.632,3.404c0,1.46,0.214,2.567,0.642,3.323
		c0.428,0.758,1.012,1.135,1.748,1.135c0.791,0,1.392-0.381,1.808-1.145c0.415-0.763,0.621-1.907,0.621-3.434
		c0-1.472-0.21-2.581-0.631-3.324C183.413,60.258,182.82,59.886,182.057,59.886 M176.414,64.284c0-1.11,0.13-2.098,0.391-2.962
		c0.262-0.863,0.637-1.593,1.126-2.188c0.488-0.597,1.077-1.052,1.767-1.366s1.471-0.472,2.34-0.472c0.87,0,1.653,0.157,2.35,0.472
		c0.695,0.314,1.293,0.77,1.789,1.366c0.492,0.596,0.872,1.328,1.133,2.198c0.262,0.871,0.391,1.854,0.391,2.952
		c0,2.344-0.487,4.127-1.465,5.352c-0.977,1.227-2.33,1.84-4.057,1.84c-1.875,0-3.303-0.606-4.288-1.818
		C176.905,68.445,176.414,66.653,176.414,64.284"/>
	<rect x="189.407" y="64.465" width="20.085" height="2.149"/>
	<path d="M215.598,62.115h-2.449v-2.409h0.279c0.816,0,1.454-0.17,1.909-0.513c0.455-0.342,0.782-0.895,0.984-1.657h2.429v13.717
		h-3.152V62.115z"/>
	<path d="M231.163,62.016c0-0.281-0.057-0.553-0.171-0.813c-0.115-0.262-0.266-0.489-0.453-0.685
		c-0.188-0.192-0.403-0.347-0.651-0.461c-0.249-0.114-0.511-0.171-0.795-0.171c-0.279,0-0.543,0.054-0.792,0.161
		c-0.249,0.108-0.469,0.259-0.662,0.453c-0.195,0.194-0.346,0.422-0.453,0.683c-0.105,0.26-0.16,0.538-0.16,0.833
		c0,0.308,0.055,0.589,0.16,0.845c0.107,0.253,0.255,0.473,0.443,0.661c0.187,0.188,0.408,0.335,0.662,0.441
		c0.255,0.108,0.522,0.161,0.802,0.161c0.284,0,0.546-0.053,0.795-0.161c0.248-0.106,0.467-0.258,0.662-0.452
		c0.194-0.193,0.344-0.419,0.452-0.67C231.109,62.585,231.163,62.311,231.163,62.016 M227.205,67.196
		c0.04,0.562,0.219,0.994,0.532,1.296c0.314,0.303,0.74,0.452,1.276,0.452c1.393,0,2.155-1.092,2.289-3.272
		c-0.389,0.308-0.812,0.529-1.274,0.672c-0.463,0.139-0.975,0.211-1.537,0.211c-0.696,0-1.325-0.11-1.887-0.332
		c-0.563-0.221-1.045-0.527-1.446-0.923c-0.401-0.395-0.714-0.867-0.935-1.417s-0.331-1.157-0.331-1.827
		c0-0.696,0.124-1.336,0.37-1.917c0.249-0.583,0.597-1.085,1.046-1.508c0.448-0.422,0.993-0.751,1.637-0.984
		c0.643-0.233,1.357-0.351,2.147-0.351c1.729,0,3.07,0.568,4.027,1.707c0.958,1.138,1.437,2.771,1.437,4.901
		c0,5.06-1.936,7.591-5.805,7.591c-1.38,0-2.462-0.362-3.243-1.084c-0.783-0.724-1.182-1.688-1.194-2.892L227.205,67.196z"/>
	<path d="M237.328,67.759h3.152v3.496h-3.152V67.759z M237.328,60.71h3.152v3.475h-3.152V60.71z"/>
	<path d="M248.534,59.886c-0.762,0-1.355,0.386-1.777,1.155s-0.633,1.905-0.633,3.404c0,1.46,0.214,2.567,0.643,3.323
		c0.43,0.758,1.013,1.135,1.748,1.135c0.791,0,1.392-0.381,1.809-1.145c0.414-0.763,0.622-1.907,0.622-3.434
		c0-1.472-0.211-2.581-0.632-3.324C249.89,60.258,249.299,59.886,248.534,59.886 M242.891,64.284c0-1.11,0.131-2.098,0.393-2.962
		c0.262-0.863,0.635-1.593,1.123-2.188c0.49-0.597,1.078-1.052,1.768-1.366c0.69-0.314,1.471-0.472,2.341-0.472
		c0.871,0,1.655,0.157,2.351,0.472s1.291,0.77,1.787,1.366c0.496,0.596,0.873,1.328,1.135,2.198
		c0.261,0.871,0.391,1.854,0.391,2.952c0,2.344-0.488,4.127-1.465,5.352c-0.979,1.227-2.33,1.84-4.059,1.84
		c-1.874,0-3.305-0.606-4.287-1.818C243.382,68.445,242.891,66.653,242.891,64.284"/>
	<path d="M260.987,59.886c-0.764,0-1.357,0.386-1.777,1.155c-0.422,0.77-0.633,1.905-0.633,3.404c0,1.46,0.214,2.567,0.642,3.323
		c0.429,0.758,1.012,1.135,1.747,1.135c0.791,0,1.394-0.381,1.81-1.145c0.415-0.763,0.62-1.907,0.62-3.434
		c0-1.472-0.209-2.581-0.632-3.324C262.342,60.258,261.75,59.886,260.987,59.886 M255.345,64.284c0-1.11,0.13-2.098,0.39-2.962
		c0.262-0.863,0.637-1.593,1.125-2.188c0.489-0.597,1.078-1.052,1.768-1.366c0.688-0.314,1.471-0.472,2.339-0.472
		c0.871,0,1.654,0.157,2.352,0.472c0.695,0.314,1.291,0.77,1.786,1.366c0.495,0.596,0.874,1.328,1.137,2.198
		c0.259,0.871,0.389,1.854,0.389,2.952c0,2.344-0.488,4.127-1.465,5.352c-0.977,1.227-2.33,1.84-4.058,1.84
		c-1.874,0-3.304-0.606-4.286-1.818C255.835,68.445,255.345,66.653,255.345,64.284"/>
	<polygon points="28.264,85.473 26.439,80.156 27.842,80.156 28.934,84.146 30.033,80.156 31.426,80.156 29.612,85.473 	"/>
	<path d="M33.979,83.582l-0.239,0.061c-0.268,0.07-0.468,0.127-0.606,0.169c-0.14,0.042-0.246,0.093-0.32,0.146
		c-0.07,0.056-0.118,0.112-0.144,0.169c-0.023,0.06-0.037,0.125-0.037,0.2c0,0.102,0.02,0.181,0.057,0.238
		c0.038,0.059,0.078,0.1,0.124,0.131c0.046,0.029,0.095,0.052,0.154,0.063c0.057,0.014,0.114,0.02,0.17,0.02
		c0.135,0,0.256-0.023,0.363-0.071c0.109-0.049,0.199-0.113,0.271-0.199c0.054-0.07,0.102-0.163,0.146-0.277
		c0.041-0.117,0.062-0.258,0.062-0.424V83.582z M35.109,84.833c-0.006,0.191,0.004,0.331,0.025,0.421
		c0.024,0.091,0.051,0.164,0.087,0.219H34.13c-0.024-0.082-0.04-0.151-0.049-0.216c-0.008-0.062-0.01-0.12-0.01-0.177v-0.044
		c-0.301,0.376-0.707,0.564-1.213,0.564c-0.188,0-0.36-0.027-0.517-0.079c-0.159-0.054-0.295-0.131-0.41-0.23
		c-0.115-0.101-0.205-0.222-0.271-0.368c-0.066-0.146-0.099-0.311-0.099-0.498c0-0.084,0.01-0.182,0.029-0.288
		c0.021-0.109,0.062-0.217,0.122-0.325c0.06-0.107,0.145-0.211,0.253-0.312c0.106-0.102,0.251-0.187,0.432-0.257
		c0.141-0.056,0.297-0.102,0.469-0.139c0.17-0.039,0.36-0.08,0.571-0.125l0.541-0.114v-0.172c0-0.064-0.008-0.141-0.021-0.226
		c-0.014-0.086-0.057-0.157-0.129-0.219c-0.058-0.049-0.133-0.079-0.217-0.089c-0.085-0.011-0.147-0.017-0.18-0.017
		c-0.135,0-0.231,0.017-0.295,0.046c-0.066,0.028-0.107,0.049-0.121,0.06c-0.05,0.041-0.093,0.095-0.125,0.156
		c-0.032,0.068-0.049,0.14-0.049,0.221v0.022h-1.121v-0.016c0-0.06,0.006-0.126,0.016-0.2c0.008-0.07,0.029-0.147,0.059-0.228
		c0.03-0.081,0.073-0.162,0.129-0.243c0.054-0.078,0.129-0.154,0.218-0.225c0.041-0.031,0.096-0.065,0.167-0.106
		c0.069-0.04,0.158-0.077,0.267-0.113c0.107-0.035,0.237-0.063,0.385-0.089c0.146-0.023,0.323-0.037,0.522-0.037
		c0.257,0,0.461,0.016,0.609,0.048c0.15,0.031,0.264,0.063,0.339,0.094c0.156,0.061,0.28,0.138,0.373,0.23
		c0.094,0.093,0.164,0.193,0.212,0.305c0.047,0.111,0.078,0.226,0.094,0.342c0.016,0.118,0.023,0.233,0.023,0.345L35.109,84.833z"/>
	<path d="M37.717,82.295c-0.107,0-0.209,0.023-0.307,0.067c-0.098,0.045-0.184,0.116-0.26,0.211
		c-0.076,0.097-0.135,0.222-0.179,0.375c-0.04,0.154-0.062,0.337-0.062,0.546c0,0.214,0.021,0.395,0.062,0.549
		c0.044,0.155,0.103,0.278,0.179,0.374c0.076,0.098,0.162,0.167,0.26,0.213c0.098,0.044,0.199,0.066,0.307,0.066
		c0.103,0,0.204-0.022,0.301-0.066c0.095-0.046,0.18-0.115,0.251-0.213c0.072-0.096,0.132-0.219,0.177-0.374
		c0.045-0.154,0.068-0.335,0.068-0.549c0-0.209-0.023-0.392-0.068-0.546c-0.045-0.153-0.104-0.278-0.177-0.375
		c-0.071-0.095-0.156-0.166-0.251-0.211C37.921,82.318,37.819,82.295,37.717,82.295 M39.666,85.473h-1.054V85.06
		c-0.095,0.104-0.197,0.187-0.3,0.247c-0.108,0.061-0.212,0.107-0.314,0.14c-0.104,0.031-0.202,0.055-0.297,0.064
		c-0.096,0.009-0.185,0.015-0.264,0.015c-0.047,0-0.119-0.006-0.219-0.015c-0.101-0.01-0.214-0.035-0.34-0.075
		c-0.124-0.041-0.254-0.104-0.388-0.189c-0.133-0.084-0.253-0.198-0.362-0.346c-0.106-0.146-0.196-0.328-0.266-0.55
		c-0.071-0.222-0.105-0.49-0.105-0.806c0-0.362,0.047-0.676,0.142-0.941c0.097-0.265,0.222-0.486,0.376-0.659
		c0.157-0.173,0.336-0.303,0.539-0.389c0.204-0.085,0.418-0.127,0.638-0.127c0.15,0,0.282,0.013,0.398,0.04
		c0.114,0.027,0.217,0.062,0.306,0.101c0.087,0.04,0.159,0.083,0.218,0.127c0.058,0.045,0.104,0.083,0.14,0.111v-1.651h1.152V85.473
		z"/>
	<path d="M41.67,85.474h-1.152V81.52h1.152V85.474z M40.518,80.156h1.152v0.903h-1.152V80.156z"/>
	<path d="M42.527,81.518h1.152v0.37c0.146-0.15,0.309-0.265,0.488-0.344c0.18-0.077,0.367-0.115,0.563-0.115
		c0.474,0,0.825,0.21,1.05,0.632c0.348-0.422,0.753-0.632,1.216-0.632c0.424,0,0.732,0.137,0.925,0.41
		c0.194,0.273,0.291,0.688,0.291,1.246v2.388h-1.152v-2.327c0-0.267-0.041-0.462-0.126-0.588c-0.087-0.125-0.229-0.188-0.434-0.188
		c-0.2,0-0.341,0.063-0.428,0.192c-0.084,0.128-0.127,0.322-0.127,0.584v2.327h-1.151v-2.327c0-0.267-0.043-0.462-0.129-0.588
		c-0.084-0.125-0.228-0.188-0.433-0.188c-0.199,0-0.342,0.063-0.427,0.192c-0.086,0.128-0.127,0.322-0.127,0.584v2.327h-1.152
		V81.518z"/>
	<path d="M52.047,83.898c0.111,0.146,0.225,0.26,0.344,0.343c0.117,0.082,0.227,0.145,0.327,0.184
		c0.114,0.051,0.238,0.088,0.367,0.11c0.132,0.022,0.255,0.035,0.37,0.035c0.16,0,0.313-0.019,0.459-0.054
		c0.147-0.035,0.265-0.097,0.355-0.182c0.119-0.105,0.18-0.231,0.18-0.384c0-0.17-0.063-0.299-0.195-0.384
		c-0.086-0.056-0.2-0.097-0.34-0.125c-0.141-0.026-0.338-0.062-0.596-0.103l-0.391-0.059c-0.18-0.024-0.368-0.068-0.564-0.132
		c-0.196-0.062-0.359-0.137-0.491-0.223c-0.209-0.13-0.356-0.288-0.442-0.475c-0.085-0.185-0.127-0.392-0.127-0.617
		c0-0.276,0.048-0.519,0.146-0.728c0.099-0.207,0.22-0.382,0.365-0.522c0.064-0.065,0.147-0.131,0.245-0.196
		s0.213-0.124,0.346-0.178c0.134-0.052,0.285-0.093,0.456-0.127c0.172-0.034,0.362-0.049,0.573-0.049c0.145,0,0.312,0.012,0.5,0.034
		c0.188,0.021,0.385,0.068,0.588,0.134c0.203,0.069,0.41,0.169,0.618,0.303c0.206,0.132,0.404,0.307,0.591,0.523l-0.936,0.701
		c-0.084-0.092-0.178-0.179-0.276-0.262c-0.103-0.081-0.21-0.153-0.325-0.214c-0.12-0.066-0.243-0.113-0.365-0.14
		c-0.123-0.027-0.252-0.042-0.387-0.042c-0.081,0-0.169,0.01-0.264,0.027c-0.097,0.018-0.185,0.045-0.264,0.086
		c-0.117,0.062-0.193,0.135-0.23,0.221c-0.037,0.083-0.057,0.161-0.057,0.231c0,0.131,0.053,0.239,0.158,0.323
		c0.07,0.052,0.169,0.096,0.298,0.132c0.127,0.038,0.331,0.078,0.606,0.117l0.376,0.053c0.312,0.041,0.54,0.087,0.686,0.135
		c0.146,0.052,0.241,0.089,0.294,0.113c0.166,0.081,0.299,0.174,0.403,0.276c0.103,0.102,0.179,0.21,0.234,0.324
		c0.052,0.113,0.087,0.222,0.104,0.33c0.018,0.109,0.027,0.206,0.027,0.291c0,0.302-0.059,0.567-0.174,0.802
		c-0.116,0.233-0.277,0.43-0.487,0.586c-0.208,0.16-0.456,0.279-0.747,0.359c-0.287,0.079-0.604,0.12-0.951,0.12
		c-0.351,0-0.658-0.036-0.919-0.104c-0.261-0.07-0.485-0.162-0.674-0.273c-0.188-0.109-0.346-0.229-0.475-0.36
		c-0.128-0.131-0.231-0.256-0.312-0.376L52.047,83.898z"/>
	<path d="M57.643,85.474H56.49V81.52h1.152V85.474z M56.49,80.156h1.152v0.903H56.49V80.156z"/>
	<path d="M60.256,82.295c-0.104,0-0.206,0.023-0.305,0.067c-0.098,0.045-0.184,0.116-0.26,0.211
		c-0.075,0.097-0.135,0.222-0.178,0.375c-0.043,0.154-0.063,0.337-0.063,0.546c0,0.214,0.021,0.395,0.063,0.549
		c0.043,0.155,0.103,0.278,0.178,0.374c0.076,0.098,0.162,0.167,0.26,0.213c0.099,0.044,0.2,0.066,0.305,0.066
		c0.104,0,0.206-0.022,0.302-0.066c0.096-0.046,0.179-0.115,0.252-0.213c0.073-0.096,0.132-0.219,0.177-0.374
		c0.045-0.154,0.068-0.335,0.068-0.549c0-0.209-0.023-0.392-0.068-0.546c-0.045-0.153-0.104-0.278-0.177-0.375
		c-0.073-0.095-0.156-0.166-0.252-0.211C60.462,82.318,60.359,82.295,60.256,82.295 M62.207,85.473h-1.052V85.06
		c-0.098,0.104-0.198,0.187-0.303,0.247s-0.21,0.107-0.313,0.14c-0.104,0.031-0.201,0.055-0.297,0.064
		c-0.096,0.009-0.185,0.015-0.266,0.015c-0.044,0-0.117-0.006-0.217-0.015c-0.101-0.01-0.213-0.035-0.34-0.075
		c-0.125-0.041-0.255-0.104-0.388-0.189c-0.133-0.084-0.253-0.198-0.361-0.346c-0.108-0.146-0.198-0.328-0.267-0.55
		c-0.07-0.222-0.105-0.49-0.105-0.806c0-0.362,0.047-0.676,0.144-0.941c0.093-0.265,0.22-0.486,0.376-0.659
		c0.154-0.173,0.334-0.303,0.538-0.389c0.202-0.085,0.415-0.127,0.636-0.127c0.151,0,0.283,0.013,0.399,0.04
		s0.218,0.062,0.305,0.101c0.088,0.04,0.16,0.083,0.218,0.127c0.059,0.045,0.104,0.083,0.141,0.111v-1.651h1.152V85.473z"/>
	<path d="M66.515,85.473h-1.153v-0.371c-0.069,0.078-0.147,0.144-0.236,0.202c-0.087,0.058-0.178,0.106-0.269,0.147
		c-0.114,0.05-0.224,0.08-0.326,0.094c-0.103,0.011-0.198,0.019-0.282,0.019c-0.242,0-0.438-0.042-0.592-0.124
		c-0.153-0.084-0.277-0.201-0.372-0.352c-0.057-0.089-0.101-0.184-0.135-0.282c-0.036-0.098-0.062-0.197-0.081-0.301
		c-0.016-0.104-0.026-0.205-0.032-0.305c-0.004-0.101-0.008-0.199-0.008-0.294v-2.389h1.151v2.327c0,0.082,0.006,0.177,0.019,0.287
		c0.013,0.111,0.05,0.209,0.111,0.293c0.06,0.087,0.126,0.141,0.202,0.159c0.074,0.021,0.147,0.03,0.219,0.03
		c0.114,0,0.208-0.012,0.274-0.034c0.067-0.022,0.12-0.051,0.162-0.085c0.089-0.078,0.146-0.176,0.165-0.299
		c0.02-0.122,0.029-0.24,0.029-0.352v-2.327h1.153V85.473z"/>
	<path d="M67.382,81.518h1.106v0.416c0.166-0.135,0.335-0.237,0.505-0.303c0.094-0.04,0.196-0.072,0.304-0.098
		s0.221-0.041,0.336-0.053v1.062c-0.252-0.02-0.448-0.014-0.592,0.02c-0.143,0.033-0.249,0.085-0.319,0.154
		c-0.086,0.075-0.14,0.162-0.159,0.261c-0.02,0.097-0.029,0.196-0.029,0.297v2.199h-1.151V81.518z"/>
	<polygon points="73.609,80.697 73.556,80.697 73.7,85.473 72.525,85.473 72.525,80.156 74.362,80.156 75.402,84.335 76.435,80.156 
		78.271,80.156 78.271,85.473 77.097,85.473 77.247,80.697 77.193,80.697 75.982,85.473 74.814,85.473 	"/>
	<path d="M82.686,85.473h-1.152v-0.371c-0.072,0.078-0.15,0.144-0.236,0.202c-0.09,0.058-0.179,0.106-0.271,0.147
		c-0.114,0.05-0.224,0.08-0.327,0.094c-0.103,0.011-0.195,0.019-0.282,0.019c-0.241,0-0.437-0.042-0.59-0.124
		c-0.155-0.084-0.277-0.201-0.374-0.352c-0.053-0.089-0.101-0.184-0.135-0.282c-0.036-0.098-0.062-0.197-0.081-0.301
		c-0.016-0.104-0.026-0.205-0.032-0.305c-0.004-0.101-0.008-0.199-0.008-0.294v-2.389h1.153v2.327c0,0.082,0.008,0.177,0.018,0.287
		c0.013,0.111,0.049,0.209,0.11,0.293c0.061,0.087,0.128,0.141,0.202,0.159c0.076,0.021,0.148,0.03,0.22,0.03
		c0.114,0,0.206-0.012,0.273-0.034c0.068-0.022,0.123-0.051,0.162-0.085c0.091-0.078,0.146-0.176,0.166-0.299
		c0.02-0.122,0.031-0.24,0.031-0.352v-2.327h1.152V85.473z"/>
	<path d="M83.965,84.17c0.157,0.19,0.336,0.333,0.543,0.426c0.205,0.093,0.423,0.139,0.654,0.139c0.115,0,0.211-0.011,0.287-0.034
		c0.074-0.023,0.133-0.049,0.173-0.078c0.056-0.035,0.093-0.077,0.112-0.125c0.02-0.047,0.031-0.095,0.031-0.139
		c0-0.045-0.018-0.098-0.05-0.151c-0.032-0.055-0.089-0.1-0.171-0.135c-0.034-0.015-0.077-0.029-0.129-0.041
		c-0.053-0.014-0.132-0.029-0.231-0.051c-0.05-0.009-0.094-0.018-0.13-0.024c-0.039-0.009-0.077-0.016-0.118-0.023
		s-0.085-0.017-0.131-0.026c-0.05-0.01-0.105-0.025-0.17-0.045c-0.121-0.036-0.238-0.072-0.354-0.109
		c-0.113-0.038-0.227-0.091-0.332-0.163c-0.158-0.104-0.274-0.224-0.341-0.352c-0.069-0.131-0.103-0.285-0.103-0.46
		c0-0.412,0.137-0.739,0.406-0.979c0.137-0.122,0.31-0.223,0.517-0.299c0.207-0.077,0.465-0.116,0.771-0.116
		c0.177,0,0.335,0.014,0.483,0.039c0.143,0.029,0.282,0.067,0.412,0.119c0.115,0.038,0.231,0.094,0.347,0.162
		c0.116,0.067,0.23,0.146,0.348,0.237l-0.647,0.699c-0.047-0.04-0.102-0.082-0.167-0.124c-0.064-0.043-0.134-0.085-0.203-0.125
		c-0.095-0.048-0.2-0.089-0.312-0.12c-0.113-0.029-0.228-0.046-0.344-0.046c-0.055,0-0.111,0.007-0.17,0.02
		c-0.058,0.013-0.113,0.04-0.17,0.08c-0.049,0.04-0.083,0.082-0.101,0.127c-0.018,0.046-0.027,0.088-0.027,0.128
		c0,0.092,0.023,0.153,0.069,0.188c0.045,0.036,0.092,0.063,0.143,0.083c0.075,0.03,0.145,0.051,0.207,0.063
		c0.062,0.014,0.132,0.029,0.207,0.05l0.196,0.045c0.166,0.039,0.307,0.077,0.423,0.109s0.209,0.062,0.285,0.091
		c0.075,0.028,0.134,0.051,0.172,0.071c0.04,0.019,0.071,0.034,0.091,0.044c0.175,0.102,0.302,0.222,0.377,0.363
		c0.075,0.139,0.112,0.306,0.112,0.496c0,0.252-0.043,0.457-0.136,0.613c-0.089,0.158-0.192,0.288-0.308,0.39
		c-0.181,0.149-0.398,0.258-0.652,0.323c-0.254,0.064-0.515,0.097-0.785,0.097c-0.188,0-0.382-0.018-0.59-0.056
		c-0.205-0.037-0.402-0.106-0.594-0.207c-0.121-0.065-0.23-0.143-0.328-0.23c-0.098-0.087-0.189-0.198-0.273-0.335L83.965,84.17z"/>
	<path d="M90.058,83.048c-0.01-0.102-0.035-0.207-0.071-0.315c-0.037-0.112-0.1-0.21-0.185-0.296
		c-0.046-0.045-0.111-0.088-0.196-0.13c-0.084-0.044-0.193-0.064-0.322-0.064c-0.131,0-0.236,0.021-0.317,0.064
		c-0.08,0.042-0.144,0.085-0.188,0.13c-0.056,0.056-0.106,0.131-0.15,0.224c-0.045,0.093-0.08,0.222-0.105,0.388H90.058z
		 M88.514,83.748c0,0.054,0.008,0.141,0.023,0.259c0.014,0.118,0.05,0.232,0.105,0.336c0.05,0.1,0.129,0.198,0.24,0.295
		c0.11,0.094,0.27,0.142,0.475,0.142c0.115,0,0.242-0.023,0.377-0.071s0.262-0.149,0.376-0.306c0.04-0.055,0.078-0.116,0.113-0.18
		c0.034-0.065,0.063-0.118,0.082-0.157l0.853,0.422c-0.097,0.199-0.209,0.365-0.336,0.496c-0.127,0.13-0.249,0.231-0.366,0.308
		c-0.154,0.102-0.331,0.179-0.526,0.234c-0.195,0.055-0.422,0.082-0.678,0.082c-0.18,0-0.346-0.018-0.49-0.052
		c-0.145-0.035-0.273-0.078-0.389-0.132c-0.113-0.054-0.214-0.113-0.302-0.182c-0.089-0.066-0.164-0.137-0.226-0.205
		c-0.145-0.161-0.263-0.367-0.352-0.616c-0.089-0.248-0.133-0.53-0.133-0.846c0-0.228,0.023-0.431,0.062-0.615
		c0.045-0.182,0.1-0.346,0.165-0.488c0.065-0.142,0.14-0.267,0.226-0.374c0.081-0.104,0.166-0.192,0.252-0.263
		c0.142-0.121,0.314-0.224,0.519-0.31c0.204-0.085,0.444-0.126,0.721-0.126c0.31,0,0.577,0.051,0.801,0.156
		c0.224,0.106,0.414,0.248,0.569,0.423c0.121,0.134,0.214,0.281,0.281,0.437c0.068,0.154,0.119,0.312,0.155,0.472
		c0.036,0.156,0.056,0.31,0.062,0.457c0.003,0.148,0.003,0.284,0,0.404H88.514z"/>
	<path d="M95.285,85.473h-1.151v-0.371c-0.071,0.078-0.15,0.144-0.238,0.202c-0.089,0.058-0.177,0.106-0.269,0.147
		c-0.115,0.05-0.225,0.08-0.328,0.094c-0.1,0.011-0.195,0.019-0.281,0.019c-0.241,0-0.438-0.042-0.592-0.124
		c-0.151-0.084-0.275-0.201-0.372-0.352c-0.055-0.089-0.1-0.184-0.135-0.282c-0.036-0.098-0.062-0.197-0.081-0.301
		c-0.018-0.104-0.027-0.205-0.033-0.305c-0.005-0.101-0.007-0.199-0.007-0.294v-2.389h1.152v2.327c0,0.082,0.006,0.177,0.019,0.287
		c0.012,0.111,0.049,0.209,0.108,0.293c0.062,0.087,0.128,0.141,0.203,0.159c0.077,0.021,0.148,0.03,0.221,0.03
		c0.114,0,0.206-0.012,0.274-0.034c0.067-0.022,0.12-0.051,0.162-0.085c0.09-0.078,0.146-0.176,0.165-0.299
		c0.02-0.122,0.031-0.24,0.031-0.352v-2.327h1.151V85.473z"/>
	<path d="M96.15,81.518h1.152v0.37c0.145-0.15,0.31-0.265,0.488-0.344c0.181-0.077,0.366-0.115,0.563-0.115
		c0.475,0,0.825,0.21,1.05,0.632c0.348-0.422,0.754-0.632,1.216-0.632c0.424,0,0.731,0.137,0.927,0.41
		c0.194,0.273,0.29,0.688,0.29,1.246v2.388h-1.151v-2.327c0-0.267-0.042-0.462-0.127-0.588c-0.086-0.125-0.229-0.188-0.435-0.188
		c-0.201,0-0.341,0.063-0.427,0.192c-0.086,0.128-0.128,0.322-0.128,0.584v2.327h-1.152v-2.327c0-0.267-0.041-0.462-0.126-0.588
		c-0.085-0.125-0.229-0.188-0.434-0.188c-0.2,0-0.344,0.063-0.428,0.192c-0.085,0.128-0.127,0.322-0.127,0.584v2.327H96.15V81.518z"
		/>
	<polygon points="31.849,91.535 32.617,87.688 33.92,87.688 32.548,93.004 31.254,93.004 30.273,89.306 29.303,93.004 
		27.998,93.004 26.637,87.688 27.932,87.688 28.701,91.535 29.694,87.688 30.863,87.688 	"/>
	<path d="M36.902,90.579c-0.01-0.102-0.033-0.206-0.072-0.316c-0.037-0.11-0.099-0.207-0.185-0.294
		c-0.046-0.045-0.11-0.089-0.195-0.132s-0.194-0.063-0.323-0.063c-0.131,0-0.236,0.021-0.316,0.063
		c-0.082,0.043-0.144,0.087-0.189,0.132c-0.055,0.056-0.105,0.129-0.15,0.223c-0.045,0.092-0.08,0.222-0.106,0.388H36.902z
		 M35.358,91.28c0,0.054,0.006,0.141,0.022,0.259c0.015,0.117,0.05,0.231,0.105,0.335c0.049,0.1,0.13,0.199,0.24,0.294
		c0.111,0.097,0.27,0.142,0.475,0.142c0.114,0,0.241-0.023,0.377-0.069c0.135-0.047,0.26-0.149,0.375-0.306
		c0.041-0.056,0.079-0.115,0.113-0.18c0.034-0.066,0.063-0.119,0.084-0.159l0.853,0.422c-0.097,0.202-0.209,0.365-0.336,0.496
		c-0.129,0.131-0.251,0.234-0.366,0.309c-0.155,0.101-0.332,0.179-0.526,0.234c-0.196,0.056-0.423,0.083-0.678,0.083
		c-0.182,0-0.346-0.018-0.489-0.053c-0.146-0.034-0.275-0.078-0.391-0.132c-0.113-0.052-0.214-0.113-0.303-0.183
		c-0.088-0.065-0.163-0.135-0.223-0.204c-0.147-0.161-0.266-0.365-0.354-0.614c-0.088-0.25-0.132-0.533-0.132-0.848
		c0-0.227,0.021-0.431,0.062-0.616c0.045-0.18,0.099-0.345,0.163-0.487c0.066-0.143,0.142-0.268,0.225-0.373
		c0.083-0.104,0.169-0.192,0.254-0.263c0.143-0.122,0.313-0.225,0.52-0.31c0.202-0.085,0.443-0.128,0.719-0.128
		c0.312,0,0.578,0.052,0.801,0.159c0.226,0.104,0.416,0.245,0.57,0.422c0.121,0.133,0.215,0.28,0.282,0.436
		c0.068,0.154,0.119,0.312,0.155,0.472c0.034,0.157,0.055,0.31,0.061,0.458c0.004,0.147,0.004,0.283,0,0.404H35.358z"/>
	<path d="M40.427,89.825c-0.106,0-0.209,0.023-0.306,0.069c-0.097,0.044-0.186,0.116-0.26,0.209
		c-0.076,0.097-0.134,0.223-0.177,0.375c-0.042,0.154-0.063,0.338-0.063,0.547c0,0.214,0.021,0.396,0.063,0.549
		c0.043,0.155,0.101,0.278,0.177,0.375c0.074,0.096,0.163,0.167,0.26,0.211c0.097,0.047,0.199,0.069,0.306,0.069
		c0.105,0,0.205-0.022,0.3-0.069c0.098-0.044,0.18-0.115,0.254-0.211c0.072-0.097,0.132-0.22,0.176-0.375
		c0.046-0.153,0.069-0.335,0.069-0.549c0-0.209-0.023-0.393-0.069-0.547c-0.044-0.152-0.104-0.278-0.176-0.375
		c-0.074-0.093-0.156-0.165-0.254-0.209C40.632,89.849,40.532,89.825,40.427,89.825 M42.376,93.004h-1.053v-0.413
		c-0.095,0.104-0.194,0.188-0.301,0.247c-0.106,0.062-0.209,0.106-0.312,0.14c-0.105,0.032-0.203,0.055-0.299,0.064
		s-0.185,0.015-0.264,0.015c-0.046,0-0.118-0.005-0.219-0.015s-0.214-0.035-0.34-0.075c-0.124-0.042-0.254-0.104-0.388-0.188
		c-0.131-0.085-0.252-0.2-0.362-0.347c-0.107-0.147-0.196-0.329-0.266-0.551c-0.07-0.221-0.105-0.488-0.105-0.806
		c0-0.361,0.048-0.674,0.144-0.94c0.095-0.266,0.22-0.486,0.376-0.659c0.155-0.174,0.335-0.303,0.539-0.387
		c0.203-0.087,0.415-0.128,0.636-0.128c0.149,0,0.283,0.014,0.4,0.039c0.114,0.028,0.216,0.062,0.304,0.102s0.159,0.082,0.218,0.127
		c0.06,0.045,0.104,0.081,0.141,0.11v-1.651h1.15V93.004z"/>
	<rect x="43.222" y="90.459" width="7.53" height="0.806"/>
	<path d="M52.266,91.429c0.109,0.146,0.226,0.262,0.344,0.345c0.116,0.081,0.226,0.145,0.327,0.185
		c0.116,0.049,0.237,0.086,0.368,0.108c0.131,0.023,0.255,0.034,0.369,0.034c0.161,0,0.312-0.017,0.459-0.054
		c0.146-0.035,0.264-0.094,0.355-0.182c0.12-0.104,0.18-0.231,0.18-0.382c0-0.171-0.065-0.301-0.195-0.385
		c-0.085-0.057-0.197-0.096-0.34-0.124c-0.141-0.027-0.338-0.062-0.593-0.103l-0.392-0.06c-0.183-0.025-0.371-0.067-0.565-0.131
		c-0.196-0.064-0.36-0.137-0.489-0.223c-0.212-0.131-0.36-0.289-0.445-0.476c-0.086-0.186-0.128-0.391-0.128-0.617
		c0-0.275,0.05-0.518,0.147-0.727c0.097-0.208,0.219-0.384,0.365-0.523c0.066-0.066,0.146-0.131,0.243-0.197
		c0.099-0.063,0.215-0.123,0.349-0.175c0.132-0.053,0.283-0.096,0.454-0.128c0.172-0.034,0.362-0.05,0.572-0.05
		c0.146,0,0.312,0.011,0.501,0.034c0.189,0.022,0.385,0.067,0.588,0.136c0.203,0.067,0.409,0.167,0.617,0.3
		c0.209,0.135,0.404,0.308,0.591,0.524l-0.933,0.701c-0.086-0.093-0.179-0.178-0.279-0.262c-0.101-0.081-0.209-0.153-0.324-0.214
		c-0.12-0.066-0.242-0.111-0.365-0.138c-0.123-0.028-0.252-0.043-0.388-0.043c-0.081,0-0.169,0.009-0.263,0.026
		c-0.097,0.02-0.185,0.045-0.264,0.086c-0.115,0.062-0.192,0.135-0.23,0.22c-0.037,0.084-0.057,0.163-0.057,0.231
		c0,0.132,0.054,0.239,0.158,0.326c0.071,0.05,0.17,0.094,0.298,0.13c0.128,0.038,0.329,0.077,0.606,0.118l0.377,0.051
		c0.31,0.041,0.539,0.088,0.685,0.137c0.145,0.052,0.243,0.09,0.294,0.113c0.166,0.079,0.3,0.172,0.402,0.276
		c0.104,0.102,0.181,0.21,0.234,0.322c0.052,0.113,0.087,0.225,0.105,0.332c0.018,0.108,0.025,0.204,0.025,0.29
		c0,0.301-0.058,0.568-0.173,0.802c-0.114,0.233-0.277,0.431-0.484,0.587c-0.209,0.158-0.458,0.277-0.746,0.359
		c-0.29,0.079-0.606,0.119-0.954,0.119c-0.352,0-0.656-0.035-0.918-0.104c-0.262-0.072-0.487-0.162-0.675-0.272
		c-0.189-0.111-0.346-0.232-0.474-0.362c-0.129-0.129-0.233-0.256-0.312-0.376L52.266,91.429z"/>
	<path d="M60.168,93.004h-1.154v-0.369c-0.069,0.076-0.148,0.142-0.236,0.2c-0.089,0.059-0.176,0.106-0.268,0.146
		c-0.115,0.051-0.225,0.08-0.328,0.094c-0.104,0.012-0.197,0.02-0.281,0.02c-0.242,0-0.438-0.042-0.593-0.125
		c-0.152-0.082-0.276-0.2-0.372-0.35c-0.056-0.091-0.1-0.185-0.136-0.283c-0.036-0.098-0.061-0.198-0.079-0.302
		c-0.018-0.102-0.029-0.204-0.033-0.304c-0.006-0.102-0.008-0.198-0.008-0.295V89.05h1.151v2.327c0,0.081,0.008,0.177,0.02,0.287
		s0.05,0.208,0.109,0.294c0.061,0.085,0.128,0.139,0.203,0.158c0.074,0.019,0.147,0.028,0.219,0.028
		c0.116,0,0.206-0.011,0.274-0.032c0.068-0.022,0.121-0.052,0.162-0.087c0.089-0.075,0.146-0.175,0.166-0.298
		c0.02-0.123,0.029-0.24,0.029-0.351V89.05h1.154V93.004z"/>
	<path d="M61.033,89.05h1.152v0.369c0.1-0.105,0.205-0.188,0.311-0.25c0.107-0.058,0.21-0.104,0.309-0.138
		c0.098-0.033,0.19-0.053,0.277-0.059c0.088-0.009,0.162-0.012,0.222-0.012c0.205,0,0.388,0.032,0.549,0.104
		c0.159,0.069,0.296,0.193,0.413,0.368c0.109,0.171,0.178,0.36,0.208,0.573c0.031,0.211,0.046,0.414,0.046,0.608v2.389h-1.152
		v-2.327c0-0.04-0.002-0.09-0.004-0.15c-0.002-0.06-0.012-0.124-0.025-0.188c-0.016-0.065-0.038-0.131-0.067-0.193
		c-0.031-0.063-0.073-0.113-0.128-0.154c-0.055-0.04-0.116-0.064-0.191-0.074c-0.07-0.01-0.131-0.015-0.174-0.015
		c-0.102,0-0.186,0.012-0.252,0.036c-0.066,0.025-0.121,0.059-0.16,0.1c-0.046,0.037-0.08,0.087-0.102,0.146
		c-0.023,0.057-0.039,0.117-0.053,0.177c-0.013,0.061-0.02,0.117-0.022,0.174c-0.003,0.056-0.003,0.103-0.003,0.143v2.327h-1.152
		V89.05z"/>
	<path d="M65.5,91.692h1.188v1.042c0,0.888-0.396,1.392-1.188,1.513v-0.521c0.16-0.055,0.273-0.14,0.342-0.253
		c0.066-0.112,0.104-0.268,0.109-0.47H65.5V91.692z"/>
	<path d="M71.463,89.577h-0.918v-0.903h0.105c0.307,0,0.545-0.063,0.716-0.192c0.169-0.129,0.293-0.334,0.368-0.621h0.912v5.144
		h-1.184V89.577z"/>
	<path d="M74.59,92.009c0.431-0.29,0.812-0.555,1.144-0.794c0.333-0.238,0.61-0.461,0.836-0.666
		c0.227-0.206,0.398-0.402,0.512-0.587c0.116-0.187,0.175-0.373,0.175-0.558c0-0.202-0.062-0.362-0.186-0.486
		c-0.122-0.123-0.29-0.186-0.501-0.186c-0.251,0-0.444,0.076-0.579,0.224c-0.137,0.149-0.205,0.357-0.205,0.629
		c0,0.094,0.01,0.186,0.027,0.271c0.018,0.084,0.048,0.17,0.088,0.255l-1.184-0.149c-0.021-0.102-0.034-0.194-0.044-0.28
		c-0.01-0.085-0.016-0.161-0.016-0.232c0-0.247,0.046-0.471,0.139-0.678c0.093-0.205,0.226-0.383,0.4-0.53
		c0.173-0.149,0.382-0.265,0.623-0.348c0.245-0.083,0.517-0.123,0.818-0.123c0.285,0,0.54,0.039,0.767,0.12
		c0.228,0.08,0.42,0.192,0.578,0.339c0.157,0.145,0.28,0.323,0.365,0.534s0.127,0.444,0.127,0.7c0,0.24-0.045,0.465-0.135,0.669
		c-0.09,0.208-0.226,0.407-0.403,0.601c-0.179,0.193-0.403,0.385-0.671,0.576c-0.268,0.19-0.583,0.395-0.943,0.61h2.273v1.084H74.59
		V92.009z"/>
	<path d="M83.928,91.114l-0.242,0.061c-0.265,0.07-0.467,0.126-0.604,0.168c-0.139,0.042-0.247,0.092-0.319,0.146
		c-0.07,0.056-0.119,0.112-0.145,0.17c-0.025,0.059-0.038,0.126-0.038,0.199c0,0.102,0.019,0.181,0.058,0.238
		c0.037,0.058,0.079,0.102,0.125,0.133c0.044,0.029,0.096,0.049,0.152,0.061c0.059,0.014,0.116,0.02,0.17,0.02
		c0.137,0,0.257-0.023,0.366-0.07c0.107-0.047,0.196-0.114,0.267-0.199c0.057-0.071,0.104-0.163,0.146-0.277
		c0.043-0.116,0.064-0.259,0.064-0.423V91.114z M85.059,92.364c-0.006,0.19,0.002,0.331,0.026,0.421
		c0.021,0.091,0.05,0.163,0.086,0.219H84.08c-0.025-0.082-0.043-0.151-0.05-0.216c-0.008-0.06-0.013-0.12-0.013-0.176v-0.045
		c-0.301,0.375-0.704,0.564-1.212,0.564c-0.186,0-0.358-0.026-0.515-0.079c-0.16-0.053-0.296-0.131-0.412-0.23
		c-0.113-0.099-0.206-0.222-0.27-0.368c-0.067-0.146-0.1-0.312-0.1-0.496c0-0.087,0.012-0.182,0.03-0.29
		c0.021-0.108,0.062-0.218,0.121-0.325c0.061-0.107,0.145-0.211,0.254-0.312c0.106-0.101,0.251-0.184,0.432-0.256
		c0.14-0.055,0.296-0.102,0.466-0.14c0.172-0.038,0.363-0.079,0.572-0.124l0.543-0.113v-0.172c0-0.065-0.008-0.142-0.023-0.227
		c-0.013-0.084-0.057-0.158-0.127-0.218c-0.061-0.05-0.133-0.081-0.219-0.091s-0.146-0.016-0.18-0.016
		c-0.131,0-0.229,0.016-0.295,0.045c-0.065,0.031-0.105,0.051-0.119,0.062c-0.052,0.04-0.092,0.093-0.125,0.156
		c-0.032,0.067-0.05,0.14-0.05,0.22v0.022h-1.121v-0.015c0-0.062,0.004-0.127,0.015-0.201c0.011-0.07,0.03-0.148,0.061-0.229
		c0.03-0.079,0.072-0.16,0.129-0.241c0.056-0.08,0.127-0.155,0.217-0.227c0.041-0.029,0.097-0.065,0.166-0.105
		c0.071-0.038,0.16-0.076,0.267-0.112c0.109-0.036,0.237-0.064,0.385-0.089c0.148-0.025,0.321-0.039,0.523-0.039
		c0.255,0,0.461,0.017,0.61,0.051c0.15,0.03,0.264,0.062,0.339,0.093c0.156,0.061,0.279,0.137,0.372,0.229
		c0.094,0.094,0.165,0.195,0.212,0.307c0.048,0.109,0.079,0.225,0.095,0.342c0.016,0.118,0.021,0.233,0.021,0.343L85.059,92.364z"/>
	<rect x="86.052" y="91.692" width="1.19" height="1.312"/>
	<path d="M88.244,89.05h1.151v0.369c0.146-0.15,0.309-0.266,0.487-0.343c0.181-0.078,0.369-0.115,0.563-0.115
		c0.475,0,0.825,0.208,1.05,0.632c0.348-0.424,0.753-0.632,1.217-0.632c0.424,0,0.731,0.137,0.926,0.409
		c0.194,0.273,0.291,0.688,0.291,1.245v2.389h-1.153v-2.327c0-0.266-0.042-0.462-0.126-0.589c-0.084-0.124-0.229-0.186-0.435-0.186
		c-0.2,0-0.341,0.062-0.426,0.189c-0.086,0.13-0.127,0.324-0.127,0.585v2.327h-1.152v-2.327c0-0.266-0.043-0.462-0.127-0.589
		c-0.085-0.124-0.229-0.186-0.435-0.186c-0.199,0-0.344,0.062-0.427,0.189c-0.083,0.13-0.127,0.324-0.127,0.585v2.327h-1.151V89.05z
		"/>
	<rect x="94.908" y="91.692" width="1.189" height="1.312"/>
	<rect x="97.092" y="90.459" width="7.531" height="0.806"/>
	<path d="M105.385,88.907V87.86h3.871v0.948c-0.598,0.663-1.047,1.332-1.349,2.008c-0.3,0.675-0.46,1.405-0.481,2.188h-1.521
		c0.086-0.607,0.306-1.252,0.663-1.937c0.356-0.682,0.854-1.402,1.49-2.16H105.385z"/>
	<path d="M114.434,92.199c0.1,0,0.209-0.027,0.328-0.08c0.115-0.053,0.216-0.157,0.301-0.313c0.071-0.126,0.117-0.263,0.137-0.411
		c0.019-0.148,0.028-0.284,0.028-0.404c0-0.135-0.014-0.288-0.04-0.454c-0.027-0.165-0.088-0.316-0.183-0.455
		c-0.047-0.062-0.114-0.13-0.204-0.193c-0.089-0.067-0.211-0.1-0.367-0.1c-0.095,0-0.188,0.019-0.276,0.057
		c-0.091,0.038-0.174,0.099-0.248,0.186c-0.085,0.101-0.152,0.228-0.202,0.384c-0.05,0.157-0.075,0.348-0.075,0.576
		c0,0.141,0.014,0.288,0.039,0.44c0.022,0.154,0.078,0.297,0.163,0.427c0.056,0.086,0.129,0.164,0.221,0.236
		C114.147,92.162,114.274,92.199,114.434,92.199 M112.48,89.05h1.061v0.377c0.095-0.106,0.195-0.188,0.301-0.253
		c0.105-0.061,0.207-0.108,0.308-0.139c0.1-0.031,0.195-0.05,0.284-0.061c0.091-0.009,0.174-0.014,0.25-0.014
		c0.088,0,0.186,0.007,0.284,0.018c0.102,0.012,0.202,0.035,0.307,0.068c0.101,0.033,0.203,0.08,0.306,0.142
		c0.103,0.064,0.199,0.144,0.291,0.238c0.173,0.18,0.303,0.406,0.385,0.677c0.084,0.272,0.125,0.566,0.125,0.882
		c0,0.327-0.045,0.62-0.137,0.88c-0.088,0.263-0.206,0.481-0.352,0.656c-0.055,0.062-0.121,0.123-0.194,0.189
		c-0.076,0.063-0.165,0.124-0.267,0.177c-0.104,0.053-0.218,0.096-0.342,0.129c-0.126,0.033-0.266,0.047-0.422,0.047
		c-0.162,0-0.33-0.023-0.511-0.078c-0.18-0.053-0.354-0.154-0.525-0.31v1.653h-1.151V89.05z"/>
	<rect x="117.18" y="91.692" width="1.189" height="1.312"/>
	<path d="M119.371,89.05h1.151v0.369c0.146-0.15,0.309-0.266,0.489-0.343c0.18-0.078,0.367-0.115,0.562-0.115
		c0.476,0,0.825,0.208,1.051,0.632c0.348-0.424,0.753-0.632,1.215-0.632c0.424,0,0.731,0.137,0.928,0.409
		c0.191,0.273,0.289,0.688,0.289,1.245v2.389h-1.153v-2.327c0-0.266-0.042-0.462-0.127-0.589c-0.083-0.124-0.229-0.186-0.434-0.186
		c-0.199,0-0.341,0.062-0.426,0.189c-0.084,0.13-0.127,0.324-0.127,0.585v2.327h-1.152v-2.327c0-0.266-0.043-0.462-0.126-0.589
		c-0.086-0.124-0.232-0.186-0.436-0.186c-0.199,0-0.342,0.062-0.426,0.189c-0.084,0.13-0.128,0.324-0.128,0.585v2.327h-1.151V89.05z
		"/>
	<rect x="126.035" y="91.692" width="1.189" height="1.312"/>
</g>
</svg>
