<?xml version="1.0" encoding="utf-8"?>
<!-- Generator: Adobe Illustrator 15.0.0, SVG Export Plug-In . SVG Version: 6.00 Build 0)  -->
<!DOCTYPE svg PUBLIC "-//W3C//DTD SVG 1.1//EN" "http://www.w3.org/Graphics/SVG/1.1/DTD/svg11.dtd">
<svg version="1.1" id="Layer_1" xmlns="http://www.w3.org/2000/svg" xmlns:xlink="http://www.w3.org/1999/xlink" x="0px" y="0px"
	 width="310px" height="50px" viewBox="0 0 310 50" enable-background="new 0 0 310 50" xml:space="preserve">
<g>
	<polygon fill="#010101" points="25,18.061 28.32,18.061 28.32,23.18 33.698,23.18 33.698,18.061 37.016,18.061 37.016,32.178 
		33.698,32.178 33.698,26.219 28.32,26.219 28.32,32.178 25,32.178 	"/>
	<path fill="#010101" d="M44.081,23.799c-0.506,0-0.91,0.131-1.21,0.391s-0.524,0.516-0.67,0.77c-0.212,0.375-0.34,0.752-0.38,1.141
		c-0.038,0.387-0.061,0.666-0.061,0.84c0,0.172,0.022,0.451,0.061,0.838c0.04,0.389,0.168,0.768,0.38,1.141
		c0.146,0.254,0.37,0.51,0.67,0.77s0.704,0.391,1.21,0.391s0.91-0.131,1.21-0.391s0.522-0.516,0.67-0.77
		c0.212-0.373,0.34-0.752,0.38-1.141c0.04-0.387,0.061-0.666,0.061-0.838c0-0.174-0.021-0.453-0.061-0.84
		c-0.04-0.389-0.168-0.766-0.38-1.141c-0.147-0.254-0.37-0.51-0.67-0.77S44.587,23.799,44.081,23.799 M44.081,21.359
		c0.534,0,1.012,0.055,1.44,0.16c0.426,0.105,0.806,0.24,1.14,0.4c0.332,0.16,0.62,0.338,0.86,0.529
		c0.237,0.193,0.438,0.377,0.6,0.551c0.346,0.387,0.666,0.9,0.96,1.539c0.292,0.641,0.438,1.439,0.438,2.4s-0.146,1.758-0.438,2.398
		c-0.294,0.639-0.614,1.154-0.96,1.539c-0.162,0.174-0.362,0.357-0.6,0.551c-0.24,0.193-0.528,0.369-0.86,0.529
		c-0.334,0.16-0.714,0.293-1.14,0.4c-0.429,0.105-0.906,0.16-1.44,0.16s-1.012-0.055-1.44-0.16c-0.426-0.107-0.806-0.24-1.14-0.4
		s-0.62-0.336-0.86-0.529c-0.237-0.193-0.438-0.377-0.6-0.551c-0.346-0.385-0.666-0.9-0.96-1.539
		c-0.292-0.641-0.438-1.438-0.438-2.398s0.146-1.76,0.438-2.4c0.294-0.639,0.614-1.152,0.96-1.539
		c0.162-0.174,0.362-0.357,0.6-0.551c0.24-0.191,0.526-0.369,0.86-0.529s0.714-0.295,1.14-0.4
		C43.069,21.414,43.547,21.359,44.081,21.359"/>
	<path fill="#010101" d="M54.069,25.799h1.178c0.508,0,0.888-0.033,1.141-0.1c0.254-0.068,0.439-0.154,0.56-0.262
		c0.12-0.104,0.198-0.229,0.23-0.367c0.033-0.141,0.05-0.271,0.05-0.391c0-0.107-0.015-0.225-0.04-0.35
		c-0.026-0.129-0.086-0.244-0.181-0.35c-0.079-0.094-0.186-0.168-0.317-0.221c-0.134-0.055-0.274-0.094-0.422-0.119
		c-0.146-0.027-0.29-0.047-0.431-0.061c-0.14-0.014-0.256-0.02-0.35-0.02h-1.418V25.799z M54.01,30.297h1.497
		c0.36,0,0.71-0.033,1.051-0.1c0.34-0.066,0.59-0.205,0.75-0.42c0.105-0.133,0.168-0.271,0.18-0.42
		c0.014-0.146,0.02-0.271,0.02-0.379c0-0.16-0.016-0.32-0.05-0.48s-0.13-0.307-0.29-0.439c-0.105-0.094-0.284-0.178-0.529-0.25
		c-0.246-0.072-0.622-0.111-1.131-0.111H54.01V30.297z M51.029,21.68h5.278c0.399,0,0.838,0.025,1.31,0.08
		c0.474,0.055,0.884,0.154,1.23,0.301c0.439,0.188,0.785,0.455,1.04,0.809c0.254,0.352,0.38,0.816,0.38,1.391
		c0,0.598-0.12,1.066-0.36,1.398c-0.24,0.334-0.474,0.568-0.7,0.699c-0.2,0.121-0.428,0.211-0.68,0.271
		c-0.252,0.059-0.486,0.098-0.7,0.109c0.294,0.027,0.601,0.078,0.92,0.148c0.32,0.074,0.594,0.18,0.82,0.311
		c0.386,0.215,0.656,0.488,0.81,0.82c0.152,0.334,0.23,0.754,0.23,1.26c0,0.707-0.154,1.25-0.46,1.631
		c-0.309,0.379-0.66,0.662-1.061,0.85c-0.214,0.092-0.443,0.166-0.689,0.221c-0.246,0.053-0.486,0.096-0.72,0.129
		c-0.232,0.033-0.437,0.055-0.61,0.061c-0.172,0.006-0.292,0.01-0.36,0.01h-5.678V21.68z"/>
	<path fill="#010101" d="M67.035,23.799c-0.506,0-0.91,0.131-1.21,0.391s-0.524,0.516-0.67,0.77c-0.212,0.375-0.34,0.752-0.38,1.141
		c-0.038,0.387-0.061,0.666-0.061,0.84c0,0.172,0.022,0.451,0.061,0.838c0.04,0.389,0.168,0.768,0.38,1.141
		c0.146,0.254,0.37,0.51,0.67,0.77s0.704,0.391,1.21,0.391s0.91-0.131,1.21-0.391s0.522-0.516,0.67-0.77
		c0.212-0.373,0.34-0.752,0.38-1.141c0.04-0.387,0.061-0.666,0.061-0.838c0-0.174-0.021-0.453-0.061-0.84
		c-0.04-0.389-0.168-0.766-0.38-1.141c-0.147-0.254-0.37-0.51-0.67-0.77S67.541,23.799,67.035,23.799 M67.035,21.359
		c0.534,0,1.012,0.055,1.439,0.16c0.427,0.105,0.807,0.24,1.141,0.4c0.332,0.16,0.62,0.338,0.859,0.529
		c0.238,0.193,0.438,0.377,0.601,0.551c0.346,0.387,0.666,0.9,0.96,1.539c0.292,0.641,0.438,1.439,0.438,2.4
		s-0.146,1.758-0.438,2.398c-0.294,0.639-0.614,1.154-0.96,1.539c-0.162,0.174-0.362,0.357-0.601,0.551
		c-0.239,0.193-0.527,0.369-0.859,0.529c-0.334,0.16-0.714,0.293-1.141,0.4c-0.428,0.105-0.905,0.16-1.439,0.16
		s-1.012-0.055-1.44-0.16c-0.426-0.107-0.806-0.24-1.14-0.4s-0.62-0.336-0.86-0.529c-0.237-0.193-0.438-0.377-0.6-0.551
		c-0.346-0.385-0.666-0.9-0.96-1.539c-0.292-0.641-0.438-1.438-0.438-2.398s0.146-1.76,0.438-2.4
		c0.294-0.639,0.614-1.152,0.96-1.539c0.162-0.174,0.362-0.357,0.6-0.551c0.24-0.191,0.526-0.369,0.86-0.529s0.714-0.295,1.14-0.4
		C66.023,21.414,66.501,21.359,67.035,21.359"/>
	<polygon fill="#010101" points="73.983,21.68 81.481,21.68 81.481,23.98 77.043,23.98 77.043,32.178 73.983,32.178 	"/>
	<polygon fill="#010101" points="82.549,21.68 85.609,21.68 85.609,27.197 89.327,22.959 89.327,21.68 92.387,21.68 92.387,32.178 
		89.327,32.178 89.341,26.5 85.609,30.738 85.609,32.178 82.549,32.178 	"/>
	<path fill="#010101" d="M99.663,30.037c0.266,0,0.554-0.07,0.865-0.209c0.312-0.143,0.58-0.418,0.807-0.832
		c0.186-0.336,0.306-0.701,0.357-1.094c0.055-0.395,0.08-0.752,0.08-1.074c0-0.361-0.036-0.762-0.109-1.203
		c-0.072-0.441-0.234-0.844-0.486-1.203c-0.12-0.174-0.3-0.348-0.538-0.521c-0.24-0.174-0.564-0.26-0.976-0.26
		c-0.253,0-0.498,0.049-0.736,0.148c-0.24,0.102-0.458,0.264-0.656,0.49c-0.226,0.268-0.406,0.611-0.538,1.023
		c-0.134,0.416-0.2,0.924-0.2,1.525c0,0.375,0.034,0.768,0.101,1.174c0.065,0.408,0.214,0.785,0.438,1.133
		c0.146,0.229,0.343,0.436,0.588,0.623C98.902,29.943,99.238,30.037,99.663,30.037 M94.475,21.68h2.818v1
		c0.252-0.279,0.518-0.502,0.798-0.67c0.278-0.166,0.55-0.291,0.815-0.369c0.269-0.08,0.521-0.133,0.761-0.16
		c0.237-0.027,0.458-0.041,0.657-0.041c0.238,0,0.49,0.016,0.759,0.051c0.266,0.033,0.533,0.094,0.808,0.18
		c0.272,0.088,0.544,0.213,0.816,0.379c0.271,0.168,0.529,0.379,0.768,0.631c0.466,0.48,0.808,1.08,1.028,1.801
		c0.22,0.719,0.33,1.498,0.33,2.338c0,0.867-0.12,1.646-0.36,2.34c-0.24,0.691-0.55,1.271-0.936,1.74
		c-0.146,0.16-0.32,0.326-0.521,0.5c-0.198,0.172-0.434,0.33-0.708,0.469c-0.271,0.141-0.574,0.254-0.906,0.34
		s-0.706,0.131-1.117,0.131c-0.425,0-0.877-0.07-1.354-0.209c-0.48-0.139-0.946-0.412-1.398-0.822v4.389h-3.058V21.68z"/>
	<path fill="#010101" d="M112.969,25.738c-0.025-0.266-0.09-0.545-0.188-0.84c-0.103-0.291-0.264-0.553-0.492-0.779
		c-0.12-0.119-0.292-0.236-0.518-0.35c-0.229-0.113-0.515-0.17-0.86-0.17c-0.348,0-0.628,0.057-0.84,0.17
		c-0.214,0.113-0.38,0.23-0.5,0.35c-0.148,0.146-0.28,0.344-0.4,0.59c-0.12,0.248-0.214,0.59-0.28,1.029H112.969z M108.871,27.6
		c0,0.145,0.02,0.375,0.06,0.689c0.04,0.312,0.135,0.609,0.28,0.889c0.132,0.268,0.346,0.527,0.641,0.781
		c0.291,0.252,0.712,0.379,1.26,0.379c0.306,0,0.638-0.062,1-0.191c0.357-0.125,0.691-0.396,1-0.809
		c0.105-0.146,0.206-0.307,0.3-0.48c0.092-0.172,0.166-0.312,0.218-0.42l2.259,1.119c-0.254,0.533-0.549,0.975-0.889,1.32
		c-0.34,0.348-0.664,0.621-0.97,0.82c-0.412,0.268-0.88,0.473-1.4,0.619c-0.518,0.148-1.12,0.221-1.8,0.221
		c-0.478,0-0.912-0.047-1.298-0.141c-0.389-0.092-0.73-0.209-1.03-0.35s-0.565-0.299-0.8-0.48c-0.234-0.178-0.43-0.361-0.59-0.549
		c-0.387-0.428-0.696-0.969-0.931-1.629c-0.231-0.66-0.35-1.41-0.35-2.25c0-0.6,0.056-1.143,0.17-1.631
		c0.114-0.484,0.256-0.92,0.43-1.299c0.175-0.381,0.37-0.709,0.591-0.99c0.22-0.279,0.441-0.512,0.67-0.699
		c0.374-0.318,0.83-0.594,1.369-0.818c0.541-0.229,1.177-0.342,1.91-0.342c0.826,0,1.536,0.141,2.128,0.422
		c0.595,0.277,1.099,0.652,1.511,1.117c0.319,0.361,0.569,0.748,0.749,1.16c0.18,0.414,0.316,0.832,0.41,1.25
		c0.094,0.42,0.146,0.828,0.16,1.221s0.014,0.75,0,1.07H108.871z"/>
	<path fill="#010101" d="M123.997,25.738c-0.025-0.266-0.09-0.545-0.188-0.84c-0.102-0.291-0.264-0.553-0.492-0.779
		c-0.119-0.119-0.293-0.236-0.518-0.35c-0.229-0.113-0.514-0.17-0.859-0.17c-0.348,0-0.629,0.057-0.84,0.17
		c-0.215,0.113-0.381,0.23-0.5,0.35c-0.148,0.146-0.281,0.344-0.4,0.59c-0.121,0.248-0.215,0.59-0.281,1.029H123.997z M119.899,27.6
		c0,0.145,0.02,0.375,0.061,0.689c0.039,0.312,0.135,0.609,0.279,0.889c0.133,0.268,0.346,0.527,0.641,0.781
		c0.293,0.252,0.713,0.379,1.26,0.379c0.307,0,0.639-0.062,1-0.191c0.357-0.125,0.691-0.396,1-0.809
		c0.104-0.146,0.207-0.307,0.299-0.48c0.094-0.172,0.168-0.312,0.219-0.42l2.26,1.119c-0.254,0.533-0.549,0.975-0.889,1.32
		c-0.34,0.348-0.664,0.621-0.971,0.82c-0.412,0.268-0.879,0.473-1.4,0.619c-0.518,0.148-1.119,0.221-1.799,0.221
		c-0.479,0-0.912-0.047-1.299-0.141c-0.387-0.092-0.73-0.209-1.029-0.35c-0.301-0.141-0.568-0.299-0.801-0.48
		c-0.234-0.178-0.43-0.361-0.59-0.549c-0.387-0.428-0.695-0.969-0.93-1.629c-0.232-0.66-0.35-1.41-0.35-2.25
		c0-0.6,0.055-1.143,0.17-1.631c0.113-0.484,0.256-0.92,0.43-1.299c0.174-0.381,0.369-0.709,0.59-0.99
		c0.221-0.279,0.441-0.512,0.67-0.699c0.375-0.318,0.83-0.594,1.371-0.818c0.539-0.229,1.176-0.342,1.908-0.342
		c0.826,0,1.537,0.141,2.129,0.422c0.594,0.277,1.098,0.652,1.51,1.117c0.32,0.361,0.57,0.748,0.75,1.16
		c0.18,0.414,0.316,0.832,0.41,1.25c0.094,0.42,0.146,0.828,0.16,1.221s0.014,0.75,0,1.07H119.899z"/>
	<path fill="#010101" d="M131.546,25.799h1.178c0.508,0,0.887-0.033,1.141-0.1c0.254-0.068,0.439-0.154,0.559-0.262
		c0.121-0.104,0.199-0.229,0.23-0.367c0.033-0.141,0.051-0.271,0.051-0.391c0-0.107-0.016-0.225-0.041-0.35
		c-0.025-0.129-0.086-0.244-0.18-0.35c-0.08-0.094-0.186-0.168-0.32-0.221c-0.131-0.055-0.273-0.094-0.42-0.119
		c-0.146-0.027-0.289-0.047-0.43-0.061s-0.256-0.02-0.35-0.02h-1.418V25.799z M131.485,30.297h1.498c0.359,0,0.709-0.033,1.051-0.1
		c0.34-0.066,0.59-0.205,0.75-0.42c0.105-0.133,0.168-0.271,0.18-0.42c0.014-0.146,0.02-0.271,0.02-0.379
		c0-0.16-0.016-0.32-0.051-0.48c-0.033-0.16-0.129-0.307-0.289-0.439c-0.105-0.094-0.285-0.178-0.529-0.25
		c-0.246-0.072-0.623-0.111-1.131-0.111h-1.498V30.297z M128.505,21.68h5.279c0.398,0,0.838,0.025,1.309,0.08
		c0.475,0.055,0.885,0.154,1.23,0.301c0.439,0.188,0.785,0.455,1.041,0.809c0.254,0.352,0.379,0.816,0.379,1.391
		c0,0.598-0.119,1.066-0.359,1.398c-0.24,0.334-0.475,0.568-0.701,0.699c-0.199,0.121-0.428,0.211-0.68,0.271
		c-0.252,0.059-0.488,0.098-0.699,0.109c0.291,0.027,0.6,0.078,0.92,0.148c0.32,0.074,0.592,0.18,0.82,0.311
		c0.385,0.215,0.656,0.488,0.809,0.82c0.152,0.334,0.23,0.754,0.23,1.26c0,0.707-0.154,1.25-0.459,1.631
		c-0.309,0.379-0.66,0.662-1.061,0.85c-0.215,0.092-0.443,0.166-0.689,0.221c-0.246,0.053-0.488,0.096-0.721,0.129
		s-0.436,0.055-0.609,0.061c-0.172,0.006-0.293,0.01-0.361,0.01h-5.678V21.68z"/>
	<path fill="#010101" d="M146.632,25.178c-0.094-0.186-0.211-0.373-0.35-0.559c-0.141-0.186-0.285-0.332-0.432-0.441
		c-0.145-0.105-0.322-0.195-0.529-0.27c-0.205-0.072-0.443-0.109-0.709-0.109c-0.348,0-0.65,0.059-0.91,0.17
		c-0.262,0.113-0.484,0.256-0.67,0.43c-0.213,0.201-0.41,0.5-0.592,0.9c-0.18,0.4-0.268,0.947-0.268,1.641
		c0,0.639,0.072,1.135,0.219,1.488c0.148,0.354,0.273,0.611,0.379,0.771c0.16,0.225,0.377,0.43,0.65,0.607
		c0.275,0.18,0.631,0.27,1.07,0.27c0.199,0,0.43-0.027,0.689-0.09c0.26-0.059,0.51-0.188,0.75-0.391
		c0.201-0.158,0.365-0.344,0.49-0.557c0.127-0.215,0.223-0.4,0.291-0.561l2.258,1.24c-0.186,0.346-0.422,0.686-0.711,1.018
		c-0.285,0.334-0.615,0.635-0.988,0.9c-0.508,0.348-1.02,0.584-1.539,0.709c-0.52,0.127-1.014,0.191-1.48,0.191
		c-0.654,0-1.285-0.1-1.9-0.301c-0.611-0.199-1.145-0.5-1.598-0.898c-0.439-0.387-0.83-0.928-1.17-1.619
		c-0.34-0.693-0.51-1.574-0.51-2.641c0-0.934,0.137-1.756,0.41-2.469c0.271-0.713,0.643-1.303,1.107-1.77
		c0.174-0.174,0.381-0.352,0.623-0.531c0.24-0.178,0.521-0.338,0.848-0.48c0.326-0.139,0.695-0.256,1.109-0.35
		c0.414-0.092,0.875-0.139,1.381-0.139c0.453,0,0.934,0.053,1.439,0.16s0.992,0.332,1.461,0.678c0.305,0.229,0.58,0.484,0.818,0.771
		s0.447,0.59,0.619,0.91L146.632,25.178z"/>
	<path fill="#010101" d="M153.954,25.459c0.135,0,0.334-0.02,0.6-0.061c0.27-0.039,0.494-0.166,0.682-0.379
		c0.133-0.146,0.229-0.32,0.289-0.52c0.061-0.201,0.109-0.406,0.15-0.621l0.141-0.721c0.053-0.238,0.125-0.49,0.219-0.76
		c0.092-0.266,0.314-0.506,0.66-0.719h2.857c-0.197,0.24-0.346,0.473-0.438,0.699c-0.094,0.229-0.174,0.508-0.242,0.84l-0.197,1.16
		c-0.055,0.295-0.121,0.578-0.201,0.85c-0.08,0.273-0.254,0.523-0.52,0.75c-0.148,0.135-0.32,0.246-0.52,0.34
		s-0.395,0.16-0.58,0.201c0.199,0.039,0.461,0.119,0.779,0.24c0.32,0.117,0.607,0.311,0.861,0.58c0.24,0.266,0.398,0.541,0.479,0.83
		c0.08,0.285,0.152,0.596,0.221,0.928l0.178,1.021c0.055,0.266,0.104,0.488,0.152,0.67c0.047,0.178,0.096,0.336,0.148,0.469
		c0.068,0.188,0.148,0.354,0.24,0.5c0.094,0.146,0.193,0.287,0.299,0.42h-3.098c-0.229-0.213-0.408-0.473-0.539-0.781
		c-0.068-0.186-0.131-0.396-0.191-0.639c-0.059-0.24-0.104-0.453-0.129-0.639l-0.121-0.742c-0.039-0.227-0.104-0.461-0.189-0.709
		c-0.086-0.246-0.256-0.451-0.51-0.609c-0.146-0.094-0.334-0.168-0.561-0.219c-0.225-0.055-0.439-0.08-0.639-0.08h-1.121v4.418
		h-3.059V21.68h3.059v3.779H153.954z"/>
	<path fill="#010101" d="M167.124,27.158l-0.637,0.16c-0.707,0.188-1.244,0.338-1.611,0.451c-0.367,0.111-0.65,0.242-0.85,0.389
		c-0.188,0.146-0.314,0.297-0.379,0.449c-0.066,0.154-0.102,0.33-0.102,0.531c0,0.266,0.051,0.475,0.15,0.629s0.211,0.27,0.33,0.35
		c0.121,0.08,0.256,0.139,0.41,0.17c0.152,0.035,0.305,0.051,0.449,0.051c0.361,0,0.686-0.064,0.971-0.189
		c0.285-0.127,0.521-0.303,0.711-0.531c0.145-0.186,0.275-0.432,0.389-0.74c0.113-0.305,0.168-0.68,0.168-1.117V27.158z
		 M170.124,30.477c-0.012,0.508,0.01,0.881,0.07,1.121s0.139,0.434,0.23,0.58h-2.898c-0.068-0.213-0.109-0.404-0.129-0.57
		c-0.023-0.166-0.031-0.324-0.031-0.471v-0.119c-0.799,1-1.873,1.5-3.219,1.5c-0.494,0-0.951-0.07-1.371-0.211
		c-0.42-0.139-0.781-0.342-1.09-0.609c-0.307-0.266-0.547-0.594-0.721-0.98c-0.174-0.385-0.258-0.826-0.258-1.318
		c0-0.227,0.027-0.482,0.08-0.771c0.053-0.285,0.158-0.572,0.318-0.857c0.16-0.287,0.385-0.564,0.67-0.832
		c0.287-0.266,0.67-0.492,1.15-0.678c0.373-0.148,0.785-0.271,1.24-0.371c0.453-0.1,0.959-0.209,1.52-0.33l1.438-0.299v-0.461
		c0-0.174-0.018-0.373-0.057-0.6c-0.041-0.227-0.154-0.42-0.342-0.58c-0.158-0.133-0.354-0.213-0.578-0.24
		c-0.229-0.027-0.389-0.039-0.48-0.039c-0.346,0-0.609,0.039-0.781,0.119c-0.174,0.08-0.279,0.135-0.318,0.16
		c-0.135,0.107-0.244,0.246-0.33,0.42c-0.086,0.172-0.131,0.367-0.131,0.58v0.061h-2.98v-0.041c0-0.16,0.014-0.336,0.041-0.529
		s0.082-0.396,0.162-0.609c0.078-0.215,0.191-0.428,0.338-0.641c0.148-0.215,0.34-0.414,0.58-0.6
		c0.105-0.08,0.254-0.172,0.439-0.281c0.188-0.105,0.424-0.205,0.711-0.299c0.285-0.092,0.625-0.172,1.02-0.24
		c0.391-0.066,0.855-0.1,1.389-0.1c0.682,0,1.221,0.043,1.619,0.129c0.402,0.088,0.699,0.17,0.902,0.25
		c0.412,0.16,0.742,0.365,0.988,0.611c0.248,0.248,0.434,0.516,0.559,0.809c0.127,0.295,0.211,0.598,0.25,0.91
		c0.041,0.312,0.061,0.617,0.061,0.91L170.124,30.477z"/>
	<path fill="#010101" d="M176.831,23.82c-0.305,0-0.596,0.025-0.867,0.08c-0.273,0.053-0.49,0.172-0.65,0.359
		c-0.094,0.105-0.154,0.223-0.18,0.348c-0.025,0.129-0.041,0.258-0.041,0.393c0,0.119,0.021,0.246,0.061,0.379
		c0.041,0.133,0.111,0.252,0.221,0.359c0.186,0.174,0.416,0.279,0.689,0.32c0.271,0.039,0.521,0.061,0.75,0.061h1.578V23.82H176.831
		z M181.452,32.178h-3.061v-3.92h-0.939c-0.227,0-0.482,0.033-0.77,0.1c-0.287,0.068-0.51,0.168-0.67,0.301
		c-0.188,0.145-0.318,0.334-0.398,0.559c-0.08,0.229-0.135,0.414-0.16,0.561l-0.141,0.701c-0.027,0.145-0.055,0.283-0.08,0.408
		c-0.027,0.127-0.086,0.297-0.18,0.512c-0.066,0.146-0.141,0.281-0.221,0.41c-0.08,0.125-0.193,0.25-0.34,0.369h-3.08
		c0.109-0.133,0.207-0.273,0.301-0.42s0.174-0.314,0.24-0.5c0.094-0.227,0.164-0.445,0.209-0.66c0.047-0.213,0.09-0.406,0.131-0.58
		l0.16-0.641c0.068-0.225,0.146-0.451,0.24-0.68c0.092-0.227,0.238-0.434,0.439-0.619c0.16-0.146,0.383-0.277,0.67-0.391
		c0.285-0.111,0.564-0.188,0.83-0.23c-0.348-0.025-0.705-0.102-1.07-0.229s-0.664-0.303-0.891-0.529
		c-0.199-0.188-0.361-0.447-0.49-0.779c-0.125-0.334-0.189-0.729-0.189-1.18c0-0.508,0.096-0.961,0.291-1.361
		c0.193-0.398,0.443-0.719,0.75-0.959c0.199-0.16,0.422-0.291,0.67-0.391s0.496-0.178,0.75-0.23c0.252-0.051,0.496-0.086,0.729-0.1
		s0.438-0.02,0.611-0.02h5.658V32.178z"/>
	<path fill="#010101" d="M191.769,21.68l1.76,7.598l1.781-7.598h3.197l-3.479,10.836c-0.133,0.414-0.279,0.812-0.439,1.191
		c-0.16,0.381-0.354,0.723-0.58,1.029c-0.334,0.428-0.725,0.723-1.17,0.889c-0.445,0.168-0.984,0.25-1.609,0.25
		c-0.107,0-0.291-0.002-0.551-0.01c-0.26-0.006-0.637-0.041-1.127-0.107v-2.48c0.172,0.025,0.352,0.043,0.537,0.051
		c0.188,0.006,0.354,0.01,0.5,0.01c0.359,0,0.68-0.055,0.961-0.16c0.279-0.107,0.42-0.334,0.42-0.68
		c0-0.215-0.047-0.453-0.141-0.721c-0.094-0.266-0.174-0.514-0.24-0.74l-3.078-9.357H191.769z"/>
	<path fill="#010101" d="M208.425,21.68v10.498h-3.059V24.18h-2.182l-0.098,1.221c-0.068,0.799-0.137,1.52-0.209,2.158
		c-0.074,0.639-0.211,1.268-0.41,1.879c-0.174,0.533-0.391,0.99-0.65,1.371c-0.26,0.379-0.625,0.709-1.09,0.988
		c-0.346,0.215-0.76,0.377-1.24,0.49s-1.061,0.131-1.74,0.051v-2.439c0.24,0.014,0.48-0.004,0.721-0.051s0.465-0.15,0.68-0.311
		c0.334-0.252,0.568-0.582,0.699-0.99c0.133-0.404,0.234-0.795,0.301-1.17c0.039-0.252,0.08-0.545,0.119-0.877
		c0.041-0.334,0.08-0.674,0.121-1.02c0.039-0.35,0.074-0.689,0.1-1.021c0.025-0.334,0.047-0.619,0.061-0.859l0.139-1.92H208.425z"/>
	<polygon fill="#010101" points="210.513,21.68 213.571,21.68 213.571,27.197 217.29,22.959 217.29,21.68 220.351,21.68 
		220.351,32.178 217.29,32.178 217.304,26.5 213.571,30.738 213.571,32.178 210.513,32.178 	"/>
	<polygon fill="#010101" points="225.497,21.68 225.497,29.838 228.335,29.838 228.335,21.68 231.394,21.68 231.394,29.697 
		232.755,29.697 232.755,34.557 229.874,34.557 229.874,32.178 222.437,32.178 222.437,21.68 	"/>
	<path fill="#010101" d="M240.026,27.158l-0.639,0.16c-0.707,0.188-1.244,0.338-1.611,0.451c-0.367,0.111-0.648,0.242-0.85,0.389
		c-0.188,0.146-0.312,0.297-0.379,0.449c-0.066,0.154-0.1,0.33-0.1,0.531c0,0.266,0.049,0.475,0.15,0.629
		c0.1,0.154,0.209,0.27,0.328,0.35c0.121,0.08,0.258,0.139,0.41,0.17c0.152,0.035,0.303,0.051,0.451,0.051
		c0.359,0,0.682-0.064,0.969-0.189c0.287-0.127,0.523-0.303,0.711-0.531c0.146-0.186,0.275-0.432,0.391-0.74
		c0.111-0.305,0.168-0.68,0.168-1.117V27.158z M243.026,30.477c-0.016,0.508,0.01,0.881,0.068,1.121
		c0.061,0.24,0.139,0.434,0.23,0.58h-2.9c-0.064-0.213-0.107-0.404-0.129-0.57c-0.02-0.166-0.027-0.324-0.027-0.471v-0.119
		c-0.801,1-1.875,1.5-3.221,1.5c-0.494,0-0.949-0.07-1.371-0.211c-0.42-0.139-0.783-0.342-1.09-0.609
		c-0.305-0.266-0.545-0.594-0.719-0.98c-0.174-0.385-0.26-0.826-0.26-1.318c0-0.227,0.027-0.482,0.08-0.771
		c0.053-0.285,0.16-0.572,0.318-0.857c0.16-0.287,0.385-0.564,0.67-0.832c0.287-0.266,0.672-0.492,1.15-0.678
		c0.373-0.148,0.787-0.271,1.24-0.371s0.959-0.209,1.52-0.33l1.439-0.299v-0.461c0-0.174-0.02-0.373-0.059-0.6
		c-0.041-0.227-0.154-0.42-0.34-0.58c-0.16-0.133-0.354-0.213-0.58-0.24c-0.229-0.027-0.389-0.039-0.48-0.039
		c-0.348,0-0.607,0.039-0.779,0.119c-0.174,0.08-0.281,0.135-0.32,0.16c-0.135,0.107-0.244,0.246-0.33,0.42
		c-0.088,0.172-0.131,0.367-0.131,0.58v0.061h-2.979v-0.041c0-0.16,0.014-0.336,0.039-0.529c0.027-0.193,0.08-0.396,0.16-0.609
		c0.08-0.215,0.193-0.428,0.34-0.641c0.146-0.215,0.34-0.414,0.58-0.6c0.105-0.08,0.252-0.172,0.439-0.281
		c0.189-0.105,0.424-0.205,0.711-0.299c0.285-0.092,0.625-0.172,1.02-0.24c0.393-0.066,0.855-0.1,1.391-0.1
		c0.68,0,1.219,0.043,1.617,0.129c0.402,0.088,0.701,0.17,0.902,0.25c0.412,0.16,0.742,0.365,0.988,0.611
		c0.246,0.248,0.434,0.516,0.561,0.809c0.125,0.295,0.209,0.598,0.25,0.91c0.039,0.312,0.059,0.617,0.059,0.91L243.026,30.477z"/>
	<path fill="#010101" d="M251.104,22.74c0-1.441,0.459-2.551,1.377-3.33c0.922-0.779,2.234-1.17,3.941-1.17
		c1.639,0,2.883,0.338,3.729,1.012c0.846,0.672,1.271,1.627,1.271,2.867c0,1.373-0.695,2.285-2.08,2.74
		c0.785,0.293,1.385,0.732,1.799,1.32c0.412,0.586,0.621,1.277,0.621,2.078c0,1.293-0.469,2.309-1.4,3.049
		c-0.934,0.74-2.24,1.111-3.92,1.111c-1.826,0-3.229-0.391-4.209-1.17c-0.979-0.781-1.469-1.871-1.469-3.27v-0.08l3.34-0.398v0.197
		c0,0.748,0.191,1.32,0.58,1.721c0.383,0.398,0.938,0.6,1.658,0.6c0.627,0,1.119-0.172,1.479-0.52
		c0.361-0.348,0.541-0.787,0.541-1.32c0-0.707-0.189-1.188-0.57-1.449c-0.381-0.26-0.99-0.389-1.83-0.389
		c-0.146,0-0.303,0.002-0.471,0.01c-0.166,0.006-0.344,0.016-0.527,0.029v-2.32c0.238,0.016,0.451,0.025,0.641,0.031
		c0.186,0.006,0.346,0.01,0.477,0.01c1.32,0,1.98-0.566,1.98-1.701c0-0.559-0.154-0.98-0.459-1.27
		c-0.307-0.285-0.74-0.43-1.299-0.43c-0.602,0-1.078,0.17-1.43,0.51c-0.354,0.34-0.529,0.791-0.529,1.35
		c0,0.268,0.018,0.521,0.057,0.76l-3.297-0.537V22.74z"/>
	<path fill="#010101" d="M262.837,21.301V18.52h10.278v2.52c-1.589,1.762-2.78,3.537-3.579,5.33
		c-0.801,1.793-1.227,3.729-1.281,5.809h-4.037c0.225-1.613,0.812-3.326,1.758-5.141c0.947-1.811,2.268-3.725,3.959-5.736H262.837z"
		/>
	<polygon fill="#010101" points="271.558,34.037 277.154,17.74 279.194,17.74 273.597,34.037 	"/>
	<path fill="#010101" d="M278.996,29.537c1.146-0.773,2.16-1.475,3.04-2.109c0.878-0.631,1.62-1.225,2.218-1.77
		c0.601-0.547,1.054-1.066,1.362-1.559c0.304-0.494,0.458-0.986,0.458-1.48c0-0.533-0.162-0.963-0.49-1.289
		c-0.326-0.326-0.77-0.49-1.33-0.49c-0.666,0-1.178,0.197-1.538,0.59c-0.359,0.395-0.54,0.951-0.54,1.67
		c0,0.252,0.022,0.492,0.07,0.721c0.046,0.227,0.122,0.451,0.229,0.678l-3.14-0.398c-0.052-0.268-0.092-0.514-0.12-0.74
		c-0.025-0.227-0.04-0.434-0.04-0.619c0-0.654,0.122-1.254,0.37-1.801c0.246-0.545,0.601-1.016,1.061-1.41
		c0.46-0.391,1.014-0.699,1.659-0.92c0.646-0.219,1.368-0.328,2.171-0.328c0.758,0,1.438,0.107,2.037,0.318
		c0.601,0.215,1.111,0.514,1.531,0.9c0.42,0.389,0.742,0.859,0.969,1.42s0.34,1.18,0.34,1.859c0,0.641-0.119,1.232-0.359,1.781
		c-0.24,0.545-0.596,1.076-1.07,1.588c-0.472,0.514-1.065,1.023-1.779,1.529c-0.713,0.508-1.551,1.047-2.511,1.621h6.04v2.879
		h-10.638V29.537z"/>
</g>
</svg>
